<?xml version="1.0" encoding="utf-8" standalone="no"?>
<!DOCTYPE svg PUBLIC "-//W3C//DTD SVG 1.1//EN"
  "http://www.w3.org/Graphics/SVG/1.1/DTD/svg11.dtd">
<svg xmlns:xlink="http://www.w3.org/1999/xlink" width="1440pt" height="432pt" viewBox="0 0 1440 432" xmlns="http://www.w3.org/2000/svg" version="1.1">
 <metadata>
  <rdf:RDF xmlns:dc="http://purl.org/dc/elements/1.1/" xmlns:cc="http://creativecommons.org/ns#" xmlns:rdf="http://www.w3.org/1999/02/22-rdf-syntax-ns#">
   <cc:Work>
    <dc:type rdf:resource="http://purl.org/dc/dcmitype/StillImage"/>
    <dc:date>2023-09-18T16:49:10.793877</dc:date>
    <dc:format>image/svg+xml</dc:format>
    <dc:creator>
     <cc:Agent>
      <dc:title>Matplotlib v3.7.1, https://matplotlib.org/</dc:title>
     </cc:Agent>
    </dc:creator>
   </cc:Work>
  </rdf:RDF>
 </metadata>
 <defs>
  <style type="text/css">*{stroke-linejoin: round; stroke-linecap: butt}</style>
 </defs>
 <g id="figure_1">
  <g id="patch_1">
   <path d="M 0 432 
L 1440 432 
L 1440 0 
L 0 0 
L 0 432 
z
" style="fill: none"/>
  </g>
  <g id="axes_1">
   <g id="patch_2">
    <path d="M 180 384.48 
L 1296 384.48 
L 1296 51.84 
L 180 51.84 
L 180 384.48 
z
" style="fill: none"/>
   </g>
   <g id="PolyCollection_1">
    <defs>
     <path id="m6ef3c31999" d="M 310.568851 -68.688 
L 272.631149 -68.688 
L 270.986875 -71.314909 
L 269.375316 -73.941818 
L 267.817739 -76.568727 
L 266.333728 -79.195636 
L 264.940502 -81.822545 
L 263.652364 -84.449455 
L 262.480308 -87.076364 
L 261.431793 -89.703273 
L 260.510687 -92.330182 
L 259.717359 -94.957091 
L 259.048912 -97.584 
L 258.499506 -100.210909 
L 258.060763 -102.837818 
L 257.722212 -105.464727 
L 257.471753 -108.091636 
L 257.296141 -110.718545 
L 257.181452 -113.345455 
L 257.113557 -115.972364 
L 257.078585 -118.599273 
L 257.063385 -121.226182 
L 257.05597 -123.853091 
L 257.045953 -126.48 
L 257.024927 -129.106909 
L 256.986794 -131.733818 
L 256.927983 -134.360727 
L 256.847543 -136.987636 
L 256.747075 -139.614545 
L 256.630485 -142.241455 
L 256.503556 -144.868364 
L 256.373345 -147.495273 
L 256.24745 -150.122182 
L 256.133189 -152.749091 
L 256.036762 -155.376 
L 255.962473 -158.002909 
L 255.912073 -160.629818 
L 255.884311 -163.256727 
L 255.874723 -165.883636 
L 255.875707 -168.510545 
L 255.876864 -171.137455 
L 255.865605 -173.764364 
L 255.827953 -176.391273 
L 255.749484 -179.018182 
L 255.616323 -181.645091 
L 255.41611 -184.272 
L 255.138847 -186.898909 
L 254.777573 -189.525818 
L 254.32881 -192.152727 
L 253.792751 -194.779636 
L 253.173196 -197.406545 
L 252.477264 -200.033455 
L 251.714905 -202.660364 
L 250.898291 -205.287273 
L 250.041141 -207.914182 
L 249.158047 -210.541091 
L 248.263864 -213.168 
L 247.373216 -215.794909 
L 246.500141 -218.421818 
L 245.657903 -221.048727 
L 244.858957 -223.675636 
L 244.115042 -226.302545 
L 243.437378 -228.929455 
L 242.836906 -231.556364 
L 242.324523 -234.183273 
L 241.911277 -236.810182 
L 241.608448 -239.437091 
L 241.427519 -242.064 
L 241.38 -244.690909 
L 241.477102 -247.317818 
L 241.729302 -249.944727 
L 242.145806 -252.571636 
L 242.733971 -255.198545 
L 243.498732 -257.825455 
L 244.442084 -260.452364 
L 245.562673 -263.079273 
L 246.855537 -265.706182 
L 248.312015 -268.333091 
L 249.919848 -270.96 
L 251.66347 -273.586909 
L 253.524451 -276.213818 
L 255.48209 -278.840727 
L 257.514087 -281.467636 
L 259.597279 -284.094545 
L 261.708364 -286.721455 
L 263.824591 -289.348364 
L 265.924379 -291.975273 
L 267.987821 -294.602182 
L 269.997084 -297.229091 
L 271.936676 -299.856 
L 273.793603 -302.482909 
L 275.557406 -305.109818 
L 277.220122 -307.736727 
L 278.776161 -310.363636 
L 280.222135 -312.990545 
L 281.556654 -315.617455 
L 282.780093 -318.244364 
L 283.894363 -320.871273 
L 284.902671 -323.498182 
L 285.809294 -326.125091 
L 286.619357 -328.752 
L 296.580643 -328.752 
L 296.580643 -328.752 
L 297.390706 -326.125091 
L 298.297329 -323.498182 
L 299.305637 -320.871273 
L 300.419907 -318.244364 
L 301.643346 -315.617455 
L 302.977865 -312.990545 
L 304.423839 -310.363636 
L 305.979878 -307.736727 
L 307.642594 -305.109818 
L 309.406397 -302.482909 
L 311.263324 -299.856 
L 313.202916 -297.229091 
L 315.212179 -294.602182 
L 317.275621 -291.975273 
L 319.375409 -289.348364 
L 321.491636 -286.721455 
L 323.602721 -284.094545 
L 325.685913 -281.467636 
L 327.71791 -278.840727 
L 329.675549 -276.213818 
L 331.53653 -273.586909 
L 333.280152 -270.96 
L 334.887985 -268.333091 
L 336.344463 -265.706182 
L 337.637327 -263.079273 
L 338.757916 -260.452364 
L 339.701268 -257.825455 
L 340.466029 -255.198545 
L 341.054194 -252.571636 
L 341.470698 -249.944727 
L 341.722898 -247.317818 
L 341.82 -244.690909 
L 341.772481 -242.064 
L 341.591552 -239.437091 
L 341.288723 -236.810182 
L 340.875477 -234.183273 
L 340.363094 -231.556364 
L 339.762622 -228.929455 
L 339.084958 -226.302545 
L 338.341043 -223.675636 
L 337.542097 -221.048727 
L 336.699859 -218.421818 
L 335.826784 -215.794909 
L 334.936136 -213.168 
L 334.041953 -210.541091 
L 333.158859 -207.914182 
L 332.301709 -205.287273 
L 331.485095 -202.660364 
L 330.722736 -200.033455 
L 330.026804 -197.406545 
L 329.407249 -194.779636 
L 328.87119 -192.152727 
L 328.422427 -189.525818 
L 328.061153 -186.898909 
L 327.78389 -184.272 
L 327.583677 -181.645091 
L 327.450516 -179.018182 
L 327.372047 -176.391273 
L 327.334395 -173.764364 
L 327.323136 -171.137455 
L 327.324293 -168.510545 
L 327.325277 -165.883636 
L 327.315689 -163.256727 
L 327.287927 -160.629818 
L 327.237527 -158.002909 
L 327.163238 -155.376 
L 327.066811 -152.749091 
L 326.95255 -150.122182 
L 326.826655 -147.495273 
L 326.696444 -144.868364 
L 326.569515 -142.241455 
L 326.452925 -139.614545 
L 326.352457 -136.987636 
L 326.272017 -134.360727 
L 326.213206 -131.733818 
L 326.175073 -129.106909 
L 326.154047 -126.48 
L 326.14403 -123.853091 
L 326.136615 -121.226182 
L 326.121415 -118.599273 
L 326.086443 -115.972364 
L 326.018548 -113.345455 
L 325.903859 -110.718545 
L 325.728247 -108.091636 
L 325.477788 -105.464727 
L 325.139237 -102.837818 
L 324.700494 -100.210909 
L 324.151088 -97.584 
L 323.482641 -94.957091 
L 322.689313 -92.330182 
L 321.768207 -89.703273 
L 320.719692 -87.076364 
L 319.547636 -84.449455 
L 318.259498 -81.822545 
L 316.866272 -79.195636 
L 315.382261 -76.568727 
L 313.824684 -73.941818 
L 312.213125 -71.314909 
L 310.568851 -68.688 
z
" style="stroke: #282724; stroke-width: 1.4"/>
    </defs>
    <g clip-path="url(#p6825af84ef)">
     <use xlink:href="#m6ef3c31999" x="0" y="432" style="fill: #edbdb9; stroke: #282724; stroke-width: 1.4"/>
    </g>
   </g>
   <g id="PolyCollection_2">
    <defs>
     <path id="m773aaa7ef7" d="M 518.719326 -77.76 
L 510.880674 -77.76 
L 510.355147 -80.661818 
L 509.814117 -83.563636 
L 509.260491 -86.465455 
L 508.696178 -89.367273 
L 508.122534 -92.269091 
L 507.540989 -95.170909 
L 506.953737 -98.072727 
L 506.364287 -100.974545 
L 505.777701 -103.876364 
L 505.200443 -106.778182 
L 504.639764 -109.68 
L 504.102733 -112.581818 
L 503.595035 -115.483636 
L 503.119745 -118.385455 
L 502.676297 -121.287273 
L 502.259826 -124.189091 
L 501.861021 -127.090909 
L 501.466523 -129.992727 
L 501.059855 -132.894545 
L 500.622764 -135.796364 
L 500.136823 -138.698182 
L 499.585122 -141.6 
L 498.953835 -144.501818 
L 498.233513 -147.403636 
L 497.419923 -150.305455 
L 496.514361 -153.207273 
L 495.523366 -156.109091 
L 494.457869 -159.010909 
L 493.331857 -161.912727 
L 492.16072 -164.814545 
L 490.959484 -167.716364 
L 489.741188 -170.618182 
L 488.515616 -173.52 
L 487.28859 -176.421818 
L 486.061921 -179.323636 
L 484.834025 -182.225455 
L 483.601094 -185.127273 
L 482.358659 -188.029091 
L 481.103276 -190.930909 
L 479.834091 -193.832727 
L 478.554055 -196.734545 
L 477.270593 -199.636364 
L 475.995653 -202.538182 
L 474.745093 -205.44 
L 473.537496 -208.341818 
L 472.392536 -211.243636 
L 471.329092 -214.145455 
L 470.36334 -217.047273 
L 469.507056 -219.949091 
L 468.766329 -222.850909 
L 468.140878 -225.752727 
L 467.624037 -228.654545 
L 467.203457 -231.556364 
L 466.86242 -234.458182 
L 466.581647 -237.36 
L 466.341367 -240.261818 
L 466.123441 -243.163636 
L 465.913279 -246.065455 
L 465.701365 -248.967273 
L 465.484213 -251.869091 
L 465.264672 -254.770909 
L 465.051549 -257.672727 
L 464.858616 -260.574545 
L 464.703125 -263.476364 
L 464.604009 -266.378182 
L 464.58 -269.28 
L 464.64788 -272.181818 
L 464.82106 -275.083636 
L 465.108636 -277.985455 
L 465.514974 -280.887273 
L 466.039818 -283.789091 
L 466.678792 -286.690909 
L 467.424174 -289.592727 
L 468.26574 -292.494545 
L 469.191544 -295.396364 
L 470.188528 -298.298182 
L 471.242938 -301.2 
L 472.340607 -304.101818 
L 473.467204 -307.003636 
L 474.608586 -309.905455 
L 475.751355 -312.807273 
L 476.883689 -315.709091 
L 477.99641 -318.610909 
L 479.084178 -321.512727 
L 480.146634 -324.414545 
L 481.189255 -327.316364 
L 482.223697 -330.218182 
L 483.26743 -333.12 
L 484.342583 -336.021818 
L 485.473991 -338.923636 
L 486.686606 -341.825455 
L 488.002518 -344.727273 
L 489.437964 -347.629091 
L 491.000704 -350.530909 
L 492.688156 -353.432727 
L 494.486586 -356.334545 
L 496.371518 -359.236364 
L 498.309356 -362.138182 
L 500.260038 -365.04 
L 529.339962 -365.04 
L 529.339962 -365.04 
L 531.290644 -362.138182 
L 533.228482 -359.236364 
L 535.113414 -356.334545 
L 536.911844 -353.432727 
L 538.599296 -350.530909 
L 540.162036 -347.629091 
L 541.597482 -344.727273 
L 542.913394 -341.825455 
L 544.126009 -338.923636 
L 545.257417 -336.021818 
L 546.33257 -333.12 
L 547.376303 -330.218182 
L 548.410745 -327.316364 
L 549.453366 -324.414545 
L 550.515822 -321.512727 
L 551.60359 -318.610909 
L 552.716311 -315.709091 
L 553.848645 -312.807273 
L 554.991414 -309.905455 
L 556.132796 -307.003636 
L 557.259393 -304.101818 
L 558.357062 -301.2 
L 559.411472 -298.298182 
L 560.408456 -295.396364 
L 561.33426 -292.494545 
L 562.175826 -289.592727 
L 562.921208 -286.690909 
L 563.560182 -283.789091 
L 564.085026 -280.887273 
L 564.491364 -277.985455 
L 564.77894 -275.083636 
L 564.95212 -272.181818 
L 565.02 -269.28 
L 564.995991 -266.378182 
L 564.896875 -263.476364 
L 564.741384 -260.574545 
L 564.548451 -257.672727 
L 564.335328 -254.770909 
L 564.115787 -251.869091 
L 563.898635 -248.967273 
L 563.686721 -246.065455 
L 563.476559 -243.163636 
L 563.258633 -240.261818 
L 563.018353 -237.36 
L 562.73758 -234.458182 
L 562.396543 -231.556364 
L 561.975963 -228.654545 
L 561.459122 -225.752727 
L 560.833671 -222.850909 
L 560.092944 -219.949091 
L 559.23666 -217.047273 
L 558.270908 -214.145455 
L 557.207464 -211.243636 
L 556.062504 -208.341818 
L 554.854907 -205.44 
L 553.604347 -202.538182 
L 552.329407 -199.636364 
L 551.045945 -196.734545 
L 549.765909 -193.832727 
L 548.496724 -190.930909 
L 547.241341 -188.029091 
L 545.998906 -185.127273 
L 544.765975 -182.225455 
L 543.538079 -179.323636 
L 542.31141 -176.421818 
L 541.084384 -173.52 
L 539.858812 -170.618182 
L 538.640516 -167.716364 
L 537.43928 -164.814545 
L 536.268143 -161.912727 
L 535.142131 -159.010909 
L 534.076634 -156.109091 
L 533.085639 -153.207273 
L 532.180077 -150.305455 
L 531.366487 -147.403636 
L 530.646165 -144.501818 
L 530.014878 -141.6 
L 529.463177 -138.698182 
L 528.977236 -135.796364 
L 528.540145 -132.894545 
L 528.133477 -129.992727 
L 527.738979 -127.090909 
L 527.340174 -124.189091 
L 526.923703 -121.287273 
L 526.480255 -118.385455 
L 526.004965 -115.483636 
L 525.497267 -112.581818 
L 524.960236 -109.68 
L 524.399557 -106.778182 
L 523.822299 -103.876364 
L 523.235713 -100.974545 
L 522.646263 -98.072727 
L 522.059011 -95.170909 
L 521.477466 -92.269091 
L 520.903822 -89.367273 
L 520.339509 -86.465455 
L 519.785883 -83.563636 
L 519.244853 -80.661818 
L 518.719326 -77.76 
z
" style="stroke: #282724; stroke-width: 1.4"/>
    </defs>
    <g clip-path="url(#p6825af84ef)">
     <use xlink:href="#m773aaa7ef7" x="0" y="432" style="fill: #bbcadc; stroke: #282724; stroke-width: 1.4"/>
    </g>
   </g>
   <g id="PolyCollection_3">
    <defs>
     <path id="m2cffbc7953" d="M 742.175461 -62.64 
L 733.824539 -62.64 
L 733.0545 -65.694545 
L 732.207008 -68.749091 
L 731.286201 -71.803636 
L 730.298522 -74.858182 
L 729.252791 -77.912727 
L 728.160198 -80.967273 
L 727.034203 -84.021818 
L 725.890309 -87.076364 
L 724.745693 -90.130909 
L 723.61867 -93.185455 
L 722.528003 -96.24 
L 721.492057 -99.294545 
L 720.527837 -102.349091 
L 719.649966 -105.403636 
L 718.869675 -108.458182 
L 718.193901 -111.512727 
L 717.624573 -114.567273 
L 717.158193 -117.621818 
L 716.785775 -120.676364 
L 716.493199 -123.730909 
L 716.26197 -126.785455 
L 716.070368 -129.84 
L 715.894879 -132.894545 
L 715.7118 -135.949091 
L 715.498843 -139.003636 
L 715.236583 -142.058182 
L 714.909572 -145.112727 
L 714.507026 -148.167273 
L 714.023 -151.221818 
L 713.45609 -154.276364 
L 712.808738 -157.330909 
L 712.0863 -160.385455 
L 711.296051 -163.44 
L 710.446308 -166.494545 
L 709.545803 -169.549091 
L 708.603356 -172.603636 
L 707.627841 -175.658182 
L 706.628335 -178.712727 
L 705.614314 -181.767273 
L 704.595725 -184.821818 
L 703.582843 -187.876364 
L 702.585834 -190.930909 
L 701.614072 -193.985455 
L 700.675315 -197.04 
L 699.774909 -200.094545 
L 698.91519 -203.149091 
L 698.095246 -206.203636 
L 697.311125 -209.258182 
L 696.556499 -212.312727 
L 695.823696 -215.367273 
L 695.10497 -218.421818 
L 694.393801 -221.476364 
L 693.686046 -224.530909 
L 692.980778 -227.585455 
L 692.280699 -230.64 
L 691.592103 -233.694545 
L 690.924414 -236.749091 
L 690.289394 -239.803636 
L 689.700152 -242.858182 
L 689.170076 -245.912727 
L 688.711814 -248.967273 
L 688.336394 -252.021818 
L 688.052525 -255.076364 
L 687.866117 -258.130909 
L 687.78 -261.185455 
L 687.793857 -264.24 
L 687.904358 -267.294545 
L 688.105511 -270.349091 
L 688.389235 -273.403636 
L 688.746156 -276.458182 
L 689.166595 -279.512727 
L 689.64166 -282.567273 
L 690.164355 -285.621818 
L 690.730521 -288.676364 
L 691.339478 -291.730909 
L 691.994228 -294.785455 
L 692.701141 -297.84 
L 693.469145 -300.894545 
L 694.308513 -303.949091 
L 695.229433 -307.003636 
L 696.240584 -310.058182 
L 697.347951 -313.112727 
L 698.55407 -316.167273 
L 699.857801 -319.221818 
L 701.254641 -322.276364 
L 702.737477 -325.330909 
L 704.297586 -328.385455 
L 705.925676 -331.44 
L 707.612741 -334.494545 
L 709.350547 -337.549091 
L 711.131673 -340.603636 
L 712.949104 -343.658182 
L 714.795478 -346.712727 
L 716.662161 -349.767273 
L 718.538365 -352.821818 
L 720.410522 -355.876364 
L 722.262077 -358.930909 
L 724.073807 -361.985455 
L 725.824642 -365.04 
L 750.175358 -365.04 
L 750.175358 -365.04 
L 751.926193 -361.985455 
L 753.737923 -358.930909 
L 755.589478 -355.876364 
L 757.461635 -352.821818 
L 759.337839 -349.767273 
L 761.204522 -346.712727 
L 763.050896 -343.658182 
L 764.868327 -340.603636 
L 766.649453 -337.549091 
L 768.387259 -334.494545 
L 770.074324 -331.44 
L 771.702414 -328.385455 
L 773.262523 -325.330909 
L 774.745359 -322.276364 
L 776.142199 -319.221818 
L 777.44593 -316.167273 
L 778.652049 -313.112727 
L 779.759416 -310.058182 
L 780.770567 -307.003636 
L 781.691487 -303.949091 
L 782.530855 -300.894545 
L 783.298859 -297.84 
L 784.005772 -294.785455 
L 784.660522 -291.730909 
L 785.269479 -288.676364 
L 785.835645 -285.621818 
L 786.35834 -282.567273 
L 786.833405 -279.512727 
L 787.253844 -276.458182 
L 787.610765 -273.403636 
L 787.894489 -270.349091 
L 788.095642 -267.294545 
L 788.206143 -264.24 
L 788.22 -261.185455 
L 788.133883 -258.130909 
L 787.947475 -255.076364 
L 787.663606 -252.021818 
L 787.288186 -248.967273 
L 786.829924 -245.912727 
L 786.299848 -242.858182 
L 785.710606 -239.803636 
L 785.075586 -236.749091 
L 784.407897 -233.694545 
L 783.719301 -230.64 
L 783.019222 -227.585455 
L 782.313954 -224.530909 
L 781.606199 -221.476364 
L 780.89503 -218.421818 
L 780.176304 -215.367273 
L 779.443501 -212.312727 
L 778.688875 -209.258182 
L 777.904754 -206.203636 
L 777.08481 -203.149091 
L 776.225091 -200.094545 
L 775.324685 -197.04 
L 774.385928 -193.985455 
L 773.414166 -190.930909 
L 772.417157 -187.876364 
L 771.404275 -184.821818 
L 770.385686 -181.767273 
L 769.371665 -178.712727 
L 768.372159 -175.658182 
L 767.396644 -172.603636 
L 766.454197 -169.549091 
L 765.553692 -166.494545 
L 764.703949 -163.44 
L 763.9137 -160.385455 
L 763.191262 -157.330909 
L 762.54391 -154.276364 
L 761.977 -151.221818 
L 761.492974 -148.167273 
L 761.090428 -145.112727 
L 760.763417 -142.058182 
L 760.501157 -139.003636 
L 760.2882 -135.949091 
L 760.105121 -132.894545 
L 759.929632 -129.84 
L 759.73803 -126.785455 
L 759.506801 -123.730909 
L 759.214225 -120.676364 
L 758.841807 -117.621818 
L 758.375427 -114.567273 
L 757.806099 -111.512727 
L 757.130325 -108.458182 
L 756.350034 -105.403636 
L 755.472163 -102.349091 
L 754.507943 -99.294545 
L 753.471997 -96.24 
L 752.38133 -93.185455 
L 751.254307 -90.130909 
L 750.109691 -87.076364 
L 748.965797 -84.021818 
L 747.839802 -80.967273 
L 746.747209 -77.912727 
L 745.701478 -74.858182 
L 744.713799 -71.803636 
L 743.792992 -68.749091 
L 742.9455 -65.694545 
L 742.175461 -62.64 
z
" style="stroke: #282724; stroke-width: 1.4"/>
    </defs>
    <g clip-path="url(#p6825af84ef)">
     <use xlink:href="#m2cffbc7953" x="0" y="432" style="fill: #d0e6cb; stroke: #282724; stroke-width: 1.4"/>
    </g>
   </g>
   <g id="PolyCollection_4">
    <defs>
     <path id="m16bfb2a4f9" d="M 973.703316 -65.664 
L 948.696684 -65.664 
L 947.327579 -68.596364 
L 945.944575 -71.528727 
L 944.564052 -74.461091 
L 943.201829 -77.393455 
L 941.872699 -80.325818 
L 940.590065 -83.258182 
L 939.365693 -86.190545 
L 938.209553 -89.122909 
L 937.129742 -92.055273 
L 936.132462 -94.987636 
L 935.222024 -97.92 
L 934.400857 -100.852364 
L 933.669537 -103.784727 
L 933.026801 -106.717091 
L 932.469595 -109.649455 
L 931.993149 -112.581818 
L 931.591103 -115.514182 
L 931.255709 -118.446545 
L 930.978094 -121.378909 
L 930.748602 -124.311273 
L 930.557183 -127.243636 
L 930.393814 -130.176 
L 930.248911 -133.108364 
L 930.113715 -136.040727 
L 929.980601 -138.973091 
L 929.843293 -141.905455 
L 929.696976 -144.837818 
L 929.538266 -147.770182 
L 929.365077 -150.702545 
L 929.176354 -153.634909 
L 928.971732 -156.567273 
L 928.751112 -159.499636 
L 928.514224 -162.432 
L 928.260194 -165.364364 
L 927.987183 -168.296727 
L 927.69213 -171.229091 
L 927.370637 -174.161455 
L 927.017038 -177.093818 
L 926.624645 -180.026182 
L 926.186175 -182.958545 
L 925.694319 -185.890909 
L 925.142423 -188.823273 
L 924.525189 -191.755636 
L 923.839367 -194.688 
L 923.084337 -197.620364 
L 922.26255 -200.552727 
L 921.379764 -203.485091 
L 920.445076 -206.417455 
L 919.470729 -209.349818 
L 918.471727 -212.282182 
L 917.465276 -215.214545 
L 916.47012 -218.146909 
L 915.505795 -221.079273 
L 914.591883 -224.011636 
L 913.747291 -226.944 
L 912.989628 -229.876364 
L 912.334695 -232.808727 
L 911.796133 -235.741091 
L 911.385237 -238.673455 
L 911.110951 -241.605818 
L 910.98 -244.538182 
L 910.99717 -247.470545 
L 911.165649 -250.402909 
L 911.487398 -253.335273 
L 911.963478 -256.267636 
L 912.594272 -259.2 
L 913.379572 -262.132364 
L 914.318481 -265.064727 
L 915.409162 -267.997091 
L 916.648437 -270.929455 
L 918.031318 -273.861818 
L 919.550528 -276.794182 
L 921.196097 -279.726545 
L 922.955115 -282.658909 
L 924.811696 -285.591273 
L 926.747183 -288.523636 
L 928.740596 -291.456 
L 930.769303 -294.388364 
L 932.809832 -297.320727 
L 934.838786 -300.253091 
L 936.833743 -303.185455 
L 938.774103 -306.117818 
L 940.641788 -309.050182 
L 942.42177 -311.982545 
L 944.102403 -314.914909 
L 945.675552 -317.847273 
L 947.136534 -320.779636 
L 948.483902 -323.712 
L 949.719103 -326.644364 
L 950.846037 -329.576727 
L 951.870569 -332.509091 
L 952.799999 -335.441455 
L 953.642543 -338.373818 
L 954.406829 -341.306182 
L 955.101446 -344.238545 
L 955.734543 -347.170909 
L 956.313527 -350.103273 
L 956.844827 -353.035636 
L 957.333776 -355.968 
L 965.066224 -355.968 
L 965.066224 -355.968 
L 965.555173 -353.035636 
L 966.086473 -350.103273 
L 966.665457 -347.170909 
L 967.298554 -344.238545 
L 967.993171 -341.306182 
L 968.757457 -338.373818 
L 969.600001 -335.441455 
L 970.529431 -332.509091 
L 971.553963 -329.576727 
L 972.680897 -326.644364 
L 973.916098 -323.712 
L 975.263466 -320.779636 
L 976.724448 -317.847273 
L 978.297597 -314.914909 
L 979.97823 -311.982545 
L 981.758212 -309.050182 
L 983.625897 -306.117818 
L 985.566257 -303.185455 
L 987.561214 -300.253091 
L 989.590168 -297.320727 
L 991.630697 -294.388364 
L 993.659404 -291.456 
L 995.652817 -288.523636 
L 997.588304 -285.591273 
L 999.444885 -282.658909 
L 1001.203903 -279.726545 
L 1002.849472 -276.794182 
L 1004.368682 -273.861818 
L 1005.751563 -270.929455 
L 1006.990838 -267.997091 
L 1008.081519 -265.064727 
L 1009.020428 -262.132364 
L 1009.805728 -259.2 
L 1010.436522 -256.267636 
L 1010.912602 -253.335273 
L 1011.234351 -250.402909 
L 1011.40283 -247.470545 
L 1011.42 -244.538182 
L 1011.289049 -241.605818 
L 1011.014763 -238.673455 
L 1010.603867 -235.741091 
L 1010.065305 -232.808727 
L 1009.410372 -229.876364 
L 1008.652709 -226.944 
L 1007.808117 -224.011636 
L 1006.894205 -221.079273 
L 1005.92988 -218.146909 
L 1004.934724 -215.214545 
L 1003.928273 -212.282182 
L 1002.929271 -209.349818 
L 1001.954924 -206.417455 
L 1001.020236 -203.485091 
L 1000.13745 -200.552727 
L 999.315663 -197.620364 
L 998.560633 -194.688 
L 997.874811 -191.755636 
L 997.257577 -188.823273 
L 996.705681 -185.890909 
L 996.213825 -182.958545 
L 995.775355 -180.026182 
L 995.382962 -177.093818 
L 995.029363 -174.161455 
L 994.70787 -171.229091 
L 994.412817 -168.296727 
L 994.139806 -165.364364 
L 993.885776 -162.432 
L 993.648888 -159.499636 
L 993.428268 -156.567273 
L 993.223646 -153.634909 
L 993.034923 -150.702545 
L 992.861734 -147.770182 
L 992.703024 -144.837818 
L 992.556707 -141.905455 
L 992.419399 -138.973091 
L 992.286285 -136.040727 
L 992.151089 -133.108364 
L 992.006186 -130.176 
L 991.842817 -127.243636 
L 991.651398 -124.311273 
L 991.421906 -121.378909 
L 991.144291 -118.446545 
L 990.808897 -115.514182 
L 990.406851 -112.581818 
L 989.930405 -109.649455 
L 989.373199 -106.717091 
L 988.730463 -103.784727 
L 987.999143 -100.852364 
L 987.177976 -97.92 
L 986.267538 -94.987636 
L 985.270258 -92.055273 
L 984.190447 -89.122909 
L 983.034307 -86.190545 
L 981.809935 -83.258182 
L 980.527301 -80.325818 
L 979.198171 -77.393455 
L 977.835948 -74.461091 
L 976.455425 -71.528727 
L 975.072421 -68.596364 
L 973.703316 -65.664 
z
" style="stroke: #282724; stroke-width: 1.4"/>
    </defs>
    <g clip-path="url(#p6825af84ef)">
     <use xlink:href="#m16bfb2a4f9" x="0" y="432" style="fill: #dbcee1; stroke: #282724; stroke-width: 1.4"/>
    </g>
   </g>
   <g id="PolyCollection_5">
    <defs>
     <path id="m6e8da8cc62" d="M 1202.757533 -62.64 
L 1166.042467 -62.64 
L 1164.728176 -65.175273 
L 1163.407643 -67.710545 
L 1162.088245 -70.245818 
L 1160.777144 -72.781091 
L 1159.481175 -75.316364 
L 1158.206754 -77.851636 
L 1156.959816 -80.386909 
L 1155.745767 -82.922182 
L 1154.569468 -85.457455 
L 1153.435239 -87.992727 
L 1152.346885 -90.528 
L 1151.30774 -93.063273 
L 1150.320722 -95.598545 
L 1149.388404 -98.133818 
L 1148.513081 -100.669091 
L 1147.696836 -103.204364 
L 1146.941602 -105.739636 
L 1146.249208 -108.274909 
L 1145.621409 -110.810182 
L 1145.059892 -113.345455 
L 1144.566266 -115.880727 
L 1144.142019 -118.416 
L 1143.788464 -120.951273 
L 1143.506649 -123.486545 
L 1143.297272 -126.021818 
L 1143.160561 -128.557091 
L 1143.096174 -131.092364 
L 1143.103078 -133.627636 
L 1143.179458 -136.162909 
L 1143.32263 -138.698182 
L 1143.52898 -141.233455 
L 1143.793931 -143.768727 
L 1144.11194 -146.304 
L 1144.47653 -148.839273 
L 1144.880351 -151.374545 
L 1145.315273 -153.909818 
L 1145.772503 -156.445091 
L 1146.242728 -158.980364 
L 1146.716268 -161.515636 
L 1147.183243 -164.050909 
L 1147.633741 -166.586182 
L 1148.05798 -169.121455 
L 1148.446462 -171.656727 
L 1148.790126 -174.192 
L 1149.080469 -176.727273 
L 1149.309667 -179.262545 
L 1149.470675 -181.797818 
L 1149.557317 -184.333091 
L 1149.564367 -186.868364 
L 1149.487618 -189.403636 
L 1149.323958 -191.938909 
L 1149.071435 -194.474182 
L 1148.729331 -197.009455 
L 1148.298227 -199.544727 
L 1147.780083 -202.08 
L 1147.178296 -204.615273 
L 1146.497772 -207.150545 
L 1145.744965 -209.685818 
L 1144.927912 -212.221091 
L 1144.056232 -214.756364 
L 1143.141094 -217.291636 
L 1142.195146 -219.826909 
L 1141.232396 -222.362182 
L 1140.268045 -224.897455 
L 1139.318271 -227.432727 
L 1138.399966 -229.968 
L 1137.530424 -232.503273 
L 1136.727001 -235.038545 
L 1136.006743 -237.573818 
L 1135.386001 -240.109091 
L 1134.880051 -242.644364 
L 1134.502721 -245.179636 
L 1134.266052 -247.714909 
L 1134.18 -250.250182 
L 1134.252193 -252.785455 
L 1134.487757 -255.320727 
L 1134.889205 -257.856 
L 1135.456412 -260.391273 
L 1136.186657 -262.926545 
L 1137.074744 -265.461818 
L 1138.113179 -267.997091 
L 1139.292417 -270.532364 
L 1140.601138 -273.067636 
L 1142.02657 -275.602909 
L 1143.554815 -278.138182 
L 1145.171191 -280.673455 
L 1146.860563 -283.208727 
L 1148.607651 -285.744 
L 1150.397317 -288.279273 
L 1152.214815 -290.814545 
L 1154.045999 -293.349818 
L 1155.877498 -295.885091 
L 1157.696845 -298.420364 
L 1159.492576 -300.955636 
L 1161.254286 -303.490909 
L 1162.972667 -306.026182 
L 1164.639511 -308.561455 
L 1166.247708 -311.096727 
L 1167.791214 -313.632 
L 1201.008786 -313.632 
L 1201.008786 -313.632 
L 1202.552292 -311.096727 
L 1204.160489 -308.561455 
L 1205.827333 -306.026182 
L 1207.545714 -303.490909 
L 1209.307424 -300.955636 
L 1211.103155 -298.420364 
L 1212.922502 -295.885091 
L 1214.754001 -293.349818 
L 1216.585185 -290.814545 
L 1218.402683 -288.279273 
L 1220.192349 -285.744 
L 1221.939437 -283.208727 
L 1223.628809 -280.673455 
L 1225.245185 -278.138182 
L 1226.77343 -275.602909 
L 1228.198862 -273.067636 
L 1229.507583 -270.532364 
L 1230.686821 -267.997091 
L 1231.725256 -265.461818 
L 1232.613343 -262.926545 
L 1233.343588 -260.391273 
L 1233.910795 -257.856 
L 1234.312243 -255.320727 
L 1234.547807 -252.785455 
L 1234.62 -250.250182 
L 1234.533948 -247.714909 
L 1234.297279 -245.179636 
L 1233.919949 -242.644364 
L 1233.413999 -240.109091 
L 1232.793257 -237.573818 
L 1232.072999 -235.038545 
L 1231.269576 -232.503273 
L 1230.400034 -229.968 
L 1229.481729 -227.432727 
L 1228.531955 -224.897455 
L 1227.567604 -222.362182 
L 1226.604854 -219.826909 
L 1225.658906 -217.291636 
L 1224.743768 -214.756364 
L 1223.872088 -212.221091 
L 1223.055035 -209.685818 
L 1222.302228 -207.150545 
L 1221.621704 -204.615273 
L 1221.019917 -202.08 
L 1220.501773 -199.544727 
L 1220.070669 -197.009455 
L 1219.728565 -194.474182 
L 1219.476042 -191.938909 
L 1219.312382 -189.403636 
L 1219.235633 -186.868364 
L 1219.242683 -184.333091 
L 1219.329325 -181.797818 
L 1219.490333 -179.262545 
L 1219.719531 -176.727273 
L 1220.009874 -174.192 
L 1220.353538 -171.656727 
L 1220.74202 -169.121455 
L 1221.166259 -166.586182 
L 1221.616757 -164.050909 
L 1222.083732 -161.515636 
L 1222.557272 -158.980364 
L 1223.027497 -156.445091 
L 1223.484727 -153.909818 
L 1223.919649 -151.374545 
L 1224.32347 -148.839273 
L 1224.68806 -146.304 
L 1225.006069 -143.768727 
L 1225.27102 -141.233455 
L 1225.47737 -138.698182 
L 1225.620542 -136.162909 
L 1225.696922 -133.627636 
L 1225.703826 -131.092364 
L 1225.639439 -128.557091 
L 1225.502728 -126.021818 
L 1225.293351 -123.486545 
L 1225.011536 -120.951273 
L 1224.657981 -118.416 
L 1224.233734 -115.880727 
L 1223.740108 -113.345455 
L 1223.178591 -110.810182 
L 1222.550792 -108.274909 
L 1221.858398 -105.739636 
L 1221.103164 -103.204364 
L 1220.286919 -100.669091 
L 1219.411596 -98.133818 
L 1218.479278 -95.598545 
L 1217.49226 -93.063273 
L 1216.453115 -90.528 
L 1215.364761 -87.992727 
L 1214.230532 -85.457455 
L 1213.054233 -82.922182 
L 1211.840184 -80.386909 
L 1210.593246 -77.851636 
L 1209.318825 -75.316364 
L 1208.022856 -72.781091 
L 1206.711755 -70.245818 
L 1205.392357 -67.710545 
L 1204.071824 -65.175273 
L 1202.757533 -62.64 
z
" style="stroke: #282724; stroke-width: 1.4"/>
    </defs>
    <g clip-path="url(#p6825af84ef)">
     <use xlink:href="#m6e8da8cc62" x="0" y="432" style="fill: #f0d8b3; stroke: #282724; stroke-width: 1.4"/>
    </g>
   </g>
   <g id="matplotlib.axis_1">
    <g id="xtick_1">
     <g id="line2d_1">
      <defs>
       <path id="m335a31f337" d="M 0 0 
L 0 3 
" style="stroke: #000000; stroke-width: 0.8"/>
      </defs>
      <g>
       <use xlink:href="#m335a31f337" x="291.6" y="384.48" style="stroke: #000000; stroke-width: 0.8"/>
      </g>
     </g>
     <g id="text_1">
      <!-- Alpha -->
      <g transform="translate(263.167188 406.176875) scale(0.2 -0.2)">
       <defs>
        <path id="DejaVuSans-41" d="M 2188 4044 
L 1331 1722 
L 3047 1722 
L 2188 4044 
z
M 1831 4666 
L 2547 4666 
L 4325 0 
L 3669 0 
L 3244 1197 
L 1141 1197 
L 716 0 
L 50 0 
L 1831 4666 
z
" transform="scale(0.015625)"/>
        <path id="DejaVuSans-6c" d="M 603 4863 
L 1178 4863 
L 1178 0 
L 603 0 
L 603 4863 
z
" transform="scale(0.015625)"/>
        <path id="DejaVuSans-70" d="M 1159 525 
L 1159 -1331 
L 581 -1331 
L 581 3500 
L 1159 3500 
L 1159 2969 
Q 1341 3281 1617 3432 
Q 1894 3584 2278 3584 
Q 2916 3584 3314 3078 
Q 3713 2572 3713 1747 
Q 3713 922 3314 415 
Q 2916 -91 2278 -91 
Q 1894 -91 1617 61 
Q 1341 213 1159 525 
z
M 3116 1747 
Q 3116 2381 2855 2742 
Q 2594 3103 2138 3103 
Q 1681 3103 1420 2742 
Q 1159 2381 1159 1747 
Q 1159 1113 1420 752 
Q 1681 391 2138 391 
Q 2594 391 2855 752 
Q 3116 1113 3116 1747 
z
" transform="scale(0.015625)"/>
        <path id="DejaVuSans-68" d="M 3513 2113 
L 3513 0 
L 2938 0 
L 2938 2094 
Q 2938 2591 2744 2837 
Q 2550 3084 2163 3084 
Q 1697 3084 1428 2787 
Q 1159 2491 1159 1978 
L 1159 0 
L 581 0 
L 581 4863 
L 1159 4863 
L 1159 2956 
Q 1366 3272 1645 3428 
Q 1925 3584 2291 3584 
Q 2894 3584 3203 3211 
Q 3513 2838 3513 2113 
z
" transform="scale(0.015625)"/>
        <path id="DejaVuSans-61" d="M 2194 1759 
Q 1497 1759 1228 1600 
Q 959 1441 959 1056 
Q 959 750 1161 570 
Q 1363 391 1709 391 
Q 2188 391 2477 730 
Q 2766 1069 2766 1631 
L 2766 1759 
L 2194 1759 
z
M 3341 1997 
L 3341 0 
L 2766 0 
L 2766 531 
Q 2569 213 2275 61 
Q 1981 -91 1556 -91 
Q 1019 -91 701 211 
Q 384 513 384 1019 
Q 384 1609 779 1909 
Q 1175 2209 1959 2209 
L 2766 2209 
L 2766 2266 
Q 2766 2663 2505 2880 
Q 2244 3097 1772 3097 
Q 1472 3097 1187 3025 
Q 903 2953 641 2809 
L 641 3341 
Q 956 3463 1253 3523 
Q 1550 3584 1831 3584 
Q 2591 3584 2966 3190 
Q 3341 2797 3341 1997 
z
" transform="scale(0.015625)"/>
       </defs>
       <use xlink:href="#DejaVuSans-41"/>
       <use xlink:href="#DejaVuSans-6c" x="68.408203"/>
       <use xlink:href="#DejaVuSans-70" x="96.191406"/>
       <use xlink:href="#DejaVuSans-68" x="159.667969"/>
       <use xlink:href="#DejaVuSans-61" x="223.046875"/>
      </g>
      <!-- (n=254) -->
      <g transform="translate(249.992188 428.5725) scale(0.2 -0.2)">
       <defs>
        <path id="DejaVuSans-28" d="M 1984 4856 
Q 1566 4138 1362 3434 
Q 1159 2731 1159 2009 
Q 1159 1288 1364 580 
Q 1569 -128 1984 -844 
L 1484 -844 
Q 1016 -109 783 600 
Q 550 1309 550 2009 
Q 550 2706 781 3412 
Q 1013 4119 1484 4856 
L 1984 4856 
z
" transform="scale(0.015625)"/>
        <path id="DejaVuSans-6e" d="M 3513 2113 
L 3513 0 
L 2938 0 
L 2938 2094 
Q 2938 2591 2744 2837 
Q 2550 3084 2163 3084 
Q 1697 3084 1428 2787 
Q 1159 2491 1159 1978 
L 1159 0 
L 581 0 
L 581 3500 
L 1159 3500 
L 1159 2956 
Q 1366 3272 1645 3428 
Q 1925 3584 2291 3584 
Q 2894 3584 3203 3211 
Q 3513 2838 3513 2113 
z
" transform="scale(0.015625)"/>
        <path id="DejaVuSans-3d" d="M 678 2906 
L 4684 2906 
L 4684 2381 
L 678 2381 
L 678 2906 
z
M 678 1631 
L 4684 1631 
L 4684 1100 
L 678 1100 
L 678 1631 
z
" transform="scale(0.015625)"/>
        <path id="DejaVuSans-32" d="M 1228 531 
L 3431 531 
L 3431 0 
L 469 0 
L 469 531 
Q 828 903 1448 1529 
Q 2069 2156 2228 2338 
Q 2531 2678 2651 2914 
Q 2772 3150 2772 3378 
Q 2772 3750 2511 3984 
Q 2250 4219 1831 4219 
Q 1534 4219 1204 4116 
Q 875 4013 500 3803 
L 500 4441 
Q 881 4594 1212 4672 
Q 1544 4750 1819 4750 
Q 2544 4750 2975 4387 
Q 3406 4025 3406 3419 
Q 3406 3131 3298 2873 
Q 3191 2616 2906 2266 
Q 2828 2175 2409 1742 
Q 1991 1309 1228 531 
z
" transform="scale(0.015625)"/>
        <path id="DejaVuSans-35" d="M 691 4666 
L 3169 4666 
L 3169 4134 
L 1269 4134 
L 1269 2991 
Q 1406 3038 1543 3061 
Q 1681 3084 1819 3084 
Q 2600 3084 3056 2656 
Q 3513 2228 3513 1497 
Q 3513 744 3044 326 
Q 2575 -91 1722 -91 
Q 1428 -91 1123 -41 
Q 819 9 494 109 
L 494 744 
Q 775 591 1075 516 
Q 1375 441 1709 441 
Q 2250 441 2565 725 
Q 2881 1009 2881 1497 
Q 2881 1984 2565 2268 
Q 2250 2553 1709 2553 
Q 1456 2553 1204 2497 
Q 953 2441 691 2322 
L 691 4666 
z
" transform="scale(0.015625)"/>
        <path id="DejaVuSans-34" d="M 2419 4116 
L 825 1625 
L 2419 1625 
L 2419 4116 
z
M 2253 4666 
L 3047 4666 
L 3047 1625 
L 3713 1625 
L 3713 1100 
L 3047 1100 
L 3047 0 
L 2419 0 
L 2419 1100 
L 313 1100 
L 313 1709 
L 2253 4666 
z
" transform="scale(0.015625)"/>
        <path id="DejaVuSans-29" d="M 513 4856 
L 1013 4856 
Q 1481 4119 1714 3412 
Q 1947 2706 1947 2009 
Q 1947 1309 1714 600 
Q 1481 -109 1013 -844 
L 513 -844 
Q 928 -128 1133 580 
Q 1338 1288 1338 2009 
Q 1338 2731 1133 3434 
Q 928 4138 513 4856 
z
" transform="scale(0.015625)"/>
       </defs>
       <use xlink:href="#DejaVuSans-28"/>
       <use xlink:href="#DejaVuSans-6e" x="39.013672"/>
       <use xlink:href="#DejaVuSans-3d" x="102.392578"/>
       <use xlink:href="#DejaVuSans-32" x="186.181641"/>
       <use xlink:href="#DejaVuSans-35" x="249.804688"/>
       <use xlink:href="#DejaVuSans-34" x="313.427734"/>
       <use xlink:href="#DejaVuSans-29" x="377.050781"/>
      </g>
     </g>
    </g>
    <g id="xtick_2">
     <g id="line2d_2">
      <g>
       <use xlink:href="#m335a31f337" x="514.8" y="384.48" style="stroke: #000000; stroke-width: 0.8"/>
      </g>
     </g>
     <g id="text_2">
      <!-- Avg_ -->
      <g transform="translate(491.279688 405.620625) scale(0.2 -0.2)">
       <defs>
        <path id="DejaVuSans-76" d="M 191 3500 
L 800 3500 
L 1894 563 
L 2988 3500 
L 3597 3500 
L 2284 0 
L 1503 0 
L 191 3500 
z
" transform="scale(0.015625)"/>
        <path id="DejaVuSans-67" d="M 2906 1791 
Q 2906 2416 2648 2759 
Q 2391 3103 1925 3103 
Q 1463 3103 1205 2759 
Q 947 2416 947 1791 
Q 947 1169 1205 825 
Q 1463 481 1925 481 
Q 2391 481 2648 825 
Q 2906 1169 2906 1791 
z
M 3481 434 
Q 3481 -459 3084 -895 
Q 2688 -1331 1869 -1331 
Q 1566 -1331 1297 -1286 
Q 1028 -1241 775 -1147 
L 775 -588 
Q 1028 -725 1275 -790 
Q 1522 -856 1778 -856 
Q 2344 -856 2625 -561 
Q 2906 -266 2906 331 
L 2906 616 
Q 2728 306 2450 153 
Q 2172 0 1784 0 
Q 1141 0 747 490 
Q 353 981 353 1791 
Q 353 2603 747 3093 
Q 1141 3584 1784 3584 
Q 2172 3584 2450 3431 
Q 2728 3278 2906 2969 
L 2906 3500 
L 3481 3500 
L 3481 434 
z
" transform="scale(0.015625)"/>
        <path id="DejaVuSans-5f" d="M 3263 -1063 
L 3263 -1509 
L -63 -1509 
L -63 -1063 
L 3263 -1063 
z
" transform="scale(0.015625)"/>
       </defs>
       <use xlink:href="#DejaVuSans-41"/>
       <use xlink:href="#DejaVuSans-76" x="62.533203"/>
       <use xlink:href="#DejaVuSans-67" x="121.712891"/>
       <use xlink:href="#DejaVuSans-5f" x="185.189453"/>
      </g>
      <!-- AMP_Alpha -->
      <g transform="translate(459.86875 428.5725) scale(0.2 -0.2)">
       <defs>
        <path id="DejaVuSans-4d" d="M 628 4666 
L 1569 4666 
L 2759 1491 
L 3956 4666 
L 4897 4666 
L 4897 0 
L 4281 0 
L 4281 4097 
L 3078 897 
L 2444 897 
L 1241 4097 
L 1241 0 
L 628 0 
L 628 4666 
z
" transform="scale(0.015625)"/>
        <path id="DejaVuSans-50" d="M 1259 4147 
L 1259 2394 
L 2053 2394 
Q 2494 2394 2734 2622 
Q 2975 2850 2975 3272 
Q 2975 3691 2734 3919 
Q 2494 4147 2053 4147 
L 1259 4147 
z
M 628 4666 
L 2053 4666 
Q 2838 4666 3239 4311 
Q 3641 3956 3641 3272 
Q 3641 2581 3239 2228 
Q 2838 1875 2053 1875 
L 1259 1875 
L 1259 0 
L 628 0 
L 628 4666 
z
" transform="scale(0.015625)"/>
       </defs>
       <use xlink:href="#DejaVuSans-41"/>
       <use xlink:href="#DejaVuSans-4d" x="68.408203"/>
       <use xlink:href="#DejaVuSans-50" x="154.6875"/>
       <use xlink:href="#DejaVuSans-5f" x="214.990234"/>
       <use xlink:href="#DejaVuSans-41" x="264.990234"/>
       <use xlink:href="#DejaVuSans-6c" x="333.398438"/>
       <use xlink:href="#DejaVuSans-70" x="361.181641"/>
       <use xlink:href="#DejaVuSans-68" x="424.658203"/>
       <use xlink:href="#DejaVuSans-61" x="488.037109"/>
      </g>
      <!-- (n=827) -->
      <g transform="translate(473.192188 451.524375) scale(0.2 -0.2)">
       <defs>
        <path id="DejaVuSans-38" d="M 2034 2216 
Q 1584 2216 1326 1975 
Q 1069 1734 1069 1313 
Q 1069 891 1326 650 
Q 1584 409 2034 409 
Q 2484 409 2743 651 
Q 3003 894 3003 1313 
Q 3003 1734 2745 1975 
Q 2488 2216 2034 2216 
z
M 1403 2484 
Q 997 2584 770 2862 
Q 544 3141 544 3541 
Q 544 4100 942 4425 
Q 1341 4750 2034 4750 
Q 2731 4750 3128 4425 
Q 3525 4100 3525 3541 
Q 3525 3141 3298 2862 
Q 3072 2584 2669 2484 
Q 3125 2378 3379 2068 
Q 3634 1759 3634 1313 
Q 3634 634 3220 271 
Q 2806 -91 2034 -91 
Q 1263 -91 848 271 
Q 434 634 434 1313 
Q 434 1759 690 2068 
Q 947 2378 1403 2484 
z
M 1172 3481 
Q 1172 3119 1398 2916 
Q 1625 2713 2034 2713 
Q 2441 2713 2670 2916 
Q 2900 3119 2900 3481 
Q 2900 3844 2670 4047 
Q 2441 4250 2034 4250 
Q 1625 4250 1398 4047 
Q 1172 3844 1172 3481 
z
" transform="scale(0.015625)"/>
        <path id="DejaVuSans-37" d="M 525 4666 
L 3525 4666 
L 3525 4397 
L 1831 0 
L 1172 0 
L 2766 4134 
L 525 4134 
L 525 4666 
z
" transform="scale(0.015625)"/>
       </defs>
       <use xlink:href="#DejaVuSans-28"/>
       <use xlink:href="#DejaVuSans-6e" x="39.013672"/>
       <use xlink:href="#DejaVuSans-3d" x="102.392578"/>
       <use xlink:href="#DejaVuSans-38" x="186.181641"/>
       <use xlink:href="#DejaVuSans-32" x="249.804688"/>
       <use xlink:href="#DejaVuSans-37" x="313.427734"/>
       <use xlink:href="#DejaVuSans-29" x="377.050781"/>
      </g>
     </g>
    </g>
    <g id="xtick_3">
     <g id="line2d_3">
      <g>
       <use xlink:href="#m335a31f337" x="738" y="384.48" style="stroke: #000000; stroke-width: 0.8"/>
      </g>
     </g>
     <g id="text_3">
      <!-- Concat_ -->
      <g transform="translate(698.014063 405.82375) scale(0.2 -0.2)">
       <defs>
        <path id="DejaVuSans-43" d="M 4122 4306 
L 4122 3641 
Q 3803 3938 3442 4084 
Q 3081 4231 2675 4231 
Q 1875 4231 1450 3742 
Q 1025 3253 1025 2328 
Q 1025 1406 1450 917 
Q 1875 428 2675 428 
Q 3081 428 3442 575 
Q 3803 722 4122 1019 
L 4122 359 
Q 3791 134 3420 21 
Q 3050 -91 2638 -91 
Q 1578 -91 968 557 
Q 359 1206 359 2328 
Q 359 3453 968 4101 
Q 1578 4750 2638 4750 
Q 3056 4750 3426 4639 
Q 3797 4528 4122 4306 
z
" transform="scale(0.015625)"/>
        <path id="DejaVuSans-6f" d="M 1959 3097 
Q 1497 3097 1228 2736 
Q 959 2375 959 1747 
Q 959 1119 1226 758 
Q 1494 397 1959 397 
Q 2419 397 2687 759 
Q 2956 1122 2956 1747 
Q 2956 2369 2687 2733 
Q 2419 3097 1959 3097 
z
M 1959 3584 
Q 2709 3584 3137 3096 
Q 3566 2609 3566 1747 
Q 3566 888 3137 398 
Q 2709 -91 1959 -91 
Q 1206 -91 779 398 
Q 353 888 353 1747 
Q 353 2609 779 3096 
Q 1206 3584 1959 3584 
z
" transform="scale(0.015625)"/>
        <path id="DejaVuSans-63" d="M 3122 3366 
L 3122 2828 
Q 2878 2963 2633 3030 
Q 2388 3097 2138 3097 
Q 1578 3097 1268 2742 
Q 959 2388 959 1747 
Q 959 1106 1268 751 
Q 1578 397 2138 397 
Q 2388 397 2633 464 
Q 2878 531 3122 666 
L 3122 134 
Q 2881 22 2623 -34 
Q 2366 -91 2075 -91 
Q 1284 -91 818 406 
Q 353 903 353 1747 
Q 353 2603 823 3093 
Q 1294 3584 2113 3584 
Q 2378 3584 2631 3529 
Q 2884 3475 3122 3366 
z
" transform="scale(0.015625)"/>
        <path id="DejaVuSans-74" d="M 1172 4494 
L 1172 3500 
L 2356 3500 
L 2356 3053 
L 1172 3053 
L 1172 1153 
Q 1172 725 1289 603 
Q 1406 481 1766 481 
L 2356 481 
L 2356 0 
L 1766 0 
Q 1100 0 847 248 
Q 594 497 594 1153 
L 594 3053 
L 172 3053 
L 172 3500 
L 594 3500 
L 594 4494 
L 1172 4494 
z
" transform="scale(0.015625)"/>
       </defs>
       <use xlink:href="#DejaVuSans-43"/>
       <use xlink:href="#DejaVuSans-6f" x="69.824219"/>
       <use xlink:href="#DejaVuSans-6e" x="131.005859"/>
       <use xlink:href="#DejaVuSans-63" x="194.384766"/>
       <use xlink:href="#DejaVuSans-61" x="249.365234"/>
       <use xlink:href="#DejaVuSans-74" x="310.644531"/>
       <use xlink:href="#DejaVuSans-5f" x="349.853516"/>
      </g>
      <!-- AMP_Alpha -->
      <g transform="translate(683.06875 428.775625) scale(0.2 -0.2)">
       <use xlink:href="#DejaVuSans-41"/>
       <use xlink:href="#DejaVuSans-4d" x="68.408203"/>
       <use xlink:href="#DejaVuSans-50" x="154.6875"/>
       <use xlink:href="#DejaVuSans-5f" x="214.990234"/>
       <use xlink:href="#DejaVuSans-41" x="264.990234"/>
       <use xlink:href="#DejaVuSans-6c" x="333.398438"/>
       <use xlink:href="#DejaVuSans-70" x="361.181641"/>
       <use xlink:href="#DejaVuSans-68" x="424.658203"/>
       <use xlink:href="#DejaVuSans-61" x="488.037109"/>
      </g>
      <!-- (n=796) -->
      <g transform="translate(696.392187 451.7275) scale(0.2 -0.2)">
       <defs>
        <path id="DejaVuSans-39" d="M 703 97 
L 703 672 
Q 941 559 1184 500 
Q 1428 441 1663 441 
Q 2288 441 2617 861 
Q 2947 1281 2994 2138 
Q 2813 1869 2534 1725 
Q 2256 1581 1919 1581 
Q 1219 1581 811 2004 
Q 403 2428 403 3163 
Q 403 3881 828 4315 
Q 1253 4750 1959 4750 
Q 2769 4750 3195 4129 
Q 3622 3509 3622 2328 
Q 3622 1225 3098 567 
Q 2575 -91 1691 -91 
Q 1453 -91 1209 -44 
Q 966 3 703 97 
z
M 1959 2075 
Q 2384 2075 2632 2365 
Q 2881 2656 2881 3163 
Q 2881 3666 2632 3958 
Q 2384 4250 1959 4250 
Q 1534 4250 1286 3958 
Q 1038 3666 1038 3163 
Q 1038 2656 1286 2365 
Q 1534 2075 1959 2075 
z
" transform="scale(0.015625)"/>
        <path id="DejaVuSans-36" d="M 2113 2584 
Q 1688 2584 1439 2293 
Q 1191 2003 1191 1497 
Q 1191 994 1439 701 
Q 1688 409 2113 409 
Q 2538 409 2786 701 
Q 3034 994 3034 1497 
Q 3034 2003 2786 2293 
Q 2538 2584 2113 2584 
z
M 3366 4563 
L 3366 3988 
Q 3128 4100 2886 4159 
Q 2644 4219 2406 4219 
Q 1781 4219 1451 3797 
Q 1122 3375 1075 2522 
Q 1259 2794 1537 2939 
Q 1816 3084 2150 3084 
Q 2853 3084 3261 2657 
Q 3669 2231 3669 1497 
Q 3669 778 3244 343 
Q 2819 -91 2113 -91 
Q 1303 -91 875 529 
Q 447 1150 447 2328 
Q 447 3434 972 4092 
Q 1497 4750 2381 4750 
Q 2619 4750 2861 4703 
Q 3103 4656 3366 4563 
z
" transform="scale(0.015625)"/>
       </defs>
       <use xlink:href="#DejaVuSans-28"/>
       <use xlink:href="#DejaVuSans-6e" x="39.013672"/>
       <use xlink:href="#DejaVuSans-3d" x="102.392578"/>
       <use xlink:href="#DejaVuSans-37" x="186.181641"/>
       <use xlink:href="#DejaVuSans-39" x="249.804688"/>
       <use xlink:href="#DejaVuSans-36" x="313.427734"/>
       <use xlink:href="#DejaVuSans-29" x="377.050781"/>
      </g>
     </g>
    </g>
    <g id="xtick_4">
     <g id="line2d_4">
      <g>
       <use xlink:href="#m335a31f337" x="961.2" y="384.48" style="stroke: #000000; stroke-width: 0.8"/>
      </g>
     </g>
     <g id="text_4">
      <!-- Avg_ -->
      <g transform="translate(937.679688 405.620625) scale(0.2 -0.2)">
       <use xlink:href="#DejaVuSans-41"/>
       <use xlink:href="#DejaVuSans-76" x="62.533203"/>
       <use xlink:href="#DejaVuSans-67" x="121.712891"/>
       <use xlink:href="#DejaVuSans-5f" x="185.189453"/>
      </g>
      <!-- Init_Alpha -->
      <g transform="translate(911.78125 428.5725) scale(0.2 -0.2)">
       <defs>
        <path id="DejaVuSans-49" d="M 628 4666 
L 1259 4666 
L 1259 0 
L 628 0 
L 628 4666 
z
" transform="scale(0.015625)"/>
        <path id="DejaVuSans-69" d="M 603 3500 
L 1178 3500 
L 1178 0 
L 603 0 
L 603 3500 
z
M 603 4863 
L 1178 4863 
L 1178 4134 
L 603 4134 
L 603 4863 
z
" transform="scale(0.015625)"/>
       </defs>
       <use xlink:href="#DejaVuSans-49"/>
       <use xlink:href="#DejaVuSans-6e" x="29.492188"/>
       <use xlink:href="#DejaVuSans-69" x="92.871094"/>
       <use xlink:href="#DejaVuSans-74" x="120.654297"/>
       <use xlink:href="#DejaVuSans-5f" x="159.863281"/>
       <use xlink:href="#DejaVuSans-41" x="209.863281"/>
       <use xlink:href="#DejaVuSans-6c" x="278.271484"/>
       <use xlink:href="#DejaVuSans-70" x="306.054688"/>
       <use xlink:href="#DejaVuSans-68" x="369.53125"/>
       <use xlink:href="#DejaVuSans-61" x="432.910156"/>
      </g>
      <!-- (n=358) -->
      <g transform="translate(919.592188 451.524375) scale(0.2 -0.2)">
       <defs>
        <path id="DejaVuSans-33" d="M 2597 2516 
Q 3050 2419 3304 2112 
Q 3559 1806 3559 1356 
Q 3559 666 3084 287 
Q 2609 -91 1734 -91 
Q 1441 -91 1130 -33 
Q 819 25 488 141 
L 488 750 
Q 750 597 1062 519 
Q 1375 441 1716 441 
Q 2309 441 2620 675 
Q 2931 909 2931 1356 
Q 2931 1769 2642 2001 
Q 2353 2234 1838 2234 
L 1294 2234 
L 1294 2753 
L 1863 2753 
Q 2328 2753 2575 2939 
Q 2822 3125 2822 3475 
Q 2822 3834 2567 4026 
Q 2313 4219 1838 4219 
Q 1578 4219 1281 4162 
Q 984 4106 628 3988 
L 628 4550 
Q 988 4650 1302 4700 
Q 1616 4750 1894 4750 
Q 2613 4750 3031 4423 
Q 3450 4097 3450 3541 
Q 3450 3153 3228 2886 
Q 3006 2619 2597 2516 
z
" transform="scale(0.015625)"/>
       </defs>
       <use xlink:href="#DejaVuSans-28"/>
       <use xlink:href="#DejaVuSans-6e" x="39.013672"/>
       <use xlink:href="#DejaVuSans-3d" x="102.392578"/>
       <use xlink:href="#DejaVuSans-33" x="186.181641"/>
       <use xlink:href="#DejaVuSans-35" x="249.804688"/>
       <use xlink:href="#DejaVuSans-38" x="313.427734"/>
       <use xlink:href="#DejaVuSans-29" x="377.050781"/>
      </g>
     </g>
    </g>
    <g id="xtick_5">
     <g id="line2d_5">
      <g>
       <use xlink:href="#m335a31f337" x="1184.4" y="384.48" style="stroke: #000000; stroke-width: 0.8"/>
      </g>
     </g>
     <g id="text_5">
      <!-- Concat_ -->
      <g transform="translate(1144.414062 405.82375) scale(0.2 -0.2)">
       <use xlink:href="#DejaVuSans-43"/>
       <use xlink:href="#DejaVuSans-6f" x="69.824219"/>
       <use xlink:href="#DejaVuSans-6e" x="131.005859"/>
       <use xlink:href="#DejaVuSans-63" x="194.384766"/>
       <use xlink:href="#DejaVuSans-61" x="249.365234"/>
       <use xlink:href="#DejaVuSans-74" x="310.644531"/>
       <use xlink:href="#DejaVuSans-5f" x="349.853516"/>
      </g>
      <!-- Init_Alpha -->
      <g transform="translate(1134.98125 428.775625) scale(0.2 -0.2)">
       <use xlink:href="#DejaVuSans-49"/>
       <use xlink:href="#DejaVuSans-6e" x="29.492188"/>
       <use xlink:href="#DejaVuSans-69" x="92.871094"/>
       <use xlink:href="#DejaVuSans-74" x="120.654297"/>
       <use xlink:href="#DejaVuSans-5f" x="159.863281"/>
       <use xlink:href="#DejaVuSans-41" x="209.863281"/>
       <use xlink:href="#DejaVuSans-6c" x="278.271484"/>
       <use xlink:href="#DejaVuSans-70" x="306.054688"/>
       <use xlink:href="#DejaVuSans-68" x="369.53125"/>
       <use xlink:href="#DejaVuSans-61" x="432.910156"/>
      </g>
      <!-- (n=115) -->
      <g transform="translate(1142.792188 451.7275) scale(0.2 -0.2)">
       <defs>
        <path id="DejaVuSans-31" d="M 794 531 
L 1825 531 
L 1825 4091 
L 703 3866 
L 703 4441 
L 1819 4666 
L 2450 4666 
L 2450 531 
L 3481 531 
L 3481 0 
L 794 0 
L 794 531 
z
" transform="scale(0.015625)"/>
       </defs>
       <use xlink:href="#DejaVuSans-28"/>
       <use xlink:href="#DejaVuSans-6e" x="39.013672"/>
       <use xlink:href="#DejaVuSans-3d" x="102.392578"/>
       <use xlink:href="#DejaVuSans-31" x="186.181641"/>
       <use xlink:href="#DejaVuSans-31" x="249.804688"/>
       <use xlink:href="#DejaVuSans-35" x="313.427734"/>
       <use xlink:href="#DejaVuSans-29" x="377.050781"/>
      </g>
     </g>
    </g>
   </g>
   <g id="matplotlib.axis_2">
    <g id="ytick_1">
     <g id="line2d_6">
      <defs>
       <path id="mc6cb799ccd" d="M 0 0 
L -3 0 
" style="stroke: #000000; stroke-width: 0.8"/>
      </defs>
      <g>
       <use xlink:href="#mc6cb799ccd" x="180" y="308.88" style="stroke: #000000; stroke-width: 0.8"/>
      </g>
     </g>
     <g id="text_6">
      <!-- 0.2 -->
      <g transform="translate(141.69375 316.478437) scale(0.2 -0.2)">
       <defs>
        <path id="DejaVuSans-30" d="M 2034 4250 
Q 1547 4250 1301 3770 
Q 1056 3291 1056 2328 
Q 1056 1369 1301 889 
Q 1547 409 2034 409 
Q 2525 409 2770 889 
Q 3016 1369 3016 2328 
Q 3016 3291 2770 3770 
Q 2525 4250 2034 4250 
z
M 2034 4750 
Q 2819 4750 3233 4129 
Q 3647 3509 3647 2328 
Q 3647 1150 3233 529 
Q 2819 -91 2034 -91 
Q 1250 -91 836 529 
Q 422 1150 422 2328 
Q 422 3509 836 4129 
Q 1250 4750 2034 4750 
z
" transform="scale(0.015625)"/>
        <path id="DejaVuSans-2e" d="M 684 794 
L 1344 794 
L 1344 0 
L 684 0 
L 684 794 
z
" transform="scale(0.015625)"/>
       </defs>
       <use xlink:href="#DejaVuSans-30"/>
       <use xlink:href="#DejaVuSans-2e" x="63.623047"/>
       <use xlink:href="#DejaVuSans-32" x="95.410156"/>
      </g>
     </g>
    </g>
    <g id="ytick_2">
     <g id="line2d_7">
      <g>
       <use xlink:href="#mc6cb799ccd" x="180" y="248.4" style="stroke: #000000; stroke-width: 0.8"/>
      </g>
     </g>
     <g id="text_7">
      <!-- 0.4 -->
      <g transform="translate(141.69375 255.998437) scale(0.2 -0.2)">
       <use xlink:href="#DejaVuSans-30"/>
       <use xlink:href="#DejaVuSans-2e" x="63.623047"/>
       <use xlink:href="#DejaVuSans-34" x="95.410156"/>
      </g>
     </g>
    </g>
    <g id="ytick_3">
     <g id="line2d_8">
      <g>
       <use xlink:href="#mc6cb799ccd" x="180" y="187.92" style="stroke: #000000; stroke-width: 0.8"/>
      </g>
     </g>
     <g id="text_8">
      <!-- 0.6 -->
      <g transform="translate(141.69375 195.518437) scale(0.2 -0.2)">
       <use xlink:href="#DejaVuSans-30"/>
       <use xlink:href="#DejaVuSans-2e" x="63.623047"/>
       <use xlink:href="#DejaVuSans-36" x="95.410156"/>
      </g>
     </g>
    </g>
    <g id="ytick_4">
     <g id="line2d_9">
      <g>
       <use xlink:href="#mc6cb799ccd" x="180" y="127.44" style="stroke: #000000; stroke-width: 0.8"/>
      </g>
     </g>
     <g id="text_9">
      <!-- 0.8 -->
      <g transform="translate(141.69375 135.038437) scale(0.2 -0.2)">
       <use xlink:href="#DejaVuSans-30"/>
       <use xlink:href="#DejaVuSans-2e" x="63.623047"/>
       <use xlink:href="#DejaVuSans-38" x="95.410156"/>
      </g>
     </g>
    </g>
    <g id="text_10">
     <!-- P(AMP) -->
     <g transform="translate(133.534375 259.650625) rotate(-90) scale(0.2 -0.2)">
      <defs>
       <path id="DejaVuSans-Bold-50" d="M 588 4666 
L 2584 4666 
Q 3475 4666 3951 4270 
Q 4428 3875 4428 3144 
Q 4428 2409 3951 2014 
Q 3475 1619 2584 1619 
L 1791 1619 
L 1791 0 
L 588 0 
L 588 4666 
z
M 1791 3794 
L 1791 2491 
L 2456 2491 
Q 2806 2491 2997 2661 
Q 3188 2831 3188 3144 
Q 3188 3456 2997 3625 
Q 2806 3794 2456 3794 
L 1791 3794 
z
" transform="scale(0.015625)"/>
       <path id="DejaVuSans-Bold-28" d="M 2413 -844 
L 1484 -844 
Q 1006 -72 778 623 
Q 550 1319 550 2003 
Q 550 2688 779 3389 
Q 1009 4091 1484 4856 
L 2413 4856 
Q 2013 4116 1813 3408 
Q 1613 2700 1613 2009 
Q 1613 1319 1811 609 
Q 2009 -100 2413 -844 
z
" transform="scale(0.015625)"/>
       <path id="DejaVuSans-Bold-41" d="M 3419 850 
L 1538 850 
L 1241 0 
L 31 0 
L 1759 4666 
L 3194 4666 
L 4922 0 
L 3713 0 
L 3419 850 
z
M 1838 1716 
L 3116 1716 
L 2478 3572 
L 1838 1716 
z
" transform="scale(0.015625)"/>
       <path id="DejaVuSans-Bold-4d" d="M 588 4666 
L 2119 4666 
L 3181 2169 
L 4250 4666 
L 5778 4666 
L 5778 0 
L 4641 0 
L 4641 3413 
L 3566 897 
L 2803 897 
L 1728 3413 
L 1728 0 
L 588 0 
L 588 4666 
z
" transform="scale(0.015625)"/>
       <path id="DejaVuSans-Bold-29" d="M 513 -844 
Q 913 -100 1113 609 
Q 1313 1319 1313 2009 
Q 1313 2700 1113 3408 
Q 913 4116 513 4856 
L 1441 4856 
Q 1916 4091 2145 3389 
Q 2375 2688 2375 2003 
Q 2375 1319 2147 623 
Q 1919 -72 1441 -844 
L 513 -844 
z
" transform="scale(0.015625)"/>
      </defs>
      <use xlink:href="#DejaVuSans-Bold-50"/>
      <use xlink:href="#DejaVuSans-Bold-28" x="73.291016"/>
      <use xlink:href="#DejaVuSans-Bold-41" x="118.994141"/>
      <use xlink:href="#DejaVuSans-Bold-4d" x="196.386719"/>
      <use xlink:href="#DejaVuSans-Bold-50" x="295.898438"/>
      <use xlink:href="#DejaVuSans-Bold-29" x="369.189453"/>
     </g>
    </g>
   </g>
   <g id="line2d_10">
    <path d="M 258.12 302.832 
L 325.08 302.832 
L 325.08 181.872 
L 258.12 181.872 
L 258.12 302.832 
" clip-path="url(#p6825af84ef)" style="fill: none; stroke: #747473; stroke-width: 1.5; stroke-linecap: square"/>
   </g>
   <g id="line2d_11">
    <path d="M 291.6 302.832 
L 291.6 363.312 
" clip-path="url(#p6825af84ef)" style="fill: none; stroke: #747473; stroke-width: 1.5; stroke-linecap: square"/>
   </g>
   <g id="line2d_12">
    <path d="M 291.6 181.872 
L 291.6 103.248 
" clip-path="url(#p6825af84ef)" style="fill: none; stroke: #747473; stroke-width: 1.5; stroke-linecap: square"/>
   </g>
   <g id="line2d_13">
    <path d="M 481.32 227.232 
L 548.28 227.232 
L 548.28 133.488 
L 481.32 133.488 
L 481.32 227.232 
" clip-path="url(#p6825af84ef)" style="fill: none; stroke: #747473; stroke-width: 1.5; stroke-linecap: square"/>
   </g>
   <g id="line2d_14">
    <path d="M 514.8 227.232 
L 514.8 354.24 
" clip-path="url(#p6825af84ef)" style="fill: none; stroke: #747473; stroke-width: 1.5; stroke-linecap: square"/>
   </g>
   <g id="line2d_15">
    <path d="M 514.8 133.488 
L 514.8 66.96 
" clip-path="url(#p6825af84ef)" style="fill: none; stroke: #747473; stroke-width: 1.5; stroke-linecap: square"/>
   </g>
   <g id="line2d_16">
    <path d="M 704.52 242.352 
L 771.48 242.352 
L 771.48 139.536 
L 704.52 139.536 
L 704.52 242.352 
" clip-path="url(#p6825af84ef)" style="fill: none; stroke: #747473; stroke-width: 1.5; stroke-linecap: square"/>
   </g>
   <g id="line2d_17">
    <path d="M 738 242.352 
L 738 369.36 
" clip-path="url(#p6825af84ef)" style="fill: none; stroke: #747473; stroke-width: 1.5; stroke-linecap: square"/>
   </g>
   <g id="line2d_18">
    <path d="M 738 139.536 
L 738 66.96 
" clip-path="url(#p6825af84ef)" style="fill: none; stroke: #747473; stroke-width: 1.5; stroke-linecap: square"/>
   </g>
   <g id="line2d_19">
    <path d="M 927.72 284.688 
L 994.68 284.688 
L 994.68 172.8 
L 927.72 172.8 
L 927.72 284.688 
" clip-path="url(#p6825af84ef)" style="fill: none; stroke: #747473; stroke-width: 1.5; stroke-linecap: square"/>
   </g>
   <g id="line2d_20">
    <path d="M 961.2 284.688 
L 961.2 366.336 
" clip-path="url(#p6825af84ef)" style="fill: none; stroke: #747473; stroke-width: 1.5; stroke-linecap: square"/>
   </g>
   <g id="line2d_21">
    <path d="M 961.2 172.8 
L 961.2 76.032 
" clip-path="url(#p6825af84ef)" style="fill: none; stroke: #747473; stroke-width: 1.5; stroke-linecap: square"/>
   </g>
   <g id="line2d_22">
    <path d="M 1150.92 301.32 
L 1217.88 301.32 
L 1217.88 178.848 
L 1150.92 178.848 
L 1150.92 301.32 
" clip-path="url(#p6825af84ef)" style="fill: none; stroke: #747473; stroke-width: 1.5; stroke-linecap: square"/>
   </g>
   <g id="line2d_23">
    <path d="M 1184.4 301.32 
L 1184.4 369.36 
" clip-path="url(#p6825af84ef)" style="fill: none; stroke: #747473; stroke-width: 1.5; stroke-linecap: square"/>
   </g>
   <g id="line2d_24">
    <path d="M 1184.4 178.848 
L 1184.4 118.368 
" clip-path="url(#p6825af84ef)" style="fill: none; stroke: #747473; stroke-width: 1.5; stroke-linecap: square"/>
   </g>
   <g id="line2d_25">
    <path d="M 258.12 230.256 
L 325.08 230.256 
" clip-path="url(#p6825af84ef)" style="fill: none; stroke: #747473; stroke-width: 2"/>
   </g>
   <g id="line2d_26">
    <path d="M 481.32 178.848 
L 548.28 178.848 
" clip-path="url(#p6825af84ef)" style="fill: none; stroke: #747473; stroke-width: 2"/>
   </g>
   <g id="line2d_27">
    <path d="M 704.52 187.92 
L 771.48 187.92 
" clip-path="url(#p6825af84ef)" style="fill: none; stroke: #747473; stroke-width: 2"/>
   </g>
   <g id="line2d_28">
    <path d="M 927.72 215.136 
L 994.68 215.136 
" clip-path="url(#p6825af84ef)" style="fill: none; stroke: #747473; stroke-width: 2"/>
   </g>
   <g id="line2d_29">
    <path d="M 1150.92 236.304 
L 1217.88 236.304 
" clip-path="url(#p6825af84ef)" style="fill: none; stroke: #747473; stroke-width: 2"/>
   </g>
   <g id="patch_3">
    <path d="M 180 384.48 
L 180 51.84 
" style="fill: none; stroke: #b4aea9; stroke-width: 2; stroke-linejoin: miter; stroke-linecap: square"/>
   </g>
   <g id="patch_4">
    <path d="M 1296 384.48 
L 1296 51.84 
" style="fill: none"/>
   </g>
   <g id="patch_5">
    <path d="M 180 384.48 
L 1296 384.48 
" style="fill: none; stroke: #b4aea9; stroke-width: 2; stroke-linejoin: miter; stroke-linecap: square"/>
   </g>
   <g id="patch_6">
    <path d="M 180 51.84 
L 1296 51.84 
" style="fill: none"/>
   </g>
   <g id="line2d_30">
    <path d="M 291.6 240.959055 
L 347.4 240.959055 
" clip-path="url(#p6825af84ef)" style="fill: none; stroke-dasharray: 9.6,2.4,1.5,2.4; stroke-dashoffset: 0; stroke: #000000; stroke-width: 1.5"/>
   </g>
   <g id="line2d_31">
    <path d="M 514.8 183.985509 
L 570.6 183.985509 
" clip-path="url(#p6825af84ef)" style="fill: none; stroke-dasharray: 9.6,2.4,1.5,2.4; stroke-dashoffset: 0; stroke: #000000; stroke-width: 1.5"/>
   </g>
   <g id="line2d_32">
    <path d="M 738 195.628161 
L 793.8 195.628161 
" clip-path="url(#p6825af84ef)" style="fill: none; stroke-dasharray: 9.6,2.4,1.5,2.4; stroke-dashoffset: 0; stroke: #000000; stroke-width: 1.5"/>
   </g>
   <g id="line2d_33">
    <path d="M 961.2 227.907754 
L 1017 227.907754 
" clip-path="url(#p6825af84ef)" style="fill: none; stroke-dasharray: 9.6,2.4,1.5,2.4; stroke-dashoffset: 0; stroke: #000000; stroke-width: 1.5"/>
   </g>
   <g id="line2d_34">
    <path d="M 1184.4 241.852383 
L 1240.2 241.852383 
" clip-path="url(#p6825af84ef)" style="fill: none; stroke-dasharray: 9.6,2.4,1.5,2.4; stroke-dashoffset: 0; stroke: #000000; stroke-width: 1.5"/>
   </g>
   <g id="text_11">
    <g id="patch_7">
     <path d="M 347.4 253.63718 
L 482.2 253.63718 
Q 485.2 253.63718 485.2 250.63718 
L 485.2 231.28093 
Q 485.2 228.28093 482.2 228.28093 
L 347.4 228.28093 
Q 344.4 228.28093 344.4 231.28093 
L 344.4 250.63718 
Q 344.4 253.63718 347.4 253.63718 
z
" style="fill: #ffffff; stroke: #000000; stroke-linejoin: miter"/>
    </g>
    <!-- ${\mu}_{\rm{mean}} = $0.425 -->
    <g transform="translate(347.4 246.43718) scale(0.2 -0.2)">
     <defs>
      <path id="DejaVuSans-Oblique-3bc" d="M -84 -1331 
L 856 3500 
L 1434 3500 
L 1009 1322 
Q 997 1256 987 1175 
Q 978 1094 978 1013 
Q 978 722 1161 565 
Q 1344 409 1684 409 
Q 2147 409 2431 671 
Q 2716 934 2816 1459 
L 3213 3500 
L 3788 3500 
L 3266 809 
Q 3253 750 3248 706 
Q 3244 663 3244 628 
Q 3244 531 3283 486 
Q 3322 441 3406 441 
Q 3438 441 3492 456 
Q 3547 472 3647 513 
L 3559 50 
Q 3422 -19 3297 -55 
Q 3172 -91 3053 -91 
Q 2847 -91 2730 40 
Q 2613 172 2613 403 
Q 2438 153 2195 31 
Q 1953 -91 1625 -91 
Q 1334 -91 1117 43 
Q 900 178 831 397 
L 494 -1331 
L -84 -1331 
z
" transform="scale(0.015625)"/>
      <path id="DejaVuSans-6d" d="M 3328 2828 
Q 3544 3216 3844 3400 
Q 4144 3584 4550 3584 
Q 5097 3584 5394 3201 
Q 5691 2819 5691 2113 
L 5691 0 
L 5113 0 
L 5113 2094 
Q 5113 2597 4934 2840 
Q 4756 3084 4391 3084 
Q 3944 3084 3684 2787 
Q 3425 2491 3425 1978 
L 3425 0 
L 2847 0 
L 2847 2094 
Q 2847 2600 2669 2842 
Q 2491 3084 2119 3084 
Q 1678 3084 1418 2786 
Q 1159 2488 1159 1978 
L 1159 0 
L 581 0 
L 581 3500 
L 1159 3500 
L 1159 2956 
Q 1356 3278 1631 3431 
Q 1906 3584 2284 3584 
Q 2666 3584 2933 3390 
Q 3200 3197 3328 2828 
z
" transform="scale(0.015625)"/>
      <path id="DejaVuSans-65" d="M 3597 1894 
L 3597 1613 
L 953 1613 
Q 991 1019 1311 708 
Q 1631 397 2203 397 
Q 2534 397 2845 478 
Q 3156 559 3463 722 
L 3463 178 
Q 3153 47 2828 -22 
Q 2503 -91 2169 -91 
Q 1331 -91 842 396 
Q 353 884 353 1716 
Q 353 2575 817 3079 
Q 1281 3584 2069 3584 
Q 2775 3584 3186 3129 
Q 3597 2675 3597 1894 
z
M 3022 2063 
Q 3016 2534 2758 2815 
Q 2500 3097 2075 3097 
Q 1594 3097 1305 2825 
Q 1016 2553 972 2059 
L 3022 2063 
z
" transform="scale(0.015625)"/>
     </defs>
     <use xlink:href="#DejaVuSans-Oblique-3bc" transform="translate(0 0.78125)"/>
     <use xlink:href="#DejaVuSans-6d" transform="translate(63.623047 -15.625) scale(0.7)"/>
     <use xlink:href="#DejaVuSans-65" transform="translate(131.811523 -15.625) scale(0.7)"/>
     <use xlink:href="#DejaVuSans-61" transform="translate(174.87793 -15.625) scale(0.7)"/>
     <use xlink:href="#DejaVuSans-6e" transform="translate(217.773438 -15.625) scale(0.7)"/>
     <use xlink:href="#DejaVuSans-3d" transform="translate(284.355469 0.78125)"/>
     <use xlink:href="#DejaVuSans-30" transform="translate(387.626953 0.78125)"/>
     <use xlink:href="#DejaVuSans-2e" transform="translate(451.25 0.78125)"/>
     <use xlink:href="#DejaVuSans-34" transform="translate(483.037109 0.78125)"/>
     <use xlink:href="#DejaVuSans-32" transform="translate(546.660156 0.78125)"/>
     <use xlink:href="#DejaVuSans-35" transform="translate(610.283203 0.78125)"/>
    </g>
   </g>
   <g id="text_12">
    <g id="patch_8">
     <path d="M 570.6 196.663634 
L 705.4 196.663634 
Q 708.4 196.663634 708.4 193.663634 
L 708.4 174.307384 
Q 708.4 171.307384 705.4 171.307384 
L 570.6 171.307384 
Q 567.6 171.307384 567.6 174.307384 
L 567.6 193.663634 
Q 567.6 196.663634 570.6 196.663634 
z
" style="fill: #ffffff; stroke: #000000; stroke-linejoin: miter"/>
    </g>
    <!-- ${\mu}_{\rm{mean}} = $0.613 -->
    <g transform="translate(570.6 189.463634) scale(0.2 -0.2)">
     <use xlink:href="#DejaVuSans-Oblique-3bc" transform="translate(0 0.78125)"/>
     <use xlink:href="#DejaVuSans-6d" transform="translate(63.623047 -15.625) scale(0.7)"/>
     <use xlink:href="#DejaVuSans-65" transform="translate(131.811523 -15.625) scale(0.7)"/>
     <use xlink:href="#DejaVuSans-61" transform="translate(174.87793 -15.625) scale(0.7)"/>
     <use xlink:href="#DejaVuSans-6e" transform="translate(217.773438 -15.625) scale(0.7)"/>
     <use xlink:href="#DejaVuSans-3d" transform="translate(284.355469 0.78125)"/>
     <use xlink:href="#DejaVuSans-30" transform="translate(387.626953 0.78125)"/>
     <use xlink:href="#DejaVuSans-2e" transform="translate(451.25 0.78125)"/>
     <use xlink:href="#DejaVuSans-36" transform="translate(483.037109 0.78125)"/>
     <use xlink:href="#DejaVuSans-31" transform="translate(546.660156 0.78125)"/>
     <use xlink:href="#DejaVuSans-33" transform="translate(610.283203 0.78125)"/>
    </g>
   </g>
   <g id="text_13">
    <g id="patch_9">
     <path d="M 793.8 208.306286 
L 927.2 208.306286 
Q 930.2 208.306286 930.2 205.306286 
L 930.2 185.950036 
Q 930.2 182.950036 927.2 182.950036 
L 793.8 182.950036 
Q 790.8 182.950036 790.8 185.950036 
L 790.8 205.306286 
Q 790.8 208.306286 793.8 208.306286 
z
" style="fill: #ffffff; stroke: #000000; stroke-linejoin: miter"/>
    </g>
    <!-- ${\mu}_{\rm{mean}} = $0.575 -->
    <g transform="translate(793.8 201.106286) scale(0.2 -0.2)">
     <use xlink:href="#DejaVuSans-Oblique-3bc" transform="translate(0 0.78125)"/>
     <use xlink:href="#DejaVuSans-6d" transform="translate(63.623047 -15.625) scale(0.7)"/>
     <use xlink:href="#DejaVuSans-65" transform="translate(131.811523 -15.625) scale(0.7)"/>
     <use xlink:href="#DejaVuSans-61" transform="translate(174.87793 -15.625) scale(0.7)"/>
     <use xlink:href="#DejaVuSans-6e" transform="translate(217.773438 -15.625) scale(0.7)"/>
     <use xlink:href="#DejaVuSans-3d" transform="translate(284.355469 0.78125)"/>
     <use xlink:href="#DejaVuSans-30" transform="translate(387.626953 0.78125)"/>
     <use xlink:href="#DejaVuSans-2e" transform="translate(451.25 0.78125)"/>
     <use xlink:href="#DejaVuSans-35" transform="translate(483.037109 0.78125)"/>
     <use xlink:href="#DejaVuSans-37" transform="translate(539.410156 0.78125)"/>
     <use xlink:href="#DejaVuSans-35" transform="translate(603.033203 0.78125)"/>
    </g>
   </g>
   <g id="text_14">
    <g id="patch_10">
     <path d="M 1017 240.585879 
L 1151.8 240.585879 
Q 1154.8 240.585879 1154.8 237.585879 
L 1154.8 218.229629 
Q 1154.8 215.229629 1151.8 215.229629 
L 1017 215.229629 
Q 1014 215.229629 1014 218.229629 
L 1014 237.585879 
Q 1014 240.585879 1017 240.585879 
z
" style="fill: #ffffff; stroke: #000000; stroke-linejoin: miter"/>
    </g>
    <!-- ${\mu}_{\rm{mean}} = $0.468 -->
    <g transform="translate(1017 233.385879) scale(0.2 -0.2)">
     <use xlink:href="#DejaVuSans-Oblique-3bc" transform="translate(0 0.78125)"/>
     <use xlink:href="#DejaVuSans-6d" transform="translate(63.623047 -15.625) scale(0.7)"/>
     <use xlink:href="#DejaVuSans-65" transform="translate(131.811523 -15.625) scale(0.7)"/>
     <use xlink:href="#DejaVuSans-61" transform="translate(174.87793 -15.625) scale(0.7)"/>
     <use xlink:href="#DejaVuSans-6e" transform="translate(217.773438 -15.625) scale(0.7)"/>
     <use xlink:href="#DejaVuSans-3d" transform="translate(284.355469 0.78125)"/>
     <use xlink:href="#DejaVuSans-30" transform="translate(387.626953 0.78125)"/>
     <use xlink:href="#DejaVuSans-2e" transform="translate(451.25 0.78125)"/>
     <use xlink:href="#DejaVuSans-34" transform="translate(483.037109 0.78125)"/>
     <use xlink:href="#DejaVuSans-36" transform="translate(546.660156 0.78125)"/>
     <use xlink:href="#DejaVuSans-38" transform="translate(610.283203 0.78125)"/>
    </g>
   </g>
   <g id="text_15">
    <g id="patch_11">
     <path d="M 1240.2 254.530508 
L 1375 254.530508 
Q 1378 254.530508 1378 251.530508 
L 1378 232.174258 
Q 1378 229.174258 1375 229.174258 
L 1240.2 229.174258 
Q 1237.2 229.174258 1237.2 232.174258 
L 1237.2 251.530508 
Q 1237.2 254.530508 1240.2 254.530508 
z
" style="fill: #ffffff; stroke: #000000; stroke-linejoin: miter"/>
    </g>
    <!-- ${\mu}_{\rm{mean}} = $0.422 -->
    <g transform="translate(1240.2 247.330508) scale(0.2 -0.2)">
     <use xlink:href="#DejaVuSans-Oblique-3bc" transform="translate(0 0.78125)"/>
     <use xlink:href="#DejaVuSans-6d" transform="translate(63.623047 -15.625) scale(0.7)"/>
     <use xlink:href="#DejaVuSans-65" transform="translate(131.811523 -15.625) scale(0.7)"/>
     <use xlink:href="#DejaVuSans-61" transform="translate(174.87793 -15.625) scale(0.7)"/>
     <use xlink:href="#DejaVuSans-6e" transform="translate(217.773438 -15.625) scale(0.7)"/>
     <use xlink:href="#DejaVuSans-3d" transform="translate(284.355469 0.78125)"/>
     <use xlink:href="#DejaVuSans-30" transform="translate(387.626953 0.78125)"/>
     <use xlink:href="#DejaVuSans-2e" transform="translate(451.25 0.78125)"/>
     <use xlink:href="#DejaVuSans-34" transform="translate(483.037109 0.78125)"/>
     <use xlink:href="#DejaVuSans-32" transform="translate(546.660156 0.78125)"/>
     <use xlink:href="#DejaVuSans-32" transform="translate(610.283203 0.78125)"/>
    </g>
   </g>
  </g>
 </g>
 <defs>
  <clipPath id="p6825af84ef">
   <rect x="180" y="51.84" width="1116" height="332.64"/>
  </clipPath>
 </defs>
</svg>
