<?xml version="1.0" encoding="utf-8" standalone="no"?>
<!DOCTYPE svg PUBLIC "-//W3C//DTD SVG 1.1//EN"
  "http://www.w3.org/Graphics/SVG/1.1/DTD/svg11.dtd">
<svg xmlns:xlink="http://www.w3.org/1999/xlink" width="720pt" height="720pt" viewBox="0 0 720 720" xmlns="http://www.w3.org/2000/svg" version="1.1">
 <metadata>
  <rdf:RDF xmlns:dc="http://purl.org/dc/elements/1.1/" xmlns:cc="http://creativecommons.org/ns#" xmlns:rdf="http://www.w3.org/1999/02/22-rdf-syntax-ns#">
   <cc:Work>
    <dc:type rdf:resource="http://purl.org/dc/dcmitype/StillImage"/>
    <dc:date>2023-09-01T10:23:15.430540</dc:date>
    <dc:format>image/svg+xml</dc:format>
    <dc:creator>
     <cc:Agent>
      <dc:title>Matplotlib v3.7.1, https://matplotlib.org/</dc:title>
     </cc:Agent>
    </dc:creator>
   </cc:Work>
  </rdf:RDF>
 </metadata>
 <defs>
  <style type="text/css">*{stroke-linejoin: round; stroke-linecap: butt}</style>
 </defs>
 <g id="figure_1">
  <g id="axes_1">
   <g id="patch_1">
    <path d="M 10.8 709.2 
L 709.2 709.2 
L 709.2 10.8 
L 10.8 10.8 
L 10.8 709.2 
z
" style="fill: none"/>
   </g>
   <g id="line2d_1">
    <path d="M 360 110.571429 
L 605.639191 403.312817 
" clip-path="url(#pdc57799d1e)" style="fill: none; stroke: #000000; stroke-width: 5.457143; stroke-linecap: square"/>
   </g>
   <g id="line2d_2">
    <path d="M 605.639191 403.312817 
L 274.690404 594.386188 
" clip-path="url(#pdc57799d1e)" style="fill: none; stroke: #000000; stroke-width: 5.278571; stroke-linecap: square"/>
   </g>
   <g id="line2d_3">
    <path d="M 274.690404 594.386188 
L 143.988521 235.285714 
" clip-path="url(#pdc57799d1e)" style="fill: none; stroke: #000000; stroke-width: 5.1; stroke-linecap: square"/>
   </g>
   <g id="line2d_4">
    <path d="M 143.988521 235.285714 
L 520.329595 168.926629 
" clip-path="url(#pdc57799d1e)" style="fill: none; stroke: #000000; stroke-width: 4.921429; stroke-linecap: square"/>
   </g>
   <g id="line2d_5">
    <path d="M 520.329595 168.926629 
L 520.329595 551.073371 
" clip-path="url(#pdc57799d1e)" style="fill: none; stroke: #000000; stroke-width: 4.742857; stroke-linecap: square"/>
   </g>
   <g id="line2d_6">
    <path d="M 520.329595 551.073371 
L 143.988521 484.714286 
" clip-path="url(#pdc57799d1e)" style="fill: none; stroke: #000000; stroke-width: 4.564286; stroke-linecap: square"/>
   </g>
   <g id="line2d_7">
    <path d="M 143.988521 484.714286 
L 274.690404 125.613812 
" clip-path="url(#pdc57799d1e)" style="fill: none; stroke: #000000; stroke-width: 4.385714; stroke-linecap: square"/>
   </g>
   <g id="line2d_8">
    <path d="M 274.690404 125.613812 
L 605.639191 316.687183 
" clip-path="url(#pdc57799d1e)" style="fill: none; stroke: #000000; stroke-width: 4.207143; stroke-linecap: square"/>
   </g>
   <g id="line2d_9">
    <path d="M 605.639191 316.687183 
L 360 609.428571 
" clip-path="url(#pdc57799d1e)" style="fill: none; stroke: #000000; stroke-width: 4.028571; stroke-linecap: square"/>
   </g>
   <g id="line2d_10">
    <path d="M 360 609.428571 
L 114.360809 316.687183 
" clip-path="url(#pdc57799d1e)" style="fill: none; stroke: #000000; stroke-width: 3.85; stroke-linecap: square"/>
   </g>
   <g id="line2d_11">
    <path d="M 114.360809 316.687183 
L 445.309596 125.613812 
" clip-path="url(#pdc57799d1e)" style="fill: none; stroke: #000000; stroke-width: 3.671429; stroke-linecap: square"/>
   </g>
   <g id="line2d_12">
    <path d="M 445.309596 125.613812 
L 576.011479 484.714286 
" clip-path="url(#pdc57799d1e)" style="fill: none; stroke: #000000; stroke-width: 3.492857; stroke-linecap: square"/>
   </g>
   <g id="line2d_13">
    <path d="M 576.011479 484.714286 
L 199.670405 551.073371 
" clip-path="url(#pdc57799d1e)" style="fill: none; stroke: #000000; stroke-width: 3.314286; stroke-linecap: square"/>
   </g>
   <g id="line2d_14">
    <path d="M 199.670405 551.073371 
L 199.670405 168.926629 
" clip-path="url(#pdc57799d1e)" style="fill: none; stroke: #000000; stroke-width: 3.135714; stroke-linecap: square"/>
   </g>
   <g id="line2d_15">
    <path d="M 199.670405 168.926629 
L 576.011479 235.285714 
" clip-path="url(#pdc57799d1e)" style="fill: none; stroke: #000000; stroke-width: 2.957143; stroke-linecap: square"/>
   </g>
   <g id="line2d_16">
    <path d="M 576.011479 235.285714 
L 445.309596 594.386188 
" clip-path="url(#pdc57799d1e)" style="fill: none; stroke: #000000; stroke-width: 2.778571; stroke-linecap: square"/>
   </g>
   <g id="line2d_17">
    <path d="M 445.309596 594.386188 
L 114.360809 403.312817 
" clip-path="url(#pdc57799d1e)" style="fill: none; stroke: #000000; stroke-width: 2.6; stroke-linecap: square"/>
   </g>
   <g id="line2d_18">
    <path d="M 114.360809 403.312817 
L 360 110.571429 
" clip-path="url(#pdc57799d1e)" style="fill: none; stroke: #000000; stroke-width: 2.421429; stroke-linecap: square"/>
   </g>
   <g id="line2d_19">
    <path d="M 360 110.571429 
L 605.639191 403.312817 
" clip-path="url(#pdc57799d1e)" style="fill: none; stroke: #000000; stroke-width: 2.242857; stroke-linecap: square"/>
   </g>
   <g id="line2d_20">
    <path d="M 605.639191 403.312817 
L 274.690404 594.386188 
" clip-path="url(#pdc57799d1e)" style="fill: none; stroke: #000000; stroke-width: 2.064286; stroke-linecap: square"/>
   </g>
   <g id="line2d_21">
    <path d="M 274.690404 594.386188 
L 143.988521 235.285714 
" clip-path="url(#pdc57799d1e)" style="fill: none; stroke: #000000; stroke-width: 1.885714; stroke-linecap: square"/>
   </g>
   <g id="line2d_22">
    <path d="M 143.988521 235.285714 
L 520.329595 168.926629 
" clip-path="url(#pdc57799d1e)" style="fill: none; stroke: #000000; stroke-width: 1.707143; stroke-linecap: square"/>
   </g>
   <g id="line2d_23">
    <path d="M 520.329595 168.926629 
L 520.329595 551.073371 
" clip-path="url(#pdc57799d1e)" style="fill: none; stroke: #000000; stroke-width: 1.528571; stroke-linecap: square"/>
   </g>
   <g id="line2d_24">
    <path d="M 520.329595 551.073371 
L 143.988521 484.714286 
" clip-path="url(#pdc57799d1e)" style="fill: none; stroke: #000000; stroke-width: 1.35; stroke-linecap: square"/>
   </g>
   <g id="line2d_25">
    <path d="M 143.988521 484.714286 
L 274.690404 125.613812 
" clip-path="url(#pdc57799d1e)" style="fill: none; stroke: #000000; stroke-width: 1.171429; stroke-linecap: square"/>
   </g>
   <g id="line2d_26">
    <path d="M 274.690404 125.613812 
L 605.639191 316.687183 
" clip-path="url(#pdc57799d1e)" style="fill: none; stroke: #000000; stroke-width: 0.992857; stroke-linecap: square"/>
   </g>
   <g id="line2d_27">
    <path d="M 605.639191 316.687183 
L 360 609.428571 
" clip-path="url(#pdc57799d1e)" style="fill: none; stroke: #000000; stroke-width: 0.814286; stroke-linecap: square"/>
   </g>
   <g id="line2d_28">
    <path d="M 360 609.428571 
L 114.360809 316.687183 
" clip-path="url(#pdc57799d1e)" style="fill: none; stroke: #000000; stroke-width: 0.635714; stroke-linecap: square"/>
   </g>
   <g id="patch_2">
    <path d="M 509.633453 288.529422 
L 505.031338 296.255969 
L 502.935026 291.867053 
L 360.053752 360.112536 
L 359.946248 359.887464 
L 502.827523 291.641981 
L 500.731211 287.253065 
z
" clip-path="url(#pdc57799d1e)" style="stroke: #000000; stroke-width: 6; stroke-linejoin: miter"/>
   </g>
   <g id="patch_3">
    <path d="M 360 135.514286 
C 366.614923 135.514286 372.959806 132.886149 377.637263 128.208692 
C 382.31472 123.531235 384.942857 117.186352 384.942857 110.571429 
C 384.942857 103.956506 382.31472 97.611622 377.637263 92.934165 
C 372.959806 88.256708 366.614923 85.628571 360 85.628571 
C 353.385077 85.628571 347.040194 88.256708 342.362737 92.934165 
C 337.68528 97.611622 335.057143 103.956506 335.057143 110.571429 
C 335.057143 117.186352 337.68528 123.531235 342.362737 128.208692 
C 347.040194 132.886149 353.385077 135.514286 360 135.514286 
z
" clip-path="url(#pdc57799d1e)" style="stroke: #000000; stroke-linejoin: miter"/>
   </g>
   <g id="patch_4">
    <path d="M 605.639191 428.255674 
C 612.254114 428.255674 618.598997 425.627537 623.276454 420.95008 
C 627.953911 416.272623 630.582048 409.92774 630.582048 403.312817 
C 630.582048 396.697894 627.953911 390.35301 623.276454 385.675553 
C 618.598997 380.998097 612.254114 378.36996 605.639191 378.36996 
C 599.024268 378.36996 592.679384 380.998097 588.001928 385.675553 
C 583.324471 390.35301 580.696334 396.697894 580.696334 403.312817 
C 580.696334 409.92774 583.324471 416.272623 588.001928 420.95008 
C 592.679384 425.627537 599.024268 428.255674 605.639191 428.255674 
z
" clip-path="url(#pdc57799d1e)" style="stroke: #000000; stroke-linejoin: miter"/>
   </g>
   <g id="patch_5">
    <path d="M 274.690404 619.329045 
C 281.305327 619.329045 287.650211 616.700908 292.327668 612.023451 
C 297.005125 607.345994 299.633261 601.001111 299.633261 594.386188 
C 299.633261 587.771265 297.005125 581.426381 292.327668 576.748925 
C 287.650211 572.071468 281.305327 569.443331 274.690404 569.443331 
C 268.075481 569.443331 261.730598 572.071468 257.053141 576.748925 
C 252.375684 581.426381 249.747547 587.771265 249.747547 594.386188 
C 249.747547 601.001111 252.375684 607.345994 257.053141 612.023451 
C 261.730598 616.700908 268.075481 619.329045 274.690404 619.329045 
z
" clip-path="url(#pdc57799d1e)" style="stroke: #000000; stroke-linejoin: miter"/>
   </g>
   <g id="patch_6">
    <path d="M 143.988521 260.228571 
C 150.603444 260.228571 156.948327 257.600435 161.625784 252.922978 
C 166.303241 248.245521 168.931378 241.900637 168.931378 235.285714 
C 168.931378 228.670791 166.303241 222.325908 161.625784 217.648451 
C 156.948327 212.970994 150.603444 210.342857 143.988521 210.342857 
C 137.373598 210.342857 131.028714 212.970994 126.351257 217.648451 
C 121.6738 222.325908 119.045664 228.670791 119.045664 235.285714 
C 119.045664 241.900637 121.6738 248.245521 126.351257 252.922978 
C 131.028714 257.600435 137.373598 260.228571 143.988521 260.228571 
z
" clip-path="url(#pdc57799d1e)" style="stroke: #000000; stroke-linejoin: miter"/>
   </g>
   <g id="patch_7">
    <path d="M 520.329595 193.869486 
C 526.944518 193.869486 533.289402 191.241349 537.966859 186.563892 
C 542.644316 181.886435 545.272452 175.541552 545.272452 168.926629 
C 545.272452 162.311706 542.644316 155.966822 537.966859 151.289365 
C 533.289402 146.611909 526.944518 143.983772 520.329595 143.983772 
C 513.714672 143.983772 507.369789 146.611909 502.692332 151.289365 
C 498.014875 155.966822 495.386738 162.311706 495.386738 168.926629 
C 495.386738 175.541552 498.014875 181.886435 502.692332 186.563892 
C 507.369789 191.241349 513.714672 193.869486 520.329595 193.869486 
z
" clip-path="url(#pdc57799d1e)" style="stroke: #000000; stroke-linejoin: miter"/>
   </g>
   <g id="patch_8">
    <path d="M 520.329595 576.016228 
C 526.944518 576.016228 533.289402 573.388091 537.966859 568.710635 
C 542.644316 564.033178 545.272452 557.688294 545.272452 551.073371 
C 545.272452 544.458448 542.644316 538.113565 537.966859 533.436108 
C 533.289402 528.758651 526.944518 526.130514 520.329595 526.130514 
C 513.714672 526.130514 507.369789 528.758651 502.692332 533.436108 
C 498.014875 538.113565 495.386738 544.458448 495.386738 551.073371 
C 495.386738 557.688294 498.014875 564.033178 502.692332 568.710635 
C 507.369789 573.388091 513.714672 576.016228 520.329595 576.016228 
z
" clip-path="url(#pdc57799d1e)" style="stroke: #000000; stroke-linejoin: miter"/>
   </g>
   <g id="patch_9">
    <path d="M 143.988521 509.657143 
C 150.603444 509.657143 156.948327 507.029006 161.625784 502.351549 
C 166.303241 497.674092 168.931378 491.329209 168.931378 484.714286 
C 168.931378 478.099363 166.303241 471.754479 161.625784 467.077022 
C 156.948327 462.399565 150.603444 459.771429 143.988521 459.771429 
C 137.373598 459.771429 131.028714 462.399565 126.351257 467.077022 
C 121.6738 471.754479 119.045664 478.099363 119.045664 484.714286 
C 119.045664 491.329209 121.6738 497.674092 126.351257 502.351549 
C 131.028714 507.029006 137.373598 509.657143 143.988521 509.657143 
z
" clip-path="url(#pdc57799d1e)" style="fill: #80d4ff; stroke: #000000; stroke-linejoin: miter"/>
   </g>
   <g id="patch_10">
    <path d="M 274.690404 150.556669 
C 281.305327 150.556669 287.650211 147.928532 292.327668 143.251075 
C 297.005125 138.573619 299.633261 132.228735 299.633261 125.613812 
C 299.633261 118.998889 297.005125 112.654006 292.327668 107.976549 
C 287.650211 103.299092 281.305327 100.670955 274.690404 100.670955 
C 268.075481 100.670955 261.730598 103.299092 257.053141 107.976549 
C 252.375684 112.654006 249.747547 118.998889 249.747547 125.613812 
C 249.747547 132.228735 252.375684 138.573619 257.053141 143.251075 
C 261.730598 147.928532 268.075481 150.556669 274.690404 150.556669 
z
" clip-path="url(#pdc57799d1e)" style="fill: #80d4ff; stroke: #000000; stroke-linejoin: miter"/>
   </g>
   <g id="patch_11">
    <path d="M 605.639191 341.63004 
C 612.254114 341.63004 618.598997 339.001903 623.276454 334.324447 
C 627.953911 329.64699 630.582048 323.302106 630.582048 316.687183 
C 630.582048 310.07226 627.953911 303.727377 623.276454 299.04992 
C 618.598997 294.372463 612.254114 291.744326 605.639191 291.744326 
C 599.024268 291.744326 592.679384 294.372463 588.001928 299.04992 
C 583.324471 303.727377 580.696334 310.07226 580.696334 316.687183 
C 580.696334 323.302106 583.324471 329.64699 588.001928 334.324447 
C 592.679384 339.001903 599.024268 341.63004 605.639191 341.63004 
z
" clip-path="url(#pdc57799d1e)" style="stroke: #000000; stroke-linejoin: miter"/>
   </g>
   <g id="patch_12">
    <path d="M 360 634.371429 
C 366.614923 634.371429 372.959806 631.743292 377.637263 627.065835 
C 382.31472 622.388378 384.942857 616.043494 384.942857 609.428571 
C 384.942857 602.813648 382.31472 596.468765 377.637263 591.791308 
C 372.959806 587.113851 366.614923 584.485714 360 584.485714 
C 353.385077 584.485714 347.040194 587.113851 342.362737 591.791308 
C 337.68528 596.468765 335.057143 602.813648 335.057143 609.428571 
C 335.057143 616.043494 337.68528 622.388378 342.362737 627.065835 
C 347.040194 631.743292 353.385077 634.371429 360 634.371429 
z
" clip-path="url(#pdc57799d1e)" style="stroke: #000000; stroke-linejoin: miter"/>
   </g>
   <g id="patch_13">
    <path d="M 114.360809 341.63004 
C 120.975732 341.63004 127.320616 339.001903 131.998072 334.324447 
C 136.675529 329.64699 139.303666 323.302106 139.303666 316.687183 
C 139.303666 310.07226 136.675529 303.727377 131.998072 299.04992 
C 127.320616 294.372463 120.975732 291.744326 114.360809 291.744326 
C 107.745886 291.744326 101.401003 294.372463 96.723546 299.04992 
C 92.046089 303.727377 89.417952 310.07226 89.417952 316.687183 
C 89.417952 323.302106 92.046089 329.64699 96.723546 334.324447 
C 101.401003 339.001903 107.745886 341.63004 114.360809 341.63004 
z
" clip-path="url(#pdc57799d1e)" style="fill: #80d4ff; stroke: #000000; stroke-linejoin: miter"/>
   </g>
   <g id="patch_14">
    <path d="M 445.309596 150.556669 
C 451.924519 150.556669 458.269402 147.928532 462.946859 143.251075 
C 467.624316 138.573619 470.252453 132.228735 470.252453 125.613812 
C 470.252453 118.998889 467.624316 112.654006 462.946859 107.976549 
C 458.269402 103.299092 451.924519 100.670955 445.309596 100.670955 
C 438.694673 100.670955 432.349789 103.299092 427.672332 107.976549 
C 422.994875 112.654006 420.366739 118.998889 420.366739 125.613812 
C 420.366739 132.228735 422.994875 138.573619 427.672332 143.251075 
C 432.349789 147.928532 438.694673 150.556669 445.309596 150.556669 
z
" clip-path="url(#pdc57799d1e)" style="stroke: #000000; stroke-linejoin: miter"/>
   </g>
   <g id="patch_15">
    <path d="M 576.011479 509.657143 
C 582.626402 509.657143 588.971286 507.029006 593.648743 502.351549 
C 598.3262 497.674092 600.954336 491.329209 600.954336 484.714286 
C 600.954336 478.099363 598.3262 471.754479 593.648743 467.077022 
C 588.971286 462.399565 582.626402 459.771429 576.011479 459.771429 
C 569.396556 459.771429 563.051673 462.399565 558.374216 467.077022 
C 553.696759 471.754479 551.068622 478.099363 551.068622 484.714286 
C 551.068622 491.329209 553.696759 497.674092 558.374216 502.351549 
C 563.051673 507.029006 569.396556 509.657143 576.011479 509.657143 
z
" clip-path="url(#pdc57799d1e)" style="stroke: #000000; stroke-linejoin: miter"/>
   </g>
   <g id="patch_16">
    <path d="M 199.670405 576.016228 
C 206.285328 576.016228 212.630211 573.388091 217.307668 568.710635 
C 221.985125 564.033178 224.613262 557.688294 224.613262 551.073371 
C 224.613262 544.458448 221.985125 538.113565 217.307668 533.436108 
C 212.630211 528.758651 206.285328 526.130514 199.670405 526.130514 
C 193.055482 526.130514 186.710598 528.758651 182.033141 533.436108 
C 177.355684 538.113565 174.727548 544.458448 174.727548 551.073371 
C 174.727548 557.688294 177.355684 564.033178 182.033141 568.710635 
C 186.710598 573.388091 193.055482 576.016228 199.670405 576.016228 
z
" clip-path="url(#pdc57799d1e)" style="stroke: #000000; stroke-linejoin: miter"/>
   </g>
   <g id="patch_17">
    <path d="M 199.670405 193.869486 
C 206.285328 193.869486 212.630211 191.241349 217.307668 186.563892 
C 221.985125 181.886435 224.613262 175.541552 224.613262 168.926629 
C 224.613262 162.311706 221.985125 155.966822 217.307668 151.289365 
C 212.630211 146.611909 206.285328 143.983772 199.670405 143.983772 
C 193.055482 143.983772 186.710598 146.611909 182.033141 151.289365 
C 177.355684 155.966822 174.727548 162.311706 174.727548 168.926629 
C 174.727548 175.541552 177.355684 181.886435 182.033141 186.563892 
C 186.710598 191.241349 193.055482 193.869486 199.670405 193.869486 
z
" clip-path="url(#pdc57799d1e)" style="stroke: #000000; stroke-linejoin: miter"/>
   </g>
   <g id="patch_18">
    <path d="M 576.011479 260.228571 
C 582.626402 260.228571 588.971286 257.600435 593.648743 252.922978 
C 598.3262 248.245521 600.954336 241.900637 600.954336 235.285714 
C 600.954336 228.670791 598.3262 222.325908 593.648743 217.648451 
C 588.971286 212.970994 582.626402 210.342857 576.011479 210.342857 
C 569.396556 210.342857 563.051673 212.970994 558.374216 217.648451 
C 553.696759 222.325908 551.068622 228.670791 551.068622 235.285714 
C 551.068622 241.900637 553.696759 248.245521 558.374216 252.922978 
C 563.051673 257.600435 569.396556 260.228571 576.011479 260.228571 
z
" clip-path="url(#pdc57799d1e)" style="stroke: #000000; stroke-linejoin: miter"/>
   </g>
   <g id="patch_19">
    <path d="M 445.309596 619.329045 
C 451.924519 619.329045 458.269402 616.700908 462.946859 612.023451 
C 467.624316 607.345994 470.252453 601.001111 470.252453 594.386188 
C 470.252453 587.771265 467.624316 581.426381 462.946859 576.748925 
C 458.269402 572.071468 451.924519 569.443331 445.309596 569.443331 
C 438.694673 569.443331 432.349789 572.071468 427.672332 576.748925 
C 422.994875 581.426381 420.366739 587.771265 420.366739 594.386188 
C 420.366739 601.001111 422.994875 607.345994 427.672332 612.023451 
C 432.349789 616.700908 438.694673 619.329045 445.309596 619.329045 
z
" clip-path="url(#pdc57799d1e)" style="stroke: #000000; stroke-linejoin: miter"/>
   </g>
   <g id="patch_20">
    <path d="M 114.360809 428.255674 
C 120.975732 428.255674 127.320616 425.627537 131.998072 420.95008 
C 136.675529 416.272623 139.303666 409.92774 139.303666 403.312817 
C 139.303666 396.697894 136.675529 390.35301 131.998072 385.675553 
C 127.320616 380.998097 120.975732 378.36996 114.360809 378.36996 
C 107.745886 378.36996 101.401003 380.998097 96.723546 385.675553 
C 92.046089 390.35301 89.417952 396.697894 89.417952 403.312817 
C 89.417952 409.92774 92.046089 416.272623 96.723546 420.95008 
C 101.401003 425.627537 107.745886 428.255674 114.360809 428.255674 
z
" clip-path="url(#pdc57799d1e)" style="fill: #80d4ff; stroke: #000000; stroke-linejoin: miter"/>
   </g>
   <g id="patch_21">
    <path d="M 360 85.628571 
C 366.614923 85.628571 372.959806 83.000435 377.637263 78.322978 
C 382.31472 73.645521 384.942857 67.300637 384.942857 60.685714 
C 384.942857 54.070791 382.31472 47.725908 377.637263 43.048451 
C 372.959806 38.370994 366.614923 35.742857 360 35.742857 
C 353.385077 35.742857 347.040194 38.370994 342.362737 43.048451 
C 337.68528 47.725908 335.057143 54.070791 335.057143 60.685714 
C 335.057143 67.300637 337.68528 73.645521 342.362737 78.322978 
C 347.040194 83.000435 353.385077 85.628571 360 85.628571 
z
" clip-path="url(#pdc57799d1e)" style="stroke: #000000; stroke-linejoin: miter"/>
   </g>
   <g id="patch_22">
    <path d="M 654.767029 436.918237 
C 661.381952 436.918237 667.726836 434.290101 672.404293 429.612644 
C 677.08175 424.935187 679.709886 418.590303 679.709886 411.97538 
C 679.709886 405.360457 677.08175 399.015574 672.404293 394.338117 
C 667.726836 389.66066 661.381952 387.032523 654.767029 387.032523 
C 648.152106 387.032523 641.807223 389.66066 637.129766 394.338117 
C 632.452309 399.015574 629.824172 405.360457 629.824172 411.97538 
C 629.824172 418.590303 632.452309 424.935187 637.129766 429.612644 
C 641.807223 434.290101 648.152106 436.918237 654.767029 436.918237 
z
" clip-path="url(#pdc57799d1e)" style="stroke: #000000; stroke-linejoin: miter"/>
   </g>
   <g id="patch_23">
    <path d="M 257.628485 666.206283 
C 264.243408 666.206283 270.588292 663.578146 275.265749 658.900689 
C 279.943205 654.223232 282.571342 647.878349 282.571342 641.263426 
C 282.571342 634.648503 279.943205 628.303619 275.265749 623.626162 
C 270.588292 618.948705 264.243408 616.320568 257.628485 616.320568 
C 251.013562 616.320568 244.668679 618.948705 239.991222 623.626162 
C 235.313765 628.303619 232.685628 634.648503 232.685628 641.263426 
C 232.685628 647.878349 235.313765 654.223232 239.991222 658.900689 
C 244.668679 663.578146 251.013562 666.206283 257.628485 666.206283 
z
" clip-path="url(#pdc57799d1e)" style="fill: #80d4ff; stroke: #000000; stroke-linejoin: miter"/>
   </g>
   <g id="patch_24">
    <path d="M 100.786225 235.285714 
C 107.401148 235.285714 113.746031 232.657578 118.423488 227.980121 
C 123.100945 223.302664 125.729082 216.95778 125.729082 210.342857 
C 125.729082 203.727934 123.100945 197.383051 118.423488 192.705594 
C 113.746031 188.028137 107.401148 185.4 100.786225 185.4 
C 94.171302 185.4 87.826418 188.028137 83.148961 192.705594 
C 78.471504 197.383051 75.843368 203.727934 75.843368 210.342857 
C 75.843368 216.95778 78.471504 223.302664 83.148961 227.980121 
C 87.826418 232.657578 94.171302 235.285714 100.786225 235.285714 
z
" clip-path="url(#pdc57799d1e)" style="stroke: #000000; stroke-linejoin: miter"/>
   </g>
   <g id="patch_25">
    <path d="M 552.395514 155.654812 
C 559.010437 155.654812 565.355321 153.026675 570.032778 148.349218 
C 574.710235 143.671761 577.338371 137.326878 577.338371 130.711955 
C 577.338371 124.097032 574.710235 117.752148 570.032778 113.074691 
C 565.355321 108.397234 559.010437 105.769098 552.395514 105.769098 
C 545.780591 105.769098 539.435708 108.397234 534.758251 113.074691 
C 530.080794 117.752148 527.452657 124.097032 527.452657 130.711955 
C 527.452657 137.326878 530.080794 143.671761 534.758251 148.349218 
C 539.435708 153.026675 545.780591 155.654812 552.395514 155.654812 
z
" clip-path="url(#pdc57799d1e)" style="stroke: #000000; stroke-linejoin: miter"/>
   </g>
   <g id="patch_26">
    <path d="M 552.395514 614.230902 
C 559.010437 614.230902 565.355321 611.602766 570.032778 606.925309 
C 574.710235 602.247852 577.338371 595.902968 577.338371 589.288045 
C 577.338371 582.673122 574.710235 576.328239 570.032778 571.650782 
C 565.355321 566.973325 559.010437 564.345188 552.395514 564.345188 
C 545.780591 564.345188 539.435708 566.973325 534.758251 571.650782 
C 530.080794 576.328239 527.452657 582.673122 527.452657 589.288045 
C 527.452657 595.902968 530.080794 602.247852 534.758251 606.925309 
C 539.435708 611.602766 545.780591 614.230902 552.395514 614.230902 
z
" clip-path="url(#pdc57799d1e)" style="stroke: #000000; stroke-linejoin: miter"/>
   </g>
   <g id="patch_27">
    <path d="M 100.786225 534.6 
C 107.401148 534.6 113.746031 531.971863 118.423488 527.294406 
C 123.100945 522.616949 125.729082 516.272066 125.729082 509.657143 
C 125.729082 503.04222 123.100945 496.697336 118.423488 492.019879 
C 113.746031 487.342422 107.401148 484.714286 100.786225 484.714286 
C 94.171302 484.714286 87.826418 487.342422 83.148961 492.019879 
C 78.471504 496.697336 75.843368 503.04222 75.843368 509.657143 
C 75.843368 516.272066 78.471504 522.616949 83.148961 527.294406 
C 87.826418 531.971863 94.171302 534.6 100.786225 534.6 
z
" clip-path="url(#pdc57799d1e)" style="fill: #80d4ff; stroke: #000000; stroke-linejoin: miter"/>
   </g>
   <g id="patch_28">
    <path d="M 257.628485 103.679432 
C 264.243408 103.679432 270.588292 101.051295 275.265749 96.373838 
C 279.943205 91.696381 282.571342 85.351497 282.571342 78.736574 
C 282.571342 72.121651 279.943205 65.776768 275.265749 61.099311 
C 270.588292 56.421854 264.243408 53.793717 257.628485 53.793717 
C 251.013562 53.793717 244.668679 56.421854 239.991222 61.099311 
C 235.313765 65.776768 232.685628 72.121651 232.685628 78.736574 
C 232.685628 85.351497 235.313765 91.696381 239.991222 96.373838 
C 244.668679 101.051295 251.013562 103.679432 257.628485 103.679432 
z
" clip-path="url(#pdc57799d1e)" style="stroke: #000000; stroke-linejoin: miter"/>
   </g>
   <g id="patch_29">
    <path d="M 654.767029 332.967477 
C 661.381952 332.967477 667.726836 330.33934 672.404293 325.661883 
C 677.08175 320.984426 679.709886 314.639543 679.709886 308.02462 
C 679.709886 301.409697 677.08175 295.064813 672.404293 290.387356 
C 667.726836 285.709899 661.381952 283.081763 654.767029 283.081763 
C 648.152106 283.081763 641.807223 285.709899 637.129766 290.387356 
C 632.452309 295.064813 629.824172 301.409697 629.824172 308.02462 
C 629.824172 314.639543 632.452309 320.984426 637.129766 325.661883 
C 641.807223 330.33934 648.152106 332.967477 654.767029 332.967477 
z
" clip-path="url(#pdc57799d1e)" style="stroke: #000000; stroke-linejoin: miter"/>
   </g>
   <g id="patch_30">
    <path d="M 360 684.257143 
C 366.614923 684.257143 372.959806 681.629006 377.637263 676.951549 
C 382.31472 672.274092 384.942857 665.929209 384.942857 659.314286 
C 384.942857 652.699363 382.31472 646.354479 377.637263 641.677022 
C 372.959806 636.999565 366.614923 634.371429 360 634.371429 
C 353.385077 634.371429 347.040194 636.999565 342.362737 641.677022 
C 337.68528 646.354479 335.057143 652.699363 335.057143 659.314286 
C 335.057143 665.929209 337.68528 672.274092 342.362737 676.951549 
C 347.040194 681.629006 353.385077 684.257143 360 684.257143 
z
" clip-path="url(#pdc57799d1e)" style="fill: #80d4ff; stroke: #000000; stroke-linejoin: miter"/>
   </g>
   <g id="patch_31">
    <path d="M 65.232971 332.967477 
C 71.847894 332.967477 78.192777 330.33934 82.870234 325.661883 
C 87.547691 320.984426 90.175828 314.639543 90.175828 308.02462 
C 90.175828 301.409697 87.547691 295.064813 82.870234 290.387356 
C 78.192777 285.709899 71.847894 283.081763 65.232971 283.081763 
C 58.618048 283.081763 52.273164 285.709899 47.595707 290.387356 
C 42.91825 295.064813 40.290114 301.409697 40.290114 308.02462 
C 40.290114 314.639543 42.91825 320.984426 47.595707 325.661883 
C 52.273164 330.33934 58.618048 332.967477 65.232971 332.967477 
z
" clip-path="url(#pdc57799d1e)" style="stroke: #000000; stroke-linejoin: miter"/>
   </g>
   <g id="text_1">
    <!-- G$_N$ -->
    <g style="fill: #ffffff" transform="translate(337.76 119.401429) scale(0.32 -0.32)">
     <defs>
      <path id="DejaVuSans-Bold-47" d="M 4781 347 
Q 4331 128 3847 18 
Q 3363 -91 2847 -91 
Q 1681 -91 1000 561 
Q 319 1213 319 2328 
Q 319 3456 1012 4103 
Q 1706 4750 2913 4750 
Q 3378 4750 3804 4662 
Q 4231 4575 4609 4403 
L 4609 3438 
Q 4219 3659 3833 3768 
Q 3447 3878 3059 3878 
Q 2341 3878 1952 3476 
Q 1563 3075 1563 2328 
Q 1563 1588 1938 1184 
Q 2313 781 3003 781 
Q 3191 781 3352 804 
Q 3513 828 3641 878 
L 3641 1784 
L 2906 1784 
L 2906 2591 
L 4781 2591 
L 4781 347 
z
" transform="scale(0.015625)"/>
      <path id="DejaVuSans-Oblique-4e" d="M 1081 4666 
L 1931 4666 
L 3219 666 
L 4000 4666 
L 4616 4666 
L 3706 0 
L 2853 0 
L 1569 4025 
L 788 0 
L 172 0 
L 1081 4666 
z
" transform="scale(0.015625)"/>
     </defs>
     <use xlink:href="#DejaVuSans-Bold-47" transform="translate(0 0.78125)"/>
     <use xlink:href="#DejaVuSans-Oblique-4e" transform="translate(83.037109 -15.625) scale(0.7)"/>
    </g>
   </g>
   <g id="text_2">
    <!-- I -->
    <g style="fill: #ffffff" transform="translate(598.942628 413.246567) scale(0.36 -0.36)">
     <defs>
      <path id="DejaVuSans-Bold-49" d="M 588 4666 
L 1791 4666 
L 1791 0 
L 588 0 
L 588 4666 
z
" transform="scale(0.015625)"/>
     </defs>
     <use xlink:href="#DejaVuSans-Bold-49"/>
    </g>
   </g>
   <g id="text_3">
    <!-- A -->
    <g style="fill: #ffffff" transform="translate(260.760092 604.319938) scale(0.36 -0.36)">
     <defs>
      <path id="DejaVuSans-Bold-41" d="M 3419 850 
L 1538 850 
L 1241 0 
L 31 0 
L 1759 4666 
L 3194 4666 
L 4922 0 
L 3713 0 
L 3419 850 
z
M 1838 1716 
L 3116 1716 
L 2478 3572 
L 1838 1716 
z
" transform="scale(0.015625)"/>
     </defs>
     <use xlink:href="#DejaVuSans-Bold-41"/>
    </g>
   </g>
   <g id="text_4">
    <!-- S -->
    <g style="fill: #ffffff" transform="translate(131.025708 245.219464) scale(0.36 -0.36)">
     <defs>
      <path id="DejaVuSans-Bold-53" d="M 3834 4519 
L 3834 3531 
Q 3450 3703 3084 3790 
Q 2719 3878 2394 3878 
Q 1963 3878 1756 3759 
Q 1550 3641 1550 3391 
Q 1550 3203 1689 3098 
Q 1828 2994 2194 2919 
L 2706 2816 
Q 3484 2659 3812 2340 
Q 4141 2022 4141 1434 
Q 4141 663 3683 286 
Q 3225 -91 2284 -91 
Q 1841 -91 1394 -6 
Q 947 78 500 244 
L 500 1259 
Q 947 1022 1364 901 
Q 1781 781 2169 781 
Q 2563 781 2772 912 
Q 2981 1044 2981 1288 
Q 2981 1506 2839 1625 
Q 2697 1744 2272 1838 
L 1806 1941 
Q 1106 2091 782 2419 
Q 459 2747 459 3303 
Q 459 4000 909 4375 
Q 1359 4750 2203 4750 
Q 2588 4750 2994 4692 
Q 3400 4634 3834 4519 
z
" transform="scale(0.015625)"/>
     </defs>
     <use xlink:href="#DejaVuSans-Bold-53"/>
    </g>
   </g>
   <g id="text_5">
    <!-- L -->
    <g style="fill: #ffffff" transform="translate(508.86022 178.860379) scale(0.36 -0.36)">
     <defs>
      <path id="DejaVuSans-Bold-4c" d="M 588 4666 
L 1791 4666 
L 1791 909 
L 3903 909 
L 3903 0 
L 588 0 
L 588 4666 
z
" transform="scale(0.015625)"/>
     </defs>
     <use xlink:href="#DejaVuSans-Bold-4c"/>
    </g>
   </g>
   <g id="text_6">
    <!-- L -->
    <g style="fill: #ffffff" transform="translate(508.86022 561.007121) scale(0.36 -0.36)">
     <use xlink:href="#DejaVuSans-Bold-4c"/>
    </g>
   </g>
   <g id="text_7">
    <!-- K -->
    <g transform="translate(130.041333 494.648036) scale(0.36 -0.36)">
     <defs>
      <path id="DejaVuSans-Bold-4b" d="M 588 4666 
L 1791 4666 
L 1791 2963 
L 3525 4666 
L 4922 4666 
L 2675 2456 
L 5153 0 
L 3647 0 
L 1791 1838 
L 1791 0 
L 588 0 
L 588 4666 
z
" transform="scale(0.015625)"/>
     </defs>
     <use xlink:href="#DejaVuSans-Bold-4b"/>
    </g>
   </g>
   <g id="text_8">
    <!-- K -->
    <g transform="translate(260.743217 135.547562) scale(0.36 -0.36)">
     <use xlink:href="#DejaVuSans-Bold-4b"/>
    </g>
   </g>
   <g id="text_9">
    <!-- I -->
    <g style="fill: #ffffff" transform="translate(598.942628 326.620933) scale(0.36 -0.36)">
     <use xlink:href="#DejaVuSans-Bold-49"/>
    </g>
   </g>
   <g id="text_10">
    <!-- P -->
    <g style="fill: #ffffff" transform="translate(346.806563 619.362321) scale(0.36 -0.36)">
     <defs>
      <path id="DejaVuSans-Bold-50" d="M 588 4666 
L 2584 4666 
Q 3475 4666 3951 4270 
Q 4428 3875 4428 3144 
Q 4428 2409 3951 2014 
Q 3475 1619 2584 1619 
L 1791 1619 
L 1791 0 
L 588 0 
L 588 4666 
z
M 1791 3794 
L 1791 2491 
L 2456 2491 
Q 2806 2491 2997 2661 
Q 3188 2831 3188 3144 
Q 3188 3456 2997 3625 
Q 2806 3794 2456 3794 
L 1791 3794 
z
" transform="scale(0.015625)"/>
     </defs>
     <use xlink:href="#DejaVuSans-Bold-50"/>
    </g>
   </g>
   <g id="text_11">
    <!-- K -->
    <g transform="translate(100.413622 326.620933) scale(0.36 -0.36)">
     <use xlink:href="#DejaVuSans-Bold-4b"/>
    </g>
   </g>
   <g id="text_12">
    <!-- I -->
    <g style="fill: #ffffff" transform="translate(438.613033 135.547562) scale(0.36 -0.36)">
     <use xlink:href="#DejaVuSans-Bold-49"/>
    </g>
   </g>
   <g id="text_13">
    <!-- V -->
    <g style="fill: #ffffff" transform="translate(562.081167 494.648036) scale(0.36 -0.36)">
     <defs>
      <path id="DejaVuSans-Bold-56" d="M 31 4666 
L 1241 4666 
L 2478 1222 
L 3713 4666 
L 4922 4666 
L 3194 0 
L 1759 0 
L 31 4666 
z
" transform="scale(0.015625)"/>
     </defs>
     <use xlink:href="#DejaVuSans-Bold-56"/>
    </g>
   </g>
   <g id="text_14">
    <!-- S -->
    <g style="fill: #ffffff" transform="translate(186.707592 561.007121) scale(0.36 -0.36)">
     <use xlink:href="#DejaVuSans-Bold-53"/>
    </g>
   </g>
   <g id="text_15">
    <!-- G -->
    <g style="fill: #ffffff" transform="translate(184.896342 178.860379) scale(0.36 -0.36)">
     <use xlink:href="#DejaVuSans-Bold-47"/>
    </g>
   </g>
   <g id="text_16">
    <!-- I -->
    <g style="fill: #ffffff" transform="translate(569.314917 245.219464) scale(0.36 -0.36)">
     <use xlink:href="#DejaVuSans-Bold-49"/>
    </g>
   </g>
   <g id="text_17">
    <!-- A -->
    <g style="fill: #ffffff" transform="translate(431.379283 604.319938) scale(0.36 -0.36)">
     <use xlink:href="#DejaVuSans-Bold-41"/>
    </g>
   </g>
   <g id="text_18">
    <!-- K -->
    <g transform="translate(100.413622 413.246567) scale(0.36 -0.36)">
     <use xlink:href="#DejaVuSans-Bold-4b"/>
    </g>
   </g>
   <g id="text_19">
    <!-- A -->
    <g style="fill: #ffffff" transform="translate(346.069688 70.619464) scale(0.36 -0.36)">
     <use xlink:href="#DejaVuSans-Bold-41"/>
    </g>
   </g>
   <g id="text_20">
    <!-- L -->
    <g style="fill: #ffffff" transform="translate(643.297654 421.90913) scale(0.36 -0.36)">
     <use xlink:href="#DejaVuSans-Bold-4c"/>
    </g>
   </g>
   <g id="text_21">
    <!-- K -->
    <g transform="translate(243.681298 651.197176) scale(0.36 -0.36)">
     <use xlink:href="#DejaVuSans-Bold-4b"/>
    </g>
   </g>
   <g id="text_22">
    <!-- W -->
    <g style="fill: #ffffff" transform="translate(80.932787 220.276607) scale(0.36 -0.36)">
     <defs>
      <path id="DejaVuSans-Bold-57" d="M 191 4666 
L 1344 4666 
L 2150 1275 
L 2950 4666 
L 4109 4666 
L 4909 1275 
L 5716 4666 
L 6859 4666 
L 5759 0 
L 4372 0 
L 3525 3547 
L 2688 0 
L 1300 0 
L 191 4666 
z
" transform="scale(0.015625)"/>
     </defs>
     <use xlink:href="#DejaVuSans-Bold-57"/>
    </g>
   </g>
   <g id="text_23">
    <!-- L -->
    <g style="fill: #ffffff" transform="translate(540.926139 140.645705) scale(0.36 -0.36)">
     <use xlink:href="#DejaVuSans-Bold-4c"/>
    </g>
   </g>
   <g id="text_24">
    <!-- W -->
    <g style="fill: #ffffff" transform="translate(532.542077 599.221795) scale(0.36 -0.36)">
     <use xlink:href="#DejaVuSans-Bold-57"/>
    </g>
   </g>
   <g id="text_25">
    <!-- R -->
    <g transform="translate(86.926225 519.590893) scale(0.36 -0.36)">
     <defs>
      <path id="DejaVuSans-Bold-52" d="M 2297 2597 
Q 2675 2597 2839 2737 
Q 3003 2878 3003 3200 
Q 3003 3519 2839 3656 
Q 2675 3794 2297 3794 
L 1791 3794 
L 1791 2597 
L 2297 2597 
z
M 1791 1766 
L 1791 0 
L 588 0 
L 588 4666 
L 2425 4666 
Q 3347 4666 3776 4356 
Q 4206 4047 4206 3378 
Q 4206 2916 3982 2619 
Q 3759 2322 3309 2181 
Q 3556 2125 3751 1926 
Q 3947 1728 4147 1325 
L 4800 0 
L 3519 0 
L 2950 1159 
Q 2778 1509 2601 1637 
Q 2425 1766 2131 1766 
L 1791 1766 
z
" transform="scale(0.015625)"/>
     </defs>
     <use xlink:href="#DejaVuSans-Bold-52"/>
    </g>
   </g>
   <g id="text_26">
    <!-- G -->
    <g style="fill: #ffffff" transform="translate(242.854423 88.670324) scale(0.36 -0.36)">
     <use xlink:href="#DejaVuSans-Bold-47"/>
    </g>
   </g>
   <g id="text_27">
    <!-- S -->
    <g style="fill: #ffffff" transform="translate(641.804217 317.95837) scale(0.36 -0.36)">
     <use xlink:href="#DejaVuSans-Bold-53"/>
    </g>
   </g>
   <g id="text_28">
    <!-- R -->
    <g transform="translate(346.14 669.248036) scale(0.36 -0.36)">
     <use xlink:href="#DejaVuSans-Bold-52"/>
    </g>
   </g>
   <g id="text_29">
    <!-- N$_C$ -->
    <g style="fill: #ffffff" transform="translate(43.312971 316.85462) scale(0.32 -0.32)">
     <defs>
      <path id="DejaVuSans-Bold-4e" d="M 588 4666 
L 1931 4666 
L 3628 1466 
L 3628 4666 
L 4769 4666 
L 4769 0 
L 3425 0 
L 1728 3200 
L 1728 0 
L 588 0 
L 588 4666 
z
" transform="scale(0.015625)"/>
      <path id="DejaVuSans-Oblique-43" d="M 4447 4306 
L 4319 3641 
Q 4019 3944 3683 4091 
Q 3347 4238 2956 4238 
Q 2422 4238 2017 3981 
Q 1613 3725 1319 3200 
Q 1131 2863 1032 2486 
Q 934 2109 934 1728 
Q 934 1091 1264 756 
Q 1594 422 2222 422 
Q 2656 422 3056 561 
Q 3456 700 3834 978 
L 3688 231 
Q 3316 72 2936 -9 
Q 2556 -91 2175 -91 
Q 1278 -91 773 396 
Q 269 884 269 1753 
Q 269 2309 461 2846 
Q 653 3384 1013 3828 
Q 1394 4300 1883 4525 
Q 2372 4750 3022 4750 
Q 3422 4750 3780 4639 
Q 4138 4528 4447 4306 
z
" transform="scale(0.015625)"/>
     </defs>
     <use xlink:href="#DejaVuSans-Bold-4e" transform="translate(0 0.09375)"/>
     <use xlink:href="#DejaVuSans-Oblique-43" transform="translate(84.648438 -16.3125) scale(0.7)"/>
    </g>
   </g>
   <g id="text_30">
    <!-- 0.609 -->
    <g transform="translate(328.370313 310.114286) scale(0.2 -0.2)">
     <defs>
      <path id="DejaVuSans-Bold-30" d="M 2944 2338 
Q 2944 3213 2780 3570 
Q 2616 3928 2228 3928 
Q 1841 3928 1675 3570 
Q 1509 3213 1509 2338 
Q 1509 1453 1675 1090 
Q 1841 728 2228 728 
Q 2613 728 2778 1090 
Q 2944 1453 2944 2338 
z
M 4147 2328 
Q 4147 1169 3647 539 
Q 3147 -91 2228 -91 
Q 1306 -91 806 539 
Q 306 1169 306 2328 
Q 306 3491 806 4120 
Q 1306 4750 2228 4750 
Q 3147 4750 3647 4120 
Q 4147 3491 4147 2328 
z
" transform="scale(0.015625)"/>
      <path id="DejaVuSans-Bold-2e" d="M 653 1209 
L 1778 1209 
L 1778 0 
L 653 0 
L 653 1209 
z
" transform="scale(0.015625)"/>
      <path id="DejaVuSans-Bold-36" d="M 2316 2303 
Q 2000 2303 1842 2098 
Q 1684 1894 1684 1484 
Q 1684 1075 1842 870 
Q 2000 666 2316 666 
Q 2634 666 2792 870 
Q 2950 1075 2950 1484 
Q 2950 1894 2792 2098 
Q 2634 2303 2316 2303 
z
M 3803 4544 
L 3803 3681 
Q 3506 3822 3243 3889 
Q 2981 3956 2731 3956 
Q 2194 3956 1894 3657 
Q 1594 3359 1544 2772 
Q 1750 2925 1990 3001 
Q 2231 3078 2516 3078 
Q 3231 3078 3670 2659 
Q 4109 2241 4109 1563 
Q 4109 813 3618 361 
Q 3128 -91 2303 -91 
Q 1394 -91 895 523 
Q 397 1138 397 2266 
Q 397 3422 980 4083 
Q 1563 4744 2578 4744 
Q 2900 4744 3203 4694 
Q 3506 4644 3803 4544 
z
" transform="scale(0.015625)"/>
      <path id="DejaVuSans-Bold-39" d="M 641 103 
L 641 966 
Q 928 831 1190 764 
Q 1453 697 1709 697 
Q 2247 697 2547 995 
Q 2847 1294 2900 1881 
Q 2688 1725 2447 1647 
Q 2206 1569 1925 1569 
Q 1209 1569 770 1986 
Q 331 2403 331 3084 
Q 331 3838 820 4291 
Q 1309 4744 2131 4744 
Q 3044 4744 3544 4128 
Q 4044 3513 4044 2388 
Q 4044 1231 3459 570 
Q 2875 -91 1856 -91 
Q 1528 -91 1228 -42 
Q 928 6 641 103 
z
M 2125 2350 
Q 2441 2350 2600 2554 
Q 2759 2759 2759 3169 
Q 2759 3575 2600 3781 
Q 2441 3988 2125 3988 
Q 1809 3988 1650 3781 
Q 1491 3575 1491 3169 
Q 1491 2759 1650 2554 
Q 1809 2350 2125 2350 
z
" transform="scale(0.015625)"/>
     </defs>
     <use xlink:href="#DejaVuSans-Bold-30"/>
     <use xlink:href="#DejaVuSans-Bold-2e" x="69.580078"/>
     <use xlink:href="#DejaVuSans-Bold-36" x="107.568359"/>
     <use xlink:href="#DejaVuSans-Bold-30" x="177.148438"/>
     <use xlink:href="#DejaVuSans-Bold-39" x="246.728516"/>
    </g>
   </g>
  </g>
 </g>
 <defs>
  <clipPath id="pdc57799d1e">
   <rect x="10.8" y="10.8" width="698.4" height="698.4"/>
  </clipPath>
 </defs>
</svg>
