<?xml version="1.0" encoding="utf-8" standalone="no"?>
<!DOCTYPE svg PUBLIC "-//W3C//DTD SVG 1.1//EN"
  "http://www.w3.org/Graphics/SVG/1.1/DTD/svg11.dtd">
<svg xmlns:xlink="http://www.w3.org/1999/xlink" width="720pt" height="720pt" viewBox="0 0 720 720" xmlns="http://www.w3.org/2000/svg" version="1.1">
 <metadata>
  <rdf:RDF xmlns:dc="http://purl.org/dc/elements/1.1/" xmlns:cc="http://creativecommons.org/ns#" xmlns:rdf="http://www.w3.org/1999/02/22-rdf-syntax-ns#">
   <cc:Work>
    <dc:type rdf:resource="http://purl.org/dc/dcmitype/StillImage"/>
    <dc:date>2023-08-30T21:19:45.490989</dc:date>
    <dc:format>image/svg+xml</dc:format>
    <dc:creator>
     <cc:Agent>
      <dc:title>Matplotlib v3.7.1, https://matplotlib.org/</dc:title>
     </cc:Agent>
    </dc:creator>
   </cc:Work>
  </rdf:RDF>
 </metadata>
 <defs>
  <style type="text/css">*{stroke-linejoin: round; stroke-linecap: butt}</style>
 </defs>
 <g id="figure_1">
  <g id="axes_1">
   <g id="patch_1">
    <path d="M 10.8 709.2 
L 709.2 709.2 
L 709.2 10.8 
L 10.8 10.8 
L 10.8 709.2 
z
" style="fill: none"/>
   </g>
   <g id="line2d_1">
    <path d="M 360 69 
L 646.579056 410.53162 
" clip-path="url(#p1ee4f7ec40)" style="fill: none; stroke: #000000; stroke-width: 5.4125; stroke-linecap: square"/>
   </g>
   <g id="line2d_2">
    <path d="M 646.579056 410.53162 
L 260.472138 633.450553 
" clip-path="url(#p1ee4f7ec40)" style="fill: none; stroke: #000000; stroke-width: 5.1; stroke-linecap: square"/>
   </g>
   <g id="line2d_3">
    <path d="M 260.472138 633.450553 
L 107.986607 214.5 
" clip-path="url(#p1ee4f7ec40)" style="fill: none; stroke: #000000; stroke-width: 4.7875; stroke-linecap: square"/>
   </g>
   <g id="line2d_4">
    <path d="M 107.986607 214.5 
L 547.051194 137.081067 
" clip-path="url(#p1ee4f7ec40)" style="fill: none; stroke: #000000; stroke-width: 4.475; stroke-linecap: square"/>
   </g>
   <g id="line2d_5">
    <path d="M 547.051194 137.081067 
L 547.051194 582.918933 
" clip-path="url(#p1ee4f7ec40)" style="fill: none; stroke: #000000; stroke-width: 4.1625; stroke-linecap: square"/>
   </g>
   <g id="line2d_6">
    <path d="M 547.051194 582.918933 
L 107.986607 505.5 
" clip-path="url(#p1ee4f7ec40)" style="fill: none; stroke: #000000; stroke-width: 3.85; stroke-linecap: square"/>
   </g>
   <g id="line2d_7">
    <path d="M 107.986607 505.5 
L 260.472138 86.549447 
" clip-path="url(#p1ee4f7ec40)" style="fill: none; stroke: #000000; stroke-width: 3.5375; stroke-linecap: square"/>
   </g>
   <g id="line2d_8">
    <path d="M 260.472138 86.549447 
L 646.579056 309.46838 
" clip-path="url(#p1ee4f7ec40)" style="fill: none; stroke: #000000; stroke-width: 3.225; stroke-linecap: square"/>
   </g>
   <g id="line2d_9">
    <path d="M 646.579056 309.46838 
L 360 651 
" clip-path="url(#p1ee4f7ec40)" style="fill: none; stroke: #000000; stroke-width: 2.9125; stroke-linecap: square"/>
   </g>
   <g id="line2d_10">
    <path d="M 360 651 
L 73.420944 309.46838 
" clip-path="url(#p1ee4f7ec40)" style="fill: none; stroke: #000000; stroke-width: 2.6; stroke-linecap: square"/>
   </g>
   <g id="line2d_11">
    <path d="M 73.420944 309.46838 
L 459.527862 86.549447 
" clip-path="url(#p1ee4f7ec40)" style="fill: none; stroke: #000000; stroke-width: 2.2875; stroke-linecap: square"/>
   </g>
   <g id="line2d_12">
    <path d="M 459.527862 86.549447 
L 612.013393 505.5 
" clip-path="url(#p1ee4f7ec40)" style="fill: none; stroke: #000000; stroke-width: 1.975; stroke-linecap: square"/>
   </g>
   <g id="line2d_13">
    <path d="M 612.013393 505.5 
L 172.948806 582.918933 
" clip-path="url(#p1ee4f7ec40)" style="fill: none; stroke: #000000; stroke-width: 1.6625; stroke-linecap: square"/>
   </g>
   <g id="line2d_14">
    <path d="M 172.948806 582.918933 
L 172.948806 137.081067 
" clip-path="url(#p1ee4f7ec40)" style="fill: none; stroke: #000000; stroke-width: 1.35; stroke-linecap: square"/>
   </g>
   <g id="line2d_15">
    <path d="M 172.948806 137.081067 
L 612.013393 214.5 
" clip-path="url(#p1ee4f7ec40)" style="fill: none; stroke: #000000; stroke-width: 1.0375; stroke-linecap: square"/>
   </g>
   <g id="line2d_16">
    <path d="M 612.013393 214.5 
L 459.527862 633.450553 
" clip-path="url(#p1ee4f7ec40)" style="fill: none; stroke: #000000; stroke-width: 0.725; stroke-linecap: square"/>
   </g>
   <g id="patch_2">
    <path d="M 340.565351 437.206005 
L 337.052494 427.319392 
L 342.555327 428.70459 
L 359.858902 359.964482 
L 360.141098 360.035518 
L 342.837524 428.775626 
L 348.340357 430.160824 
z
" clip-path="url(#p1ee4f7ec40)" style="stroke: #000000; stroke-width: 6; stroke-linejoin: miter"/>
   </g>
   <g id="patch_3">
    <path d="M 360 98.1 
C 367.71741 98.1 375.119774 95.03384 380.576807 89.576807 
C 386.03384 84.119774 389.1 76.71741 389.1 69 
C 389.1 61.28259 386.03384 53.880226 380.576807 48.423193 
C 375.119774 42.96616 367.71741 39.9 360 39.9 
C 352.28259 39.9 344.880226 42.96616 339.423193 48.423193 
C 333.96616 53.880226 330.9 61.28259 330.9 69 
C 330.9 76.71741 333.96616 84.119774 339.423193 89.576807 
C 344.880226 95.03384 352.28259 98.1 360 98.1 
z
" clip-path="url(#p1ee4f7ec40)" style="stroke: #000000; stroke-linejoin: miter"/>
   </g>
   <g id="patch_4">
    <path d="M 646.579056 439.63162 
C 654.296466 439.63162 661.69883 436.56546 667.155863 431.108427 
C 672.612897 425.651394 675.679056 418.24903 675.679056 410.53162 
C 675.679056 402.814209 672.612897 395.411845 667.155863 389.954812 
C 661.69883 384.497779 654.296466 381.43162 646.579056 381.43162 
C 638.861646 381.43162 631.459282 384.497779 626.002249 389.954812 
C 620.545216 395.411845 617.479056 402.814209 617.479056 410.53162 
C 617.479056 418.24903 620.545216 425.651394 626.002249 431.108427 
C 631.459282 436.56546 638.861646 439.63162 646.579056 439.63162 
z
" clip-path="url(#p1ee4f7ec40)" style="stroke: #000000; stroke-linejoin: miter"/>
   </g>
   <g id="patch_5">
    <path d="M 260.472138 662.550553 
C 268.189549 662.550553 275.591913 659.484393 281.048946 654.02736 
C 286.505979 648.570327 289.572138 641.167963 289.572138 633.450553 
C 289.572138 625.733142 286.505979 618.330778 281.048946 612.873745 
C 275.591913 607.416712 268.189549 604.350553 260.472138 604.350553 
C 252.754728 604.350553 245.352364 607.416712 239.895331 612.873745 
C 234.438298 618.330778 231.372138 625.733142 231.372138 633.450553 
C 231.372138 641.167963 234.438298 648.570327 239.895331 654.02736 
C 245.352364 659.484393 252.754728 662.550553 260.472138 662.550553 
z
" clip-path="url(#p1ee4f7ec40)" style="stroke: #000000; stroke-linejoin: miter"/>
   </g>
   <g id="patch_6">
    <path d="M 107.986607 243.6 
C 115.704018 243.6 123.106382 240.53384 128.563415 235.076807 
C 134.020448 229.619774 137.086607 222.21741 137.086607 214.5 
C 137.086607 206.78259 134.020448 199.380226 128.563415 193.923193 
C 123.106382 188.46616 115.704018 185.4 107.986607 185.4 
C 100.269197 185.4 92.866833 188.46616 87.4098 193.923193 
C 81.952767 199.380226 78.886607 206.78259 78.886607 214.5 
C 78.886607 222.21741 81.952767 229.619774 87.4098 235.076807 
C 92.866833 240.53384 100.269197 243.6 107.986607 243.6 
z
" clip-path="url(#p1ee4f7ec40)" style="stroke: #000000; stroke-linejoin: miter"/>
   </g>
   <g id="patch_7">
    <path d="M 547.051194 166.181067 
C 554.768605 166.181067 562.170969 163.114907 567.628002 157.657874 
C 573.085035 152.200841 576.151194 144.798477 576.151194 137.081067 
C 576.151194 129.363657 573.085035 121.961293 567.628002 116.50426 
C 562.170969 111.047227 554.768605 107.981067 547.051194 107.981067 
C 539.333784 107.981067 531.93142 111.047227 526.474387 116.50426 
C 521.017354 121.961293 517.951194 129.363657 517.951194 137.081067 
C 517.951194 144.798477 521.017354 152.200841 526.474387 157.657874 
C 531.93142 163.114907 539.333784 166.181067 547.051194 166.181067 
z
" clip-path="url(#p1ee4f7ec40)" style="fill: #80d4ff; stroke: #000000; stroke-linejoin: miter"/>
   </g>
   <g id="patch_8">
    <path d="M 547.051194 612.018933 
C 554.768605 612.018933 562.170969 608.952773 567.628002 603.49574 
C 573.085035 598.038707 576.151194 590.636343 576.151194 582.918933 
C 576.151194 575.201523 573.085035 567.799159 567.628002 562.342126 
C 562.170969 556.885093 554.768605 553.818933 547.051194 553.818933 
C 539.333784 553.818933 531.93142 556.885093 526.474387 562.342126 
C 521.017354 567.799159 517.951194 575.201523 517.951194 582.918933 
C 517.951194 590.636343 521.017354 598.038707 526.474387 603.49574 
C 531.93142 608.952773 539.333784 612.018933 547.051194 612.018933 
z
" clip-path="url(#p1ee4f7ec40)" style="stroke: #000000; stroke-linejoin: miter"/>
   </g>
   <g id="patch_9">
    <path d="M 107.986607 534.6 
C 115.704018 534.6 123.106382 531.53384 128.563415 526.076807 
C 134.020448 520.619774 137.086607 513.21741 137.086607 505.5 
C 137.086607 497.78259 134.020448 490.380226 128.563415 484.923193 
C 123.106382 479.46616 115.704018 476.4 107.986607 476.4 
C 100.269197 476.4 92.866833 479.46616 87.4098 484.923193 
C 81.952767 490.380226 78.886607 497.78259 78.886607 505.5 
C 78.886607 513.21741 81.952767 520.619774 87.4098 526.076807 
C 92.866833 531.53384 100.269197 534.6 107.986607 534.6 
z
" clip-path="url(#p1ee4f7ec40)" style="stroke: #000000; stroke-linejoin: miter"/>
   </g>
   <g id="patch_10">
    <path d="M 260.472138 115.649447 
C 268.189549 115.649447 275.591913 112.583288 281.048946 107.126255 
C 286.505979 101.669222 289.572138 94.266858 289.572138 86.549447 
C 289.572138 78.832037 286.505979 71.429673 281.048946 65.97264 
C 275.591913 60.515607 268.189549 57.449447 260.472138 57.449447 
C 252.754728 57.449447 245.352364 60.515607 239.895331 65.97264 
C 234.438298 71.429673 231.372138 78.832037 231.372138 86.549447 
C 231.372138 94.266858 234.438298 101.669222 239.895331 107.126255 
C 245.352364 112.583288 252.754728 115.649447 260.472138 115.649447 
z
" clip-path="url(#p1ee4f7ec40)" style="stroke: #000000; stroke-linejoin: miter"/>
   </g>
   <g id="patch_11">
    <path d="M 646.579056 338.56838 
C 654.296466 338.56838 661.69883 335.502221 667.155863 330.045188 
C 672.612897 324.588155 675.679056 317.185791 675.679056 309.46838 
C 675.679056 301.75097 672.612897 294.348606 667.155863 288.891573 
C 661.69883 283.43454 654.296466 280.36838 646.579056 280.36838 
C 638.861646 280.36838 631.459282 283.43454 626.002249 288.891573 
C 620.545216 294.348606 617.479056 301.75097 617.479056 309.46838 
C 617.479056 317.185791 620.545216 324.588155 626.002249 330.045188 
C 631.459282 335.502221 638.861646 338.56838 646.579056 338.56838 
z
" clip-path="url(#p1ee4f7ec40)" style="fill: #80d4ff; stroke: #000000; stroke-linejoin: miter"/>
   </g>
   <g id="patch_12">
    <path d="M 360 680.1 
C 367.71741 680.1 375.119774 677.03384 380.576807 671.576807 
C 386.03384 666.119774 389.1 658.71741 389.1 651 
C 389.1 643.28259 386.03384 635.880226 380.576807 630.423193 
C 375.119774 624.96616 367.71741 621.9 360 621.9 
C 352.28259 621.9 344.880226 624.96616 339.423193 630.423193 
C 333.96616 635.880226 330.9 643.28259 330.9 651 
C 330.9 658.71741 333.96616 666.119774 339.423193 671.576807 
C 344.880226 677.03384 352.28259 680.1 360 680.1 
z
" clip-path="url(#p1ee4f7ec40)" style="stroke: #000000; stroke-linejoin: miter"/>
   </g>
   <g id="patch_13">
    <path d="M 73.420944 338.56838 
C 81.138354 338.56838 88.540718 335.502221 93.997751 330.045188 
C 99.454784 324.588155 102.520944 317.185791 102.520944 309.46838 
C 102.520944 301.75097 99.454784 294.348606 93.997751 288.891573 
C 88.540718 283.43454 81.138354 280.36838 73.420944 280.36838 
C 65.703534 280.36838 58.30117 283.43454 52.844137 288.891573 
C 47.387103 294.348606 44.320944 301.75097 44.320944 309.46838 
C 44.320944 317.185791 47.387103 324.588155 52.844137 330.045188 
C 58.30117 335.502221 65.703534 338.56838 73.420944 338.56838 
z
" clip-path="url(#p1ee4f7ec40)" style="stroke: #000000; stroke-linejoin: miter"/>
   </g>
   <g id="patch_14">
    <path d="M 459.527862 115.649447 
C 467.245272 115.649447 474.647636 112.583288 480.104669 107.126255 
C 485.561702 101.669222 488.627862 94.266858 488.627862 86.549447 
C 488.627862 78.832037 485.561702 71.429673 480.104669 65.97264 
C 474.647636 60.515607 467.245272 57.449447 459.527862 57.449447 
C 451.810451 57.449447 444.408087 60.515607 438.951054 65.97264 
C 433.494021 71.429673 430.427862 78.832037 430.427862 86.549447 
C 430.427862 94.266858 433.494021 101.669222 438.951054 107.126255 
C 444.408087 112.583288 451.810451 115.649447 459.527862 115.649447 
z
" clip-path="url(#p1ee4f7ec40)" style="fill: #80d4ff; stroke: #000000; stroke-linejoin: miter"/>
   </g>
   <g id="patch_15">
    <path d="M 612.013393 534.6 
C 619.730803 534.6 627.133167 531.53384 632.5902 526.076807 
C 638.047233 520.619774 641.113393 513.21741 641.113393 505.5 
C 641.113393 497.78259 638.047233 490.380226 632.5902 484.923193 
C 627.133167 479.46616 619.730803 476.4 612.013393 476.4 
C 604.295982 476.4 596.893618 479.46616 591.436585 484.923193 
C 585.979552 490.380226 582.913393 497.78259 582.913393 505.5 
C 582.913393 513.21741 585.979552 520.619774 591.436585 526.076807 
C 596.893618 531.53384 604.295982 534.6 612.013393 534.6 
z
" clip-path="url(#p1ee4f7ec40)" style="stroke: #000000; stroke-linejoin: miter"/>
   </g>
   <g id="patch_16">
    <path d="M 172.948806 612.018933 
C 180.666216 612.018933 188.06858 608.952773 193.525613 603.49574 
C 198.982646 598.038707 202.048806 590.636343 202.048806 582.918933 
C 202.048806 575.201523 198.982646 567.799159 193.525613 562.342126 
C 188.06858 556.885093 180.666216 553.818933 172.948806 553.818933 
C 165.231395 553.818933 157.829031 556.885093 152.371998 562.342126 
C 146.914965 567.799159 143.848806 575.201523 143.848806 582.918933 
C 143.848806 590.636343 146.914965 598.038707 152.371998 603.49574 
C 157.829031 608.952773 165.231395 612.018933 172.948806 612.018933 
z
" clip-path="url(#p1ee4f7ec40)" style="stroke: #000000; stroke-linejoin: miter"/>
   </g>
   <g id="patch_17">
    <path d="M 172.948806 166.181067 
C 180.666216 166.181067 188.06858 163.114907 193.525613 157.657874 
C 198.982646 152.200841 202.048806 144.798477 202.048806 137.081067 
C 202.048806 129.363657 198.982646 121.961293 193.525613 116.50426 
C 188.06858 111.047227 180.666216 107.981067 172.948806 107.981067 
C 165.231395 107.981067 157.829031 111.047227 152.371998 116.50426 
C 146.914965 121.961293 143.848806 129.363657 143.848806 137.081067 
C 143.848806 144.798477 146.914965 152.200841 152.371998 157.657874 
C 157.829031 163.114907 165.231395 166.181067 172.948806 166.181067 
z
" clip-path="url(#p1ee4f7ec40)" style="fill: #80d4ff; stroke: #000000; stroke-linejoin: miter"/>
   </g>
   <g id="patch_18">
    <path d="M 612.013393 243.6 
C 619.730803 243.6 627.133167 240.53384 632.5902 235.076807 
C 638.047233 229.619774 641.113393 222.21741 641.113393 214.5 
C 641.113393 206.78259 638.047233 199.380226 632.5902 193.923193 
C 627.133167 188.46616 619.730803 185.4 612.013393 185.4 
C 604.295982 185.4 596.893618 188.46616 591.436585 193.923193 
C 585.979552 199.380226 582.913393 206.78259 582.913393 214.5 
C 582.913393 222.21741 585.979552 229.619774 591.436585 235.076807 
C 596.893618 240.53384 604.295982 243.6 612.013393 243.6 
z
" clip-path="url(#p1ee4f7ec40)" style="fill: #80d4ff; stroke: #000000; stroke-linejoin: miter"/>
   </g>
   <g id="patch_19">
    <path d="M 459.527862 662.550553 
C 467.245272 662.550553 474.647636 659.484393 480.104669 654.02736 
C 485.561702 648.570327 488.627862 641.167963 488.627862 633.450553 
C 488.627862 625.733142 485.561702 618.330778 480.104669 612.873745 
C 474.647636 607.416712 467.245272 604.350553 459.527862 604.350553 
C 451.810451 604.350553 444.408087 607.416712 438.951054 612.873745 
C 433.494021 618.330778 430.427862 625.733142 430.427862 633.450553 
C 430.427862 641.167963 433.494021 648.570327 438.951054 654.02736 
C 444.408087 659.484393 451.810451 662.550553 459.527862 662.550553 
z
" clip-path="url(#p1ee4f7ec40)" style="stroke: #000000; stroke-linejoin: miter"/>
   </g>
   <g id="text_1">
    <!-- G$_N$ -->
    <g style="fill: #ffffff" transform="translate(337.76 77.83) scale(0.32 -0.32)">
     <defs>
      <path id="DejaVuSans-Bold-47" d="M 4781 347 
Q 4331 128 3847 18 
Q 3363 -91 2847 -91 
Q 1681 -91 1000 561 
Q 319 1213 319 2328 
Q 319 3456 1012 4103 
Q 1706 4750 2913 4750 
Q 3378 4750 3804 4662 
Q 4231 4575 4609 4403 
L 4609 3438 
Q 4219 3659 3833 3768 
Q 3447 3878 3059 3878 
Q 2341 3878 1952 3476 
Q 1563 3075 1563 2328 
Q 1563 1588 1938 1184 
Q 2313 781 3003 781 
Q 3191 781 3352 804 
Q 3513 828 3641 878 
L 3641 1784 
L 2906 1784 
L 2906 2591 
L 4781 2591 
L 4781 347 
z
" transform="scale(0.015625)"/>
      <path id="DejaVuSans-Oblique-4e" d="M 1081 4666 
L 1931 4666 
L 3219 666 
L 4000 4666 
L 4616 4666 
L 3706 0 
L 2853 0 
L 1569 4025 
L 788 0 
L 172 0 
L 1081 4666 
z
" transform="scale(0.015625)"/>
     </defs>
     <use xlink:href="#DejaVuSans-Bold-47" transform="translate(0 0.78125)"/>
     <use xlink:href="#DejaVuSans-Oblique-4e" transform="translate(83.037109 -15.625) scale(0.7)"/>
    </g>
   </g>
   <g id="text_2">
    <!-- V -->
    <g style="fill: #ffffff" transform="translate(632.648744 420.46537) scale(0.36 -0.36)">
     <defs>
      <path id="DejaVuSans-Bold-56" d="M 31 4666 
L 1241 4666 
L 2478 1222 
L 3713 4666 
L 4922 4666 
L 3194 0 
L 1759 0 
L 31 4666 
z
" transform="scale(0.015625)"/>
     </defs>
     <use xlink:href="#DejaVuSans-Bold-56"/>
    </g>
   </g>
   <g id="text_3">
    <!-- W -->
    <g style="fill: #ffffff" transform="translate(240.618701 643.384303) scale(0.36 -0.36)">
     <defs>
      <path id="DejaVuSans-Bold-57" d="M 191 4666 
L 1344 4666 
L 2150 1275 
L 2950 4666 
L 4109 4666 
L 4909 1275 
L 5716 4666 
L 6859 4666 
L 5759 0 
L 4372 0 
L 3525 3547 
L 2688 0 
L 1300 0 
L 191 4666 
z
" transform="scale(0.015625)"/>
     </defs>
     <use xlink:href="#DejaVuSans-Bold-57"/>
    </g>
   </g>
   <g id="text_4">
    <!-- S -->
    <g style="fill: #ffffff" transform="translate(95.023795 224.43375) scale(0.36 -0.36)">
     <defs>
      <path id="DejaVuSans-Bold-53" d="M 3834 4519 
L 3834 3531 
Q 3450 3703 3084 3790 
Q 2719 3878 2394 3878 
Q 1963 3878 1756 3759 
Q 1550 3641 1550 3391 
Q 1550 3203 1689 3098 
Q 1828 2994 2194 2919 
L 2706 2816 
Q 3484 2659 3812 2340 
Q 4141 2022 4141 1434 
Q 4141 663 3683 286 
Q 3225 -91 2284 -91 
Q 1841 -91 1394 -6 
Q 947 78 500 244 
L 500 1259 
Q 947 1022 1364 901 
Q 1781 781 2169 781 
Q 2563 781 2772 912 
Q 2981 1044 2981 1288 
Q 2981 1506 2839 1625 
Q 2697 1744 2272 1838 
L 1806 1941 
Q 1106 2091 782 2419 
Q 459 2747 459 3303 
Q 459 4000 909 4375 
Q 1359 4750 2203 4750 
Q 2588 4750 2994 4692 
Q 3400 4634 3834 4519 
z
" transform="scale(0.015625)"/>
     </defs>
     <use xlink:href="#DejaVuSans-Bold-53"/>
    </g>
   </g>
   <g id="text_5">
    <!-- K -->
    <g transform="translate(533.104007 147.014817) scale(0.36 -0.36)">
     <defs>
      <path id="DejaVuSans-Bold-4b" d="M 588 4666 
L 1791 4666 
L 1791 2963 
L 3525 4666 
L 4922 4666 
L 2675 2456 
L 5153 0 
L 3647 0 
L 1791 1838 
L 1791 0 
L 588 0 
L 588 4666 
z
" transform="scale(0.015625)"/>
     </defs>
     <use xlink:href="#DejaVuSans-Bold-4b"/>
    </g>
   </g>
   <g id="text_6">
    <!-- I -->
    <g style="fill: #ffffff" transform="translate(540.354632 592.852683) scale(0.36 -0.36)">
     <defs>
      <path id="DejaVuSans-Bold-49" d="M 588 4666 
L 1791 4666 
L 1791 0 
L 588 0 
L 588 4666 
z
" transform="scale(0.015625)"/>
     </defs>
     <use xlink:href="#DejaVuSans-Bold-49"/>
    </g>
   </g>
   <g id="text_7">
    <!-- L -->
    <g style="fill: #ffffff" transform="translate(96.517232 515.43375) scale(0.36 -0.36)">
     <defs>
      <path id="DejaVuSans-Bold-4c" d="M 588 4666 
L 1791 4666 
L 1791 909 
L 3903 909 
L 3903 0 
L 588 0 
L 588 4666 
z
" transform="scale(0.015625)"/>
     </defs>
     <use xlink:href="#DejaVuSans-Bold-4c"/>
    </g>
   </g>
   <g id="text_8">
    <!-- G -->
    <g style="fill: #ffffff" transform="translate(245.698076 96.483197) scale(0.36 -0.36)">
     <use xlink:href="#DejaVuSans-Bold-47"/>
    </g>
   </g>
   <g id="text_9">
    <!-- K -->
    <g transform="translate(632.631869 319.40213) scale(0.36 -0.36)">
     <use xlink:href="#DejaVuSans-Bold-4b"/>
    </g>
   </g>
   <g id="text_10">
    <!-- L -->
    <g style="fill: #ffffff" transform="translate(348.530625 660.93375) scale(0.36 -0.36)">
     <use xlink:href="#DejaVuSans-Bold-4c"/>
    </g>
   </g>
   <g id="text_11">
    <!-- I -->
    <g style="fill: #ffffff" transform="translate(66.724381 319.40213) scale(0.36 -0.36)">
     <use xlink:href="#DejaVuSans-Bold-49"/>
    </g>
   </g>
   <g id="text_12">
    <!-- H -->
    <g transform="translate(444.464112 96.483197) scale(0.36 -0.36)">
     <defs>
      <path id="DejaVuSans-Bold-48" d="M 588 4666 
L 1791 4666 
L 1791 2888 
L 3566 2888 
L 3566 4666 
L 4769 4666 
L 4769 0 
L 3566 0 
L 3566 1978 
L 1791 1978 
L 1791 0 
L 588 0 
L 588 4666 
z
" transform="scale(0.015625)"/>
     </defs>
     <use xlink:href="#DejaVuSans-Bold-48"/>
    </g>
   </g>
   <g id="text_13">
    <!-- V -->
    <g style="fill: #ffffff" transform="translate(598.08308 515.43375) scale(0.36 -0.36)">
     <use xlink:href="#DejaVuSans-Bold-56"/>
    </g>
   </g>
   <g id="text_14">
    <!-- G -->
    <g style="fill: #ffffff" transform="translate(158.174743 592.852683) scale(0.36 -0.36)">
     <use xlink:href="#DejaVuSans-Bold-47"/>
    </g>
   </g>
   <g id="text_15">
    <!-- K -->
    <g transform="translate(159.001618 147.014817) scale(0.36 -0.36)">
     <use xlink:href="#DejaVuSans-Bold-4b"/>
    </g>
   </g>
   <g id="text_16">
    <!-- H -->
    <g transform="translate(596.949643 224.43375) scale(0.36 -0.36)">
     <use xlink:href="#DejaVuSans-Bold-48"/>
    </g>
   </g>
   <g id="text_17">
    <!-- G$_C$ -->
    <g style="fill: #ffffff" transform="translate(437.927862 642.280553) scale(0.32 -0.32)">
     <defs>
      <path id="DejaVuSans-Oblique-43" d="M 4447 4306 
L 4319 3641 
Q 4019 3944 3683 4091 
Q 3347 4238 2956 4238 
Q 2422 4238 2017 3981 
Q 1613 3725 1319 3200 
Q 1131 2863 1032 2486 
Q 934 2109 934 1728 
Q 934 1091 1264 756 
Q 1594 422 2222 422 
Q 2656 422 3056 561 
Q 3456 700 3834 978 
L 3688 231 
Q 3316 72 2936 -9 
Q 2556 -91 2175 -91 
Q 1278 -91 773 396 
Q 269 884 269 1753 
Q 269 2309 461 2846 
Q 653 3384 1013 3828 
Q 1394 4300 1883 4525 
Q 2372 4750 3022 4750 
Q 3422 4750 3780 4639 
Q 4138 4528 4447 4306 
z
" transform="scale(0.015625)"/>
     </defs>
     <use xlink:href="#DejaVuSans-Bold-47" transform="translate(0 0.78125)"/>
     <use xlink:href="#DejaVuSans-Oblique-43" transform="translate(83.037109 -15.625) scale(0.7)"/>
    </g>
   </g>
   <g id="text_18">
    <!-- 0.43 -->
    <g transform="translate(335.328125 301.8) scale(0.2 -0.2)">
     <defs>
      <path id="DejaVuSans-Bold-30" d="M 2944 2338 
Q 2944 3213 2780 3570 
Q 2616 3928 2228 3928 
Q 1841 3928 1675 3570 
Q 1509 3213 1509 2338 
Q 1509 1453 1675 1090 
Q 1841 728 2228 728 
Q 2613 728 2778 1090 
Q 2944 1453 2944 2338 
z
M 4147 2328 
Q 4147 1169 3647 539 
Q 3147 -91 2228 -91 
Q 1306 -91 806 539 
Q 306 1169 306 2328 
Q 306 3491 806 4120 
Q 1306 4750 2228 4750 
Q 3147 4750 3647 4120 
Q 4147 3491 4147 2328 
z
" transform="scale(0.015625)"/>
      <path id="DejaVuSans-Bold-2e" d="M 653 1209 
L 1778 1209 
L 1778 0 
L 653 0 
L 653 1209 
z
" transform="scale(0.015625)"/>
      <path id="DejaVuSans-Bold-34" d="M 2356 3675 
L 1038 1722 
L 2356 1722 
L 2356 3675 
z
M 2156 4666 
L 3494 4666 
L 3494 1722 
L 4159 1722 
L 4159 850 
L 3494 850 
L 3494 0 
L 2356 0 
L 2356 850 
L 288 850 
L 288 1881 
L 2156 4666 
z
" transform="scale(0.015625)"/>
      <path id="DejaVuSans-Bold-33" d="M 2981 2516 
Q 3453 2394 3698 2092 
Q 3944 1791 3944 1325 
Q 3944 631 3412 270 
Q 2881 -91 1863 -91 
Q 1503 -91 1142 -33 
Q 781 25 428 141 
L 428 1069 
Q 766 900 1098 814 
Q 1431 728 1753 728 
Q 2231 728 2486 893 
Q 2741 1059 2741 1369 
Q 2741 1688 2480 1852 
Q 2219 2016 1709 2016 
L 1228 2016 
L 1228 2791 
L 1734 2791 
Q 2188 2791 2409 2933 
Q 2631 3075 2631 3366 
Q 2631 3634 2415 3781 
Q 2200 3928 1806 3928 
Q 1516 3928 1219 3862 
Q 922 3797 628 3669 
L 628 4550 
Q 984 4650 1334 4700 
Q 1684 4750 2022 4750 
Q 2931 4750 3382 4451 
Q 3834 4153 3834 3553 
Q 3834 3144 3618 2883 
Q 3403 2622 2981 2516 
z
" transform="scale(0.015625)"/>
     </defs>
     <use xlink:href="#DejaVuSans-Bold-30"/>
     <use xlink:href="#DejaVuSans-Bold-2e" x="69.580078"/>
     <use xlink:href="#DejaVuSans-Bold-34" x="107.568359"/>
     <use xlink:href="#DejaVuSans-Bold-33" x="177.148438"/>
    </g>
   </g>
  </g>
 </g>
 <defs>
  <clipPath id="p1ee4f7ec40">
   <rect x="10.8" y="10.8" width="698.4" height="698.4"/>
  </clipPath>
 </defs>
</svg>
