<?xml version="1.0" encoding="utf-8" standalone="no"?>
<!DOCTYPE svg PUBLIC "-//W3C//DTD SVG 1.1//EN"
  "http://www.w3.org/Graphics/SVG/1.1/DTD/svg11.dtd">
<svg xmlns:xlink="http://www.w3.org/1999/xlink" width="1008pt" height="324pt" viewBox="0 0 1008 324" xmlns="http://www.w3.org/2000/svg" version="1.1">
 <metadata>
  <rdf:RDF xmlns:dc="http://purl.org/dc/elements/1.1/" xmlns:cc="http://creativecommons.org/ns#" xmlns:rdf="http://www.w3.org/1999/02/22-rdf-syntax-ns#">
   <cc:Work>
    <dc:type rdf:resource="http://purl.org/dc/dcmitype/StillImage"/>
    <dc:date>2023-09-26T18:53:13.957627</dc:date>
    <dc:format>image/svg+xml</dc:format>
    <dc:creator>
     <cc:Agent>
      <dc:title>Matplotlib v3.7.1, https://matplotlib.org/</dc:title>
     </cc:Agent>
    </dc:creator>
   </cc:Work>
  </rdf:RDF>
 </metadata>
 <defs>
  <style type="text/css">*{stroke-linejoin: round; stroke-linecap: butt}</style>
 </defs>
 <g id="figure_1">
  <g id="patch_1">
   <path d="M 0 324 
L 1008 324 
L 1008 0 
L 0 0 
z
" style="fill: #ffffff"/>
  </g>
  <g id="axes_1">
   <g id="patch_2">
    <path d="M 126 288.36 
L 907.2 288.36 
L 907.2 38.88 
L 126 38.88 
z
" style="fill: #ffffff"/>
   </g>
   <g id="PolyCollection_1">
    <defs>
     <path id="m876f90b2d5" d="M 205.969233 -46.98 
L 202.270767 -46.98 
L 202.106366 -49.226905 
L 202.01312 -51.47381 
L 201.991627 -53.720715 
L 202.033594 -55.96762 
L 202.124745 -58.214525 
L 202.248202 -60.461429 
L 202.387623 -62.708334 
L 202.529609 -64.955239 
L 202.66505 -67.202144 
L 202.789124 -69.449049 
L 202.899959 -71.695954 
L 202.99643 -73.942859 
L 203.075981 -76.189764 
L 203.133359 -78.436669 
L 203.160765 -80.683574 
L 203.149198 -82.930479 
L 203.090237 -85.177383 
L 202.977305 -87.424288 
L 202.805824 -89.671193 
L 202.572298 -91.918098 
L 202.273017 -94.165003 
L 201.903306 -96.411908 
L 201.457995 -98.658813 
L 200.933055 -100.905718 
L 200.327629 -103.152623 
L 199.64535 -105.399528 
L 198.894105 -107.646433 
L 198.084178 -109.893338 
L 197.225561 -112.140242 
L 196.325634 -114.387147 
L 195.388088 -116.634052 
L 194.413106 -118.880957 
L 193.397949 -121.127862 
L 192.336901 -123.374767 
L 191.220291 -125.621672 
L 190.033547 -127.868577 
L 188.75818 -130.115482 
L 187.376215 -132.362387 
L 185.878048 -134.609292 
L 184.271606 -136.856196 
L 182.589391 -139.103101 
L 180.890354 -141.350006 
L 179.255282 -143.596911 
L 177.776553 -145.843816 
L 176.544509 -148.090721 
L 175.632894 -150.337626 
L 175.08536 -152.584531 
L 174.904767 -154.831436 
L 175.047441 -157.078341 
L 175.424908 -159.325246 
L 175.914926 -161.57215 
L 176.381115 -163.819055 
L 176.69699 -166.06596 
L 176.767781 -168.312865 
L 176.543786 -170.55977 
L 176.022418 -172.806675 
L 175.240714 -175.05358 
L 174.263245 -177.300485 
L 173.170562 -179.54739 
L 172.050876 -181.794295 
L 170.994511 -184.0412 
L 170.088845 -186.288104 
L 169.411921 -188.535009 
L 169.024932 -190.781914 
L 168.966 -193.028819 
L 169.248315 -195.275724 
L 169.864297 -197.522629 
L 170.794449 -199.769534 
L 172.016766 -202.016439 
L 173.511665 -204.263344 
L 175.259502 -206.510249 
L 177.231902 -208.757154 
L 179.382101 -211.004059 
L 181.64079 -213.250963 
L 183.921518 -215.497868 
L 186.134739 -217.744773 
L 188.2051 -219.991678 
L 190.084923 -222.238583 
L 191.758829 -224.485488 
L 193.238658 -226.732393 
L 194.551858 -228.979298 
L 195.728523 -231.226203 
L 196.791809 -233.473108 
L 197.754222 -235.720013 
L 198.619487 -237.966917 
L 199.387639 -240.213822 
L 200.060231 -242.460727 
L 200.643253 -244.707632 
L 201.146977 -246.954537 
L 201.58356 -249.201442 
L 201.964151 -251.448347 
L 202.297064 -253.695252 
L 202.587669 -255.942157 
L 202.839601 -258.189062 
L 203.056298 -260.435967 
L 203.241922 -262.682871 
L 203.401296 -264.929776 
L 203.539122 -267.176681 
L 203.659072 -269.423586 
L 204.580928 -269.423586 
L 204.580928 -269.423586 
L 204.700878 -267.176681 
L 204.838704 -264.929776 
L 204.998078 -262.682871 
L 205.183702 -260.435967 
L 205.400399 -258.189062 
L 205.652331 -255.942157 
L 205.942936 -253.695252 
L 206.275849 -251.448347 
L 206.65644 -249.201442 
L 207.093023 -246.954537 
L 207.596747 -244.707632 
L 208.179769 -242.460727 
L 208.852361 -240.213822 
L 209.620513 -237.966917 
L 210.485778 -235.720013 
L 211.448191 -233.473108 
L 212.511477 -231.226203 
L 213.688142 -228.979298 
L 215.001342 -226.732393 
L 216.481171 -224.485488 
L 218.155077 -222.238583 
L 220.0349 -219.991678 
L 222.105261 -217.744773 
L 224.318482 -215.497868 
L 226.59921 -213.250963 
L 228.857899 -211.004059 
L 231.008098 -208.757154 
L 232.980498 -206.510249 
L 234.728335 -204.263344 
L 236.223234 -202.016439 
L 237.445551 -199.769534 
L 238.375703 -197.522629 
L 238.991685 -195.275724 
L 239.274 -193.028819 
L 239.215068 -190.781914 
L 238.828079 -188.535009 
L 238.151155 -186.288104 
L 237.245489 -184.0412 
L 236.189124 -181.794295 
L 235.069438 -179.54739 
L 233.976755 -177.300485 
L 232.999286 -175.05358 
L 232.217582 -172.806675 
L 231.696214 -170.55977 
L 231.472219 -168.312865 
L 231.54301 -166.06596 
L 231.858885 -163.819055 
L 232.325074 -161.57215 
L 232.815092 -159.325246 
L 233.192559 -157.078341 
L 233.335233 -154.831436 
L 233.15464 -152.584531 
L 232.607106 -150.337626 
L 231.695491 -148.090721 
L 230.463447 -145.843816 
L 228.984718 -143.596911 
L 227.349646 -141.350006 
L 225.650609 -139.103101 
L 223.968394 -136.856196 
L 222.361952 -134.609292 
L 220.863785 -132.362387 
L 219.48182 -130.115482 
L 218.206453 -127.868577 
L 217.019709 -125.621672 
L 215.903099 -123.374767 
L 214.842051 -121.127862 
L 213.826894 -118.880957 
L 212.851912 -116.634052 
L 211.914366 -114.387147 
L 211.014439 -112.140242 
L 210.155822 -109.893338 
L 209.345895 -107.646433 
L 208.59465 -105.399528 
L 207.912371 -103.152623 
L 207.306945 -100.905718 
L 206.782005 -98.658813 
L 206.336694 -96.411908 
L 205.966983 -94.165003 
L 205.667702 -91.918098 
L 205.434176 -89.671193 
L 205.262695 -87.424288 
L 205.149763 -85.177383 
L 205.090802 -82.930479 
L 205.079235 -80.683574 
L 205.106641 -78.436669 
L 205.164019 -76.189764 
L 205.24357 -73.942859 
L 205.340041 -71.695954 
L 205.450876 -69.449049 
L 205.57495 -67.202144 
L 205.710391 -64.955239 
L 205.852377 -62.708334 
L 205.991798 -60.461429 
L 206.115255 -58.214525 
L 206.206406 -55.96762 
L 206.248373 -53.720715 
L 206.22688 -51.47381 
L 206.133634 -49.226905 
L 205.969233 -46.98 
z
" style="stroke: #282724; stroke-width: 1.4"/>
    </defs>
    <g clip-path="url(#p2ea3771a79)">
     <use xlink:href="#m876f90b2d5" x="0" y="324" style="fill: #edbdb9; stroke: #282724; stroke-width: 1.4"/>
    </g>
   </g>
   <g id="PolyCollection_2">
    <defs>
     <path id="mf12c74383c" d="M 360.703344 -46.98 
L 360.016656 -46.98 
L 359.911474 -48.846753 
L 359.784941 -50.713507 
L 359.635866 -52.58026 
L 359.465066 -54.447013 
L 359.276158 -56.313767 
L 359.075581 -58.18052 
L 358.871423 -60.047273 
L 358.671103 -61.914026 
L 358.478555 -63.78078 
L 358.291999 -65.647533 
L 358.103407 -67.514286 
L 357.900194 -69.38104 
L 357.668728 -71.247793 
L 357.398379 -73.114546 
L 357.084544 -74.9813 
L 356.729483 -76.848053 
L 356.340754 -78.714806 
L 355.927999 -80.58156 
L 355.499277 -82.448313 
L 355.058088 -84.315066 
L 354.601774 -86.181819 
L 354.121485 -88.048573 
L 353.603566 -89.915326 
L 353.031917 -91.782079 
L 352.390655 -93.648833 
L 351.66628 -95.515586 
L 350.848771 -97.382339 
L 349.931634 -99.249093 
L 348.911629 -101.115846 
L 347.789196 -102.982599 
L 346.570258 -104.849353 
L 345.268983 -106.716106 
L 343.910033 -108.582859 
L 342.528302 -110.449612 
L 341.164726 -112.316366 
L 339.85826 -114.183119 
L 338.63596 -116.049872 
L 337.504417 -117.916626 
L 336.44592 -119.783379 
L 335.421585 -121.650132 
L 334.381533 -123.516886 
L 333.279951 -125.383639 
L 332.091133 -127.250392 
L 330.821882 -129.117146 
L 329.516195 -130.983899 
L 328.249909 -132.850652 
L 327.115684 -134.717405 
L 326.20187 -136.584159 
L 325.571246 -138.450912 
L 325.24633 -140.317665 
L 325.206 -142.184419 
L 325.394254 -144.051172 
L 325.737515 -145.917925 
L 326.164205 -147.784679 
L 326.620353 -149.651432 
L 327.077428 -151.518185 
L 327.531877 -153.384939 
L 327.998395 -155.251692 
L 328.500112 -157.118445 
L 329.058798 -158.985198 
L 329.687466 -160.851952 
L 330.386803 -162.718705 
L 331.145817 -164.585458 
L 331.94605 -166.452212 
L 332.767804 -168.318965 
L 333.596228 -170.185718 
L 334.425141 -172.052472 
L 335.257238 -173.919225 
L 336.10081 -175.785978 
L 336.964604 -177.652732 
L 337.853326 -179.519485 
L 338.765799 -181.386238 
L 339.696311 -183.252991 
L 340.637984 -185.119745 
L 341.586186 -186.986498 
L 342.540434 -188.853251 
L 343.504391 -190.720005 
L 344.48462 -192.586758 
L 345.48899 -194.453511 
L 346.525201 -196.320265 
L 347.599225 -198.187018 
L 348.713304 -200.053771 
L 349.863565 -201.920525 
L 351.037957 -203.787278 
L 352.215618 -205.654031 
L 353.368485 -207.520784 
L 354.465121 -209.387538 
L 355.475809 -211.254291 
L 356.377432 -213.121044 
L 357.156745 -214.987798 
L 357.811274 -216.854551 
L 358.347926 -218.721304 
L 358.780071 -220.588058 
L 359.12415 -222.454811 
L 359.396753 -224.321564 
L 359.612688 -226.188318 
L 359.784124 -228.055071 
L 359.920538 -229.921824 
L 360.029105 -231.788577 
L 360.690895 -231.788577 
L 360.690895 -231.788577 
L 360.799462 -229.921824 
L 360.935876 -228.055071 
L 361.107312 -226.188318 
L 361.323247 -224.321564 
L 361.59585 -222.454811 
L 361.939929 -220.588058 
L 362.372074 -218.721304 
L 362.908726 -216.854551 
L 363.563255 -214.987798 
L 364.342568 -213.121044 
L 365.244191 -211.254291 
L 366.254879 -209.387538 
L 367.351515 -207.520784 
L 368.504382 -205.654031 
L 369.682043 -203.787278 
L 370.856435 -201.920525 
L 372.006696 -200.053771 
L 373.120775 -198.187018 
L 374.194799 -196.320265 
L 375.23101 -194.453511 
L 376.23538 -192.586758 
L 377.215609 -190.720005 
L 378.179566 -188.853251 
L 379.133814 -186.986498 
L 380.082016 -185.119745 
L 381.023689 -183.252991 
L 381.954201 -181.386238 
L 382.866674 -179.519485 
L 383.755396 -177.652732 
L 384.61919 -175.785978 
L 385.462762 -173.919225 
L 386.294859 -172.052472 
L 387.123772 -170.185718 
L 387.952196 -168.318965 
L 388.77395 -166.452212 
L 389.574183 -164.585458 
L 390.333197 -162.718705 
L 391.032534 -160.851952 
L 391.661202 -158.985198 
L 392.219888 -157.118445 
L 392.721605 -155.251692 
L 393.188123 -153.384939 
L 393.642572 -151.518185 
L 394.099647 -149.651432 
L 394.555795 -147.784679 
L 394.982485 -145.917925 
L 395.325746 -144.051172 
L 395.514 -142.184419 
L 395.47367 -140.317665 
L 395.148754 -138.450912 
L 394.51813 -136.584159 
L 393.604316 -134.717405 
L 392.470091 -132.850652 
L 391.203805 -130.983899 
L 389.898118 -129.117146 
L 388.628867 -127.250392 
L 387.440049 -125.383639 
L 386.338467 -123.516886 
L 385.298415 -121.650132 
L 384.27408 -119.783379 
L 383.215583 -117.916626 
L 382.08404 -116.049872 
L 380.86174 -114.183119 
L 379.555274 -112.316366 
L 378.191698 -110.449612 
L 376.809967 -108.582859 
L 375.451017 -106.716106 
L 374.149742 -104.849353 
L 372.930804 -102.982599 
L 371.808371 -101.115846 
L 370.788366 -99.249093 
L 369.871229 -97.382339 
L 369.05372 -95.515586 
L 368.329345 -93.648833 
L 367.688083 -91.782079 
L 367.116434 -89.915326 
L 366.598515 -88.048573 
L 366.118226 -86.181819 
L 365.661912 -84.315066 
L 365.220723 -82.448313 
L 364.792001 -80.58156 
L 364.379246 -78.714806 
L 363.990517 -76.848053 
L 363.635456 -74.9813 
L 363.321621 -73.114546 
L 363.051272 -71.247793 
L 362.819806 -69.38104 
L 362.616593 -67.514286 
L 362.428001 -65.647533 
L 362.241445 -63.78078 
L 362.048897 -61.914026 
L 361.848577 -60.047273 
L 361.644419 -58.18052 
L 361.443842 -56.313767 
L 361.254934 -54.447013 
L 361.084134 -52.58026 
L 360.935059 -50.713507 
L 360.808526 -48.846753 
L 360.703344 -46.98 
z
" style="stroke: #282724; stroke-width: 1.4"/>
    </defs>
    <g clip-path="url(#p2ea3771a79)">
     <use xlink:href="#mf12c74383c" x="0" y="324" style="fill: #bbcadc; stroke: #282724; stroke-width: 1.4"/>
    </g>
   </g>
   <g id="PolyCollection_3">
    <defs>
     <path id="m6385f361f2" d="M 539.8665 -46.98 
L 493.3335 -46.98 
L 491.318159 -49.234779 
L 489.565387 -51.489557 
L 488.107335 -53.744336 
L 486.955791 -55.999115 
L 486.103988 -58.253894 
L 485.530162 -60.508672 
L 485.201987 -62.763451 
L 485.081063 -65.01823 
L 485.126809 -67.273009 
L 485.299415 -69.527787 
L 485.561782 -71.782566 
L 485.880589 -74.037345 
L 486.22671 -76.292124 
L 486.575224 -78.546902 
L 486.905182 -80.801681 
L 487.199243 -83.05646 
L 487.443247 -85.311239 
L 487.625765 -87.566017 
L 487.737689 -89.820796 
L 487.771939 -92.075575 
L 487.723345 -94.330354 
L 487.58875 -96.585132 
L 487.367319 -98.839911 
L 487.060981 -101.09469 
L 486.674882 -103.349469 
L 486.217721 -105.604247 
L 485.701838 -107.859026 
L 485.142987 -110.113805 
L 484.559769 -112.368584 
L 483.97279 -114.623362 
L 483.403633 -116.878141 
L 482.87378 -119.13292 
L 482.403602 -121.387698 
L 482.011507 -123.642477 
L 481.713286 -125.897256 
L 481.521662 -128.152035 
L 481.446 -130.406813 
L 481.49213 -132.661592 
L 481.66224 -134.916371 
L 481.954841 -137.17115 
L 482.364822 -139.425928 
L 482.883667 -141.680707 
L 483.499907 -143.935486 
L 484.199829 -146.190265 
L 484.968468 -148.445043 
L 485.790774 -150.699822 
L 486.652814 -152.954601 
L 487.542815 -155.20938 
L 488.451844 -157.464158 
L 489.373976 -159.718937 
L 490.305878 -161.973716 
L 491.245866 -164.228495 
L 492.19259 -166.483273 
L 493.143581 -168.738052 
L 494.093934 -170.992831 
L 495.03539 -173.24761 
L 495.955992 -175.502388 
L 496.840434 -177.757167 
L 497.671069 -180.011946 
L 498.429488 -182.266725 
L 499.098449 -184.521503 
L 499.663922 -186.776282 
L 500.116948 -189.031061 
L 500.455057 -191.285839 
L 500.682999 -193.540618 
L 500.812669 -195.795397 
L 500.862178 -198.050176 
L 500.854171 -200.304954 
L 500.813624 -202.559733 
L 500.765413 -204.814512 
L 500.732023 -207.069291 
L 500.731718 -209.324069 
L 500.777421 -211.578848 
L 500.876421 -213.833627 
L 501.030882 -216.088406 
L 501.238987 -218.343184 
L 501.49645 -220.597963 
L 501.798106 -222.852742 
L 502.139299 -225.107521 
L 502.516838 -227.362299 
L 502.929439 -229.617078 
L 503.377619 -231.871857 
L 503.863157 -234.126636 
L 504.388271 -236.381414 
L 504.954691 -238.636193 
L 505.562812 -240.890972 
L 506.21106 -243.145751 
L 506.89555 -245.400529 
L 507.610059 -247.655308 
L 508.346284 -249.910087 
L 509.09431 -252.164865 
L 509.843229 -254.419644 
L 510.58179 -256.674423 
L 511.299044 -258.929202 
L 511.984903 -261.18398 
L 512.6306 -263.438759 
L 513.229014 -265.693538 
L 513.774879 -267.948317 
L 514.264856 -270.203095 
L 518.935144 -270.203095 
L 518.935144 -270.203095 
L 519.425121 -267.948317 
L 519.970986 -265.693538 
L 520.5694 -263.438759 
L 521.215097 -261.18398 
L 521.900956 -258.929202 
L 522.61821 -256.674423 
L 523.356771 -254.419644 
L 524.10569 -252.164865 
L 524.853716 -249.910087 
L 525.589941 -247.655308 
L 526.30445 -245.400529 
L 526.98894 -243.145751 
L 527.637188 -240.890972 
L 528.245309 -238.636193 
L 528.811729 -236.381414 
L 529.336843 -234.126636 
L 529.822381 -231.871857 
L 530.270561 -229.617078 
L 530.683162 -227.362299 
L 531.060701 -225.107521 
L 531.401894 -222.852742 
L 531.70355 -220.597963 
L 531.961013 -218.343184 
L 532.169118 -216.088406 
L 532.323579 -213.833627 
L 532.422579 -211.578848 
L 532.468282 -209.324069 
L 532.467977 -207.069291 
L 532.434587 -204.814512 
L 532.386376 -202.559733 
L 532.345829 -200.304954 
L 532.337822 -198.050176 
L 532.387331 -195.795397 
L 532.517001 -193.540618 
L 532.744943 -191.285839 
L 533.083052 -189.031061 
L 533.536078 -186.776282 
L 534.101551 -184.521503 
L 534.770512 -182.266725 
L 535.528931 -180.011946 
L 536.359566 -177.757167 
L 537.244008 -175.502388 
L 538.16461 -173.24761 
L 539.106066 -170.992831 
L 540.056419 -168.738052 
L 541.00741 -166.483273 
L 541.954134 -164.228495 
L 542.894122 -161.973716 
L 543.826024 -159.718937 
L 544.748156 -157.464158 
L 545.657185 -155.20938 
L 546.547186 -152.954601 
L 547.409226 -150.699822 
L 548.231532 -148.445043 
L 549.000171 -146.190265 
L 549.700093 -143.935486 
L 550.316333 -141.680707 
L 550.835178 -139.425928 
L 551.245159 -137.17115 
L 551.53776 -134.916371 
L 551.70787 -132.661592 
L 551.754 -130.406813 
L 551.678338 -128.152035 
L 551.486714 -125.897256 
L 551.188493 -123.642477 
L 550.796398 -121.387698 
L 550.32622 -119.13292 
L 549.796367 -116.878141 
L 549.22721 -114.623362 
L 548.640231 -112.368584 
L 548.057013 -110.113805 
L 547.498162 -107.859026 
L 546.982279 -105.604247 
L 546.525118 -103.349469 
L 546.139019 -101.09469 
L 545.832681 -98.839911 
L 545.61125 -96.585132 
L 545.476655 -94.330354 
L 545.428061 -92.075575 
L 545.462311 -89.820796 
L 545.574235 -87.566017 
L 545.756753 -85.311239 
L 546.000757 -83.05646 
L 546.294818 -80.801681 
L 546.624776 -78.546902 
L 546.97329 -76.292124 
L 547.319411 -74.037345 
L 547.638218 -71.782566 
L 547.900585 -69.527787 
L 548.073191 -67.273009 
L 548.118937 -65.01823 
L 547.998013 -62.763451 
L 547.669838 -60.508672 
L 547.096012 -58.253894 
L 546.244209 -55.999115 
L 545.092665 -53.744336 
L 543.634613 -51.489557 
L 541.881841 -49.234779 
L 539.8665 -46.98 
z
" style="stroke: #282724; stroke-width: 1.4"/>
    </defs>
    <g clip-path="url(#p2ea3771a79)">
     <use xlink:href="#m6385f361f2" x="0" y="324" style="fill: #d0e6cb; stroke: #282724; stroke-width: 1.4"/>
    </g>
   </g>
   <g id="PolyCollection_4">
    <defs>
     <path id="m94297ff638" d="M 680.45623 -46.98 
L 665.22377 -46.98 
L 664.746741 -49.262814 
L 664.420516 -51.545629 
L 664.237167 -53.828443 
L 664.174186 -56.111257 
L 664.198933 -58.394072 
L 664.274144 -60.676886 
L 664.363284 -62.9597 
L 664.43477 -65.242515 
L 664.464521 -67.525329 
L 664.436778 -69.808144 
L 664.343502 -72.090958 
L 664.182842 -74.373772 
L 663.957144 -76.656587 
L 663.670849 -78.939401 
L 663.328471 -81.222215 
L 662.93278 -83.50503 
L 662.483319 -85.787844 
L 661.975466 -88.070658 
L 661.400322 -90.353473 
L 660.745648 -92.636287 
L 659.997909 -94.919101 
L 659.145179 -97.201916 
L 658.180374 -99.48473 
L 657.104048 -101.767544 
L 655.926025 -104.050359 
L 654.665372 -106.333173 
L 653.348606 -108.615987 
L 652.006526 -110.898802 
L 650.670371 -113.181616 
L 649.368146 -115.464431 
L 648.121857 -117.747245 
L 646.946045 -120.030059 
L 645.847702 -122.312874 
L 644.827281 -124.595688 
L 643.880401 -126.878502 
L 642.999834 -129.161317 
L 642.177516 -131.444131 
L 641.406448 -133.726945 
L 640.682475 -136.00976 
L 640.005909 -138.292574 
L 639.382839 -140.575388 
L 638.825843 -142.858203 
L 638.353737 -145.141017 
L 637.990015 -147.423831 
L 637.75987 -149.706646 
L 637.686 -151.98946 
L 637.78381 -154.272274 
L 638.05689 -156.555089 
L 638.493811 -158.837903 
L 639.067123 -161.120718 
L 639.735045 -163.403532 
L 640.445795 -165.686346 
L 641.143906 -167.969161 
L 641.777399 -170.251975 
L 642.304514 -172.534789 
L 642.698743 -174.817604 
L 642.951315 -177.100418 
L 643.070816 -179.383232 
L 643.080183 -181.666047 
L 643.011833 -183.948861 
L 642.901952 -186.231675 
L 642.785074 -188.51449 
L 642.68993 -190.797304 
L 642.637196 -193.080118 
L 642.639357 -195.362933 
L 642.70242 -197.645747 
L 642.828805 -199.928561 
L 643.020537 -202.211376 
L 643.281846 -204.49419 
L 643.620516 -206.777005 
L 644.047682 -209.059819 
L 644.576262 -211.342633 
L 645.218492 -213.625448 
L 645.983286 -215.908262 
L 646.874032 -218.191076 
L 647.887307 -220.473891 
L 649.012653 -222.756705 
L 650.233332 -225.039519 
L 651.527812 -227.322334 
L 652.871654 -229.605148 
L 654.239531 -231.887962 
L 655.607133 -234.170777 
L 656.952782 -236.453591 
L 658.258641 -238.736405 
L 659.511388 -241.01922 
L 660.702345 -243.302034 
L 661.827087 -245.584848 
L 662.884652 -247.867663 
L 663.876543 -250.150477 
L 664.805713 -252.433292 
L 665.675678 -254.716106 
L 666.489866 -256.99892 
L 667.251177 -259.281735 
L 667.961733 -261.564549 
L 668.622759 -263.847363 
L 669.234578 -266.130178 
L 669.796708 -268.412992 
L 670.308085 -270.695806 
L 670.767415 -272.978621 
L 674.912585 -272.978621 
L 674.912585 -272.978621 
L 675.371915 -270.695806 
L 675.883292 -268.412992 
L 676.445422 -266.130178 
L 677.057241 -263.847363 
L 677.718267 -261.564549 
L 678.428823 -259.281735 
L 679.190134 -256.99892 
L 680.004322 -254.716106 
L 680.874287 -252.433292 
L 681.803457 -250.150477 
L 682.795348 -247.867663 
L 683.852913 -245.584848 
L 684.977655 -243.302034 
L 686.168612 -241.01922 
L 687.421359 -238.736405 
L 688.727218 -236.453591 
L 690.072867 -234.170777 
L 691.440469 -231.887962 
L 692.808346 -229.605148 
L 694.152188 -227.322334 
L 695.446668 -225.039519 
L 696.667347 -222.756705 
L 697.792693 -220.473891 
L 698.805968 -218.191076 
L 699.696714 -215.908262 
L 700.461508 -213.625448 
L 701.103738 -211.342633 
L 701.632318 -209.059819 
L 702.059484 -206.777005 
L 702.398154 -204.49419 
L 702.659463 -202.211376 
L 702.851195 -199.928561 
L 702.97758 -197.645747 
L 703.040643 -195.362933 
L 703.042804 -193.080118 
L 702.99007 -190.797304 
L 702.894926 -188.51449 
L 702.778048 -186.231675 
L 702.668167 -183.948861 
L 702.599817 -181.666047 
L 702.609184 -179.383232 
L 702.728685 -177.100418 
L 702.981257 -174.817604 
L 703.375486 -172.534789 
L 703.902601 -170.251975 
L 704.536094 -167.969161 
L 705.234205 -165.686346 
L 705.944955 -163.403532 
L 706.612877 -161.120718 
L 707.186189 -158.837903 
L 707.62311 -156.555089 
L 707.89619 -154.272274 
L 707.994 -151.98946 
L 707.92013 -149.706646 
L 707.689985 -147.423831 
L 707.326263 -145.141017 
L 706.854157 -142.858203 
L 706.297161 -140.575388 
L 705.674091 -138.292574 
L 704.997525 -136.00976 
L 704.273552 -133.726945 
L 703.502484 -131.444131 
L 702.680166 -129.161317 
L 701.799599 -126.878502 
L 700.852719 -124.595688 
L 699.832298 -122.312874 
L 698.733955 -120.030059 
L 697.558143 -117.747245 
L 696.311854 -115.464431 
L 695.009629 -113.181616 
L 693.673474 -110.898802 
L 692.331394 -108.615987 
L 691.014628 -106.333173 
L 689.753975 -104.050359 
L 688.575952 -101.767544 
L 687.499626 -99.48473 
L 686.534821 -97.201916 
L 685.682091 -94.919101 
L 684.934352 -92.636287 
L 684.279678 -90.353473 
L 683.704534 -88.070658 
L 683.196681 -85.787844 
L 682.74722 -83.50503 
L 682.351529 -81.222215 
L 682.009151 -78.939401 
L 681.722856 -76.656587 
L 681.497158 -74.373772 
L 681.336498 -72.090958 
L 681.243222 -69.808144 
L 681.215479 -67.525329 
L 681.24523 -65.242515 
L 681.316716 -62.9597 
L 681.405856 -60.676886 
L 681.481067 -58.394072 
L 681.505814 -56.111257 
L 681.442833 -53.828443 
L 681.259484 -51.545629 
L 680.933259 -49.262814 
L 680.45623 -46.98 
z
" style="stroke: #282724; stroke-width: 1.4"/>
    </defs>
    <g clip-path="url(#p2ea3771a79)">
     <use xlink:href="#m94297ff638" x="0" y="324" style="fill: #dbcee1; stroke: #282724; stroke-width: 1.4"/>
    </g>
   </g>
   <g id="PolyCollection_5">
    <defs>
     <path id="me8828ed50b" d="M 833.357245 -46.98 
L 824.802755 -46.98 
L 824.723926 -49.270909 
L 824.779849 -51.561818 
L 824.946767 -53.852727 
L 825.187449 -56.143636 
L 825.45836 -58.434545 
L 825.717502 -60.725455 
L 825.931032 -63.016364 
L 826.077294 -65.307273 
L 826.147723 -67.598182 
L 826.144936 -69.889091 
L 826.078973 -72.18 
L 825.962912 -74.470909 
L 825.808982 -76.761818 
L 825.625922 -79.052727 
L 825.417866 -81.343636 
L 825.184601 -83.634545 
L 824.922734 -85.925455 
L 824.627229 -88.216364 
L 824.292798 -90.507273 
L 823.914851 -92.798182 
L 823.489886 -95.089091 
L 823.015424 -97.38 
L 822.489693 -99.670909 
L 821.911303 -101.961818 
L 821.279075 -104.252727 
L 820.592105 -106.543636 
L 819.849988 -108.834545 
L 819.053063 -111.125455 
L 818.202518 -113.416364 
L 817.300251 -115.707273 
L 816.348524 -117.998182 
L 815.349577 -120.289091 
L 814.30547 -122.58 
L 813.218431 -124.870909 
L 812.091867 -127.161818 
L 810.931994 -129.452727 
L 809.749775 -131.743636 
L 808.562629 -134.034545 
L 807.395265 -136.325455 
L 806.279083 -138.616364 
L 805.24984 -140.907273 
L 804.343735 -143.198182 
L 803.592537 -145.489091 
L 803.018706 -147.78 
L 802.631607 -150.070909 
L 802.425649 -152.361818 
L 802.38071 -154.652727 
L 802.46461 -156.943636 
L 802.636829 -159.234545 
L 802.852506 -161.525455 
L 803.06583 -163.816364 
L 803.232436 -166.107273 
L 803.310978 -168.398182 
L 803.264462 -170.689091 
L 803.062056 -172.98 
L 802.68177 -175.270909 
L 802.113875 -177.561818 
L 801.364282 -179.852727 
L 800.456733 -182.143636 
L 799.432709 -184.434545 
L 798.348431 -186.725455 
L 797.26912 -189.016364 
L 796.261507 -191.307273 
L 795.386138 -193.598182 
L 794.691091 -195.889091 
L 794.208321 -198.18 
L 793.953075 -200.470909 
L 793.926 -202.761818 
L 794.116966 -205.052727 
L 794.509359 -207.343636 
L 795.083816 -209.634545 
L 795.820777 -211.925455 
L 796.701744 -214.216364 
L 797.709524 -216.507273 
L 798.827901 -218.798182 
L 800.041164 -221.089091 
L 801.333767 -223.38 
L 802.690211 -225.670909 
L 804.09512 -227.961818 
L 805.533401 -230.252727 
L 806.990401 -232.543636 
L 808.452045 -234.834545 
L 809.904956 -237.125455 
L 811.336617 -239.416364 
L 812.735601 -241.707273 
L 814.091858 -243.998182 
L 815.396994 -246.289091 
L 816.644482 -248.58 
L 817.829737 -250.870909 
L 818.950062 -253.161818 
L 820.004497 -255.452727 
L 820.993603 -257.743636 
L 821.919189 -260.034545 
L 822.783941 -262.325455 
L 823.590903 -264.616364 
L 824.342824 -266.907273 
L 825.041466 -269.198182 
L 825.687074 -271.489091 
L 826.278203 -273.78 
L 831.881797 -273.78 
L 831.881797 -273.78 
L 832.472926 -271.489091 
L 833.118534 -269.198182 
L 833.817176 -266.907273 
L 834.569097 -264.616364 
L 835.376059 -262.325455 
L 836.240811 -260.034545 
L 837.166397 -257.743636 
L 838.155503 -255.452727 
L 839.209938 -253.161818 
L 840.330263 -250.870909 
L 841.515518 -248.58 
L 842.763006 -246.289091 
L 844.068142 -243.998182 
L 845.424399 -241.707273 
L 846.823383 -239.416364 
L 848.255044 -237.125455 
L 849.707955 -234.834545 
L 851.169599 -232.543636 
L 852.626599 -230.252727 
L 854.06488 -227.961818 
L 855.469789 -225.670909 
L 856.826233 -223.38 
L 858.118836 -221.089091 
L 859.332099 -218.798182 
L 860.450476 -216.507273 
L 861.458256 -214.216364 
L 862.339223 -211.925455 
L 863.076184 -209.634545 
L 863.650641 -207.343636 
L 864.043034 -205.052727 
L 864.234 -202.761818 
L 864.206925 -200.470909 
L 863.951679 -198.18 
L 863.468909 -195.889091 
L 862.773862 -193.598182 
L 861.898493 -191.307273 
L 860.89088 -189.016364 
L 859.811569 -186.725455 
L 858.727291 -184.434545 
L 857.703267 -182.143636 
L 856.795718 -179.852727 
L 856.046125 -177.561818 
L 855.47823 -175.270909 
L 855.097944 -172.98 
L 854.895538 -170.689091 
L 854.849022 -168.398182 
L 854.927564 -166.107273 
L 855.09417 -163.816364 
L 855.307494 -161.525455 
L 855.523171 -159.234545 
L 855.69539 -156.943636 
L 855.77929 -154.652727 
L 855.734351 -152.361818 
L 855.528393 -150.070909 
L 855.141294 -147.78 
L 854.567463 -145.489091 
L 853.816265 -143.198182 
L 852.91016 -140.907273 
L 851.880917 -138.616364 
L 850.764735 -136.325455 
L 849.597371 -134.034545 
L 848.410225 -131.743636 
L 847.228006 -129.452727 
L 846.068133 -127.161818 
L 844.941569 -124.870909 
L 843.85453 -122.58 
L 842.810423 -120.289091 
L 841.811476 -117.998182 
L 840.859749 -115.707273 
L 839.957482 -113.416364 
L 839.106937 -111.125455 
L 838.310012 -108.834545 
L 837.567895 -106.543636 
L 836.880925 -104.252727 
L 836.248697 -101.961818 
L 835.670307 -99.670909 
L 835.144576 -97.38 
L 834.670114 -95.089091 
L 834.245149 -92.798182 
L 833.867202 -90.507273 
L 833.532771 -88.216364 
L 833.237266 -85.925455 
L 832.975399 -83.634545 
L 832.742134 -81.343636 
L 832.534078 -79.052727 
L 832.351018 -76.761818 
L 832.197088 -74.470909 
L 832.081027 -72.18 
L 832.015064 -69.889091 
L 832.012277 -67.598182 
L 832.082706 -65.307273 
L 832.228968 -63.016364 
L 832.442498 -60.725455 
L 832.70164 -58.434545 
L 832.972551 -56.143636 
L 833.213233 -53.852727 
L 833.380151 -51.561818 
L 833.436074 -49.270909 
L 833.357245 -46.98 
z
" style="stroke: #282724; stroke-width: 1.4"/>
    </defs>
    <g clip-path="url(#p2ea3771a79)">
     <use xlink:href="#me8828ed50b" x="0" y="324" style="fill: #f0d8b3; stroke: #282724; stroke-width: 1.4"/>
    </g>
   </g>
   <g id="matplotlib.axis_1">
    <g id="xtick_1">
     <g id="line2d_1">
      <defs>
       <path id="mc255197f6b" d="M 0 0 
L 0 3 
" style="stroke: #000000; stroke-width: 0.8"/>
      </defs>
      <g>
       <use xlink:href="#mc255197f6b" x="204.12" y="288.36" style="stroke: #000000; stroke-width: 0.8"/>
      </g>
     </g>
     <g id="text_1">
      <!-- Test -->
      <g transform="translate(186.398438 308.537188) scale(0.18 -0.18)">
       <defs>
        <path id="DejaVuSans-54" d="M -19 4666 
L 3928 4666 
L 3928 4134 
L 2272 4134 
L 2272 0 
L 1638 0 
L 1638 4134 
L -19 4134 
L -19 4666 
z
" transform="scale(0.015625)"/>
        <path id="DejaVuSans-65" d="M 3597 1894 
L 3597 1613 
L 953 1613 
Q 991 1019 1311 708 
Q 1631 397 2203 397 
Q 2534 397 2845 478 
Q 3156 559 3463 722 
L 3463 178 
Q 3153 47 2828 -22 
Q 2503 -91 2169 -91 
Q 1331 -91 842 396 
Q 353 884 353 1716 
Q 353 2575 817 3079 
Q 1281 3584 2069 3584 
Q 2775 3584 3186 3129 
Q 3597 2675 3597 1894 
z
M 3022 2063 
Q 3016 2534 2758 2815 
Q 2500 3097 2075 3097 
Q 1594 3097 1305 2825 
Q 1016 2553 972 2059 
L 3022 2063 
z
" transform="scale(0.015625)"/>
        <path id="DejaVuSans-73" d="M 2834 3397 
L 2834 2853 
Q 2591 2978 2328 3040 
Q 2066 3103 1784 3103 
Q 1356 3103 1142 2972 
Q 928 2841 928 2578 
Q 928 2378 1081 2264 
Q 1234 2150 1697 2047 
L 1894 2003 
Q 2506 1872 2764 1633 
Q 3022 1394 3022 966 
Q 3022 478 2636 193 
Q 2250 -91 1575 -91 
Q 1294 -91 989 -36 
Q 684 19 347 128 
L 347 722 
Q 666 556 975 473 
Q 1284 391 1588 391 
Q 1994 391 2212 530 
Q 2431 669 2431 922 
Q 2431 1156 2273 1281 
Q 2116 1406 1581 1522 
L 1381 1569 
Q 847 1681 609 1914 
Q 372 2147 372 2553 
Q 372 3047 722 3315 
Q 1072 3584 1716 3584 
Q 2034 3584 2315 3537 
Q 2597 3491 2834 3397 
z
" transform="scale(0.015625)"/>
        <path id="DejaVuSans-74" d="M 1172 4494 
L 1172 3500 
L 2356 3500 
L 2356 3053 
L 1172 3053 
L 1172 1153 
Q 1172 725 1289 603 
Q 1406 481 1766 481 
L 2356 481 
L 2356 0 
L 1766 0 
Q 1100 0 847 248 
Q 594 497 594 1153 
L 594 3053 
L 172 3053 
L 172 3500 
L 594 3500 
L 594 4494 
L 1172 4494 
z
" transform="scale(0.015625)"/>
       </defs>
       <use xlink:href="#DejaVuSans-54"/>
       <use xlink:href="#DejaVuSans-65" x="44.083984"/>
       <use xlink:href="#DejaVuSans-73" x="105.607422"/>
       <use xlink:href="#DejaVuSans-74" x="157.707031"/>
      </g>
     </g>
    </g>
    <g id="xtick_2">
     <g id="line2d_2">
      <g>
       <use xlink:href="#mc255197f6b" x="360.36" y="288.36" style="stroke: #000000; stroke-width: 0.8"/>
      </g>
     </g>
     <g id="text_2">
      <!-- Random -->
      <g transform="translate(323.102813 308.537188) scale(0.18 -0.18)">
       <defs>
        <path id="DejaVuSans-52" d="M 2841 2188 
Q 3044 2119 3236 1894 
Q 3428 1669 3622 1275 
L 4263 0 
L 3584 0 
L 2988 1197 
Q 2756 1666 2539 1819 
Q 2322 1972 1947 1972 
L 1259 1972 
L 1259 0 
L 628 0 
L 628 4666 
L 2053 4666 
Q 2853 4666 3247 4331 
Q 3641 3997 3641 3322 
Q 3641 2881 3436 2590 
Q 3231 2300 2841 2188 
z
M 1259 4147 
L 1259 2491 
L 2053 2491 
Q 2509 2491 2742 2702 
Q 2975 2913 2975 3322 
Q 2975 3731 2742 3939 
Q 2509 4147 2053 4147 
L 1259 4147 
z
" transform="scale(0.015625)"/>
        <path id="DejaVuSans-61" d="M 2194 1759 
Q 1497 1759 1228 1600 
Q 959 1441 959 1056 
Q 959 750 1161 570 
Q 1363 391 1709 391 
Q 2188 391 2477 730 
Q 2766 1069 2766 1631 
L 2766 1759 
L 2194 1759 
z
M 3341 1997 
L 3341 0 
L 2766 0 
L 2766 531 
Q 2569 213 2275 61 
Q 1981 -91 1556 -91 
Q 1019 -91 701 211 
Q 384 513 384 1019 
Q 384 1609 779 1909 
Q 1175 2209 1959 2209 
L 2766 2209 
L 2766 2266 
Q 2766 2663 2505 2880 
Q 2244 3097 1772 3097 
Q 1472 3097 1187 3025 
Q 903 2953 641 2809 
L 641 3341 
Q 956 3463 1253 3523 
Q 1550 3584 1831 3584 
Q 2591 3584 2966 3190 
Q 3341 2797 3341 1997 
z
" transform="scale(0.015625)"/>
        <path id="DejaVuSans-6e" d="M 3513 2113 
L 3513 0 
L 2938 0 
L 2938 2094 
Q 2938 2591 2744 2837 
Q 2550 3084 2163 3084 
Q 1697 3084 1428 2787 
Q 1159 2491 1159 1978 
L 1159 0 
L 581 0 
L 581 3500 
L 1159 3500 
L 1159 2956 
Q 1366 3272 1645 3428 
Q 1925 3584 2291 3584 
Q 2894 3584 3203 3211 
Q 3513 2838 3513 2113 
z
" transform="scale(0.015625)"/>
        <path id="DejaVuSans-64" d="M 2906 2969 
L 2906 4863 
L 3481 4863 
L 3481 0 
L 2906 0 
L 2906 525 
Q 2725 213 2448 61 
Q 2172 -91 1784 -91 
Q 1150 -91 751 415 
Q 353 922 353 1747 
Q 353 2572 751 3078 
Q 1150 3584 1784 3584 
Q 2172 3584 2448 3432 
Q 2725 3281 2906 2969 
z
M 947 1747 
Q 947 1113 1208 752 
Q 1469 391 1925 391 
Q 2381 391 2643 752 
Q 2906 1113 2906 1747 
Q 2906 2381 2643 2742 
Q 2381 3103 1925 3103 
Q 1469 3103 1208 2742 
Q 947 2381 947 1747 
z
" transform="scale(0.015625)"/>
        <path id="DejaVuSans-6f" d="M 1959 3097 
Q 1497 3097 1228 2736 
Q 959 2375 959 1747 
Q 959 1119 1226 758 
Q 1494 397 1959 397 
Q 2419 397 2687 759 
Q 2956 1122 2956 1747 
Q 2956 2369 2687 2733 
Q 2419 3097 1959 3097 
z
M 1959 3584 
Q 2709 3584 3137 3096 
Q 3566 2609 3566 1747 
Q 3566 888 3137 398 
Q 2709 -91 1959 -91 
Q 1206 -91 779 398 
Q 353 888 353 1747 
Q 353 2609 779 3096 
Q 1206 3584 1959 3584 
z
" transform="scale(0.015625)"/>
        <path id="DejaVuSans-6d" d="M 3328 2828 
Q 3544 3216 3844 3400 
Q 4144 3584 4550 3584 
Q 5097 3584 5394 3201 
Q 5691 2819 5691 2113 
L 5691 0 
L 5113 0 
L 5113 2094 
Q 5113 2597 4934 2840 
Q 4756 3084 4391 3084 
Q 3944 3084 3684 2787 
Q 3425 2491 3425 1978 
L 3425 0 
L 2847 0 
L 2847 2094 
Q 2847 2600 2669 2842 
Q 2491 3084 2119 3084 
Q 1678 3084 1418 2786 
Q 1159 2488 1159 1978 
L 1159 0 
L 581 0 
L 581 3500 
L 1159 3500 
L 1159 2956 
Q 1356 3278 1631 3431 
Q 1906 3584 2284 3584 
Q 2666 3584 2933 3390 
Q 3200 3197 3328 2828 
z
" transform="scale(0.015625)"/>
       </defs>
       <use xlink:href="#DejaVuSans-52"/>
       <use xlink:href="#DejaVuSans-61" x="67.232422"/>
       <use xlink:href="#DejaVuSans-6e" x="128.511719"/>
       <use xlink:href="#DejaVuSans-64" x="191.890625"/>
       <use xlink:href="#DejaVuSans-6f" x="255.367188"/>
       <use xlink:href="#DejaVuSans-6d" x="316.548828"/>
      </g>
     </g>
    </g>
    <g id="xtick_3">
     <g id="line2d_3">
      <g>
       <use xlink:href="#mc255197f6b" x="516.6" y="288.36" style="stroke: #000000; stroke-width: 0.8"/>
      </g>
     </g>
     <g id="text_3">
      <!-- Pretrain -->
      <g transform="translate(481.348125 308.537188) scale(0.18 -0.18)">
       <defs>
        <path id="DejaVuSans-50" d="M 1259 4147 
L 1259 2394 
L 2053 2394 
Q 2494 2394 2734 2622 
Q 2975 2850 2975 3272 
Q 2975 3691 2734 3919 
Q 2494 4147 2053 4147 
L 1259 4147 
z
M 628 4666 
L 2053 4666 
Q 2838 4666 3239 4311 
Q 3641 3956 3641 3272 
Q 3641 2581 3239 2228 
Q 2838 1875 2053 1875 
L 1259 1875 
L 1259 0 
L 628 0 
L 628 4666 
z
" transform="scale(0.015625)"/>
        <path id="DejaVuSans-72" d="M 2631 2963 
Q 2534 3019 2420 3045 
Q 2306 3072 2169 3072 
Q 1681 3072 1420 2755 
Q 1159 2438 1159 1844 
L 1159 0 
L 581 0 
L 581 3500 
L 1159 3500 
L 1159 2956 
Q 1341 3275 1631 3429 
Q 1922 3584 2338 3584 
Q 2397 3584 2469 3576 
Q 2541 3569 2628 3553 
L 2631 2963 
z
" transform="scale(0.015625)"/>
        <path id="DejaVuSans-69" d="M 603 3500 
L 1178 3500 
L 1178 0 
L 603 0 
L 603 3500 
z
M 603 4863 
L 1178 4863 
L 1178 4134 
L 603 4134 
L 603 4863 
z
" transform="scale(0.015625)"/>
       </defs>
       <use xlink:href="#DejaVuSans-50"/>
       <use xlink:href="#DejaVuSans-72" x="58.552734"/>
       <use xlink:href="#DejaVuSans-65" x="97.416016"/>
       <use xlink:href="#DejaVuSans-74" x="158.939453"/>
       <use xlink:href="#DejaVuSans-72" x="198.148438"/>
       <use xlink:href="#DejaVuSans-61" x="239.261719"/>
       <use xlink:href="#DejaVuSans-69" x="300.541016"/>
       <use xlink:href="#DejaVuSans-6e" x="328.324219"/>
      </g>
     </g>
    </g>
    <g id="xtick_4">
     <g id="line2d_4">
      <g>
       <use xlink:href="#mc255197f6b" x="672.84" y="288.36" style="stroke: #000000; stroke-width: 0.8"/>
      </g>
     </g>
     <g id="text_4">
      <!-- Finetune -->
      <g transform="translate(634.100625 308.537188) scale(0.18 -0.18)">
       <defs>
        <path id="DejaVuSans-46" d="M 628 4666 
L 3309 4666 
L 3309 4134 
L 1259 4134 
L 1259 2759 
L 3109 2759 
L 3109 2228 
L 1259 2228 
L 1259 0 
L 628 0 
L 628 4666 
z
" transform="scale(0.015625)"/>
        <path id="DejaVuSans-75" d="M 544 1381 
L 544 3500 
L 1119 3500 
L 1119 1403 
Q 1119 906 1312 657 
Q 1506 409 1894 409 
Q 2359 409 2629 706 
Q 2900 1003 2900 1516 
L 2900 3500 
L 3475 3500 
L 3475 0 
L 2900 0 
L 2900 538 
Q 2691 219 2414 64 
Q 2138 -91 1772 -91 
Q 1169 -91 856 284 
Q 544 659 544 1381 
z
M 1991 3584 
L 1991 3584 
z
" transform="scale(0.015625)"/>
       </defs>
       <use xlink:href="#DejaVuSans-46"/>
       <use xlink:href="#DejaVuSans-69" x="50.269531"/>
       <use xlink:href="#DejaVuSans-6e" x="78.052734"/>
       <use xlink:href="#DejaVuSans-65" x="141.431641"/>
       <use xlink:href="#DejaVuSans-74" x="202.955078"/>
       <use xlink:href="#DejaVuSans-75" x="242.164062"/>
       <use xlink:href="#DejaVuSans-6e" x="305.542969"/>
       <use xlink:href="#DejaVuSans-65" x="368.921875"/>
      </g>
     </g>
    </g>
    <g id="xtick_5">
     <g id="line2d_5">
      <g>
       <use xlink:href="#mc255197f6b" x="829.08" y="288.36" style="stroke: #000000; stroke-width: 0.8"/>
      </g>
     </g>
     <g id="text_5">
      <!-- Prefix -->
      <g transform="translate(803.780156 308.537188) scale(0.18 -0.18)">
       <defs>
        <path id="DejaVuSans-66" d="M 2375 4863 
L 2375 4384 
L 1825 4384 
Q 1516 4384 1395 4259 
Q 1275 4134 1275 3809 
L 1275 3500 
L 2222 3500 
L 2222 3053 
L 1275 3053 
L 1275 0 
L 697 0 
L 697 3053 
L 147 3053 
L 147 3500 
L 697 3500 
L 697 3744 
Q 697 4328 969 4595 
Q 1241 4863 1831 4863 
L 2375 4863 
z
" transform="scale(0.015625)"/>
        <path id="DejaVuSans-78" d="M 3513 3500 
L 2247 1797 
L 3578 0 
L 2900 0 
L 1881 1375 
L 863 0 
L 184 0 
L 1544 1831 
L 300 3500 
L 978 3500 
L 1906 2253 
L 2834 3500 
L 3513 3500 
z
" transform="scale(0.015625)"/>
       </defs>
       <use xlink:href="#DejaVuSans-50"/>
       <use xlink:href="#DejaVuSans-72" x="58.552734"/>
       <use xlink:href="#DejaVuSans-65" x="97.416016"/>
       <use xlink:href="#DejaVuSans-66" x="158.939453"/>
       <use xlink:href="#DejaVuSans-69" x="194.144531"/>
       <use xlink:href="#DejaVuSans-78" x="221.927734"/>
      </g>
     </g>
    </g>
   </g>
   <g id="matplotlib.axis_2">
    <g id="ytick_1">
     <g id="line2d_6">
      <defs>
       <path id="ma45da3b833" d="M 0 0 
L -3 0 
" style="stroke: #000000; stroke-width: 0.8"/>
      </defs>
      <g>
       <use xlink:href="#ma45da3b833" x="126" y="231.312414" style="stroke: #000000; stroke-width: 0.8"/>
      </g>
     </g>
     <g id="text_6">
      <!-- 0.2 -->
      <g transform="translate(95.645313 237.011242) scale(0.15 -0.15)">
       <defs>
        <path id="DejaVuSans-30" d="M 2034 4250 
Q 1547 4250 1301 3770 
Q 1056 3291 1056 2328 
Q 1056 1369 1301 889 
Q 1547 409 2034 409 
Q 2525 409 2770 889 
Q 3016 1369 3016 2328 
Q 3016 3291 2770 3770 
Q 2525 4250 2034 4250 
z
M 2034 4750 
Q 2819 4750 3233 4129 
Q 3647 3509 3647 2328 
Q 3647 1150 3233 529 
Q 2819 -91 2034 -91 
Q 1250 -91 836 529 
Q 422 1150 422 2328 
Q 422 3509 836 4129 
Q 1250 4750 2034 4750 
z
" transform="scale(0.015625)"/>
        <path id="DejaVuSans-2e" d="M 684 794 
L 1344 794 
L 1344 0 
L 684 0 
L 684 794 
z
" transform="scale(0.015625)"/>
        <path id="DejaVuSans-32" d="M 1228 531 
L 3431 531 
L 3431 0 
L 469 0 
L 469 531 
Q 828 903 1448 1529 
Q 2069 2156 2228 2338 
Q 2531 2678 2651 2914 
Q 2772 3150 2772 3378 
Q 2772 3750 2511 3984 
Q 2250 4219 1831 4219 
Q 1534 4219 1204 4116 
Q 875 4013 500 3803 
L 500 4441 
Q 881 4594 1212 4672 
Q 1544 4750 1819 4750 
Q 2544 4750 2975 4387 
Q 3406 4025 3406 3419 
Q 3406 3131 3298 2873 
Q 3191 2616 2906 2266 
Q 2828 2175 2409 1742 
Q 1991 1309 1228 531 
z
" transform="scale(0.015625)"/>
       </defs>
       <use xlink:href="#DejaVuSans-30"/>
       <use xlink:href="#DejaVuSans-2e" x="63.623047"/>
       <use xlink:href="#DejaVuSans-32" x="95.410156"/>
      </g>
     </g>
    </g>
    <g id="ytick_2">
     <g id="line2d_7">
      <g>
       <use xlink:href="#ma45da3b833" x="126" y="185.604828" style="stroke: #000000; stroke-width: 0.8"/>
      </g>
     </g>
     <g id="text_7">
      <!-- 0.4 -->
      <g transform="translate(95.645313 191.303656) scale(0.15 -0.15)">
       <defs>
        <path id="DejaVuSans-34" d="M 2419 4116 
L 825 1625 
L 2419 1625 
L 2419 4116 
z
M 2253 4666 
L 3047 4666 
L 3047 1625 
L 3713 1625 
L 3713 1100 
L 3047 1100 
L 3047 0 
L 2419 0 
L 2419 1100 
L 313 1100 
L 313 1709 
L 2253 4666 
z
" transform="scale(0.015625)"/>
       </defs>
       <use xlink:href="#DejaVuSans-30"/>
       <use xlink:href="#DejaVuSans-2e" x="63.623047"/>
       <use xlink:href="#DejaVuSans-34" x="95.410156"/>
      </g>
     </g>
    </g>
    <g id="ytick_3">
     <g id="line2d_8">
      <g>
       <use xlink:href="#ma45da3b833" x="126" y="139.897241" style="stroke: #000000; stroke-width: 0.8"/>
      </g>
     </g>
     <g id="text_8">
      <!-- 0.6 -->
      <g transform="translate(95.645313 145.59607) scale(0.15 -0.15)">
       <defs>
        <path id="DejaVuSans-36" d="M 2113 2584 
Q 1688 2584 1439 2293 
Q 1191 2003 1191 1497 
Q 1191 994 1439 701 
Q 1688 409 2113 409 
Q 2538 409 2786 701 
Q 3034 994 3034 1497 
Q 3034 2003 2786 2293 
Q 2538 2584 2113 2584 
z
M 3366 4563 
L 3366 3988 
Q 3128 4100 2886 4159 
Q 2644 4219 2406 4219 
Q 1781 4219 1451 3797 
Q 1122 3375 1075 2522 
Q 1259 2794 1537 2939 
Q 1816 3084 2150 3084 
Q 2853 3084 3261 2657 
Q 3669 2231 3669 1497 
Q 3669 778 3244 343 
Q 2819 -91 2113 -91 
Q 1303 -91 875 529 
Q 447 1150 447 2328 
Q 447 3434 972 4092 
Q 1497 4750 2381 4750 
Q 2619 4750 2861 4703 
Q 3103 4656 3366 4563 
z
" transform="scale(0.015625)"/>
       </defs>
       <use xlink:href="#DejaVuSans-30"/>
       <use xlink:href="#DejaVuSans-2e" x="63.623047"/>
       <use xlink:href="#DejaVuSans-36" x="95.410156"/>
      </g>
     </g>
    </g>
    <g id="ytick_4">
     <g id="line2d_9">
      <g>
       <use xlink:href="#ma45da3b833" x="126" y="94.189655" style="stroke: #000000; stroke-width: 0.8"/>
      </g>
     </g>
     <g id="text_9">
      <!-- 0.8 -->
      <g transform="translate(95.645313 99.888483) scale(0.15 -0.15)">
       <defs>
        <path id="DejaVuSans-38" d="M 2034 2216 
Q 1584 2216 1326 1975 
Q 1069 1734 1069 1313 
Q 1069 891 1326 650 
Q 1584 409 2034 409 
Q 2484 409 2743 651 
Q 3003 894 3003 1313 
Q 3003 1734 2745 1975 
Q 2488 2216 2034 2216 
z
M 1403 2484 
Q 997 2584 770 2862 
Q 544 3141 544 3541 
Q 544 4100 942 4425 
Q 1341 4750 2034 4750 
Q 2731 4750 3128 4425 
Q 3525 4100 3525 3541 
Q 3525 3141 3298 2862 
Q 3072 2584 2669 2484 
Q 3125 2378 3379 2068 
Q 3634 1759 3634 1313 
Q 3634 634 3220 271 
Q 2806 -91 2034 -91 
Q 1263 -91 848 271 
Q 434 634 434 1313 
Q 434 1759 690 2068 
Q 947 2378 1403 2484 
z
M 1172 3481 
Q 1172 3119 1398 2916 
Q 1625 2713 2034 2713 
Q 2441 2713 2670 2916 
Q 2900 3119 2900 3481 
Q 2900 3844 2670 4047 
Q 2441 4250 2034 4250 
Q 1625 4250 1398 4047 
Q 1172 3844 1172 3481 
z
" transform="scale(0.015625)"/>
       </defs>
       <use xlink:href="#DejaVuSans-30"/>
       <use xlink:href="#DejaVuSans-2e" x="63.623047"/>
       <use xlink:href="#DejaVuSans-38" x="95.410156"/>
      </g>
     </g>
    </g>
    <g id="text_10">
     <!-- Percentage of -->
     <g transform="translate(67.605187 234.759375) rotate(-90) scale(0.18 -0.18)">
      <defs>
       <path id="DejaVuSans-Bold-50" d="M 588 4666 
L 2584 4666 
Q 3475 4666 3951 4270 
Q 4428 3875 4428 3144 
Q 4428 2409 3951 2014 
Q 3475 1619 2584 1619 
L 1791 1619 
L 1791 0 
L 588 0 
L 588 4666 
z
M 1791 3794 
L 1791 2491 
L 2456 2491 
Q 2806 2491 2997 2661 
Q 3188 2831 3188 3144 
Q 3188 3456 2997 3625 
Q 2806 3794 2456 3794 
L 1791 3794 
z
" transform="scale(0.015625)"/>
       <path id="DejaVuSans-Bold-65" d="M 4031 1759 
L 4031 1441 
L 1416 1441 
Q 1456 1047 1700 850 
Q 1944 653 2381 653 
Q 2734 653 3104 758 
Q 3475 863 3866 1075 
L 3866 213 
Q 3469 63 3072 -14 
Q 2675 -91 2278 -91 
Q 1328 -91 801 392 
Q 275 875 275 1747 
Q 275 2603 792 3093 
Q 1309 3584 2216 3584 
Q 3041 3584 3536 3087 
Q 4031 2591 4031 1759 
z
M 2881 2131 
Q 2881 2450 2695 2645 
Q 2509 2841 2209 2841 
Q 1884 2841 1681 2658 
Q 1478 2475 1428 2131 
L 2881 2131 
z
" transform="scale(0.015625)"/>
       <path id="DejaVuSans-Bold-72" d="M 3138 2547 
Q 2991 2616 2845 2648 
Q 2700 2681 2553 2681 
Q 2122 2681 1889 2404 
Q 1656 2128 1656 1613 
L 1656 0 
L 538 0 
L 538 3500 
L 1656 3500 
L 1656 2925 
Q 1872 3269 2151 3426 
Q 2431 3584 2822 3584 
Q 2878 3584 2943 3579 
Q 3009 3575 3134 3559 
L 3138 2547 
z
" transform="scale(0.015625)"/>
       <path id="DejaVuSans-Bold-63" d="M 3366 3391 
L 3366 2478 
Q 3138 2634 2908 2709 
Q 2678 2784 2431 2784 
Q 1963 2784 1702 2511 
Q 1441 2238 1441 1747 
Q 1441 1256 1702 982 
Q 1963 709 2431 709 
Q 2694 709 2930 787 
Q 3166 866 3366 1019 
L 3366 103 
Q 3103 6 2833 -42 
Q 2563 -91 2291 -91 
Q 1344 -91 809 395 
Q 275 881 275 1747 
Q 275 2613 809 3098 
Q 1344 3584 2291 3584 
Q 2566 3584 2833 3536 
Q 3100 3488 3366 3391 
z
" transform="scale(0.015625)"/>
       <path id="DejaVuSans-Bold-6e" d="M 4056 2131 
L 4056 0 
L 2931 0 
L 2931 347 
L 2931 1631 
Q 2931 2084 2911 2256 
Q 2891 2428 2841 2509 
Q 2775 2619 2662 2680 
Q 2550 2741 2406 2741 
Q 2056 2741 1856 2470 
Q 1656 2200 1656 1722 
L 1656 0 
L 538 0 
L 538 3500 
L 1656 3500 
L 1656 2988 
Q 1909 3294 2193 3439 
Q 2478 3584 2822 3584 
Q 3428 3584 3742 3212 
Q 4056 2841 4056 2131 
z
" transform="scale(0.015625)"/>
       <path id="DejaVuSans-Bold-74" d="M 1759 4494 
L 1759 3500 
L 2913 3500 
L 2913 2700 
L 1759 2700 
L 1759 1216 
Q 1759 972 1856 886 
Q 1953 800 2241 800 
L 2816 800 
L 2816 0 
L 1856 0 
Q 1194 0 917 276 
Q 641 553 641 1216 
L 641 2700 
L 84 2700 
L 84 3500 
L 641 3500 
L 641 4494 
L 1759 4494 
z
" transform="scale(0.015625)"/>
       <path id="DejaVuSans-Bold-61" d="M 2106 1575 
Q 1756 1575 1579 1456 
Q 1403 1338 1403 1106 
Q 1403 894 1545 773 
Q 1688 653 1941 653 
Q 2256 653 2472 879 
Q 2688 1106 2688 1447 
L 2688 1575 
L 2106 1575 
z
M 3816 1997 
L 3816 0 
L 2688 0 
L 2688 519 
Q 2463 200 2181 54 
Q 1900 -91 1497 -91 
Q 953 -91 614 226 
Q 275 544 275 1050 
Q 275 1666 698 1953 
Q 1122 2241 2028 2241 
L 2688 2241 
L 2688 2328 
Q 2688 2594 2478 2717 
Q 2269 2841 1825 2841 
Q 1466 2841 1156 2769 
Q 847 2697 581 2553 
L 581 3406 
Q 941 3494 1303 3539 
Q 1666 3584 2028 3584 
Q 2975 3584 3395 3211 
Q 3816 2838 3816 1997 
z
" transform="scale(0.015625)"/>
       <path id="DejaVuSans-Bold-67" d="M 2919 594 
Q 2688 288 2409 144 
Q 2131 0 1766 0 
Q 1125 0 706 504 
Q 288 1009 288 1791 
Q 288 2575 706 3076 
Q 1125 3578 1766 3578 
Q 2131 3578 2409 3434 
Q 2688 3291 2919 2981 
L 2919 3500 
L 4044 3500 
L 4044 353 
Q 4044 -491 3511 -936 
Q 2978 -1381 1966 -1381 
Q 1638 -1381 1331 -1331 
Q 1025 -1281 716 -1178 
L 716 -306 
Q 1009 -475 1290 -558 
Q 1572 -641 1856 -641 
Q 2406 -641 2662 -400 
Q 2919 -159 2919 353 
L 2919 594 
z
M 2181 2772 
Q 1834 2772 1640 2515 
Q 1447 2259 1447 1791 
Q 1447 1309 1634 1061 
Q 1822 813 2181 813 
Q 2531 813 2725 1069 
Q 2919 1325 2919 1791 
Q 2919 2259 2725 2515 
Q 2531 2772 2181 2772 
z
" transform="scale(0.015625)"/>
       <path id="DejaVuSans-Bold-20" transform="scale(0.015625)"/>
       <path id="DejaVuSans-Bold-6f" d="M 2203 2784 
Q 1831 2784 1636 2517 
Q 1441 2250 1441 1747 
Q 1441 1244 1636 976 
Q 1831 709 2203 709 
Q 2569 709 2762 976 
Q 2956 1244 2956 1747 
Q 2956 2250 2762 2517 
Q 2569 2784 2203 2784 
z
M 2203 3584 
Q 3106 3584 3614 3096 
Q 4122 2609 4122 1747 
Q 4122 884 3614 396 
Q 3106 -91 2203 -91 
Q 1297 -91 786 396 
Q 275 884 275 1747 
Q 275 2609 786 3096 
Q 1297 3584 2203 3584 
z
" transform="scale(0.015625)"/>
       <path id="DejaVuSans-Bold-66" d="M 2841 4863 
L 2841 4128 
L 2222 4128 
Q 1984 4128 1890 4042 
Q 1797 3956 1797 3744 
L 1797 3500 
L 2753 3500 
L 2753 2700 
L 1797 2700 
L 1797 0 
L 678 0 
L 678 2700 
L 122 2700 
L 122 3500 
L 678 3500 
L 678 3744 
Q 678 4316 997 4589 
Q 1316 4863 1984 4863 
L 2841 4863 
z
" transform="scale(0.015625)"/>
      </defs>
      <use xlink:href="#DejaVuSans-Bold-50"/>
      <use xlink:href="#DejaVuSans-Bold-65" x="73.291016"/>
      <use xlink:href="#DejaVuSans-Bold-72" x="141.113281"/>
      <use xlink:href="#DejaVuSans-Bold-63" x="190.429688"/>
      <use xlink:href="#DejaVuSans-Bold-65" x="249.707031"/>
      <use xlink:href="#DejaVuSans-Bold-6e" x="317.529297"/>
      <use xlink:href="#DejaVuSans-Bold-74" x="388.720703"/>
      <use xlink:href="#DejaVuSans-Bold-61" x="436.523438"/>
      <use xlink:href="#DejaVuSans-Bold-67" x="504.003906"/>
      <use xlink:href="#DejaVuSans-Bold-65" x="575.585938"/>
      <use xlink:href="#DejaVuSans-Bold-20" x="643.408203"/>
      <use xlink:href="#DejaVuSans-Bold-6f" x="678.222656"/>
      <use xlink:href="#DejaVuSans-Bold-66" x="746.923828"/>
     </g>
     <!--  alpha-helix -->
     <g transform="translate(87.901875 223.056563) rotate(-90) scale(0.18 -0.18)">
      <defs>
       <path id="DejaVuSans-Bold-6c" d="M 538 4863 
L 1656 4863 
L 1656 0 
L 538 0 
L 538 4863 
z
" transform="scale(0.015625)"/>
       <path id="DejaVuSans-Bold-70" d="M 1656 506 
L 1656 -1331 
L 538 -1331 
L 538 3500 
L 1656 3500 
L 1656 2988 
Q 1888 3294 2169 3439 
Q 2450 3584 2816 3584 
Q 3463 3584 3878 3070 
Q 4294 2556 4294 1747 
Q 4294 938 3878 423 
Q 3463 -91 2816 -91 
Q 2450 -91 2169 54 
Q 1888 200 1656 506 
z
M 2400 2772 
Q 2041 2772 1848 2508 
Q 1656 2244 1656 1747 
Q 1656 1250 1848 986 
Q 2041 722 2400 722 
Q 2759 722 2948 984 
Q 3138 1247 3138 1747 
Q 3138 2247 2948 2509 
Q 2759 2772 2400 2772 
z
" transform="scale(0.015625)"/>
       <path id="DejaVuSans-Bold-68" d="M 4056 2131 
L 4056 0 
L 2931 0 
L 2931 347 
L 2931 1625 
Q 2931 2084 2911 2256 
Q 2891 2428 2841 2509 
Q 2775 2619 2662 2680 
Q 2550 2741 2406 2741 
Q 2056 2741 1856 2470 
Q 1656 2200 1656 1722 
L 1656 0 
L 538 0 
L 538 4863 
L 1656 4863 
L 1656 2988 
Q 1909 3294 2193 3439 
Q 2478 3584 2822 3584 
Q 3428 3584 3742 3212 
Q 4056 2841 4056 2131 
z
" transform="scale(0.015625)"/>
       <path id="DejaVuSans-Bold-2d" d="M 347 2297 
L 2309 2297 
L 2309 1388 
L 347 1388 
L 347 2297 
z
" transform="scale(0.015625)"/>
       <path id="DejaVuSans-Bold-69" d="M 538 3500 
L 1656 3500 
L 1656 0 
L 538 0 
L 538 3500 
z
M 538 4863 
L 1656 4863 
L 1656 3950 
L 538 3950 
L 538 4863 
z
" transform="scale(0.015625)"/>
       <path id="DejaVuSans-Bold-78" d="M 1422 1791 
L 159 3500 
L 1344 3500 
L 2059 2463 
L 2784 3500 
L 3969 3500 
L 2706 1797 
L 4031 0 
L 2847 0 
L 2059 1106 
L 1281 0 
L 97 0 
L 1422 1791 
z
" transform="scale(0.015625)"/>
      </defs>
      <use xlink:href="#DejaVuSans-Bold-20"/>
      <use xlink:href="#DejaVuSans-Bold-61" x="34.814453"/>
      <use xlink:href="#DejaVuSans-Bold-6c" x="102.294922"/>
      <use xlink:href="#DejaVuSans-Bold-70" x="136.572266"/>
      <use xlink:href="#DejaVuSans-Bold-68" x="208.154297"/>
      <use xlink:href="#DejaVuSans-Bold-61" x="279.345703"/>
      <use xlink:href="#DejaVuSans-Bold-2d" x="346.826172"/>
      <use xlink:href="#DejaVuSans-Bold-68" x="388.330078"/>
      <use xlink:href="#DejaVuSans-Bold-65" x="459.521484"/>
      <use xlink:href="#DejaVuSans-Bold-6c" x="527.34375"/>
      <use xlink:href="#DejaVuSans-Bold-69" x="561.621094"/>
      <use xlink:href="#DejaVuSans-Bold-78" x="595.898438"/>
     </g>
    </g>
   </g>
   <g id="line2d_10">
    <path d="M 180.684 174.287805 
L 227.556 174.287805 
L 227.556 125.134543 
L 180.684 125.134543 
L 180.684 174.287805 
" clip-path="url(#p2ea3771a79)" style="fill: none; stroke: #747473; stroke-width: 1.5; stroke-linecap: square"/>
   </g>
   <g id="line2d_11">
    <path d="M 204.12 174.287805 
L 204.12 246.362473 
" clip-path="url(#p2ea3771a79)" style="fill: none; stroke: #747473; stroke-width: 1.5; stroke-linecap: square"/>
   </g>
   <g id="line2d_12">
    <path d="M 204.12 125.134543 
L 204.12 54.576414 
" clip-path="url(#p2ea3771a79)" style="fill: none; stroke: #747473; stroke-width: 1.5; stroke-linecap: square"/>
   </g>
   <g id="line2d_13">
    <path d="M 336.924 197.562192 
L 383.796 197.562192 
L 383.796 154.498018 
L 336.924 154.498018 
L 336.924 197.562192 
" clip-path="url(#p2ea3771a79)" style="fill: none; stroke: #747473; stroke-width: 1.5; stroke-linecap: square"/>
   </g>
   <g id="line2d_14">
    <path d="M 360.36 197.562192 
L 360.36 260.887911 
" clip-path="url(#p2ea3771a79)" style="fill: none; stroke: #747473; stroke-width: 1.5; stroke-linecap: square"/>
   </g>
   <g id="line2d_15">
    <path d="M 360.36 154.498018 
L 360.36 92.211423 
" clip-path="url(#p2ea3771a79)" style="fill: none; stroke: #747473; stroke-width: 1.5; stroke-linecap: square"/>
   </g>
   <g id="line2d_16">
    <path d="M 493.164 242.577352 
L 540.036 242.577352 
L 540.036 155.892423 
L 493.164 155.892423 
L 493.164 242.577352 
" clip-path="url(#p2ea3771a79)" style="fill: none; stroke: #747473; stroke-width: 1.5; stroke-linecap: square"/>
   </g>
   <g id="line2d_17">
    <path d="M 516.6 242.577352 
L 516.6 277.02 
" clip-path="url(#p2ea3771a79)" style="fill: none; stroke: #747473; stroke-width: 1.5; stroke-linecap: square"/>
   </g>
   <g id="line2d_18">
    <path d="M 516.6 155.892423 
L 516.6 53.796905 
" clip-path="url(#p2ea3771a79)" style="fill: none; stroke: #747473; stroke-width: 1.5; stroke-linecap: square"/>
   </g>
   <g id="line2d_19">
    <path d="M 649.404 196.71886 
L 696.276 196.71886 
L 696.276 124.145517 
L 649.404 124.145517 
L 649.404 196.71886 
" clip-path="url(#p2ea3771a79)" style="fill: none; stroke: #747473; stroke-width: 1.5; stroke-linecap: square"/>
   </g>
   <g id="line2d_20">
    <path d="M 672.84 196.71886 
L 672.84 277.02 
" clip-path="url(#p2ea3771a79)" style="fill: none; stroke: #747473; stroke-width: 1.5; stroke-linecap: square"/>
   </g>
   <g id="line2d_21">
    <path d="M 672.84 124.145517 
L 672.84 51.021379 
" clip-path="url(#p2ea3771a79)" style="fill: none; stroke: #747473; stroke-width: 1.5; stroke-linecap: square"/>
   </g>
   <g id="line2d_22">
    <path d="M 805.644 176.850741 
L 852.516 176.850741 
L 852.516 111.208058 
L 805.644 111.208058 
L 805.644 176.850741 
" clip-path="url(#p2ea3771a79)" style="fill: none; stroke: #747473; stroke-width: 1.5; stroke-linecap: square"/>
   </g>
   <g id="line2d_23">
    <path d="M 829.08 176.850741 
L 829.08 274.74032 
" clip-path="url(#p2ea3771a79)" style="fill: none; stroke: #747473; stroke-width: 1.5; stroke-linecap: square"/>
   </g>
   <g id="line2d_24">
    <path d="M 829.08 111.208058 
L 829.08 50.22 
" clip-path="url(#p2ea3771a79)" style="fill: none; stroke: #747473; stroke-width: 1.5; stroke-linecap: square"/>
   </g>
   <g id="line2d_25">
    <path d="M 180.684 146.806528 
L 227.556 146.806528 
" clip-path="url(#p2ea3771a79)" style="fill: none; stroke: #747473; stroke-width: 2"/>
   </g>
   <g id="line2d_26">
    <path d="M 336.924 176.31974 
L 383.796 176.31974 
" clip-path="url(#p2ea3771a79)" style="fill: none; stroke: #747473; stroke-width: 2"/>
   </g>
   <g id="line2d_27">
    <path d="M 493.164 197.75829 
L 540.036 197.75829 
" clip-path="url(#p2ea3771a79)" style="fill: none; stroke: #747473; stroke-width: 2"/>
   </g>
   <g id="line2d_28">
    <path d="M 649.404 163.636526 
L 696.276 163.636526 
" clip-path="url(#p2ea3771a79)" style="fill: none; stroke: #747473; stroke-width: 2"/>
   </g>
   <g id="line2d_29">
    <path d="M 805.644 138.167925 
L 852.516 138.167925 
" clip-path="url(#p2ea3771a79)" style="fill: none; stroke: #747473; stroke-width: 2"/>
   </g>
   <g id="patch_3">
    <path d="M 126 288.36 
L 126 38.88 
" style="fill: none; stroke: #b4aea9; stroke-width: 2; stroke-linejoin: miter; stroke-linecap: square"/>
   </g>
   <g id="patch_4">
    <path d="M 907.2 288.36 
L 907.2 38.88 
" style="fill: none"/>
   </g>
   <g id="patch_5">
    <path d="M 126 288.36 
L 907.2 288.36 
" style="fill: none; stroke: #b4aea9; stroke-width: 2; stroke-linejoin: miter; stroke-linecap: square"/>
   </g>
   <g id="patch_6">
    <path d="M 126 38.88 
L 907.2 38.88 
" style="fill: none"/>
   </g>
   <g id="line2d_30">
    <path d="M 204.12 151.090156 
L 243.18 151.090156 
" clip-path="url(#p2ea3771a79)" style="fill: none; stroke-dasharray: 9.6,2.4,1.5,2.4; stroke-dashoffset: 0; stroke: #000000; stroke-width: 1.5"/>
   </g>
   <g id="line2d_31">
    <path d="M 360.36 176.616714 
L 399.42 176.616714 
" clip-path="url(#p2ea3771a79)" style="fill: none; stroke-dasharray: 9.6,2.4,1.5,2.4; stroke-dashoffset: 0; stroke: #000000; stroke-width: 1.5"/>
   </g>
   <g id="line2d_32">
    <path d="M 516.6 193.67326 
L 555.66 193.67326 
" clip-path="url(#p2ea3771a79)" style="fill: none; stroke-dasharray: 9.6,2.4,1.5,2.4; stroke-dashoffset: 0; stroke: #000000; stroke-width: 1.5"/>
   </g>
   <g id="line2d_33">
    <path d="M 672.84 163.275894 
L 711.9 163.275894 
" clip-path="url(#p2ea3771a79)" style="fill: none; stroke-dasharray: 9.6,2.4,1.5,2.4; stroke-dashoffset: 0; stroke: #000000; stroke-width: 1.5"/>
   </g>
   <g id="line2d_34">
    <path d="M 829.08 146.054767 
L 868.14 146.054767 
" clip-path="url(#p2ea3771a79)" style="fill: none; stroke-dasharray: 9.6,2.4,1.5,2.4; stroke-dashoffset: 0; stroke: #000000; stroke-width: 1.5"/>
   </g>
   <g id="text_11">
    <g id="patch_7">
     <path d="M 243.18 159.330937 
L 322.61 159.330937 
Q 324.56 159.330937 324.56 157.380937 
L 324.56 144.799375 
Q 324.56 142.849375 322.61 142.849375 
L 243.18 142.849375 
Q 241.23 142.849375 241.23 144.799375 
L 241.23 157.380937 
Q 241.23 159.330937 243.18 159.330937 
z
" style="fill: #ffffff; stroke: #000000; stroke-linejoin: miter"/>
    </g>
    <!-- ${\mu}_{\rm{mean}} = $0.55 -->
    <g transform="translate(243.18 154.650937) scale(0.13 -0.13)">
     <defs>
      <path id="DejaVuSans-Oblique-3bc" d="M -84 -1331 
L 856 3500 
L 1434 3500 
L 1009 1322 
Q 997 1256 987 1175 
Q 978 1094 978 1013 
Q 978 722 1161 565 
Q 1344 409 1684 409 
Q 2147 409 2431 671 
Q 2716 934 2816 1459 
L 3213 3500 
L 3788 3500 
L 3266 809 
Q 3253 750 3248 706 
Q 3244 663 3244 628 
Q 3244 531 3283 486 
Q 3322 441 3406 441 
Q 3438 441 3492 456 
Q 3547 472 3647 513 
L 3559 50 
Q 3422 -19 3297 -55 
Q 3172 -91 3053 -91 
Q 2847 -91 2730 40 
Q 2613 172 2613 403 
Q 2438 153 2195 31 
Q 1953 -91 1625 -91 
Q 1334 -91 1117 43 
Q 900 178 831 397 
L 494 -1331 
L -84 -1331 
z
" transform="scale(0.015625)"/>
      <path id="DejaVuSans-3d" d="M 678 2906 
L 4684 2906 
L 4684 2381 
L 678 2381 
L 678 2906 
z
M 678 1631 
L 4684 1631 
L 4684 1100 
L 678 1100 
L 678 1631 
z
" transform="scale(0.015625)"/>
      <path id="DejaVuSans-35" d="M 691 4666 
L 3169 4666 
L 3169 4134 
L 1269 4134 
L 1269 2991 
Q 1406 3038 1543 3061 
Q 1681 3084 1819 3084 
Q 2600 3084 3056 2656 
Q 3513 2228 3513 1497 
Q 3513 744 3044 326 
Q 2575 -91 1722 -91 
Q 1428 -91 1123 -41 
Q 819 9 494 109 
L 494 744 
Q 775 591 1075 516 
Q 1375 441 1709 441 
Q 2250 441 2565 725 
Q 2881 1009 2881 1497 
Q 2881 1984 2565 2268 
Q 2250 2553 1709 2553 
Q 1456 2553 1204 2497 
Q 953 2441 691 2322 
L 691 4666 
z
" transform="scale(0.015625)"/>
     </defs>
     <use xlink:href="#DejaVuSans-Oblique-3bc" transform="translate(0 0.78125)"/>
     <use xlink:href="#DejaVuSans-6d" transform="translate(63.623047 -15.625) scale(0.7)"/>
     <use xlink:href="#DejaVuSans-65" transform="translate(131.811523 -15.625) scale(0.7)"/>
     <use xlink:href="#DejaVuSans-61" transform="translate(174.87793 -15.625) scale(0.7)"/>
     <use xlink:href="#DejaVuSans-6e" transform="translate(217.773438 -15.625) scale(0.7)"/>
     <use xlink:href="#DejaVuSans-3d" transform="translate(284.355469 0.78125)"/>
     <use xlink:href="#DejaVuSans-30" transform="translate(387.626953 0.78125)"/>
     <use xlink:href="#DejaVuSans-2e" transform="translate(451.25 0.78125)"/>
     <use xlink:href="#DejaVuSans-35" transform="translate(483.037109 0.78125)"/>
     <use xlink:href="#DejaVuSans-35" transform="translate(546.660156 0.78125)"/>
    </g>
   </g>
   <g id="text_12">
    <g id="patch_8">
     <path d="M 399.42 184.857496 
L 478.85 184.857496 
Q 480.8 184.857496 480.8 182.907496 
L 480.8 170.325933 
Q 480.8 168.375933 478.85 168.375933 
L 399.42 168.375933 
Q 397.47 168.375933 397.47 170.325933 
L 397.47 182.907496 
Q 397.47 184.857496 399.42 184.857496 
z
" style="fill: #ffffff; stroke: #000000; stroke-linejoin: miter"/>
    </g>
    <!-- ${\mu}_{\rm{mean}} = $0.44 -->
    <g transform="translate(399.42 180.177496) scale(0.13 -0.13)">
     <use xlink:href="#DejaVuSans-Oblique-3bc" transform="translate(0 0.78125)"/>
     <use xlink:href="#DejaVuSans-6d" transform="translate(63.623047 -15.625) scale(0.7)"/>
     <use xlink:href="#DejaVuSans-65" transform="translate(131.811523 -15.625) scale(0.7)"/>
     <use xlink:href="#DejaVuSans-61" transform="translate(174.87793 -15.625) scale(0.7)"/>
     <use xlink:href="#DejaVuSans-6e" transform="translate(217.773438 -15.625) scale(0.7)"/>
     <use xlink:href="#DejaVuSans-3d" transform="translate(284.355469 0.78125)"/>
     <use xlink:href="#DejaVuSans-30" transform="translate(387.626953 0.78125)"/>
     <use xlink:href="#DejaVuSans-2e" transform="translate(451.25 0.78125)"/>
     <use xlink:href="#DejaVuSans-34" transform="translate(483.037109 0.78125)"/>
     <use xlink:href="#DejaVuSans-34" transform="translate(546.660156 0.78125)"/>
    </g>
   </g>
   <g id="text_13">
    <g id="patch_9">
     <path d="M 555.66 201.914041 
L 635.09 201.914041 
Q 637.04 201.914041 637.04 199.964041 
L 637.04 187.382479 
Q 637.04 185.432479 635.09 185.432479 
L 555.66 185.432479 
Q 553.71 185.432479 553.71 187.382479 
L 553.71 199.964041 
Q 553.71 201.914041 555.66 201.914041 
z
" style="fill: #ffffff; stroke: #000000; stroke-linejoin: miter"/>
    </g>
    <!-- ${\mu}_{\rm{mean}} = $0.36 -->
    <g transform="translate(555.66 197.234041) scale(0.13 -0.13)">
     <defs>
      <path id="DejaVuSans-33" d="M 2597 2516 
Q 3050 2419 3304 2112 
Q 3559 1806 3559 1356 
Q 3559 666 3084 287 
Q 2609 -91 1734 -91 
Q 1441 -91 1130 -33 
Q 819 25 488 141 
L 488 750 
Q 750 597 1062 519 
Q 1375 441 1716 441 
Q 2309 441 2620 675 
Q 2931 909 2931 1356 
Q 2931 1769 2642 2001 
Q 2353 2234 1838 2234 
L 1294 2234 
L 1294 2753 
L 1863 2753 
Q 2328 2753 2575 2939 
Q 2822 3125 2822 3475 
Q 2822 3834 2567 4026 
Q 2313 4219 1838 4219 
Q 1578 4219 1281 4162 
Q 984 4106 628 3988 
L 628 4550 
Q 988 4650 1302 4700 
Q 1616 4750 1894 4750 
Q 2613 4750 3031 4423 
Q 3450 4097 3450 3541 
Q 3450 3153 3228 2886 
Q 3006 2619 2597 2516 
z
" transform="scale(0.015625)"/>
     </defs>
     <use xlink:href="#DejaVuSans-Oblique-3bc" transform="translate(0 0.78125)"/>
     <use xlink:href="#DejaVuSans-6d" transform="translate(63.623047 -15.625) scale(0.7)"/>
     <use xlink:href="#DejaVuSans-65" transform="translate(131.811523 -15.625) scale(0.7)"/>
     <use xlink:href="#DejaVuSans-61" transform="translate(174.87793 -15.625) scale(0.7)"/>
     <use xlink:href="#DejaVuSans-6e" transform="translate(217.773438 -15.625) scale(0.7)"/>
     <use xlink:href="#DejaVuSans-3d" transform="translate(284.355469 0.78125)"/>
     <use xlink:href="#DejaVuSans-30" transform="translate(387.626953 0.78125)"/>
     <use xlink:href="#DejaVuSans-2e" transform="translate(451.25 0.78125)"/>
     <use xlink:href="#DejaVuSans-33" transform="translate(483.037109 0.78125)"/>
     <use xlink:href="#DejaVuSans-36" transform="translate(546.660156 0.78125)"/>
    </g>
   </g>
   <g id="text_14">
    <g id="patch_10">
     <path d="M 711.9 171.516675 
L 783.01 171.516675 
Q 784.96 171.516675 784.96 169.566675 
L 784.96 156.985113 
Q 784.96 155.035113 783.01 155.035113 
L 711.9 155.035113 
Q 709.95 155.035113 709.95 156.985113 
L 709.95 169.566675 
Q 709.95 171.516675 711.9 171.516675 
z
" style="fill: #ffffff; stroke: #000000; stroke-linejoin: miter"/>
    </g>
    <!-- ${\mu}_{\rm{mean}} = $0.5 -->
    <g transform="translate(711.9 166.836675) scale(0.13 -0.13)">
     <use xlink:href="#DejaVuSans-Oblique-3bc" transform="translate(0 0.78125)"/>
     <use xlink:href="#DejaVuSans-6d" transform="translate(63.623047 -15.625) scale(0.7)"/>
     <use xlink:href="#DejaVuSans-65" transform="translate(131.811523 -15.625) scale(0.7)"/>
     <use xlink:href="#DejaVuSans-61" transform="translate(174.87793 -15.625) scale(0.7)"/>
     <use xlink:href="#DejaVuSans-6e" transform="translate(217.773438 -15.625) scale(0.7)"/>
     <use xlink:href="#DejaVuSans-3d" transform="translate(284.355469 0.78125)"/>
     <use xlink:href="#DejaVuSans-30" transform="translate(387.626953 0.78125)"/>
     <use xlink:href="#DejaVuSans-2e" transform="translate(451.25 0.78125)"/>
     <use xlink:href="#DejaVuSans-35" transform="translate(483.037109 0.78125)"/>
    </g>
   </g>
   <g id="text_15">
    <g id="patch_11">
     <path d="M 868.14 154.295548 
L 946.66 154.295548 
Q 948.61 154.295548 948.61 152.345548 
L 948.61 139.763986 
Q 948.61 137.813986 946.66 137.813986 
L 868.14 137.813986 
Q 866.19 137.813986 866.19 139.763986 
L 866.19 152.345548 
Q 866.19 154.295548 868.14 154.295548 
z
" style="fill: #ffffff; stroke: #000000; stroke-linejoin: miter"/>
    </g>
    <!-- ${\mu}_{\rm{mean}} = $0.57 -->
    <g transform="translate(868.14 149.615548) scale(0.13 -0.13)">
     <defs>
      <path id="DejaVuSans-37" d="M 525 4666 
L 3525 4666 
L 3525 4397 
L 1831 0 
L 1172 0 
L 2766 4134 
L 525 4134 
L 525 4666 
z
" transform="scale(0.015625)"/>
     </defs>
     <use xlink:href="#DejaVuSans-Oblique-3bc" transform="translate(0 0.78125)"/>
     <use xlink:href="#DejaVuSans-6d" transform="translate(63.623047 -15.625) scale(0.7)"/>
     <use xlink:href="#DejaVuSans-65" transform="translate(131.811523 -15.625) scale(0.7)"/>
     <use xlink:href="#DejaVuSans-61" transform="translate(174.87793 -15.625) scale(0.7)"/>
     <use xlink:href="#DejaVuSans-6e" transform="translate(217.773438 -15.625) scale(0.7)"/>
     <use xlink:href="#DejaVuSans-3d" transform="translate(284.355469 0.78125)"/>
     <use xlink:href="#DejaVuSans-30" transform="translate(387.626953 0.78125)"/>
     <use xlink:href="#DejaVuSans-2e" transform="translate(451.25 0.78125)"/>
     <use xlink:href="#DejaVuSans-35" transform="translate(483.037109 0.78125)"/>
     <use xlink:href="#DejaVuSans-37" transform="translate(539.410156 0.78125)"/>
    </g>
   </g>
  </g>
 </g>
 <defs>
  <clipPath id="p2ea3771a79">
   <rect x="126" y="38.88" width="781.2" height="249.48"/>
  </clipPath>
 </defs>
</svg>
