<?xml version="1.0" encoding="utf-8" standalone="no"?>
<!DOCTYPE svg PUBLIC "-//W3C//DTD SVG 1.1//EN"
  "http://www.w3.org/Graphics/SVG/1.1/DTD/svg11.dtd">
<svg xmlns:xlink="http://www.w3.org/1999/xlink" width="1008pt" height="324pt" viewBox="0 0 1008 324" xmlns="http://www.w3.org/2000/svg" version="1.1">
 <metadata>
  <rdf:RDF xmlns:dc="http://purl.org/dc/elements/1.1/" xmlns:cc="http://creativecommons.org/ns#" xmlns:rdf="http://www.w3.org/1999/02/22-rdf-syntax-ns#">
   <cc:Work>
    <dc:type rdf:resource="http://purl.org/dc/dcmitype/StillImage"/>
    <dc:date>2023-08-24T15:01:45.668099</dc:date>
    <dc:format>image/svg+xml</dc:format>
    <dc:creator>
     <cc:Agent>
      <dc:title>Matplotlib v3.7.1, https://matplotlib.org/</dc:title>
     </cc:Agent>
    </dc:creator>
   </cc:Work>
  </rdf:RDF>
 </metadata>
 <defs>
  <style type="text/css">*{stroke-linejoin: round; stroke-linecap: butt}</style>
 </defs>
 <g id="figure_1">
  <g id="patch_1">
   <path d="M 0 324 
L 1008 324 
L 1008 0 
L 0 0 
z
" style="fill: #ffffff"/>
  </g>
  <g id="axes_1">
   <g id="patch_2">
    <path d="M 126 288.36 
L 907.2 288.36 
L 907.2 38.88 
L 126 38.88 
z
" style="fill: #ffffff"/>
   </g>
   <g id="line2d_1">
    <path d="M 126 256.611067 
L 907.2 256.611067 
" clip-path="url(#pdb53487d63)" style="fill: none; stroke-dasharray: 7.5,7.5; stroke-dashoffset: 0; stroke: #7f7f7f; stroke-opacity: 0.5; stroke-width: 1.5"/>
   </g>
   <g id="line2d_2">
    <path d="M 126 277.02 
L 907.2 277.02 
" clip-path="url(#pdb53487d63)" style="fill: none; stroke-dasharray: 7.5,7.5; stroke-dashoffset: 0; stroke: #7f7f7f; stroke-opacity: 0.5; stroke-width: 1.5"/>
   </g>
   <g id="PolyCollection_1">
    <defs>
     <path id="m59bcd15813" d="M 207.564952 -52.310291 
L 200.675048 -52.310291 
L 197.493725 -53.111868 
L 192.846805 -53.913445 
L 186.932284 -54.715022 
L 180.462186 -55.516599 
L 174.61957 -56.318176 
L 170.613081 -57.119754 
L 168.966 -57.921331 
L 169.232128 -58.722908 
L 170.499146 -59.524485 
L 172.128428 -60.326062 
L 174.037103 -61.127639 
L 176.461014 -61.929216 
L 179.5707 -62.730793 
L 183.218349 -63.53237 
L 186.93945 -64.333948 
L 190.230043 -65.135525 
L 192.826896 -65.937102 
L 194.733621 -66.738679 
L 196.143109 -67.540256 
L 197.359539 -68.341833 
L 198.59192 -69.14341 
L 199.772126 -69.944987 
L 200.677446 -70.746564 
L 201.195452 -71.548142 
L 201.392472 -72.349719 
L 201.418619 -73.151296 
L 201.441341 -73.952873 
L 201.583673 -74.75445 
L 201.851012 -75.556027 
L 202.169067 -76.357604 
L 202.491499 -77.159181 
L 202.811606 -77.960759 
L 203.101603 -78.762336 
L 203.303494 -79.563913 
L 203.378349 -80.36549 
L 203.349577 -81.167067 
L 203.292676 -81.968644 
L 203.275233 -82.770221 
L 203.314541 -83.571798 
L 203.394362 -84.373375 
L 203.494764 -85.174953 
L 203.59624 -85.97653 
L 203.680907 -86.778107 
L 203.744163 -87.579684 
L 203.797699 -88.381261 
L 203.855441 -89.182838 
L 203.917151 -89.984415 
L 203.968125 -90.785992 
L 203.994492 -91.587569 
L 203.99525 -92.389147 
L 203.981456 -93.190724 
L 203.970272 -93.992301 
L 203.975326 -94.793878 
L 203.995541 -95.595455 
L 204.020254 -96.397032 
L 204.044919 -97.198609 
L 204.070527 -98.000186 
L 204.093815 -98.801763 
L 204.109448 -99.603341 
L 204.116841 -100.404918 
L 204.119305 -101.206495 
L 204.119888 -102.008072 
L 204.119987 -102.809649 
L 204.119999 -103.611226 
L 204.12 -104.412803 
L 204.12 -105.21438 
L 204.12 -106.015958 
L 204.12 -106.817535 
L 204.12 -107.619112 
L 204.12 -108.420689 
L 204.12 -109.222266 
L 204.12 -110.023843 
L 204.12 -110.82542 
L 204.12 -111.626997 
L 204.12 -112.428574 
L 204.12 -113.230152 
L 204.12 -114.031729 
L 204.12 -114.833306 
L 204.12 -115.634883 
L 204.12 -116.43646 
L 204.12 -117.238037 
L 204.12 -118.039614 
L 204.12 -118.841191 
L 204.12 -119.642768 
L 204.12 -120.444346 
L 204.12 -121.245923 
L 204.12 -122.0475 
L 204.12 -122.849077 
L 204.12 -123.650654 
L 204.12 -124.452231 
L 204.119997 -125.253808 
L 204.119973 -126.055385 
L 204.119793 -126.856962 
L 204.118839 -127.65854 
L 204.115243 -128.460117 
L 204.105758 -129.261694 
L 204.088829 -130.063271 
L 204.070128 -130.864848 
L 204.061669 -131.666425 
L 204.178331 -131.666425 
L 204.178331 -131.666425 
L 204.169872 -130.864848 
L 204.151171 -130.063271 
L 204.134242 -129.261694 
L 204.124757 -128.460117 
L 204.121161 -127.65854 
L 204.120207 -126.856962 
L 204.120027 -126.055385 
L 204.120003 -125.253808 
L 204.12 -124.452231 
L 204.12 -123.650654 
L 204.12 -122.849077 
L 204.12 -122.0475 
L 204.12 -121.245923 
L 204.12 -120.444346 
L 204.12 -119.642768 
L 204.12 -118.841191 
L 204.12 -118.039614 
L 204.12 -117.238037 
L 204.12 -116.43646 
L 204.12 -115.634883 
L 204.12 -114.833306 
L 204.12 -114.031729 
L 204.12 -113.230152 
L 204.12 -112.428574 
L 204.12 -111.626997 
L 204.12 -110.82542 
L 204.12 -110.023843 
L 204.12 -109.222266 
L 204.12 -108.420689 
L 204.12 -107.619112 
L 204.12 -106.817535 
L 204.12 -106.015958 
L 204.12 -105.21438 
L 204.12 -104.412803 
L 204.120001 -103.611226 
L 204.120013 -102.809649 
L 204.120112 -102.008072 
L 204.120695 -101.206495 
L 204.123159 -100.404918 
L 204.130552 -99.603341 
L 204.146185 -98.801763 
L 204.169473 -98.000186 
L 204.195081 -97.198609 
L 204.219746 -96.397032 
L 204.244459 -95.595455 
L 204.264674 -94.793878 
L 204.269728 -93.992301 
L 204.258544 -93.190724 
L 204.24475 -92.389147 
L 204.245508 -91.587569 
L 204.271875 -90.785992 
L 204.322849 -89.984415 
L 204.384559 -89.182838 
L 204.442301 -88.381261 
L 204.495837 -87.579684 
L 204.559093 -86.778107 
L 204.64376 -85.97653 
L 204.745236 -85.174953 
L 204.845638 -84.373375 
L 204.925459 -83.571798 
L 204.964767 -82.770221 
L 204.947324 -81.968644 
L 204.890423 -81.167067 
L 204.861651 -80.36549 
L 204.936506 -79.563913 
L 205.138397 -78.762336 
L 205.428394 -77.960759 
L 205.748501 -77.159181 
L 206.070933 -76.357604 
L 206.388988 -75.556027 
L 206.656327 -74.75445 
L 206.798659 -73.952873 
L 206.821381 -73.151296 
L 206.847528 -72.349719 
L 207.044548 -71.548142 
L 207.562554 -70.746564 
L 208.467874 -69.944987 
L 209.64808 -69.14341 
L 210.880461 -68.341833 
L 212.096891 -67.540256 
L 213.506379 -66.738679 
L 215.413104 -65.937102 
L 218.009957 -65.135525 
L 221.30055 -64.333948 
L 225.021651 -63.53237 
L 228.6693 -62.730793 
L 231.778986 -61.929216 
L 234.202897 -61.127639 
L 236.111572 -60.326062 
L 237.740854 -59.524485 
L 239.007872 -58.722908 
L 239.274 -57.921331 
L 237.626919 -57.119754 
L 233.62043 -56.318176 
L 227.777814 -55.516599 
L 221.307716 -54.715022 
L 215.393195 -53.913445 
L 210.746275 -53.111868 
L 207.564952 -52.310291 
z
" style="stroke: #282724; stroke-width: 1.4"/>
    </defs>
    <g clip-path="url(#pdb53487d63)">
     <use xlink:href="#m59bcd15813" x="0" y="324" style="fill: #edbdb9; stroke: #282724; stroke-width: 1.4"/>
    </g>
   </g>
   <g id="PolyCollection_2">
    <defs>
     <path id="m4e42f07f2b" d="M 361.321603 -68.416702 
L 359.398397 -68.416702 
L 359.114793 -69.075958 
L 358.788894 -69.735213 
L 358.420822 -70.394469 
L 358.010191 -71.053724 
L 357.555047 -71.71298 
L 357.050289 -72.372236 
L 356.486029 -73.031491 
L 355.846922 -73.690747 
L 355.113667 -74.350002 
L 354.26728 -75.009258 
L 353.29559 -75.668513 
L 352.19993 -76.327769 
L 350.999142 -76.987025 
L 349.728283 -77.64628 
L 348.43109 -78.305536 
L 347.147941 -78.964791 
L 345.903482 -79.624047 
L 344.698953 -80.283302 
L 343.512831 -80.942558 
L 342.310003 -81.601814 
L 341.056063 -82.261069 
L 339.731325 -82.920325 
L 338.339697 -83.57958 
L 336.910103 -84.238836 
L 335.490902 -84.898091 
L 334.139394 -85.557347 
L 332.908995 -86.216603 
L 331.836864 -86.875858 
L 330.935264 -87.535114 
L 330.190121 -88.194369 
L 329.568519 -88.853625 
L 329.032997 -89.51288 
L 328.556231 -90.172136 
L 328.128359 -90.831392 
L 327.752638 -91.490647 
L 327.432099 -92.149903 
L 327.155844 -92.809158 
L 326.894716 -93.468414 
L 326.611041 -94.127669 
L 326.279072 -94.786925 
L 325.90614 -95.44618 
L 325.543069 -96.105436 
L 325.276767 -96.764692 
L 325.206 -97.423947 
L 325.409383 -98.083203 
L 325.918739 -98.742458 
L 326.709043 -99.401714 
L 327.708732 -100.060969 
L 328.824994 -100.720225 
L 329.972456 -101.379481 
L 331.093634 -102.038736 
L 332.16511 -102.697992 
L 333.190874 -103.357247 
L 334.18947 -104.016503 
L 335.18227 -104.675758 
L 336.187163 -105.335014 
L 337.217805 -105.99427 
L 338.285674 -106.653525 
L 339.401473 -107.312781 
L 340.573612 -107.972036 
L 341.803748 -108.631292 
L 343.081528 -109.290547 
L 344.381941 -109.949803 
L 345.66801 -110.609059 
L 346.899084 -111.268314 
L 348.041741 -111.92757 
L 349.078546 -112.586825 
L 350.010731 -113.246081 
L 350.854185 -113.905336 
L 351.631505 -114.564592 
L 352.364315 -115.223848 
L 353.068789 -115.883103 
L 353.754698 -116.542359 
L 354.426415 -117.201614 
L 355.084096 -117.86087 
L 355.724386 -118.520125 
L 356.341026 -119.179381 
L 356.925882 -119.838637 
L 357.470378 -120.497892 
L 357.966783 -121.157148 
L 358.40895 -121.816403 
L 358.792582 -122.475659 
L 359.115445 -123.134914 
L 359.377825 -123.79417 
L 359.583046 -124.453425 
L 359.73754 -125.112681 
L 359.850123 -125.771937 
L 359.930571 -126.431192 
L 359.988039 -127.090448 
L 360.029942 -127.749703 
L 360.061608 -128.408959 
L 360.08659 -129.068214 
L 360.107269 -129.72747 
L 360.125389 -130.386726 
L 360.142366 -131.045981 
L 360.159386 -131.705237 
L 360.177377 -132.364492 
L 360.196932 -133.023748 
L 360.218193 -133.683003 
L 360.501807 -133.683003 
L 360.501807 -133.683003 
L 360.523068 -133.023748 
L 360.542623 -132.364492 
L 360.560614 -131.705237 
L 360.577634 -131.045981 
L 360.594611 -130.386726 
L 360.612731 -129.72747 
L 360.63341 -129.068214 
L 360.658392 -128.408959 
L 360.690058 -127.749703 
L 360.731961 -127.090448 
L 360.789429 -126.431192 
L 360.869877 -125.771937 
L 360.98246 -125.112681 
L 361.136954 -124.453425 
L 361.342175 -123.79417 
L 361.604555 -123.134914 
L 361.927418 -122.475659 
L 362.31105 -121.816403 
L 362.753217 -121.157148 
L 363.249622 -120.497892 
L 363.794118 -119.838637 
L 364.378974 -119.179381 
L 364.995614 -118.520125 
L 365.635904 -117.86087 
L 366.293585 -117.201614 
L 366.965302 -116.542359 
L 367.651211 -115.883103 
L 368.355685 -115.223848 
L 369.088495 -114.564592 
L 369.865815 -113.905336 
L 370.709269 -113.246081 
L 371.641454 -112.586825 
L 372.678259 -111.92757 
L 373.820916 -111.268314 
L 375.05199 -110.609059 
L 376.338059 -109.949803 
L 377.638472 -109.290547 
L 378.916252 -108.631292 
L 380.146388 -107.972036 
L 381.318527 -107.312781 
L 382.434326 -106.653525 
L 383.502195 -105.99427 
L 384.532837 -105.335014 
L 385.53773 -104.675758 
L 386.53053 -104.016503 
L 387.529126 -103.357247 
L 388.55489 -102.697992 
L 389.626366 -102.038736 
L 390.747544 -101.379481 
L 391.895006 -100.720225 
L 393.011268 -100.060969 
L 394.010957 -99.401714 
L 394.801261 -98.742458 
L 395.310617 -98.083203 
L 395.514 -97.423947 
L 395.443233 -96.764692 
L 395.176931 -96.105436 
L 394.81386 -95.44618 
L 394.440928 -94.786925 
L 394.108959 -94.127669 
L 393.825284 -93.468414 
L 393.564156 -92.809158 
L 393.287901 -92.149903 
L 392.967362 -91.490647 
L 392.591641 -90.831392 
L 392.163769 -90.172136 
L 391.687003 -89.51288 
L 391.151481 -88.853625 
L 390.529879 -88.194369 
L 389.784736 -87.535114 
L 388.883136 -86.875858 
L 387.811005 -86.216603 
L 386.580606 -85.557347 
L 385.229098 -84.898091 
L 383.809897 -84.238836 
L 382.380303 -83.57958 
L 380.988675 -82.920325 
L 379.663937 -82.261069 
L 378.409997 -81.601814 
L 377.207169 -80.942558 
L 376.021047 -80.283302 
L 374.816518 -79.624047 
L 373.572059 -78.964791 
L 372.28891 -78.305536 
L 370.991717 -77.64628 
L 369.720858 -76.987025 
L 368.52007 -76.327769 
L 367.42441 -75.668513 
L 366.45272 -75.009258 
L 365.606333 -74.350002 
L 364.873078 -73.690747 
L 364.233971 -73.031491 
L 363.669711 -72.372236 
L 363.164953 -71.71298 
L 362.709809 -71.053724 
L 362.299178 -70.394469 
L 361.931106 -69.735213 
L 361.605207 -69.075958 
L 361.321603 -68.416702 
z
" style="stroke: #282724; stroke-width: 1.4"/>
    </defs>
    <g clip-path="url(#pdb53487d63)">
     <use xlink:href="#m4e42f07f2b" x="0" y="324" style="fill: #bbcadc; stroke: #282724; stroke-width: 1.4"/>
    </g>
   </g>
   <g id="PolyCollection_3">
    <defs>
     <path id="m3ae9351c4e" d="M 523.130157 -54.930238 
L 510.069843 -54.930238 
L 505.347523 -57.140842 
L 499.407783 -59.351445 
L 493.068749 -61.562049 
L 487.430997 -63.772653 
L 483.446433 -65.983256 
L 481.528677 -68.19386 
L 481.446 -70.404464 
L 482.552998 -72.615067 
L 484.171884 -74.825671 
L 485.856984 -77.036274 
L 487.440199 -79.246878 
L 488.957425 -81.457482 
L 490.571834 -83.668085 
L 492.487929 -85.878689 
L 494.820377 -88.089293 
L 497.493364 -90.299896 
L 500.281054 -92.5105 
L 502.950371 -94.721104 
L 505.353552 -96.931707 
L 507.412531 -99.142311 
L 509.078007 -101.352915 
L 510.335723 -103.563518 
L 511.234306 -105.774122 
L 511.879828 -107.984726 
L 512.392246 -110.195329 
L 512.8596 -112.405933 
L 513.319762 -114.616537 
L 513.77265 -116.82714 
L 514.20417 -119.037744 
L 514.59922 -121.248348 
L 514.939681 -123.458951 
L 515.205301 -125.669555 
L 515.388291 -127.880159 
L 515.504799 -130.090762 
L 515.584294 -132.301366 
L 515.64758 -134.51197 
L 515.69927 -136.722573 
L 515.739201 -138.933177 
L 515.772692 -141.143781 
L 515.805417 -143.354384 
L 515.833744 -145.564988 
L 515.849162 -147.775592 
L 515.85517 -149.986195 
L 515.874144 -152.196799 
L 515.92958 -154.407402 
L 516.019457 -156.618006 
L 516.112525 -158.82861 
L 516.175902 -161.039213 
L 516.203423 -163.249817 
L 516.211958 -165.460421 
L 516.214434 -167.671024 
L 516.205823 -169.881628 
L 516.175277 -172.092232 
L 516.123417 -174.302835 
L 516.064506 -176.513439 
L 516.016381 -178.724043 
L 515.992919 -180.934646 
L 516.0049 -183.14525 
L 516.060166 -185.355854 
L 516.155495 -187.566457 
L 516.270707 -189.777061 
L 516.378427 -191.987665 
L 516.461336 -194.198268 
L 516.517913 -196.408872 
L 516.554536 -198.619476 
L 516.577011 -200.830079 
L 516.58866 -203.040683 
L 516.591426 -205.251287 
L 516.586443 -207.46189 
L 516.574958 -209.672494 
L 516.560402 -211.883098 
L 516.549132 -214.093701 
L 516.547264 -216.304305 
L 516.555914 -218.514909 
L 516.570284 -220.725512 
L 516.583851 -222.936116 
L 516.592924 -225.14672 
L 516.5975 -227.357323 
L 516.599288 -229.567927 
L 516.599836 -231.778531 
L 516.59997 -233.989134 
L 516.599995 -236.199738 
L 516.599999 -238.410341 
L 516.6 -240.620945 
L 516.6 -242.831549 
L 516.6 -245.042152 
L 516.6 -247.252756 
L 516.6 -249.46336 
L 516.599999 -251.673963 
L 516.599991 -253.884567 
L 516.599946 -256.095171 
L 516.599727 -258.305774 
L 516.598894 -260.516378 
L 516.596383 -262.726982 
L 516.590469 -264.937585 
L 516.57975 -267.148189 
L 516.565309 -269.358793 
L 516.552082 -271.569396 
L 516.546635 -273.78 
L 516.653365 -273.78 
L 516.653365 -273.78 
L 516.647918 -271.569396 
L 516.634691 -269.358793 
L 516.62025 -267.148189 
L 516.609531 -264.937585 
L 516.603617 -262.726982 
L 516.601106 -260.516378 
L 516.600273 -258.305774 
L 516.600054 -256.095171 
L 516.600009 -253.884567 
L 516.600001 -251.673963 
L 516.6 -249.46336 
L 516.6 -247.252756 
L 516.6 -245.042152 
L 516.6 -242.831549 
L 516.6 -240.620945 
L 516.600001 -238.410341 
L 516.600005 -236.199738 
L 516.60003 -233.989134 
L 516.600164 -231.778531 
L 516.600712 -229.567927 
L 516.6025 -227.357323 
L 516.607076 -225.14672 
L 516.616149 -222.936116 
L 516.629716 -220.725512 
L 516.644086 -218.514909 
L 516.652736 -216.304305 
L 516.650868 -214.093701 
L 516.639598 -211.883098 
L 516.625042 -209.672494 
L 516.613557 -207.46189 
L 516.608574 -205.251287 
L 516.61134 -203.040683 
L 516.622989 -200.830079 
L 516.645464 -198.619476 
L 516.682087 -196.408872 
L 516.738664 -194.198268 
L 516.821573 -191.987665 
L 516.929293 -189.777061 
L 517.044505 -187.566457 
L 517.139834 -185.355854 
L 517.1951 -183.14525 
L 517.207081 -180.934646 
L 517.183619 -178.724043 
L 517.135494 -176.513439 
L 517.076583 -174.302835 
L 517.024723 -172.092232 
L 516.994177 -169.881628 
L 516.985566 -167.671024 
L 516.988042 -165.460421 
L 516.996577 -163.249817 
L 517.024098 -161.039213 
L 517.087475 -158.82861 
L 517.180543 -156.618006 
L 517.27042 -154.407402 
L 517.325856 -152.196799 
L 517.34483 -149.986195 
L 517.350838 -147.775592 
L 517.366256 -145.564988 
L 517.394583 -143.354384 
L 517.427308 -141.143781 
L 517.460799 -138.933177 
L 517.50073 -136.722573 
L 517.55242 -134.51197 
L 517.615706 -132.301366 
L 517.695201 -130.090762 
L 517.811709 -127.880159 
L 517.994699 -125.669555 
L 518.260319 -123.458951 
L 518.60078 -121.248348 
L 518.99583 -119.037744 
L 519.42735 -116.82714 
L 519.880238 -114.616537 
L 520.3404 -112.405933 
L 520.807754 -110.195329 
L 521.320172 -107.984726 
L 521.965694 -105.774122 
L 522.864277 -103.563518 
L 524.121993 -101.352915 
L 525.787469 -99.142311 
L 527.846448 -96.931707 
L 530.249629 -94.721104 
L 532.918946 -92.5105 
L 535.706636 -90.299896 
L 538.379623 -88.089293 
L 540.712071 -85.878689 
L 542.628166 -83.668085 
L 544.242575 -81.457482 
L 545.759801 -79.246878 
L 547.343016 -77.036274 
L 549.028116 -74.825671 
L 550.647002 -72.615067 
L 551.754 -70.404464 
L 551.671323 -68.19386 
L 549.753567 -65.983256 
L 545.769003 -63.772653 
L 540.131251 -61.562049 
L 533.792217 -59.351445 
L 527.852477 -57.140842 
L 523.130157 -54.930238 
z
" style="stroke: #282724; stroke-width: 1.4"/>
    </defs>
    <g clip-path="url(#pdb53487d63)">
     <use xlink:href="#m3ae9351c4e" x="0" y="324" style="fill: #d0e6cb; stroke: #282724; stroke-width: 1.4"/>
    </g>
   </g>
   <g id="PolyCollection_4">
    <defs>
     <path id="m0b80f6fb0a" d="M 674.673862 -51.702645 
L 671.006138 -51.702645 
L 668.797703 -53.18354 
L 665.213795 -54.664434 
L 660.355184 -56.145329 
L 654.639998 -57.626223 
L 648.636114 -59.107117 
L 643.148781 -60.588012 
L 639.225939 -62.068906 
L 637.686 -63.5498 
L 638.606779 -65.030695 
L 641.32329 -66.511589 
L 644.87112 -67.992484 
L 648.505722 -69.473378 
L 651.912157 -70.954272 
L 654.99304 -72.435167 
L 657.618166 -73.916061 
L 659.670952 -75.396956 
L 661.21074 -76.87785 
L 662.465965 -78.358744 
L 663.659904 -79.839639 
L 664.857107 -81.320533 
L 665.980455 -82.801428 
L 666.944209 -84.282322 
L 667.736614 -85.763216 
L 668.404868 -87.244111 
L 669.002653 -88.725005 
L 669.543708 -90.2059 
L 669.991944 -91.686794 
L 670.315591 -93.167688 
L 670.557097 -94.648583 
L 670.810545 -96.129477 
L 671.114397 -97.610372 
L 671.411143 -99.091266 
L 671.630465 -100.57216 
L 671.764276 -102.053055 
L 671.84247 -103.533949 
L 671.889015 -105.014843 
L 671.927131 -106.495738 
L 671.984786 -107.976632 
L 672.074497 -109.457527 
L 672.190447 -110.938421 
L 672.325292 -112.419315 
L 672.470981 -113.90021 
L 672.609067 -115.381104 
L 672.716142 -116.861999 
L 672.779105 -118.342893 
L 672.801257 -119.823787 
L 672.797834 -121.304682 
L 672.788255 -122.785576 
L 672.785812 -124.266471 
L 672.789572 -125.747365 
L 672.790155 -127.228259 
L 672.784706 -128.709154 
L 672.779763 -130.190048 
L 672.779227 -131.670943 
L 672.779505 -133.151837 
L 672.778953 -134.632731 
L 672.78078 -136.113626 
L 672.781943 -137.59452 
L 672.770268 -139.075415 
L 672.740772 -140.556309 
L 672.708936 -142.037203 
L 672.698923 -143.518098 
L 672.71879 -144.998992 
L 672.752831 -146.479887 
L 672.778244 -147.960781 
L 672.785951 -149.441675 
L 672.785359 -150.92257 
L 672.790664 -152.403464 
L 672.805247 -153.884358 
L 672.821658 -155.365253 
L 672.832821 -156.846147 
L 672.837922 -158.327042 
L 672.839555 -159.807936 
L 672.83993 -161.28883 
L 672.839992 -162.769725 
L 672.839999 -164.250619 
L 672.84 -165.731514 
L 672.84 -167.212408 
L 672.84 -168.693302 
L 672.84 -170.174197 
L 672.84 -171.655091 
L 672.84 -173.135986 
L 672.84 -174.61688 
L 672.84 -176.097774 
L 672.84 -177.578669 
L 672.84 -179.059563 
L 672.84 -180.540458 
L 672.84 -182.021352 
L 672.84 -183.502246 
L 672.84 -184.983141 
L 672.839997 -186.464035 
L 672.839969 -187.94493 
L 672.83978 -189.425824 
L 672.838841 -190.906718 
L 672.83548 -192.387613 
L 672.826972 -193.868507 
L 672.81225 -195.349401 
L 672.796319 -196.830296 
L 672.789187 -198.31119 
L 672.890813 -198.31119 
L 672.890813 -198.31119 
L 672.883681 -196.830296 
L 672.86775 -195.349401 
L 672.853028 -193.868507 
L 672.84452 -192.387613 
L 672.841159 -190.906718 
L 672.84022 -189.425824 
L 672.840031 -187.94493 
L 672.840003 -186.464035 
L 672.84 -184.983141 
L 672.84 -183.502246 
L 672.84 -182.021352 
L 672.84 -180.540458 
L 672.84 -179.059563 
L 672.84 -177.578669 
L 672.84 -176.097774 
L 672.84 -174.61688 
L 672.84 -173.135986 
L 672.84 -171.655091 
L 672.84 -170.174197 
L 672.84 -168.693302 
L 672.84 -167.212408 
L 672.84 -165.731514 
L 672.840001 -164.250619 
L 672.840008 -162.769725 
L 672.84007 -161.28883 
L 672.840445 -159.807936 
L 672.842078 -158.327042 
L 672.847179 -156.846147 
L 672.858342 -155.365253 
L 672.874753 -153.884358 
L 672.889336 -152.403464 
L 672.894641 -150.92257 
L 672.894049 -149.441675 
L 672.901756 -147.960781 
L 672.927169 -146.479887 
L 672.96121 -144.998992 
L 672.981077 -143.518098 
L 672.971064 -142.037203 
L 672.939228 -140.556309 
L 672.909732 -139.075415 
L 672.898057 -137.59452 
L 672.89922 -136.113626 
L 672.901047 -134.632731 
L 672.900495 -133.151837 
L 672.900773 -131.670943 
L 672.900237 -130.190048 
L 672.895294 -128.709154 
L 672.889845 -127.228259 
L 672.890428 -125.747365 
L 672.894188 -124.266471 
L 672.891745 -122.785576 
L 672.882166 -121.304682 
L 672.878743 -119.823787 
L 672.900895 -118.342893 
L 672.963858 -116.861999 
L 673.070933 -115.381104 
L 673.209019 -113.90021 
L 673.354708 -112.419315 
L 673.489553 -110.938421 
L 673.605503 -109.457527 
L 673.695214 -107.976632 
L 673.752869 -106.495738 
L 673.790985 -105.014843 
L 673.83753 -103.533949 
L 673.915724 -102.053055 
L 674.049535 -100.57216 
L 674.268857 -99.091266 
L 674.565603 -97.610372 
L 674.869455 -96.129477 
L 675.122903 -94.648583 
L 675.364409 -93.167688 
L 675.688056 -91.686794 
L 676.136292 -90.2059 
L 676.677347 -88.725005 
L 677.275132 -87.244111 
L 677.943386 -85.763216 
L 678.735791 -84.282322 
L 679.699545 -82.801428 
L 680.822893 -81.320533 
L 682.020096 -79.839639 
L 683.214035 -78.358744 
L 684.46926 -76.87785 
L 686.009048 -75.396956 
L 688.061834 -73.916061 
L 690.68696 -72.435167 
L 693.767843 -70.954272 
L 697.174278 -69.473378 
L 700.80888 -67.992484 
L 704.35671 -66.511589 
L 707.073221 -65.030695 
L 707.994 -63.5498 
L 706.454061 -62.068906 
L 702.531219 -60.588012 
L 697.043886 -59.107117 
L 691.040002 -57.626223 
L 685.324816 -56.145329 
L 680.466205 -54.664434 
L 676.882297 -53.18354 
L 674.673862 -51.702645 
z
" style="stroke: #282724; stroke-width: 1.4"/>
    </defs>
    <g clip-path="url(#pdb53487d63)">
     <use xlink:href="#m0b80f6fb0a" x="0" y="324" style="fill: #dbcee1; stroke: #282724; stroke-width: 1.4"/>
    </g>
   </g>
   <g id="PolyCollection_5">
    <defs>
     <path id="m9994ebd06f" d="M 830.40484 -50.740521 
L 827.75516 -50.740521 
L 826.566526 -51.814491 
L 824.648396 -52.888461 
L 821.8167 -53.962431 
L 818.02455 -55.036401 
L 813.458516 -56.110371 
L 808.546241 -57.184341 
L 803.834095 -58.258312 
L 799.801885 -59.332282 
L 796.743329 -60.406252 
L 794.776305 -61.480222 
L 793.926 -62.554192 
L 794.175421 -63.628162 
L 795.439827 -64.702132 
L 797.519834 -65.776102 
L 800.116683 -66.850072 
L 802.922667 -67.924042 
L 805.714027 -68.998012 
L 808.372568 -70.071982 
L 810.838783 -71.145952 
L 813.05944 -72.219922 
L 814.978422 -73.293892 
L 816.564811 -74.367862 
L 817.840697 -75.441832 
L 818.881984 -76.515802 
L 819.791648 -77.589773 
L 820.661355 -78.663743 
L 821.54077 -79.737713 
L 822.427809 -80.811683 
L 823.280914 -81.885653 
L 824.044262 -82.959623 
L 824.672727 -84.033593 
L 825.144937 -85.107563 
L 825.462698 -86.181533 
L 825.648131 -87.255503 
L 825.746966 -88.329473 
L 825.827081 -89.403443 
L 825.957147 -90.477413 
L 826.174909 -91.551383 
L 826.473874 -92.625353 
L 826.819167 -93.699323 
L 827.171443 -94.773293 
L 827.495777 -95.847263 
L 827.758851 -96.921233 
L 827.933431 -97.995204 
L 828.015057 -99.069174 
L 828.033799 -100.143144 
L 828.042535 -101.217114 
L 828.085226 -102.291084 
L 828.169842 -103.365054 
L 828.267628 -104.439024 
L 828.337547 -105.512994 
L 828.356148 -106.586964 
L 828.333046 -107.660934 
L 828.304703 -108.734904 
L 828.312543 -109.808874 
L 828.379496 -110.882844 
L 828.499018 -111.956814 
L 828.642008 -113.030784 
L 828.77475 -114.104754 
L 828.874882 -115.178724 
L 828.936775 -116.252694 
L 828.966894 -117.326665 
L 828.975485 -118.400635 
L 828.970977 -119.474605 
L 828.959425 -120.548575 
L 828.94627 -121.622545 
L 828.936396 -122.696515 
L 828.931979 -123.770485 
L 828.931256 -124.844455 
L 828.930613 -125.918425 
L 828.928532 -126.992395 
L 828.927533 -128.066365 
L 828.932067 -129.140335 
L 828.944653 -130.214305 
L 828.964315 -131.288275 
L 828.988085 -132.362245 
L 829.012823 -133.436215 
L 829.035658 -134.510185 
L 829.054126 -135.584155 
L 829.066903 -136.658126 
L 829.074327 -137.732096 
L 829.077917 -138.806066 
L 829.079355 -139.880036 
L 829.079832 -140.954006 
L 829.079963 -142.027976 
L 829.079993 -143.101946 
L 829.079999 -144.175916 
L 829.079999 -145.249886 
L 829.079993 -146.323856 
L 829.079961 -147.397826 
L 829.079824 -148.471796 
L 829.079331 -149.545766 
L 829.077875 -150.619736 
L 829.07435 -151.693706 
L 829.067423 -152.767676 
L 829.056566 -153.841646 
L 829.04345 -154.915616 
L 829.032278 -155.989587 
L 829.027841 -157.063557 
L 829.132159 -157.063557 
L 829.132159 -157.063557 
L 829.127722 -155.989587 
L 829.11655 -154.915616 
L 829.103434 -153.841646 
L 829.092577 -152.767676 
L 829.08565 -151.693706 
L 829.082125 -150.619736 
L 829.080669 -149.545766 
L 829.080176 -148.471796 
L 829.080039 -147.397826 
L 829.080007 -146.323856 
L 829.080001 -145.249886 
L 829.080001 -144.175916 
L 829.080007 -143.101946 
L 829.080037 -142.027976 
L 829.080168 -140.954006 
L 829.080645 -139.880036 
L 829.082083 -138.806066 
L 829.085673 -137.732096 
L 829.093097 -136.658126 
L 829.105874 -135.584155 
L 829.124342 -134.510185 
L 829.147177 -133.436215 
L 829.171915 -132.362245 
L 829.195685 -131.288275 
L 829.215347 -130.214305 
L 829.227933 -129.140335 
L 829.232467 -128.066365 
L 829.231468 -126.992395 
L 829.229387 -125.918425 
L 829.228744 -124.844455 
L 829.228021 -123.770485 
L 829.223604 -122.696515 
L 829.21373 -121.622545 
L 829.200575 -120.548575 
L 829.189023 -119.474605 
L 829.184515 -118.400635 
L 829.193106 -117.326665 
L 829.223225 -116.252694 
L 829.285118 -115.178724 
L 829.38525 -114.104754 
L 829.517992 -113.030784 
L 829.660982 -111.956814 
L 829.780504 -110.882844 
L 829.847457 -109.808874 
L 829.855297 -108.734904 
L 829.826954 -107.660934 
L 829.803852 -106.586964 
L 829.822453 -105.512994 
L 829.892372 -104.439024 
L 829.990158 -103.365054 
L 830.074774 -102.291084 
L 830.117465 -101.217114 
L 830.126201 -100.143144 
L 830.144943 -99.069174 
L 830.226569 -97.995204 
L 830.401149 -96.921233 
L 830.664223 -95.847263 
L 830.988557 -94.773293 
L 831.340833 -93.699323 
L 831.686126 -92.625353 
L 831.985091 -91.551383 
L 832.202853 -90.477413 
L 832.332919 -89.403443 
L 832.413034 -88.329473 
L 832.511869 -87.255503 
L 832.697302 -86.181533 
L 833.015063 -85.107563 
L 833.487273 -84.033593 
L 834.115738 -82.959623 
L 834.879086 -81.885653 
L 835.732191 -80.811683 
L 836.61923 -79.737713 
L 837.498645 -78.663743 
L 838.368352 -77.589773 
L 839.278016 -76.515802 
L 840.319303 -75.441832 
L 841.595189 -74.367862 
L 843.181578 -73.293892 
L 845.10056 -72.219922 
L 847.321217 -71.145952 
L 849.787432 -70.071982 
L 852.445973 -68.998012 
L 855.237333 -67.924042 
L 858.043317 -66.850072 
L 860.640166 -65.776102 
L 862.720173 -64.702132 
L 863.984579 -63.628162 
L 864.234 -62.554192 
L 863.383695 -61.480222 
L 861.416671 -60.406252 
L 858.358115 -59.332282 
L 854.325905 -58.258312 
L 849.613759 -57.184341 
L 844.701484 -56.110371 
L 840.13545 -55.036401 
L 836.3433 -53.962431 
L 833.511604 -52.888461 
L 831.593474 -51.814491 
L 830.40484 -50.740521 
z
" style="stroke: #282724; stroke-width: 1.4"/>
    </defs>
    <g clip-path="url(#pdb53487d63)">
     <use xlink:href="#m9994ebd06f" x="0" y="324" style="fill: #f0d8b3; stroke: #282724; stroke-width: 1.4"/>
    </g>
   </g>
   <g id="matplotlib.axis_1">
    <g id="xtick_1">
     <g id="line2d_3">
      <defs>
       <path id="m94a45b31d5" d="M 0 0 
L 0 3 
" style="stroke: #000000; stroke-width: 0.8"/>
      </defs>
      <g>
       <use xlink:href="#m94a45b31d5" x="204.12" y="288.36" style="stroke: #000000; stroke-width: 0.8"/>
      </g>
     </g>
     <g id="text_1">
      <!-- Test -->
      <g transform="translate(186.398438 308.537188) scale(0.18 -0.18)">
       <defs>
        <path id="DejaVuSans-54" d="M -19 4666 
L 3928 4666 
L 3928 4134 
L 2272 4134 
L 2272 0 
L 1638 0 
L 1638 4134 
L -19 4134 
L -19 4666 
z
" transform="scale(0.015625)"/>
        <path id="DejaVuSans-65" d="M 3597 1894 
L 3597 1613 
L 953 1613 
Q 991 1019 1311 708 
Q 1631 397 2203 397 
Q 2534 397 2845 478 
Q 3156 559 3463 722 
L 3463 178 
Q 3153 47 2828 -22 
Q 2503 -91 2169 -91 
Q 1331 -91 842 396 
Q 353 884 353 1716 
Q 353 2575 817 3079 
Q 1281 3584 2069 3584 
Q 2775 3584 3186 3129 
Q 3597 2675 3597 1894 
z
M 3022 2063 
Q 3016 2534 2758 2815 
Q 2500 3097 2075 3097 
Q 1594 3097 1305 2825 
Q 1016 2553 972 2059 
L 3022 2063 
z
" transform="scale(0.015625)"/>
        <path id="DejaVuSans-73" d="M 2834 3397 
L 2834 2853 
Q 2591 2978 2328 3040 
Q 2066 3103 1784 3103 
Q 1356 3103 1142 2972 
Q 928 2841 928 2578 
Q 928 2378 1081 2264 
Q 1234 2150 1697 2047 
L 1894 2003 
Q 2506 1872 2764 1633 
Q 3022 1394 3022 966 
Q 3022 478 2636 193 
Q 2250 -91 1575 -91 
Q 1294 -91 989 -36 
Q 684 19 347 128 
L 347 722 
Q 666 556 975 473 
Q 1284 391 1588 391 
Q 1994 391 2212 530 
Q 2431 669 2431 922 
Q 2431 1156 2273 1281 
Q 2116 1406 1581 1522 
L 1381 1569 
Q 847 1681 609 1914 
Q 372 2147 372 2553 
Q 372 3047 722 3315 
Q 1072 3584 1716 3584 
Q 2034 3584 2315 3537 
Q 2597 3491 2834 3397 
z
" transform="scale(0.015625)"/>
        <path id="DejaVuSans-74" d="M 1172 4494 
L 1172 3500 
L 2356 3500 
L 2356 3053 
L 1172 3053 
L 1172 1153 
Q 1172 725 1289 603 
Q 1406 481 1766 481 
L 2356 481 
L 2356 0 
L 1766 0 
Q 1100 0 847 248 
Q 594 497 594 1153 
L 594 3053 
L 172 3053 
L 172 3500 
L 594 3500 
L 594 4494 
L 1172 4494 
z
" transform="scale(0.015625)"/>
       </defs>
       <use xlink:href="#DejaVuSans-54"/>
       <use xlink:href="#DejaVuSans-65" x="44.083984"/>
       <use xlink:href="#DejaVuSans-73" x="105.607422"/>
       <use xlink:href="#DejaVuSans-74" x="157.707031"/>
      </g>
      <!--  -->
      <g transform="translate(204.12 328.69325) scale(0.18 -0.18)"/>
     </g>
    </g>
    <g id="xtick_2">
     <g id="line2d_4">
      <g>
       <use xlink:href="#m94a45b31d5" x="360.36" y="288.36" style="stroke: #000000; stroke-width: 0.8"/>
      </g>
     </g>
     <g id="text_2">
      <!-- Random -->
      <g transform="translate(323.102813 308.537188) scale(0.18 -0.18)">
       <defs>
        <path id="DejaVuSans-52" d="M 2841 2188 
Q 3044 2119 3236 1894 
Q 3428 1669 3622 1275 
L 4263 0 
L 3584 0 
L 2988 1197 
Q 2756 1666 2539 1819 
Q 2322 1972 1947 1972 
L 1259 1972 
L 1259 0 
L 628 0 
L 628 4666 
L 2053 4666 
Q 2853 4666 3247 4331 
Q 3641 3997 3641 3322 
Q 3641 2881 3436 2590 
Q 3231 2300 2841 2188 
z
M 1259 4147 
L 1259 2491 
L 2053 2491 
Q 2509 2491 2742 2702 
Q 2975 2913 2975 3322 
Q 2975 3731 2742 3939 
Q 2509 4147 2053 4147 
L 1259 4147 
z
" transform="scale(0.015625)"/>
        <path id="DejaVuSans-61" d="M 2194 1759 
Q 1497 1759 1228 1600 
Q 959 1441 959 1056 
Q 959 750 1161 570 
Q 1363 391 1709 391 
Q 2188 391 2477 730 
Q 2766 1069 2766 1631 
L 2766 1759 
L 2194 1759 
z
M 3341 1997 
L 3341 0 
L 2766 0 
L 2766 531 
Q 2569 213 2275 61 
Q 1981 -91 1556 -91 
Q 1019 -91 701 211 
Q 384 513 384 1019 
Q 384 1609 779 1909 
Q 1175 2209 1959 2209 
L 2766 2209 
L 2766 2266 
Q 2766 2663 2505 2880 
Q 2244 3097 1772 3097 
Q 1472 3097 1187 3025 
Q 903 2953 641 2809 
L 641 3341 
Q 956 3463 1253 3523 
Q 1550 3584 1831 3584 
Q 2591 3584 2966 3190 
Q 3341 2797 3341 1997 
z
" transform="scale(0.015625)"/>
        <path id="DejaVuSans-6e" d="M 3513 2113 
L 3513 0 
L 2938 0 
L 2938 2094 
Q 2938 2591 2744 2837 
Q 2550 3084 2163 3084 
Q 1697 3084 1428 2787 
Q 1159 2491 1159 1978 
L 1159 0 
L 581 0 
L 581 3500 
L 1159 3500 
L 1159 2956 
Q 1366 3272 1645 3428 
Q 1925 3584 2291 3584 
Q 2894 3584 3203 3211 
Q 3513 2838 3513 2113 
z
" transform="scale(0.015625)"/>
        <path id="DejaVuSans-64" d="M 2906 2969 
L 2906 4863 
L 3481 4863 
L 3481 0 
L 2906 0 
L 2906 525 
Q 2725 213 2448 61 
Q 2172 -91 1784 -91 
Q 1150 -91 751 415 
Q 353 922 353 1747 
Q 353 2572 751 3078 
Q 1150 3584 1784 3584 
Q 2172 3584 2448 3432 
Q 2725 3281 2906 2969 
z
M 947 1747 
Q 947 1113 1208 752 
Q 1469 391 1925 391 
Q 2381 391 2643 752 
Q 2906 1113 2906 1747 
Q 2906 2381 2643 2742 
Q 2381 3103 1925 3103 
Q 1469 3103 1208 2742 
Q 947 2381 947 1747 
z
" transform="scale(0.015625)"/>
        <path id="DejaVuSans-6f" d="M 1959 3097 
Q 1497 3097 1228 2736 
Q 959 2375 959 1747 
Q 959 1119 1226 758 
Q 1494 397 1959 397 
Q 2419 397 2687 759 
Q 2956 1122 2956 1747 
Q 2956 2369 2687 2733 
Q 2419 3097 1959 3097 
z
M 1959 3584 
Q 2709 3584 3137 3096 
Q 3566 2609 3566 1747 
Q 3566 888 3137 398 
Q 2709 -91 1959 -91 
Q 1206 -91 779 398 
Q 353 888 353 1747 
Q 353 2609 779 3096 
Q 1206 3584 1959 3584 
z
" transform="scale(0.015625)"/>
        <path id="DejaVuSans-6d" d="M 3328 2828 
Q 3544 3216 3844 3400 
Q 4144 3584 4550 3584 
Q 5097 3584 5394 3201 
Q 5691 2819 5691 2113 
L 5691 0 
L 5113 0 
L 5113 2094 
Q 5113 2597 4934 2840 
Q 4756 3084 4391 3084 
Q 3944 3084 3684 2787 
Q 3425 2491 3425 1978 
L 3425 0 
L 2847 0 
L 2847 2094 
Q 2847 2600 2669 2842 
Q 2491 3084 2119 3084 
Q 1678 3084 1418 2786 
Q 1159 2488 1159 1978 
L 1159 0 
L 581 0 
L 581 3500 
L 1159 3500 
L 1159 2956 
Q 1356 3278 1631 3431 
Q 1906 3584 2284 3584 
Q 2666 3584 2933 3390 
Q 3200 3197 3328 2828 
z
" transform="scale(0.015625)"/>
       </defs>
       <use xlink:href="#DejaVuSans-52"/>
       <use xlink:href="#DejaVuSans-61" x="67.232422"/>
       <use xlink:href="#DejaVuSans-6e" x="128.511719"/>
       <use xlink:href="#DejaVuSans-64" x="191.890625"/>
       <use xlink:href="#DejaVuSans-6f" x="255.367188"/>
       <use xlink:href="#DejaVuSans-6d" x="316.548828"/>
      </g>
      <!--  -->
      <g transform="translate(360.36 328.69325) scale(0.18 -0.18)"/>
     </g>
    </g>
    <g id="xtick_3">
     <g id="line2d_5">
      <g>
       <use xlink:href="#m94a45b31d5" x="516.6" y="288.36" style="stroke: #000000; stroke-width: 0.8"/>
      </g>
     </g>
     <g id="text_3">
      <!-- Pretrain -->
      <g transform="translate(481.348125 308.537188) scale(0.18 -0.18)">
       <defs>
        <path id="DejaVuSans-50" d="M 1259 4147 
L 1259 2394 
L 2053 2394 
Q 2494 2394 2734 2622 
Q 2975 2850 2975 3272 
Q 2975 3691 2734 3919 
Q 2494 4147 2053 4147 
L 1259 4147 
z
M 628 4666 
L 2053 4666 
Q 2838 4666 3239 4311 
Q 3641 3956 3641 3272 
Q 3641 2581 3239 2228 
Q 2838 1875 2053 1875 
L 1259 1875 
L 1259 0 
L 628 0 
L 628 4666 
z
" transform="scale(0.015625)"/>
        <path id="DejaVuSans-72" d="M 2631 2963 
Q 2534 3019 2420 3045 
Q 2306 3072 2169 3072 
Q 1681 3072 1420 2755 
Q 1159 2438 1159 1844 
L 1159 0 
L 581 0 
L 581 3500 
L 1159 3500 
L 1159 2956 
Q 1341 3275 1631 3429 
Q 1922 3584 2338 3584 
Q 2397 3584 2469 3576 
Q 2541 3569 2628 3553 
L 2631 2963 
z
" transform="scale(0.015625)"/>
        <path id="DejaVuSans-69" d="M 603 3500 
L 1178 3500 
L 1178 0 
L 603 0 
L 603 3500 
z
M 603 4863 
L 1178 4863 
L 1178 4134 
L 603 4134 
L 603 4863 
z
" transform="scale(0.015625)"/>
       </defs>
       <use xlink:href="#DejaVuSans-50"/>
       <use xlink:href="#DejaVuSans-72" x="58.552734"/>
       <use xlink:href="#DejaVuSans-65" x="97.416016"/>
       <use xlink:href="#DejaVuSans-74" x="158.939453"/>
       <use xlink:href="#DejaVuSans-72" x="198.148438"/>
       <use xlink:href="#DejaVuSans-61" x="239.261719"/>
       <use xlink:href="#DejaVuSans-69" x="300.541016"/>
       <use xlink:href="#DejaVuSans-6e" x="328.324219"/>
      </g>
      <!--  -->
      <g transform="translate(516.6 328.69325) scale(0.18 -0.18)"/>
     </g>
    </g>
    <g id="xtick_4">
     <g id="line2d_6">
      <g>
       <use xlink:href="#m94a45b31d5" x="672.84" y="288.36" style="stroke: #000000; stroke-width: 0.8"/>
      </g>
     </g>
     <g id="text_4">
      <!-- Finetune -->
      <g transform="translate(634.100625 308.537188) scale(0.18 -0.18)">
       <defs>
        <path id="DejaVuSans-46" d="M 628 4666 
L 3309 4666 
L 3309 4134 
L 1259 4134 
L 1259 2759 
L 3109 2759 
L 3109 2228 
L 1259 2228 
L 1259 0 
L 628 0 
L 628 4666 
z
" transform="scale(0.015625)"/>
        <path id="DejaVuSans-75" d="M 544 1381 
L 544 3500 
L 1119 3500 
L 1119 1403 
Q 1119 906 1312 657 
Q 1506 409 1894 409 
Q 2359 409 2629 706 
Q 2900 1003 2900 1516 
L 2900 3500 
L 3475 3500 
L 3475 0 
L 2900 0 
L 2900 538 
Q 2691 219 2414 64 
Q 2138 -91 1772 -91 
Q 1169 -91 856 284 
Q 544 659 544 1381 
z
M 1991 3584 
L 1991 3584 
z
" transform="scale(0.015625)"/>
       </defs>
       <use xlink:href="#DejaVuSans-46"/>
       <use xlink:href="#DejaVuSans-69" x="50.269531"/>
       <use xlink:href="#DejaVuSans-6e" x="78.052734"/>
       <use xlink:href="#DejaVuSans-65" x="141.431641"/>
       <use xlink:href="#DejaVuSans-74" x="202.955078"/>
       <use xlink:href="#DejaVuSans-75" x="242.164062"/>
       <use xlink:href="#DejaVuSans-6e" x="305.542969"/>
       <use xlink:href="#DejaVuSans-65" x="368.921875"/>
      </g>
      <!--  -->
      <g transform="translate(672.84 328.69325) scale(0.18 -0.18)"/>
     </g>
    </g>
    <g id="xtick_5">
     <g id="line2d_7">
      <g>
       <use xlink:href="#m94a45b31d5" x="829.08" y="288.36" style="stroke: #000000; stroke-width: 0.8"/>
      </g>
     </g>
     <g id="text_5">
      <!-- Prefix -->
      <g transform="translate(803.780156 308.537188) scale(0.18 -0.18)">
       <defs>
        <path id="DejaVuSans-66" d="M 2375 4863 
L 2375 4384 
L 1825 4384 
Q 1516 4384 1395 4259 
Q 1275 4134 1275 3809 
L 1275 3500 
L 2222 3500 
L 2222 3053 
L 1275 3053 
L 1275 0 
L 697 0 
L 697 3053 
L 147 3053 
L 147 3500 
L 697 3500 
L 697 3744 
Q 697 4328 969 4595 
Q 1241 4863 1831 4863 
L 2375 4863 
z
" transform="scale(0.015625)"/>
        <path id="DejaVuSans-78" d="M 3513 3500 
L 2247 1797 
L 3578 0 
L 2900 0 
L 1881 1375 
L 863 0 
L 184 0 
L 1544 1831 
L 300 3500 
L 978 3500 
L 1906 2253 
L 2834 3500 
L 3513 3500 
z
" transform="scale(0.015625)"/>
       </defs>
       <use xlink:href="#DejaVuSans-50"/>
       <use xlink:href="#DejaVuSans-72" x="58.552734"/>
       <use xlink:href="#DejaVuSans-65" x="97.416016"/>
       <use xlink:href="#DejaVuSans-66" x="158.939453"/>
       <use xlink:href="#DejaVuSans-69" x="194.144531"/>
       <use xlink:href="#DejaVuSans-78" x="221.927734"/>
      </g>
      <!--  -->
      <g transform="translate(829.08 328.69325) scale(0.18 -0.18)"/>
     </g>
    </g>
   </g>
   <g id="matplotlib.axis_2">
    <g id="ytick_1">
     <g id="line2d_8">
      <defs>
       <path id="m4264ce727b" d="M 0 0 
L -3 0 
" style="stroke: #000000; stroke-width: 0.8"/>
      </defs>
      <g>
       <use xlink:href="#m4264ce727b" x="126" y="256.611067" style="stroke: #000000; stroke-width: 0.8"/>
      </g>
     </g>
     <g id="text_6">
      <!-- -1 -->
      <g transform="translate(104.544531 262.309896) scale(0.15 -0.15)">
       <defs>
        <path id="DejaVuSans-2d" d="M 313 2009 
L 1997 2009 
L 1997 1497 
L 313 1497 
L 313 2009 
z
" transform="scale(0.015625)"/>
        <path id="DejaVuSans-31" d="M 794 531 
L 1825 531 
L 1825 4091 
L 703 3866 
L 703 4441 
L 1819 4666 
L 2450 4666 
L 2450 531 
L 3481 531 
L 3481 0 
L 794 0 
L 794 531 
z
" transform="scale(0.015625)"/>
       </defs>
       <use xlink:href="#DejaVuSans-2d"/>
       <use xlink:href="#DejaVuSans-31" x="36.083984"/>
      </g>
     </g>
    </g>
    <g id="ytick_2">
     <g id="line2d_9">
      <g>
       <use xlink:href="#m4264ce727b" x="126" y="277.02" style="stroke: #000000; stroke-width: 0.8"/>
      </g>
     </g>
     <g id="text_7">
      <!-- -3 -->
      <g transform="translate(104.544531 282.718828) scale(0.15 -0.15)">
       <defs>
        <path id="DejaVuSans-33" d="M 2597 2516 
Q 3050 2419 3304 2112 
Q 3559 1806 3559 1356 
Q 3559 666 3084 287 
Q 2609 -91 1734 -91 
Q 1441 -91 1130 -33 
Q 819 25 488 141 
L 488 750 
Q 750 597 1062 519 
Q 1375 441 1716 441 
Q 2309 441 2620 675 
Q 2931 909 2931 1356 
Q 2931 1769 2642 2001 
Q 2353 2234 1838 2234 
L 1294 2234 
L 1294 2753 
L 1863 2753 
Q 2328 2753 2575 2939 
Q 2822 3125 2822 3475 
Q 2822 3834 2567 4026 
Q 2313 4219 1838 4219 
Q 1578 4219 1281 4162 
Q 984 4106 628 3988 
L 628 4550 
Q 988 4650 1302 4700 
Q 1616 4750 1894 4750 
Q 2613 4750 3031 4423 
Q 3450 4097 3450 3541 
Q 3450 3153 3228 2886 
Q 3006 2619 2597 2516 
z
" transform="scale(0.015625)"/>
       </defs>
       <use xlink:href="#DejaVuSans-2d"/>
       <use xlink:href="#DejaVuSans-33" x="36.083984"/>
      </g>
     </g>
    </g>
    <g id="ytick_3">
     <g id="line2d_10">
      <g>
       <use xlink:href="#m4264ce727b" x="126" y="195.38427" style="stroke: #000000; stroke-width: 0.8"/>
      </g>
     </g>
     <g id="text_8">
      <!-- 5 -->
      <g transform="translate(109.95625 201.083098) scale(0.15 -0.15)">
       <defs>
        <path id="DejaVuSans-35" d="M 691 4666 
L 3169 4666 
L 3169 4134 
L 1269 4134 
L 1269 2991 
Q 1406 3038 1543 3061 
Q 1681 3084 1819 3084 
Q 2600 3084 3056 2656 
Q 3513 2228 3513 1497 
Q 3513 744 3044 326 
Q 2575 -91 1722 -91 
Q 1428 -91 1123 -41 
Q 819 9 494 109 
L 494 744 
Q 775 591 1075 516 
Q 1375 441 1709 441 
Q 2250 441 2565 725 
Q 2881 1009 2881 1497 
Q 2881 1984 2565 2268 
Q 2250 2553 1709 2553 
Q 1456 2553 1204 2497 
Q 953 2441 691 2322 
L 691 4666 
z
" transform="scale(0.015625)"/>
       </defs>
       <use xlink:href="#DejaVuSans-35"/>
      </g>
     </g>
    </g>
    <g id="ytick_4">
     <g id="line2d_11">
      <g>
       <use xlink:href="#m4264ce727b" x="126" y="144.361938" style="stroke: #000000; stroke-width: 0.8"/>
      </g>
     </g>
     <g id="text_9">
      <!-- 10 -->
      <g transform="translate(100.4125 150.060766) scale(0.15 -0.15)">
       <defs>
        <path id="DejaVuSans-30" d="M 2034 4250 
Q 1547 4250 1301 3770 
Q 1056 3291 1056 2328 
Q 1056 1369 1301 889 
Q 1547 409 2034 409 
Q 2525 409 2770 889 
Q 3016 1369 3016 2328 
Q 3016 3291 2770 3770 
Q 2525 4250 2034 4250 
z
M 2034 4750 
Q 2819 4750 3233 4129 
Q 3647 3509 3647 2328 
Q 3647 1150 3233 529 
Q 2819 -91 2034 -91 
Q 1250 -91 836 529 
Q 422 1150 422 2328 
Q 422 3509 836 4129 
Q 1250 4750 2034 4750 
z
" transform="scale(0.015625)"/>
       </defs>
       <use xlink:href="#DejaVuSans-31"/>
       <use xlink:href="#DejaVuSans-30" x="63.623047"/>
      </g>
     </g>
    </g>
    <g id="ytick_5">
     <g id="line2d_12">
      <g>
       <use xlink:href="#m4264ce727b" x="126" y="93.339607" style="stroke: #000000; stroke-width: 0.8"/>
      </g>
     </g>
     <g id="text_10">
      <!-- 15 -->
      <g transform="translate(100.4125 99.038435) scale(0.15 -0.15)">
       <use xlink:href="#DejaVuSans-31"/>
       <use xlink:href="#DejaVuSans-35" x="63.623047"/>
      </g>
     </g>
    </g>
    <g id="ytick_6">
     <g id="line2d_13">
      <g>
       <use xlink:href="#m4264ce727b" x="126" y="42.317276" style="stroke: #000000; stroke-width: 0.8"/>
      </g>
     </g>
     <g id="text_11">
      <!-- 20 -->
      <g transform="translate(100.4125 48.016104) scale(0.15 -0.15)">
       <defs>
        <path id="DejaVuSans-32" d="M 1228 531 
L 3431 531 
L 3431 0 
L 469 0 
L 469 531 
Q 828 903 1448 1529 
Q 2069 2156 2228 2338 
Q 2531 2678 2651 2914 
Q 2772 3150 2772 3378 
Q 2772 3750 2511 3984 
Q 2250 4219 1831 4219 
Q 1534 4219 1204 4116 
Q 875 4013 500 3803 
L 500 4441 
Q 881 4594 1212 4672 
Q 1544 4750 1819 4750 
Q 2544 4750 2975 4387 
Q 3406 4025 3406 3419 
Q 3406 3131 3298 2873 
Q 3191 2616 2906 2266 
Q 2828 2175 2409 1742 
Q 1991 1309 1228 531 
z
" transform="scale(0.015625)"/>
       </defs>
       <use xlink:href="#DejaVuSans-32"/>
       <use xlink:href="#DejaVuSans-30" x="63.623047"/>
      </g>
     </g>
    </g>
    <g id="text_12">
     <!-- REU/residue -->
     <g transform="translate(92.669062 225.232031) rotate(-90) scale(0.18 -0.18)">
      <defs>
       <path id="DejaVuSans-Bold-52" d="M 2297 2597 
Q 2675 2597 2839 2737 
Q 3003 2878 3003 3200 
Q 3003 3519 2839 3656 
Q 2675 3794 2297 3794 
L 1791 3794 
L 1791 2597 
L 2297 2597 
z
M 1791 1766 
L 1791 0 
L 588 0 
L 588 4666 
L 2425 4666 
Q 3347 4666 3776 4356 
Q 4206 4047 4206 3378 
Q 4206 2916 3982 2619 
Q 3759 2322 3309 2181 
Q 3556 2125 3751 1926 
Q 3947 1728 4147 1325 
L 4800 0 
L 3519 0 
L 2950 1159 
Q 2778 1509 2601 1637 
Q 2425 1766 2131 1766 
L 1791 1766 
z
" transform="scale(0.015625)"/>
       <path id="DejaVuSans-Bold-45" d="M 588 4666 
L 3834 4666 
L 3834 3756 
L 1791 3756 
L 1791 2888 
L 3713 2888 
L 3713 1978 
L 1791 1978 
L 1791 909 
L 3903 909 
L 3903 0 
L 588 0 
L 588 4666 
z
" transform="scale(0.015625)"/>
       <path id="DejaVuSans-Bold-55" d="M 588 4666 
L 1791 4666 
L 1791 1869 
Q 1791 1291 1980 1042 
Q 2169 794 2597 794 
Q 3028 794 3217 1042 
Q 3406 1291 3406 1869 
L 3406 4666 
L 4609 4666 
L 4609 1869 
Q 4609 878 4112 393 
Q 3616 -91 2597 -91 
Q 1581 -91 1084 393 
Q 588 878 588 1869 
L 588 4666 
z
" transform="scale(0.015625)"/>
       <path id="DejaVuSans-Bold-2f" d="M 1644 4666 
L 2338 4666 
L 691 -594 
L 0 -594 
L 1644 4666 
z
" transform="scale(0.015625)"/>
       <path id="DejaVuSans-Bold-72" d="M 3138 2547 
Q 2991 2616 2845 2648 
Q 2700 2681 2553 2681 
Q 2122 2681 1889 2404 
Q 1656 2128 1656 1613 
L 1656 0 
L 538 0 
L 538 3500 
L 1656 3500 
L 1656 2925 
Q 1872 3269 2151 3426 
Q 2431 3584 2822 3584 
Q 2878 3584 2943 3579 
Q 3009 3575 3134 3559 
L 3138 2547 
z
" transform="scale(0.015625)"/>
       <path id="DejaVuSans-Bold-65" d="M 4031 1759 
L 4031 1441 
L 1416 1441 
Q 1456 1047 1700 850 
Q 1944 653 2381 653 
Q 2734 653 3104 758 
Q 3475 863 3866 1075 
L 3866 213 
Q 3469 63 3072 -14 
Q 2675 -91 2278 -91 
Q 1328 -91 801 392 
Q 275 875 275 1747 
Q 275 2603 792 3093 
Q 1309 3584 2216 3584 
Q 3041 3584 3536 3087 
Q 4031 2591 4031 1759 
z
M 2881 2131 
Q 2881 2450 2695 2645 
Q 2509 2841 2209 2841 
Q 1884 2841 1681 2658 
Q 1478 2475 1428 2131 
L 2881 2131 
z
" transform="scale(0.015625)"/>
       <path id="DejaVuSans-Bold-73" d="M 3272 3391 
L 3272 2541 
Q 2913 2691 2578 2766 
Q 2244 2841 1947 2841 
Q 1628 2841 1473 2761 
Q 1319 2681 1319 2516 
Q 1319 2381 1436 2309 
Q 1553 2238 1856 2203 
L 2053 2175 
Q 2913 2066 3209 1816 
Q 3506 1566 3506 1031 
Q 3506 472 3093 190 
Q 2681 -91 1863 -91 
Q 1516 -91 1145 -36 
Q 775 19 384 128 
L 384 978 
Q 719 816 1070 734 
Q 1422 653 1784 653 
Q 2113 653 2278 743 
Q 2444 834 2444 1013 
Q 2444 1163 2330 1236 
Q 2216 1309 1875 1350 
L 1678 1375 
Q 931 1469 631 1722 
Q 331 1975 331 2491 
Q 331 3047 712 3315 
Q 1094 3584 1881 3584 
Q 2191 3584 2531 3537 
Q 2872 3491 3272 3391 
z
" transform="scale(0.015625)"/>
       <path id="DejaVuSans-Bold-69" d="M 538 3500 
L 1656 3500 
L 1656 0 
L 538 0 
L 538 3500 
z
M 538 4863 
L 1656 4863 
L 1656 3950 
L 538 3950 
L 538 4863 
z
" transform="scale(0.015625)"/>
       <path id="DejaVuSans-Bold-64" d="M 2919 2988 
L 2919 4863 
L 4044 4863 
L 4044 0 
L 2919 0 
L 2919 506 
Q 2688 197 2409 53 
Q 2131 -91 1766 -91 
Q 1119 -91 703 423 
Q 288 938 288 1747 
Q 288 2556 703 3070 
Q 1119 3584 1766 3584 
Q 2128 3584 2408 3439 
Q 2688 3294 2919 2988 
z
M 2181 722 
Q 2541 722 2730 984 
Q 2919 1247 2919 1747 
Q 2919 2247 2730 2509 
Q 2541 2772 2181 2772 
Q 1825 2772 1636 2509 
Q 1447 2247 1447 1747 
Q 1447 1247 1636 984 
Q 1825 722 2181 722 
z
" transform="scale(0.015625)"/>
       <path id="DejaVuSans-Bold-75" d="M 500 1363 
L 500 3500 
L 1625 3500 
L 1625 3150 
Q 1625 2866 1622 2436 
Q 1619 2006 1619 1863 
Q 1619 1441 1641 1255 
Q 1663 1069 1716 984 
Q 1784 875 1895 815 
Q 2006 756 2150 756 
Q 2500 756 2700 1025 
Q 2900 1294 2900 1772 
L 2900 3500 
L 4019 3500 
L 4019 0 
L 2900 0 
L 2900 506 
Q 2647 200 2364 54 
Q 2081 -91 1741 -91 
Q 1134 -91 817 281 
Q 500 653 500 1363 
z
" transform="scale(0.015625)"/>
      </defs>
      <use xlink:href="#DejaVuSans-Bold-52"/>
      <use xlink:href="#DejaVuSans-Bold-45" x="77.001953"/>
      <use xlink:href="#DejaVuSans-Bold-55" x="145.3125"/>
      <use xlink:href="#DejaVuSans-Bold-2f" x="226.513672"/>
      <use xlink:href="#DejaVuSans-Bold-72" x="263.037109"/>
      <use xlink:href="#DejaVuSans-Bold-65" x="312.353516"/>
      <use xlink:href="#DejaVuSans-Bold-73" x="380.175781"/>
      <use xlink:href="#DejaVuSans-Bold-69" x="439.697266"/>
      <use xlink:href="#DejaVuSans-Bold-64" x="473.974609"/>
      <use xlink:href="#DejaVuSans-Bold-75" x="545.556641"/>
      <use xlink:href="#DejaVuSans-Bold-65" x="616.748047"/>
     </g>
    </g>
   </g>
   <g id="line2d_14">
    <path d="M 180.684 266.644529 
L 227.556 266.644529 
L 227.556 260.645911 
L 180.684 260.645911 
L 180.684 266.644529 
" clip-path="url(#pdb53487d63)" style="fill: none; stroke: #747473; stroke-width: 1.5; stroke-linecap: square"/>
   </g>
   <g id="line2d_15">
    <path d="M 204.12 266.644529 
L 204.12 271.689709 
" clip-path="url(#pdb53487d63)" style="fill: none; stroke: #747473; stroke-width: 1.5; stroke-linecap: square"/>
   </g>
   <g id="line2d_16">
    <path d="M 204.12 260.645911 
L 204.12 251.783184 
" clip-path="url(#pdb53487d63)" style="fill: none; stroke: #747473; stroke-width: 1.5; stroke-linecap: square"/>
   </g>
   <g id="line2d_17">
    <path d="M 336.924 236.157143 
L 383.796 236.157143 
L 383.796 220.956241 
L 336.924 220.956241 
L 336.924 236.157143 
" clip-path="url(#pdb53487d63)" style="fill: none; stroke: #747473; stroke-width: 1.5; stroke-linecap: square"/>
   </g>
   <g id="line2d_18">
    <path d="M 360.36 236.157143 
L 360.36 255.583298 
" clip-path="url(#pdb53487d63)" style="fill: none; stroke: #747473; stroke-width: 1.5; stroke-linecap: square"/>
   </g>
   <g id="line2d_19">
    <path d="M 360.36 220.956241 
L 360.36 199.285802 
" clip-path="url(#pdb53487d63)" style="fill: none; stroke: #747473; stroke-width: 1.5; stroke-linecap: square"/>
   </g>
   <g id="line2d_20">
    <path d="M 493.164 256.169881 
L 540.036 256.169881 
L 540.036 236.121349 
L 493.164 236.121349 
L 493.164 256.169881 
" clip-path="url(#pdb53487d63)" style="fill: none; stroke: #747473; stroke-width: 1.5; stroke-linecap: square"/>
   </g>
   <g id="line2d_21">
    <path d="M 516.6 256.169881 
L 516.6 269.069762 
" clip-path="url(#pdb53487d63)" style="fill: none; stroke: #747473; stroke-width: 1.5; stroke-linecap: square"/>
   </g>
   <g id="line2d_22">
    <path d="M 516.6 236.121349 
L 516.6 206.05323 
" clip-path="url(#pdb53487d63)" style="fill: none; stroke: #747473; stroke-width: 1.5; stroke-linecap: square"/>
   </g>
   <g id="line2d_23">
    <path d="M 649.404 261.903834 
L 696.276 261.903834 
L 696.276 250.282135 
L 649.404 250.282135 
L 649.404 261.903834 
" clip-path="url(#pdb53487d63)" style="fill: none; stroke: #747473; stroke-width: 1.5; stroke-linecap: square"/>
   </g>
   <g id="line2d_24">
    <path d="M 672.84 261.903834 
L 672.84 272.297355 
" clip-path="url(#pdb53487d63)" style="fill: none; stroke: #747473; stroke-width: 1.5; stroke-linecap: square"/>
   </g>
   <g id="line2d_25">
    <path d="M 672.84 250.282135 
L 672.84 232.911641 
" clip-path="url(#pdb53487d63)" style="fill: none; stroke: #747473; stroke-width: 1.5; stroke-linecap: square"/>
   </g>
   <g id="line2d_26">
    <path d="M 805.644 262.967543 
L 852.516 262.967543 
L 852.516 252.085845 
L 805.644 252.085845 
L 805.644 262.967543 
" clip-path="url(#pdb53487d63)" style="fill: none; stroke: #747473; stroke-width: 1.5; stroke-linecap: square"/>
   </g>
   <g id="line2d_27">
    <path d="M 829.08 262.967543 
L 829.08 273.259479 
" clip-path="url(#pdb53487d63)" style="fill: none; stroke: #747473; stroke-width: 1.5; stroke-linecap: square"/>
   </g>
   <g id="line2d_28">
    <path d="M 829.08 252.085845 
L 829.08 235.777212 
" clip-path="url(#pdb53487d63)" style="fill: none; stroke: #747473; stroke-width: 1.5; stroke-linecap: square"/>
   </g>
   <g id="line2d_29">
    <path d="M 180.684 263.918425 
L 227.556 263.918425 
" clip-path="url(#pdb53487d63)" style="fill: none; stroke: #747473; stroke-width: 2"/>
   </g>
   <g id="line2d_30">
    <path d="M 336.924 228.47429 
L 383.796 228.47429 
" clip-path="url(#pdb53487d63)" style="fill: none; stroke: #747473; stroke-width: 2"/>
   </g>
   <g id="line2d_31">
    <path d="M 493.164 247.301351 
L 540.036 247.301351 
" clip-path="url(#pdb53487d63)" style="fill: none; stroke: #747473; stroke-width: 2"/>
   </g>
   <g id="line2d_32">
    <path d="M 649.404 257.645051 
L 696.276 257.645051 
" clip-path="url(#pdb53487d63)" style="fill: none; stroke: #747473; stroke-width: 2"/>
   </g>
   <g id="line2d_33">
    <path d="M 805.644 258.731144 
L 852.516 258.731144 
" clip-path="url(#pdb53487d63)" style="fill: none; stroke: #747473; stroke-width: 2"/>
   </g>
   <g id="patch_3">
    <path d="M 126 288.36 
L 126 38.88 
" style="fill: none; stroke: #b4aea9; stroke-width: 2; stroke-linejoin: miter; stroke-linecap: square"/>
   </g>
   <g id="patch_4">
    <path d="M 907.2 288.36 
L 907.2 38.88 
" style="fill: none"/>
   </g>
   <g id="patch_5">
    <path d="M 126 288.36 
L 907.2 288.36 
" style="fill: none; stroke: #b4aea9; stroke-width: 2; stroke-linejoin: miter; stroke-linecap: square"/>
   </g>
   <g id="patch_6">
    <path d="M 126 38.88 
L 907.2 38.88 
" style="fill: none"/>
   </g>
   <g id="line2d_34">
    <path d="M 204.12 262.668171 
L 243.18 262.668171 
" clip-path="url(#pdb53487d63)" style="fill: none; stroke-dasharray: 9.6,2.4,1.5,2.4; stroke-dashoffset: 0; stroke: #000000; stroke-width: 1.5"/>
   </g>
   <g id="line2d_35">
    <path d="M 360.36 228.388441 
L 399.42 228.388441 
" clip-path="url(#pdb53487d63)" style="fill: none; stroke-dasharray: 9.6,2.4,1.5,2.4; stroke-dashoffset: 0; stroke: #000000; stroke-width: 1.5"/>
   </g>
   <g id="line2d_36">
    <path d="M 516.6 242.696002 
L 555.66 242.696002 
" clip-path="url(#pdb53487d63)" style="fill: none; stroke-dasharray: 9.6,2.4,1.5,2.4; stroke-dashoffset: 0; stroke: #000000; stroke-width: 1.5"/>
   </g>
   <g id="line2d_37">
    <path d="M 672.84 254.530316 
L 711.9 254.530316 
" clip-path="url(#pdb53487d63)" style="fill: none; stroke-dasharray: 9.6,2.4,1.5,2.4; stroke-dashoffset: 0; stroke: #000000; stroke-width: 1.5"/>
   </g>
   <g id="line2d_38">
    <path d="M 829.08 255.785508 
L 868.14 255.785508 
" clip-path="url(#pdb53487d63)" style="fill: none; stroke-dasharray: 9.6,2.4,1.5,2.4; stroke-dashoffset: 0; stroke: #000000; stroke-width: 1.5"/>
   </g>
   <g id="text_13">
    <g id="patch_7">
     <path d="M 243.18 270.908952 
L 326.51 270.908952 
Q 328.46 270.908952 328.46 268.958952 
L 328.46 256.37739 
Q 328.46 254.42739 326.51 254.42739 
L 243.18 254.42739 
Q 241.23 254.42739 241.23 256.37739 
L 241.23 268.958952 
Q 241.23 270.908952 243.18 270.908952 
z
" style="fill: #ffffff; stroke: #000000; stroke-linejoin: miter"/>
    </g>
    <!-- ${\mu}_{\rm{mean}} = $-1.59 -->
    <g transform="translate(243.18 266.228952) scale(0.13 -0.13)">
     <defs>
      <path id="DejaVuSans-Oblique-3bc" d="M -84 -1331 
L 856 3500 
L 1434 3500 
L 1009 1322 
Q 997 1256 987 1175 
Q 978 1094 978 1013 
Q 978 722 1161 565 
Q 1344 409 1684 409 
Q 2147 409 2431 671 
Q 2716 934 2816 1459 
L 3213 3500 
L 3788 3500 
L 3266 809 
Q 3253 750 3248 706 
Q 3244 663 3244 628 
Q 3244 531 3283 486 
Q 3322 441 3406 441 
Q 3438 441 3492 456 
Q 3547 472 3647 513 
L 3559 50 
Q 3422 -19 3297 -55 
Q 3172 -91 3053 -91 
Q 2847 -91 2730 40 
Q 2613 172 2613 403 
Q 2438 153 2195 31 
Q 1953 -91 1625 -91 
Q 1334 -91 1117 43 
Q 900 178 831 397 
L 494 -1331 
L -84 -1331 
z
" transform="scale(0.015625)"/>
      <path id="DejaVuSans-3d" d="M 678 2906 
L 4684 2906 
L 4684 2381 
L 678 2381 
L 678 2906 
z
M 678 1631 
L 4684 1631 
L 4684 1100 
L 678 1100 
L 678 1631 
z
" transform="scale(0.015625)"/>
      <path id="DejaVuSans-2e" d="M 684 794 
L 1344 794 
L 1344 0 
L 684 0 
L 684 794 
z
" transform="scale(0.015625)"/>
      <path id="DejaVuSans-39" d="M 703 97 
L 703 672 
Q 941 559 1184 500 
Q 1428 441 1663 441 
Q 2288 441 2617 861 
Q 2947 1281 2994 2138 
Q 2813 1869 2534 1725 
Q 2256 1581 1919 1581 
Q 1219 1581 811 2004 
Q 403 2428 403 3163 
Q 403 3881 828 4315 
Q 1253 4750 1959 4750 
Q 2769 4750 3195 4129 
Q 3622 3509 3622 2328 
Q 3622 1225 3098 567 
Q 2575 -91 1691 -91 
Q 1453 -91 1209 -44 
Q 966 3 703 97 
z
M 1959 2075 
Q 2384 2075 2632 2365 
Q 2881 2656 2881 3163 
Q 2881 3666 2632 3958 
Q 2384 4250 1959 4250 
Q 1534 4250 1286 3958 
Q 1038 3666 1038 3163 
Q 1038 2656 1286 2365 
Q 1534 2075 1959 2075 
z
" transform="scale(0.015625)"/>
     </defs>
     <use xlink:href="#DejaVuSans-Oblique-3bc" transform="translate(0 0.78125)"/>
     <use xlink:href="#DejaVuSans-6d" transform="translate(63.623047 -15.625) scale(0.7)"/>
     <use xlink:href="#DejaVuSans-65" transform="translate(131.811523 -15.625) scale(0.7)"/>
     <use xlink:href="#DejaVuSans-61" transform="translate(174.87793 -15.625) scale(0.7)"/>
     <use xlink:href="#DejaVuSans-6e" transform="translate(217.773438 -15.625) scale(0.7)"/>
     <use xlink:href="#DejaVuSans-3d" transform="translate(284.355469 0.78125)"/>
     <use xlink:href="#DejaVuSans-2d" transform="translate(387.626953 0.78125)"/>
     <use xlink:href="#DejaVuSans-31" transform="translate(423.710938 0.78125)"/>
     <use xlink:href="#DejaVuSans-2e" transform="translate(487.333984 0.78125)"/>
     <use xlink:href="#DejaVuSans-35" transform="translate(519.121094 0.78125)"/>
     <use xlink:href="#DejaVuSans-39" transform="translate(577.244141 0.78125)"/>
    </g>
   </g>
   <g id="text_14">
    <g id="patch_8">
     <path d="M 399.42 236.629222 
L 477.55 236.629222 
Q 479.5 236.629222 479.5 234.679222 
L 479.5 222.09766 
Q 479.5 220.14766 477.55 220.14766 
L 399.42 220.14766 
Q 397.47 220.14766 397.47 222.09766 
L 397.47 234.679222 
Q 397.47 236.629222 399.42 236.629222 
z
" style="fill: #ffffff; stroke: #000000; stroke-linejoin: miter"/>
    </g>
    <!-- ${\mu}_{\rm{mean}} = $1.77 -->
    <g transform="translate(399.42 231.949222) scale(0.13 -0.13)">
     <defs>
      <path id="DejaVuSans-37" d="M 525 4666 
L 3525 4666 
L 3525 4397 
L 1831 0 
L 1172 0 
L 2766 4134 
L 525 4134 
L 525 4666 
z
" transform="scale(0.015625)"/>
     </defs>
     <use xlink:href="#DejaVuSans-Oblique-3bc" transform="translate(0 0.09375)"/>
     <use xlink:href="#DejaVuSans-6d" transform="translate(63.623047 -16.3125) scale(0.7)"/>
     <use xlink:href="#DejaVuSans-65" transform="translate(131.811523 -16.3125) scale(0.7)"/>
     <use xlink:href="#DejaVuSans-61" transform="translate(174.87793 -16.3125) scale(0.7)"/>
     <use xlink:href="#DejaVuSans-6e" transform="translate(217.773438 -16.3125) scale(0.7)"/>
     <use xlink:href="#DejaVuSans-3d" transform="translate(284.355469 0.09375)"/>
     <use xlink:href="#DejaVuSans-31" transform="translate(387.626953 0.09375)"/>
     <use xlink:href="#DejaVuSans-2e" transform="translate(451.25 0.09375)"/>
     <use xlink:href="#DejaVuSans-37" transform="translate(475.287109 0.09375)"/>
     <use xlink:href="#DejaVuSans-37" transform="translate(537.160156 0.09375)"/>
    </g>
   </g>
   <g id="text_15">
    <g id="patch_9">
     <path d="M 555.66 250.936784 
L 635.09 250.936784 
Q 637.04 250.936784 637.04 248.986784 
L 637.04 236.405221 
Q 637.04 234.455221 635.09 234.455221 
L 555.66 234.455221 
Q 553.71 234.455221 553.71 236.405221 
L 553.71 248.986784 
Q 553.71 250.936784 555.66 250.936784 
z
" style="fill: #ffffff; stroke: #000000; stroke-linejoin: miter"/>
    </g>
    <!-- ${\mu}_{\rm{mean}} = $0.36 -->
    <g transform="translate(555.66 246.256784) scale(0.13 -0.13)">
     <defs>
      <path id="DejaVuSans-36" d="M 2113 2584 
Q 1688 2584 1439 2293 
Q 1191 2003 1191 1497 
Q 1191 994 1439 701 
Q 1688 409 2113 409 
Q 2538 409 2786 701 
Q 3034 994 3034 1497 
Q 3034 2003 2786 2293 
Q 2538 2584 2113 2584 
z
M 3366 4563 
L 3366 3988 
Q 3128 4100 2886 4159 
Q 2644 4219 2406 4219 
Q 1781 4219 1451 3797 
Q 1122 3375 1075 2522 
Q 1259 2794 1537 2939 
Q 1816 3084 2150 3084 
Q 2853 3084 3261 2657 
Q 3669 2231 3669 1497 
Q 3669 778 3244 343 
Q 2819 -91 2113 -91 
Q 1303 -91 875 529 
Q 447 1150 447 2328 
Q 447 3434 972 4092 
Q 1497 4750 2381 4750 
Q 2619 4750 2861 4703 
Q 3103 4656 3366 4563 
z
" transform="scale(0.015625)"/>
     </defs>
     <use xlink:href="#DejaVuSans-Oblique-3bc" transform="translate(0 0.78125)"/>
     <use xlink:href="#DejaVuSans-6d" transform="translate(63.623047 -15.625) scale(0.7)"/>
     <use xlink:href="#DejaVuSans-65" transform="translate(131.811523 -15.625) scale(0.7)"/>
     <use xlink:href="#DejaVuSans-61" transform="translate(174.87793 -15.625) scale(0.7)"/>
     <use xlink:href="#DejaVuSans-6e" transform="translate(217.773438 -15.625) scale(0.7)"/>
     <use xlink:href="#DejaVuSans-3d" transform="translate(284.355469 0.78125)"/>
     <use xlink:href="#DejaVuSans-30" transform="translate(387.626953 0.78125)"/>
     <use xlink:href="#DejaVuSans-2e" transform="translate(451.25 0.78125)"/>
     <use xlink:href="#DejaVuSans-33" transform="translate(483.037109 0.78125)"/>
     <use xlink:href="#DejaVuSans-36" transform="translate(546.660156 0.78125)"/>
    </g>
   </g>
   <g id="text_16">
    <g id="patch_10">
     <path d="M 711.9 262.771097 
L 787.43 262.771097 
Q 789.38 262.771097 789.38 260.821097 
L 789.38 248.239535 
Q 789.38 246.289535 787.43 246.289535 
L 711.9 246.289535 
Q 709.95 246.289535 709.95 248.239535 
L 709.95 260.821097 
Q 709.95 262.771097 711.9 262.771097 
z
" style="fill: #ffffff; stroke: #000000; stroke-linejoin: miter"/>
    </g>
    <!-- ${\mu}_{\rm{mean}} = $-0.8 -->
    <g transform="translate(711.9 258.091097) scale(0.13 -0.13)">
     <defs>
      <path id="DejaVuSans-38" d="M 2034 2216 
Q 1584 2216 1326 1975 
Q 1069 1734 1069 1313 
Q 1069 891 1326 650 
Q 1584 409 2034 409 
Q 2484 409 2743 651 
Q 3003 894 3003 1313 
Q 3003 1734 2745 1975 
Q 2488 2216 2034 2216 
z
M 1403 2484 
Q 997 2584 770 2862 
Q 544 3141 544 3541 
Q 544 4100 942 4425 
Q 1341 4750 2034 4750 
Q 2731 4750 3128 4425 
Q 3525 4100 3525 3541 
Q 3525 3141 3298 2862 
Q 3072 2584 2669 2484 
Q 3125 2378 3379 2068 
Q 3634 1759 3634 1313 
Q 3634 634 3220 271 
Q 2806 -91 2034 -91 
Q 1263 -91 848 271 
Q 434 634 434 1313 
Q 434 1759 690 2068 
Q 947 2378 1403 2484 
z
M 1172 3481 
Q 1172 3119 1398 2916 
Q 1625 2713 2034 2713 
Q 2441 2713 2670 2916 
Q 2900 3119 2900 3481 
Q 2900 3844 2670 4047 
Q 2441 4250 2034 4250 
Q 1625 4250 1398 4047 
Q 1172 3844 1172 3481 
z
" transform="scale(0.015625)"/>
     </defs>
     <use xlink:href="#DejaVuSans-Oblique-3bc" transform="translate(0 0.78125)"/>
     <use xlink:href="#DejaVuSans-6d" transform="translate(63.623047 -15.625) scale(0.7)"/>
     <use xlink:href="#DejaVuSans-65" transform="translate(131.811523 -15.625) scale(0.7)"/>
     <use xlink:href="#DejaVuSans-61" transform="translate(174.87793 -15.625) scale(0.7)"/>
     <use xlink:href="#DejaVuSans-6e" transform="translate(217.773438 -15.625) scale(0.7)"/>
     <use xlink:href="#DejaVuSans-3d" transform="translate(284.355469 0.78125)"/>
     <use xlink:href="#DejaVuSans-2d" transform="translate(387.626953 0.78125)"/>
     <use xlink:href="#DejaVuSans-30" transform="translate(423.710938 0.78125)"/>
     <use xlink:href="#DejaVuSans-2e" transform="translate(487.333984 0.78125)"/>
     <use xlink:href="#DejaVuSans-38" transform="translate(516.496094 0.78125)"/>
    </g>
   </g>
   <g id="text_17">
    <g id="patch_11">
     <path d="M 868.14 264.026289 
L 951.99 264.026289 
Q 953.94 264.026289 953.94 262.076289 
L 953.94 249.494726 
Q 953.94 247.544726 951.99 247.544726 
L 868.14 247.544726 
Q 866.19 247.544726 866.19 249.494726 
L 866.19 262.076289 
Q 866.19 264.026289 868.14 264.026289 
z
" style="fill: #ffffff; stroke: #000000; stroke-linejoin: miter"/>
    </g>
    <!-- ${\mu}_{\rm{mean}} = $-0.92 -->
    <g transform="translate(868.14 259.346289) scale(0.13 -0.13)">
     <use xlink:href="#DejaVuSans-Oblique-3bc" transform="translate(0 0.78125)"/>
     <use xlink:href="#DejaVuSans-6d" transform="translate(63.623047 -15.625) scale(0.7)"/>
     <use xlink:href="#DejaVuSans-65" transform="translate(131.811523 -15.625) scale(0.7)"/>
     <use xlink:href="#DejaVuSans-61" transform="translate(174.87793 -15.625) scale(0.7)"/>
     <use xlink:href="#DejaVuSans-6e" transform="translate(217.773438 -15.625) scale(0.7)"/>
     <use xlink:href="#DejaVuSans-3d" transform="translate(284.355469 0.78125)"/>
     <use xlink:href="#DejaVuSans-2d" transform="translate(387.626953 0.78125)"/>
     <use xlink:href="#DejaVuSans-30" transform="translate(423.710938 0.78125)"/>
     <use xlink:href="#DejaVuSans-2e" transform="translate(487.333984 0.78125)"/>
     <use xlink:href="#DejaVuSans-39" transform="translate(519.121094 0.78125)"/>
     <use xlink:href="#DejaVuSans-32" transform="translate(580.994141 0.78125)"/>
    </g>
   </g>
  </g>
 </g>
 <defs>
  <clipPath id="pdb53487d63">
   <rect x="126" y="38.88" width="781.2" height="249.48"/>
  </clipPath>
 </defs>
</svg>
