<?xml version="1.0" encoding="utf-8" standalone="no"?>
<!DOCTYPE svg PUBLIC "-//W3C//DTD SVG 1.1//EN"
  "http://www.w3.org/Graphics/SVG/1.1/DTD/svg11.dtd">
<svg xmlns:xlink="http://www.w3.org/1999/xlink" width="1440pt" height="432pt" viewBox="0 0 1440 432" xmlns="http://www.w3.org/2000/svg" version="1.1">
 <metadata>
  <rdf:RDF xmlns:dc="http://purl.org/dc/elements/1.1/" xmlns:cc="http://creativecommons.org/ns#" xmlns:rdf="http://www.w3.org/1999/02/22-rdf-syntax-ns#">
   <cc:Work>
    <dc:type rdf:resource="http://purl.org/dc/dcmitype/StillImage"/>
    <dc:date>2023-09-12T10:26:26.625465</dc:date>
    <dc:format>image/svg+xml</dc:format>
    <dc:creator>
     <cc:Agent>
      <dc:title>Matplotlib v3.7.1, https://matplotlib.org/</dc:title>
     </cc:Agent>
    </dc:creator>
   </cc:Work>
  </rdf:RDF>
 </metadata>
 <defs>
  <style type="text/css">*{stroke-linejoin: round; stroke-linecap: butt}</style>
 </defs>
 <g id="figure_1">
  <g id="patch_1">
   <path d="M 0 432 
L 1440 432 
L 1440 0 
L 0 0 
L 0 432 
z
" style="fill: none"/>
  </g>
  <g id="axes_1">
   <g id="patch_2">
    <path d="M 180 384.48 
L 1296 384.48 
L 1296 51.84 
L 180 51.84 
L 180 384.48 
z
" style="fill: none"/>
   </g>
   <g id="PolyCollection_1">
    <defs>
     <path id="m1a7a3d5104" d="M 273.232307 -71.712 
L 272.767693 -71.712 
L 272.747608 -74.674909 
L 272.730544 -77.637818 
L 272.714643 -80.600727 
L 272.697041 -83.563636 
L 272.674393 -86.526545 
L 272.643594 -89.489455 
L 272.602545 -92.452364 
L 272.55074 -95.415273 
L 272.489504 -98.378182 
L 272.421757 -101.341091 
L 272.351355 -104.304 
L 272.282131 -107.266909 
L 272.216923 -110.229818 
L 272.156842 -113.192727 
L 272.100997 -116.155636 
L 272.046768 -119.118545 
L 271.990531 -122.081455 
L 271.928615 -125.044364 
L 271.858235 -128.007273 
L 271.778148 -130.970182 
L 271.688905 -133.933091 
L 271.592716 -136.896 
L 271.493019 -139.858909 
L 271.393916 -142.821818 
L 271.299607 -145.784727 
L 271.213888 -148.747636 
L 271.139742 -151.710545 
L 271.079018 -154.673455 
L 271.032223 -157.636364 
L 270.998431 -160.599273 
L 270.975362 -163.562182 
L 270.959611 -166.525091 
L 270.946998 -169.488 
L 270.932959 -172.450909 
L 270.912909 -175.413818 
L 270.882525 -178.376727 
L 270.837955 -181.339636 
L 270.775967 -184.302545 
L 270.694081 -187.265455 
L 270.590713 -190.228364 
L 270.465311 -193.191273 
L 270.318453 -196.154182 
L 270.151827 -199.117091 
L 269.968012 -202.08 
L 269.769987 -205.042909 
L 269.56037 -208.005818 
L 269.340522 -210.968727 
L 269.109765 -213.931636 
L 268.865049 -216.894545 
L 268.601317 -219.857455 
L 268.312648 -222.820364 
L 267.993918 -225.783273 
L 267.642448 -228.746182 
L 267.259026 -231.709091 
L 266.847761 -234.672 
L 266.414663 -237.634909 
L 265.965265 -240.597818 
L 265.502044 -243.560727 
L 265.022523 -246.523636 
L 264.51878 -249.486545 
L 263.978658 -252.449455 
L 263.388422 -255.412364 
L 262.736148 -258.375273 
L 262.014899 -261.338182 
L 261.224822 -264.301091 
L 260.37357 -267.264 
L 259.474956 -270.226909 
L 258.546161 -273.189818 
L 257.604202 -276.152727 
L 256.662507 -279.115636 
L 255.728423 -282.078545 
L 254.802242 -285.041455 
L 253.877968 -288.004364 
L 252.945607 -290.967273 
L 251.994386 -293.930182 
L 251.016047 -296.893091 
L 250.007334 -299.856 
L 248.970948 -302.818909 
L 247.914678 -305.781818 
L 246.848833 -308.744727 
L 245.782575 -311.707636 
L 244.720041 -314.670545 
L 243.657238 -317.633455 
L 242.580654 -320.596364 
L 241.468379 -323.559273 
L 240.294257 -326.522182 
L 239.035255 -329.485091 
L 237.681655 -332.448 
L 236.248824 -335.410909 
L 234.788318 -338.373818 
L 233.395148 -341.336727 
L 232.207753 -344.299636 
L 231.39793 -347.262545 
L 231.15 -350.225455 
L 231.631414 -353.188364 
L 232.960154 -356.151273 
L 235.176333 -359.114182 
L 238.225577 -362.077091 
L 241.959433 -365.04 
L 304.040567 -365.04 
L 304.040567 -365.04 
L 307.774423 -362.077091 
L 310.823667 -359.114182 
L 313.039846 -356.151273 
L 314.368586 -353.188364 
L 314.85 -350.225455 
L 314.60207 -347.262545 
L 313.792247 -344.299636 
L 312.604852 -341.336727 
L 311.211682 -338.373818 
L 309.751176 -335.410909 
L 308.318345 -332.448 
L 306.964745 -329.485091 
L 305.705743 -326.522182 
L 304.531621 -323.559273 
L 303.419346 -320.596364 
L 302.342762 -317.633455 
L 301.279959 -314.670545 
L 300.217425 -311.707636 
L 299.151167 -308.744727 
L 298.085322 -305.781818 
L 297.029052 -302.818909 
L 295.992666 -299.856 
L 294.983953 -296.893091 
L 294.005614 -293.930182 
L 293.054393 -290.967273 
L 292.122032 -288.004364 
L 291.197758 -285.041455 
L 290.271577 -282.078545 
L 289.337493 -279.115636 
L 288.395798 -276.152727 
L 287.453839 -273.189818 
L 286.525044 -270.226909 
L 285.62643 -267.264 
L 284.775178 -264.301091 
L 283.985101 -261.338182 
L 283.263852 -258.375273 
L 282.611578 -255.412364 
L 282.021342 -252.449455 
L 281.48122 -249.486545 
L 280.977477 -246.523636 
L 280.497956 -243.560727 
L 280.034735 -240.597818 
L 279.585337 -237.634909 
L 279.152239 -234.672 
L 278.740974 -231.709091 
L 278.357552 -228.746182 
L 278.006082 -225.783273 
L 277.687352 -222.820364 
L 277.398683 -219.857455 
L 277.134951 -216.894545 
L 276.890235 -213.931636 
L 276.659478 -210.968727 
L 276.43963 -208.005818 
L 276.230013 -205.042909 
L 276.031988 -202.08 
L 275.848173 -199.117091 
L 275.681547 -196.154182 
L 275.534689 -193.191273 
L 275.409287 -190.228364 
L 275.305919 -187.265455 
L 275.224033 -184.302545 
L 275.162045 -181.339636 
L 275.117475 -178.376727 
L 275.087091 -175.413818 
L 275.067041 -172.450909 
L 275.053002 -169.488 
L 275.040389 -166.525091 
L 275.024638 -163.562182 
L 275.001569 -160.599273 
L 274.967777 -157.636364 
L 274.920982 -154.673455 
L 274.860258 -151.710545 
L 274.786112 -148.747636 
L 274.700393 -145.784727 
L 274.606084 -142.821818 
L 274.506981 -139.858909 
L 274.407284 -136.896 
L 274.311095 -133.933091 
L 274.221852 -130.970182 
L 274.141765 -128.007273 
L 274.071385 -125.044364 
L 274.009469 -122.081455 
L 273.953232 -119.118545 
L 273.899003 -116.155636 
L 273.843158 -113.192727 
L 273.783077 -110.229818 
L 273.717869 -107.266909 
L 273.648645 -104.304 
L 273.578243 -101.341091 
L 273.510496 -98.378182 
L 273.44926 -95.415273 
L 273.397455 -92.452364 
L 273.356406 -89.489455 
L 273.325607 -86.526545 
L 273.302959 -83.563636 
L 273.285357 -80.600727 
L 273.269456 -77.637818 
L 273.252392 -74.674909 
L 273.232307 -71.712 
z
" style="stroke: #282724; stroke-width: 1.4"/>
    </defs>
    <g clip-path="url(#pe056eed74d)">
     <use xlink:href="#m1a7a3d5104" x="0" y="432" style="fill: #edbdb9; stroke: #282724; stroke-width: 1.4"/>
    </g>
   </g>
   <g id="PolyCollection_2">
    <defs>
     <path id="m82f9c009a4" d="M 459.333486 -114.048 
L 458.666514 -114.048 
L 458.634496 -116.583273 
L 458.614391 -119.118545 
L 458.605977 -121.653818 
L 458.607009 -124.189091 
L 458.614038 -126.724364 
L 458.623553 -129.259636 
L 458.633026 -131.794909 
L 458.641505 -134.330182 
L 458.64959 -136.865455 
L 458.658883 -139.400727 
L 458.671179 -141.936 
L 458.687685 -144.471273 
L 458.708488 -147.006545 
L 458.732372 -149.541818 
L 458.75696 -152.077091 
L 458.779117 -154.612364 
L 458.79548 -157.147636 
L 458.803028 -159.682909 
L 458.799545 -162.218182 
L 458.783929 -164.753455 
L 458.756293 -167.288727 
L 458.717878 -169.824 
L 458.670841 -172.359273 
L 458.61794 -174.894545 
L 458.56215 -177.429818 
L 458.506225 -179.965091 
L 458.45231 -182.500364 
L 458.401694 -185.035636 
L 458.354873 -187.570909 
L 458.311903 -190.106182 
L 458.272927 -192.641455 
L 458.238581 -195.176727 
L 458.210001 -197.712 
L 458.188322 -200.247273 
L 458.173769 -202.782545 
L 458.164666 -205.317818 
L 458.156672 -207.853091 
L 458.142469 -210.388364 
L 458.111959 -212.923636 
L 458.052942 -215.458909 
L 457.952273 -217.994182 
L 457.797519 -220.529455 
L 457.579076 -223.064727 
L 457.292482 -225.6 
L 456.94033 -228.135273 
L 456.533027 -230.670545 
L 456.087808 -233.205818 
L 455.625899 -235.741091 
L 455.16839 -238.276364 
L 454.731921 -240.811636 
L 454.325331 -243.346909 
L 453.948094 -245.882182 
L 453.590729 -248.417455 
L 453.236813 -250.952727 
L 452.865931 -253.488 
L 452.456974 -256.023273 
L 451.99141 -258.558545 
L 451.456295 -261.093818 
L 450.846786 -263.629091 
L 450.167679 -266.164364 
L 449.433349 -268.699636 
L 448.66561 -271.234909 
L 447.88955 -273.770182 
L 447.128235 -276.305455 
L 446.397848 -278.840727 
L 445.704995 -281.376 
L 445.047219 -283.911273 
L 444.416474 -286.446545 
L 443.803959 -288.981818 
L 443.203971 -291.517091 
L 442.614924 -294.052364 
L 442.03714 -296.587636 
L 441.468782 -299.122909 
L 440.902416 -301.658182 
L 440.324337 -304.193455 
L 439.717247 -306.728727 
L 439.064859 -309.264 
L 438.355885 -311.799273 
L 437.585176 -314.334545 
L 436.751445 -316.869818 
L 435.852871 -319.405091 
L 434.882956 -321.940364 
L 433.828664 -324.475636 
L 432.671541 -327.010909 
L 431.391161 -329.546182 
L 429.969661 -332.081455 
L 428.396601 -334.616727 
L 426.67455 -337.152 
L 424.82649 -339.687273 
L 422.90583 -342.222545 
L 421.007851 -344.757818 
L 419.278632 -347.293091 
L 417.915125 -349.828364 
L 417.15 -352.363636 
L 417.218338 -354.898909 
L 418.309855 -357.434182 
L 420.517857 -359.969455 
L 423.800832 -362.504727 
L 427.971524 -365.04 
L 490.028476 -365.04 
L 490.028476 -365.04 
L 494.199168 -362.504727 
L 497.482143 -359.969455 
L 499.690145 -357.434182 
L 500.781662 -354.898909 
L 500.85 -352.363636 
L 500.084875 -349.828364 
L 498.721368 -347.293091 
L 496.992149 -344.757818 
L 495.09417 -342.222545 
L 493.17351 -339.687273 
L 491.32545 -337.152 
L 489.603399 -334.616727 
L 488.030339 -332.081455 
L 486.608839 -329.546182 
L 485.328459 -327.010909 
L 484.171336 -324.475636 
L 483.117044 -321.940364 
L 482.147129 -319.405091 
L 481.248555 -316.869818 
L 480.414824 -314.334545 
L 479.644115 -311.799273 
L 478.935141 -309.264 
L 478.282753 -306.728727 
L 477.675663 -304.193455 
L 477.097584 -301.658182 
L 476.531218 -299.122909 
L 475.96286 -296.587636 
L 475.385076 -294.052364 
L 474.796029 -291.517091 
L 474.196041 -288.981818 
L 473.583526 -286.446545 
L 472.952781 -283.911273 
L 472.295005 -281.376 
L 471.602152 -278.840727 
L 470.871765 -276.305455 
L 470.11045 -273.770182 
L 469.33439 -271.234909 
L 468.566651 -268.699636 
L 467.832321 -266.164364 
L 467.153214 -263.629091 
L 466.543705 -261.093818 
L 466.00859 -258.558545 
L 465.543026 -256.023273 
L 465.134069 -253.488 
L 464.763187 -250.952727 
L 464.409271 -248.417455 
L 464.051906 -245.882182 
L 463.674669 -243.346909 
L 463.268079 -240.811636 
L 462.83161 -238.276364 
L 462.374101 -235.741091 
L 461.912192 -233.205818 
L 461.466973 -230.670545 
L 461.05967 -228.135273 
L 460.707518 -225.6 
L 460.420924 -223.064727 
L 460.202481 -220.529455 
L 460.047727 -217.994182 
L 459.947058 -215.458909 
L 459.888041 -212.923636 
L 459.857531 -210.388364 
L 459.843328 -207.853091 
L 459.835334 -205.317818 
L 459.826231 -202.782545 
L 459.811678 -200.247273 
L 459.789999 -197.712 
L 459.761419 -195.176727 
L 459.727073 -192.641455 
L 459.688097 -190.106182 
L 459.645127 -187.570909 
L 459.598306 -185.035636 
L 459.54769 -182.500364 
L 459.493775 -179.965091 
L 459.43785 -177.429818 
L 459.38206 -174.894545 
L 459.329159 -172.359273 
L 459.282122 -169.824 
L 459.243707 -167.288727 
L 459.216071 -164.753455 
L 459.200455 -162.218182 
L 459.196972 -159.682909 
L 459.20452 -157.147636 
L 459.220883 -154.612364 
L 459.24304 -152.077091 
L 459.267628 -149.541818 
L 459.291512 -147.006545 
L 459.312315 -144.471273 
L 459.328821 -141.936 
L 459.341117 -139.400727 
L 459.35041 -136.865455 
L 459.358495 -134.330182 
L 459.366974 -131.794909 
L 459.376447 -129.259636 
L 459.385962 -126.724364 
L 459.392991 -124.189091 
L 459.394023 -121.653818 
L 459.385609 -119.118545 
L 459.365504 -116.583273 
L 459.333486 -114.048 
z
" style="stroke: #282724; stroke-width: 1.4"/>
    </defs>
    <g clip-path="url(#pe056eed74d)">
     <use xlink:href="#m82f9c009a4" x="0" y="432" style="fill: #bbcadc; stroke: #282724; stroke-width: 1.4"/>
    </g>
   </g>
   <g id="PolyCollection_3">
    <defs>
     <path id="m1a0b7073c2" d="M 645.147471 -117.072 
L 644.852529 -117.072 
L 644.843569 -119.576727 
L 644.834679 -122.081455 
L 644.823129 -124.586182 
L 644.805993 -127.090909 
L 644.780906 -129.595636 
L 644.746792 -132.100364 
L 644.704385 -134.605091 
L 644.656363 -137.109818 
L 644.60702 -139.614545 
L 644.561511 -142.119273 
L 644.524793 -144.624 
L 644.500498 -147.128727 
L 644.489999 -149.633455 
L 644.491938 -152.138182 
L 644.502367 -154.642909 
L 644.515512 -157.147636 
L 644.524994 -159.652364 
L 644.525192 -162.157091 
L 644.51238 -164.661818 
L 644.485327 -167.166545 
L 644.445186 -169.671273 
L 644.39473 -172.176 
L 644.337178 -174.680727 
L 644.274997 -177.185455 
L 644.209053 -179.690182 
L 644.138386 -182.194909 
L 644.060654 -184.699636 
L 643.973054 -187.204364 
L 643.873343 -189.709091 
L 643.760573 -192.213818 
L 643.635224 -194.718545 
L 643.498717 -197.223273 
L 643.352478 -199.728 
L 643.196932 -202.232727 
L 643.030772 -204.737455 
L 642.850727 -207.242182 
L 642.651857 -209.746909 
L 642.428239 -212.251636 
L 642.173856 -214.756364 
L 641.883457 -217.261091 
L 641.553244 -219.765818 
L 641.181221 -222.270545 
L 640.767151 -224.775273 
L 640.312129 -227.28 
L 639.817928 -229.784727 
L 639.286419 -232.289455 
L 638.719378 -234.794182 
L 638.118863 -237.298909 
L 637.488094 -239.803636 
L 636.832433 -242.308364 
L 636.159945 -244.813091 
L 635.481047 -247.317818 
L 634.807104 -249.822545 
L 634.148294 -252.327273 
L 633.51144 -254.832 
L 632.89862 -257.336727 
L 632.30711 -259.841455 
L 631.730678 -262.346182 
L 631.161651 -264.850909 
L 630.592861 -267.355636 
L 630.018656 -269.860364 
L 629.434698 -272.365091 
L 628.836919 -274.869818 
L 628.220472 -277.374545 
L 627.579478 -279.879273 
L 626.907884 -282.384 
L 626.201101 -284.888727 
L 625.457604 -287.393455 
L 624.679707 -289.898182 
L 623.873232 -292.402909 
L 623.046399 -294.907636 
L 622.208746 -297.412364 
L 621.370714 -299.917091 
L 620.544047 -302.421818 
L 619.742407 -304.926545 
L 618.981179 -307.431273 
L 618.275599 -309.936 
L 617.637026 -312.440727 
L 617.068136 -314.945455 
L 616.558614 -317.450182 
L 616.083063 -319.954909 
L 615.602349 -322.459636 
L 615.068495 -324.964364 
L 614.432118 -327.469091 
L 613.650618 -329.973818 
L 612.69537 -332.478545 
L 611.556957 -334.983273 
L 610.248617 -337.488 
L 608.809058 -339.992727 
L 607.305746 -342.497455 
L 605.838667 -345.002182 
L 604.542598 -347.506909 
L 603.58421 -350.011636 
L 603.15 -352.516364 
L 603.423049 -355.021091 
L 604.550606 -357.525818 
L 606.609177 -360.030545 
L 609.576982 -362.535273 
L 613.323462 -365.04 
L 676.676538 -365.04 
L 676.676538 -365.04 
L 680.423018 -362.535273 
L 683.390823 -360.030545 
L 685.449394 -357.525818 
L 686.576951 -355.021091 
L 686.85 -352.516364 
L 686.41579 -350.011636 
L 685.457402 -347.506909 
L 684.161333 -345.002182 
L 682.694254 -342.497455 
L 681.190942 -339.992727 
L 679.751383 -337.488 
L 678.443043 -334.983273 
L 677.30463 -332.478545 
L 676.349382 -329.973818 
L 675.567882 -327.469091 
L 674.931505 -324.964364 
L 674.397651 -322.459636 
L 673.916937 -319.954909 
L 673.441386 -317.450182 
L 672.931864 -314.945455 
L 672.362974 -312.440727 
L 671.724401 -309.936 
L 671.018821 -307.431273 
L 670.257593 -304.926545 
L 669.455953 -302.421818 
L 668.629286 -299.917091 
L 667.791254 -297.412364 
L 666.953601 -294.907636 
L 666.126768 -292.402909 
L 665.320293 -289.898182 
L 664.542396 -287.393455 
L 663.798899 -284.888727 
L 663.092116 -282.384 
L 662.420522 -279.879273 
L 661.779528 -277.374545 
L 661.163081 -274.869818 
L 660.565302 -272.365091 
L 659.981344 -269.860364 
L 659.407139 -267.355636 
L 658.838349 -264.850909 
L 658.269322 -262.346182 
L 657.69289 -259.841455 
L 657.10138 -257.336727 
L 656.48856 -254.832 
L 655.851706 -252.327273 
L 655.192896 -249.822545 
L 654.518953 -247.317818 
L 653.840055 -244.813091 
L 653.167567 -242.308364 
L 652.511906 -239.803636 
L 651.881137 -237.298909 
L 651.280622 -234.794182 
L 650.713581 -232.289455 
L 650.182072 -229.784727 
L 649.687871 -227.28 
L 649.232849 -224.775273 
L 648.818779 -222.270545 
L 648.446756 -219.765818 
L 648.116543 -217.261091 
L 647.826144 -214.756364 
L 647.571761 -212.251636 
L 647.348143 -209.746909 
L 647.149273 -207.242182 
L 646.969228 -204.737455 
L 646.803068 -202.232727 
L 646.647522 -199.728 
L 646.501283 -197.223273 
L 646.364776 -194.718545 
L 646.239427 -192.213818 
L 646.126657 -189.709091 
L 646.026946 -187.204364 
L 645.939346 -184.699636 
L 645.861614 -182.194909 
L 645.790947 -179.690182 
L 645.725003 -177.185455 
L 645.662822 -174.680727 
L 645.60527 -172.176 
L 645.554814 -169.671273 
L 645.514673 -167.166545 
L 645.48762 -164.661818 
L 645.474808 -162.157091 
L 645.475006 -159.652364 
L 645.484488 -157.147636 
L 645.497633 -154.642909 
L 645.508062 -152.138182 
L 645.510001 -149.633455 
L 645.499502 -147.128727 
L 645.475207 -144.624 
L 645.438489 -142.119273 
L 645.39298 -139.614545 
L 645.343637 -137.109818 
L 645.295615 -134.605091 
L 645.253208 -132.100364 
L 645.219094 -129.595636 
L 645.194007 -127.090909 
L 645.176871 -124.586182 
L 645.165321 -122.081455 
L 645.156431 -119.576727 
L 645.147471 -117.072 
z
" style="stroke: #282724; stroke-width: 1.4"/>
    </defs>
    <g clip-path="url(#pe056eed74d)">
     <use xlink:href="#m1a0b7073c2" x="0" y="432" style="fill: #d0e6cb; stroke: #282724; stroke-width: 1.4"/>
    </g>
   </g>
   <g id="PolyCollection_4">
    <defs>
     <path id="m2259c2f15f" d="M 831.610091 -62.64 
L 830.389909 -62.64 
L 830.343557 -65.694545 
L 830.299163 -68.749091 
L 830.254849 -71.803636 
L 830.207776 -74.858182 
L 830.154249 -77.912727 
L 830.0899 -80.967273 
L 830.009964 -84.021818 
L 829.909606 -87.076364 
L 829.784272 -90.130909 
L 829.630049 -93.185455 
L 829.443979 -96.24 
L 829.224304 -99.294545 
L 828.97061 -102.349091 
L 828.683856 -105.403636 
L 828.366257 -108.458182 
L 828.021036 -111.512727 
L 827.652057 -114.567273 
L 827.263361 -117.621818 
L 826.858662 -120.676364 
L 826.440858 -123.730909 
L 826.011623 -126.785455 
L 825.571157 -129.84 
L 825.118154 -132.894545 
L 824.650018 -135.949091 
L 824.163347 -139.003636 
L 823.654643 -142.058182 
L 823.121163 -145.112727 
L 822.561799 -148.167273 
L 821.977839 -151.221818 
L 821.373461 -154.276364 
L 820.755851 -157.330909 
L 820.134885 -160.385455 
L 819.52237 -163.44 
L 818.930956 -166.494545 
L 818.372854 -169.549091 
L 817.858555 -172.603636 
L 817.39575 -175.658182 
L 816.988602 -178.712727 
L 816.637461 -181.767273 
L 816.339054 -184.821818 
L 816.087066 -187.876364 
L 815.873013 -190.930909 
L 815.687246 -193.985455 
L 815.519955 -197.04 
L 815.36204 -200.094545 
L 815.2058 -203.149091 
L 815.045412 -206.203636 
L 814.877205 -209.258182 
L 814.699789 -212.312727 
L 814.514053 -215.367273 
L 814.32305 -218.421818 
L 814.131775 -221.476364 
L 813.946802 -224.530909 
L 813.775746 -227.585455 
L 813.626559 -230.64 
L 813.506669 -233.694545 
L 813.422041 -236.749091 
L 813.376269 -239.803636 
L 813.369822 -242.858182 
L 813.399592 -245.912727 
L 813.458818 -248.967273 
L 813.537445 -252.021818 
L 813.622879 -255.076364 
L 813.701043 -258.130909 
L 813.757605 -261.185455 
L 813.779215 -264.24 
L 813.754585 -267.294545 
L 813.67532 -270.349091 
L 813.536387 -273.403636 
L 813.336214 -276.458182 
L 813.076421 -279.512727 
L 812.761199 -282.567273 
L 812.396409 -285.621818 
L 811.988448 -288.676364 
L 811.542951 -291.730909 
L 811.063445 -294.785455 
L 810.550029 -297.84 
L 809.998272 -300.894545 
L 809.398449 -303.949091 
L 808.73535 -307.003636 
L 807.988811 -310.058182 
L 807.135137 -313.112727 
L 806.1495 -316.167273 
L 805.009297 -319.221818 
L 803.698297 -322.276364 
L 802.211268 -325.330909 
L 800.558582 -328.385455 
L 798.770154 -331.44 
L 796.898001 -334.494545 
L 795.016702 -337.549091 
L 793.221215 -340.603636 
L 791.621756 -343.658182 
L 790.335885 -346.712727 
L 789.478385 -349.767273 
L 789.15 -352.821818 
L 789.426401 -355.876364 
L 790.348936 -358.930909 
L 791.918544 -361.985455 
L 794.093881 -365.04 
L 867.906119 -365.04 
L 867.906119 -365.04 
L 870.081456 -361.985455 
L 871.651064 -358.930909 
L 872.573599 -355.876364 
L 872.85 -352.821818 
L 872.521615 -349.767273 
L 871.664115 -346.712727 
L 870.378244 -343.658182 
L 868.778785 -340.603636 
L 866.983298 -337.549091 
L 865.101999 -334.494545 
L 863.229846 -331.44 
L 861.441418 -328.385455 
L 859.788732 -325.330909 
L 858.301703 -322.276364 
L 856.990703 -319.221818 
L 855.8505 -316.167273 
L 854.864863 -313.112727 
L 854.011189 -310.058182 
L 853.26465 -307.003636 
L 852.601551 -303.949091 
L 852.001728 -300.894545 
L 851.449971 -297.84 
L 850.936555 -294.785455 
L 850.457049 -291.730909 
L 850.011552 -288.676364 
L 849.603591 -285.621818 
L 849.238801 -282.567273 
L 848.923579 -279.512727 
L 848.663786 -276.458182 
L 848.463613 -273.403636 
L 848.32468 -270.349091 
L 848.245415 -267.294545 
L 848.220785 -264.24 
L 848.242395 -261.185455 
L 848.298957 -258.130909 
L 848.377121 -255.076364 
L 848.462555 -252.021818 
L 848.541182 -248.967273 
L 848.600408 -245.912727 
L 848.630178 -242.858182 
L 848.623731 -239.803636 
L 848.577959 -236.749091 
L 848.493331 -233.694545 
L 848.373441 -230.64 
L 848.224254 -227.585455 
L 848.053198 -224.530909 
L 847.868225 -221.476364 
L 847.67695 -218.421818 
L 847.485947 -215.367273 
L 847.300211 -212.312727 
L 847.122795 -209.258182 
L 846.954588 -206.203636 
L 846.7942 -203.149091 
L 846.63796 -200.094545 
L 846.480045 -197.04 
L 846.312754 -193.985455 
L 846.126987 -190.930909 
L 845.912934 -187.876364 
L 845.660946 -184.821818 
L 845.362539 -181.767273 
L 845.011398 -178.712727 
L 844.60425 -175.658182 
L 844.141445 -172.603636 
L 843.627146 -169.549091 
L 843.069044 -166.494545 
L 842.47763 -163.44 
L 841.865115 -160.385455 
L 841.244149 -157.330909 
L 840.626539 -154.276364 
L 840.022161 -151.221818 
L 839.438201 -148.167273 
L 838.878837 -145.112727 
L 838.345357 -142.058182 
L 837.836653 -139.003636 
L 837.349982 -135.949091 
L 836.881846 -132.894545 
L 836.428843 -129.84 
L 835.988377 -126.785455 
L 835.559142 -123.730909 
L 835.141338 -120.676364 
L 834.736639 -117.621818 
L 834.347943 -114.567273 
L 833.978964 -111.512727 
L 833.633743 -108.458182 
L 833.316144 -105.403636 
L 833.02939 -102.349091 
L 832.775696 -99.294545 
L 832.556021 -96.24 
L 832.369951 -93.185455 
L 832.215728 -90.130909 
L 832.090394 -87.076364 
L 831.990036 -84.021818 
L 831.9101 -80.967273 
L 831.845751 -77.912727 
L 831.792224 -74.858182 
L 831.745151 -71.803636 
L 831.700837 -68.749091 
L 831.656443 -65.694545 
L 831.610091 -62.64 
z
" style="stroke: #282724; stroke-width: 1.4"/>
    </defs>
    <g clip-path="url(#pe056eed74d)">
     <use xlink:href="#m2259c2f15f" x="0" y="432" style="fill: #dbcee1; stroke: #282724; stroke-width: 1.4"/>
    </g>
   </g>
   <g id="PolyCollection_5">
    <defs>
     <path id="m06b26cf44b" d="M 1017.54269 -111.024 
L 1016.45731 -111.024 
L 1016.410872 -113.589818 
L 1016.367116 -116.155636 
L 1016.32067 -118.721455 
L 1016.264044 -121.287273 
L 1016.1886 -123.853091 
L 1016.085879 -126.418909 
L 1015.949073 -128.984727 
L 1015.774356 -131.550545 
L 1015.56182 -134.116364 
L 1015.315867 -136.682182 
L 1015.044932 -139.248 
L 1014.760607 -141.813818 
L 1014.47625 -144.379636 
L 1014.205283 -146.945455 
L 1013.959397 -149.511273 
L 1013.746903 -152.077091 
L 1013.571431 -154.642909 
L 1013.431161 -157.208727 
L 1013.318661 -159.774545 
L 1013.221361 -162.340364 
L 1013.122559 -164.906182 
L 1013.002818 -167.472 
L 1012.841524 -170.037818 
L 1012.618424 -172.603636 
L 1012.314956 -175.169455 
L 1011.91534 -177.735273 
L 1011.40742 -180.301091 
L 1010.783351 -182.866909 
L 1010.04023 -185.432727 
L 1009.180685 -187.998545 
L 1008.213362 -190.564364 
L 1007.15315 -193.130182 
L 1006.020908 -195.696 
L 1004.842505 -198.261818 
L 1003.647068 -200.827636 
L 1002.464507 -203.393455 
L 1001.322569 -205.959273 
L 1000.243811 -208.525091 
L 999.242978 -211.090909 
L 998.325232 -213.656727 
L 997.485605 -216.222545 
L 996.709848 -218.788364 
L 995.976619 -221.354182 
L 995.260749 -223.92 
L 994.53709 -226.485818 
L 993.784332 -229.051636 
L 992.988147 -231.617455 
L 992.143062 -234.183273 
L 991.252675 -236.749091 
L 990.328108 -239.314909 
L 989.384909 -241.880727 
L 988.439011 -244.446545 
L 987.502575 -247.012364 
L 986.580718 -249.578182 
L 985.67001 -252.144 
L 984.759324 -254.709818 
L 983.833088 -257.275636 
L 982.876378 -259.841455 
L 981.880739 -262.407273 
L 980.849275 -264.973091 
L 979.799609 -267.538909 
L 978.763708 -270.104727 
L 977.784355 -272.670545 
L 976.908896 -275.236364 
L 976.181641 -277.802182 
L 975.636639 -280.368 
L 975.292464 -282.933818 
L 975.15 -285.499636 
L 975.193437 -288.065455 
L 975.393819 -290.631273 
L 975.714007 -293.197091 
L 976.113802 -295.762909 
L 976.554315 -298.328727 
L 977.001177 -300.894545 
L 977.426714 -303.460364 
L 977.811466 -306.026182 
L 978.14539 -308.592 
L 978.428826 -311.157818 
L 978.672956 -313.723636 
L 978.899329 -316.289455 
L 979.138073 -318.855273 
L 979.424742 -321.421091 
L 979.796184 -323.986909 
L 980.286178 -326.552727 
L 980.921764 -329.118545 
L 981.72103 -331.684364 
L 982.692766 -334.250182 
L 983.837852 -336.816 
L 985.151804 -339.381818 
L 986.627574 -341.947636 
L 988.257649 -344.513455 
L 990.034738 -347.079273 
L 991.950735 -349.645091 
L 993.994204 -352.210909 
L 996.147128 -354.776727 
L 998.381984 -357.342545 
L 1000.660262 -359.908364 
L 1002.933228 -362.474182 
L 1005.14518 -365.04 
L 1028.85482 -365.04 
L 1028.85482 -365.04 
L 1031.066772 -362.474182 
L 1033.339738 -359.908364 
L 1035.618016 -357.342545 
L 1037.852872 -354.776727 
L 1040.005796 -352.210909 
L 1042.049265 -349.645091 
L 1043.965262 -347.079273 
L 1045.742351 -344.513455 
L 1047.372426 -341.947636 
L 1048.848196 -339.381818 
L 1050.162148 -336.816 
L 1051.307234 -334.250182 
L 1052.27897 -331.684364 
L 1053.078236 -329.118545 
L 1053.713822 -326.552727 
L 1054.203816 -323.986909 
L 1054.575258 -321.421091 
L 1054.861927 -318.855273 
L 1055.100671 -316.289455 
L 1055.327044 -313.723636 
L 1055.571174 -311.157818 
L 1055.85461 -308.592 
L 1056.188534 -306.026182 
L 1056.573286 -303.460364 
L 1056.998823 -300.894545 
L 1057.445685 -298.328727 
L 1057.886198 -295.762909 
L 1058.285993 -293.197091 
L 1058.606181 -290.631273 
L 1058.806563 -288.065455 
L 1058.85 -285.499636 
L 1058.707536 -282.933818 
L 1058.363361 -280.368 
L 1057.818359 -277.802182 
L 1057.091104 -275.236364 
L 1056.215645 -272.670545 
L 1055.236292 -270.104727 
L 1054.200391 -267.538909 
L 1053.150725 -264.973091 
L 1052.119261 -262.407273 
L 1051.123622 -259.841455 
L 1050.166912 -257.275636 
L 1049.240676 -254.709818 
L 1048.32999 -252.144 
L 1047.419282 -249.578182 
L 1046.497425 -247.012364 
L 1045.560989 -244.446545 
L 1044.615091 -241.880727 
L 1043.671892 -239.314909 
L 1042.747325 -236.749091 
L 1041.856938 -234.183273 
L 1041.011853 -231.617455 
L 1040.215668 -229.051636 
L 1039.46291 -226.485818 
L 1038.739251 -223.92 
L 1038.023381 -221.354182 
L 1037.290152 -218.788364 
L 1036.514395 -216.222545 
L 1035.674768 -213.656727 
L 1034.757022 -211.090909 
L 1033.756189 -208.525091 
L 1032.677431 -205.959273 
L 1031.535493 -203.393455 
L 1030.352932 -200.827636 
L 1029.157495 -198.261818 
L 1027.979092 -195.696 
L 1026.84685 -193.130182 
L 1025.786638 -190.564364 
L 1024.819315 -187.998545 
L 1023.95977 -185.432727 
L 1023.216649 -182.866909 
L 1022.59258 -180.301091 
L 1022.08466 -177.735273 
L 1021.685044 -175.169455 
L 1021.381576 -172.603636 
L 1021.158476 -170.037818 
L 1020.997182 -167.472 
L 1020.877441 -164.906182 
L 1020.778639 -162.340364 
L 1020.681339 -159.774545 
L 1020.568839 -157.208727 
L 1020.428569 -154.642909 
L 1020.253097 -152.077091 
L 1020.040603 -149.511273 
L 1019.794717 -146.945455 
L 1019.52375 -144.379636 
L 1019.239393 -141.813818 
L 1018.955068 -139.248 
L 1018.684133 -136.682182 
L 1018.43818 -134.116364 
L 1018.225644 -131.550545 
L 1018.050927 -128.984727 
L 1017.914121 -126.418909 
L 1017.8114 -123.853091 
L 1017.735956 -121.287273 
L 1017.67933 -118.721455 
L 1017.632884 -116.155636 
L 1017.589128 -113.589818 
L 1017.54269 -111.024 
z
" style="stroke: #282724; stroke-width: 1.4"/>
    </defs>
    <g clip-path="url(#pe056eed74d)">
     <use xlink:href="#m06b26cf44b" x="0" y="432" style="fill: #f0d8b3; stroke: #282724; stroke-width: 1.4"/>
    </g>
   </g>
   <g id="PolyCollection_6">
    <defs>
     <path id="ma54beb5469" d="M 1203.478442 -95.904 
L 1202.521558 -95.904 
L 1202.446001 -98.622545 
L 1202.361625 -101.341091 
L 1202.265417 -104.059636 
L 1202.15495 -106.778182 
L 1202.029313 -109.496727 
L 1201.889701 -112.215273 
L 1201.739447 -114.933818 
L 1201.583387 -117.652364 
L 1201.426684 -120.370909 
L 1201.27336 -123.089455 
L 1201.124901 -125.808 
L 1200.979228 -128.526545 
L 1200.8303 -131.245091 
L 1200.668439 -133.963636 
L 1200.481411 -136.682182 
L 1200.256138 -139.400727 
L 1199.980848 -142.119273 
L 1199.647322 -144.837818 
L 1199.252821 -147.556364 
L 1198.801214 -150.274909 
L 1198.302912 -152.993455 
L 1197.773413 -155.712 
L 1197.230559 -158.430545 
L 1196.690969 -161.149091 
L 1196.166365 -163.867636 
L 1195.660624 -166.586182 
L 1195.168282 -169.304727 
L 1194.674905 -172.023273 
L 1194.159315 -174.741818 
L 1193.597199 -177.460364 
L 1192.965287 -180.178909 
L 1192.245158 -182.897455 
L 1191.425839 -185.616 
L 1190.504714 -188.334545 
L 1189.486779 -191.053091 
L 1188.382705 -193.771636 
L 1187.206515 -196.490182 
L 1185.973664 -199.208727 
L 1184.700048 -201.927273 
L 1183.401985 -204.645818 
L 1182.096705 -207.364364 
L 1180.802584 -210.082909 
L 1179.538375 -212.801455 
L 1178.321107 -215.52 
L 1177.162945 -218.238545 
L 1176.067963 -220.957091 
L 1175.030106 -223.675636 
L 1174.033471 -226.394182 
L 1173.055343 -229.112727 
L 1172.071479 -231.831273 
L 1171.062277 -234.549818 
L 1170.018021 -237.268364 
L 1168.941669 -239.986909 
L 1167.848469 -242.705455 
L 1166.762717 -245.424 
L 1165.712926 -248.142545 
L 1164.727016 -250.861091 
L 1163.828953 -253.579636 
L 1163.037543 -256.298182 
L 1162.367287 -259.016727 
L 1161.830479 -261.735273 
L 1161.43943 -264.453818 
L 1161.207749 -267.172364 
L 1161.15 -269.890909 
L 1161.279587 -272.609455 
L 1161.60522 -275.328 
L 1162.126795 -278.046545 
L 1162.831761 -280.765091 
L 1163.693123 -283.483636 
L 1164.670022 -286.202182 
L 1165.711337 -288.920727 
L 1166.762108 -291.639273 
L 1167.771745 -294.357818 
L 1168.702452 -297.076364 
L 1169.535985 -299.794909 
L 1170.277171 -302.513455 
L 1170.953282 -305.232 
L 1171.609382 -307.950545 
L 1172.300625 -310.669091 
L 1173.083136 -313.387636 
L 1174.005214 -316.106182 
L 1175.100324 -318.824727 
L 1176.382858 -321.543273 
L 1177.846995 -324.261818 
L 1179.468556 -326.980364 
L 1181.209304 -329.698909 
L 1183.022848 -332.417455 
L 1184.861121 -335.136 
L 1186.680295 -337.854545 
L 1188.445091 -340.573091 
L 1190.130825 -343.291636 
L 1191.723014 -346.010182 
L 1193.215031 -348.728727 
L 1194.604711 -351.447273 
L 1195.891039 -354.165818 
L 1197.071865 -356.884364 
L 1198.143122 -359.602909 
L 1199.099532 -362.321455 
L 1199.936272 -365.04 
L 1206.063728 -365.04 
L 1206.063728 -365.04 
L 1206.900468 -362.321455 
L 1207.856878 -359.602909 
L 1208.928135 -356.884364 
L 1210.108961 -354.165818 
L 1211.395289 -351.447273 
L 1212.784969 -348.728727 
L 1214.276986 -346.010182 
L 1215.869175 -343.291636 
L 1217.554909 -340.573091 
L 1219.319705 -337.854545 
L 1221.138879 -335.136 
L 1222.977152 -332.417455 
L 1224.790696 -329.698909 
L 1226.531444 -326.980364 
L 1228.153005 -324.261818 
L 1229.617142 -321.543273 
L 1230.899676 -318.824727 
L 1231.994786 -316.106182 
L 1232.916864 -313.387636 
L 1233.699375 -310.669091 
L 1234.390618 -307.950545 
L 1235.046718 -305.232 
L 1235.722829 -302.513455 
L 1236.464015 -299.794909 
L 1237.297548 -297.076364 
L 1238.228255 -294.357818 
L 1239.237892 -291.639273 
L 1240.288663 -288.920727 
L 1241.329978 -286.202182 
L 1242.306877 -283.483636 
L 1243.168239 -280.765091 
L 1243.873205 -278.046545 
L 1244.39478 -275.328 
L 1244.720413 -272.609455 
L 1244.85 -269.890909 
L 1244.792251 -267.172364 
L 1244.56057 -264.453818 
L 1244.169521 -261.735273 
L 1243.632713 -259.016727 
L 1242.962457 -256.298182 
L 1242.171047 -253.579636 
L 1241.272984 -250.861091 
L 1240.287074 -248.142545 
L 1239.237283 -245.424 
L 1238.151531 -242.705455 
L 1237.058331 -239.986909 
L 1235.981979 -237.268364 
L 1234.937723 -234.549818 
L 1233.928521 -231.831273 
L 1232.944657 -229.112727 
L 1231.966529 -226.394182 
L 1230.969894 -223.675636 
L 1229.932037 -220.957091 
L 1228.837055 -218.238545 
L 1227.678893 -215.52 
L 1226.461625 -212.801455 
L 1225.197416 -210.082909 
L 1223.903295 -207.364364 
L 1222.598015 -204.645818 
L 1221.299952 -201.927273 
L 1220.026336 -199.208727 
L 1218.793485 -196.490182 
L 1217.617295 -193.771636 
L 1216.513221 -191.053091 
L 1215.495286 -188.334545 
L 1214.574161 -185.616 
L 1213.754842 -182.897455 
L 1213.034713 -180.178909 
L 1212.402801 -177.460364 
L 1211.840685 -174.741818 
L 1211.325095 -172.023273 
L 1210.831718 -169.304727 
L 1210.339376 -166.586182 
L 1209.833635 -163.867636 
L 1209.309031 -161.149091 
L 1208.769441 -158.430545 
L 1208.226587 -155.712 
L 1207.697088 -152.993455 
L 1207.198786 -150.274909 
L 1206.747179 -147.556364 
L 1206.352678 -144.837818 
L 1206.019152 -142.119273 
L 1205.743862 -139.400727 
L 1205.518589 -136.682182 
L 1205.331561 -133.963636 
L 1205.1697 -131.245091 
L 1205.020772 -128.526545 
L 1204.875099 -125.808 
L 1204.72664 -123.089455 
L 1204.573316 -120.370909 
L 1204.416613 -117.652364 
L 1204.260553 -114.933818 
L 1204.110299 -112.215273 
L 1203.970687 -109.496727 
L 1203.84505 -106.778182 
L 1203.734583 -104.059636 
L 1203.638375 -101.341091 
L 1203.553999 -98.622545 
L 1203.478442 -95.904 
z
" style="stroke: #282724; stroke-width: 1.4"/>
    </defs>
    <g clip-path="url(#pe056eed74d)">
     <use xlink:href="#ma54beb5469" x="0" y="432" style="fill: #bed4e7; stroke: #282724; stroke-width: 1.4"/>
    </g>
   </g>
   <g id="matplotlib.axis_1">
    <g id="xtick_1">
     <g id="line2d_1">
      <defs>
       <path id="m0392cdafe3" d="M 0 0 
L 0 3 
" style="stroke: #000000; stroke-width: 0.8"/>
      </defs>
      <g>
       <use xlink:href="#m0392cdafe3" x="273" y="384.48" style="stroke: #000000; stroke-width: 0.8"/>
      </g>
     </g>
     <g id="text_1">
      <!-- Test -->
      <g transform="translate(253.309375 406.176875) scale(0.2 -0.2)">
       <defs>
        <path id="DejaVuSans-54" d="M -19 4666 
L 3928 4666 
L 3928 4134 
L 2272 4134 
L 2272 0 
L 1638 0 
L 1638 4134 
L -19 4134 
L -19 4666 
z
" transform="scale(0.015625)"/>
        <path id="DejaVuSans-65" d="M 3597 1894 
L 3597 1613 
L 953 1613 
Q 991 1019 1311 708 
Q 1631 397 2203 397 
Q 2534 397 2845 478 
Q 3156 559 3463 722 
L 3463 178 
Q 3153 47 2828 -22 
Q 2503 -91 2169 -91 
Q 1331 -91 842 396 
Q 353 884 353 1716 
Q 353 2575 817 3079 
Q 1281 3584 2069 3584 
Q 2775 3584 3186 3129 
Q 3597 2675 3597 1894 
z
M 3022 2063 
Q 3016 2534 2758 2815 
Q 2500 3097 2075 3097 
Q 1594 3097 1305 2825 
Q 1016 2553 972 2059 
L 3022 2063 
z
" transform="scale(0.015625)"/>
        <path id="DejaVuSans-73" d="M 2834 3397 
L 2834 2853 
Q 2591 2978 2328 3040 
Q 2066 3103 1784 3103 
Q 1356 3103 1142 2972 
Q 928 2841 928 2578 
Q 928 2378 1081 2264 
Q 1234 2150 1697 2047 
L 1894 2003 
Q 2506 1872 2764 1633 
Q 3022 1394 3022 966 
Q 3022 478 2636 193 
Q 2250 -91 1575 -91 
Q 1294 -91 989 -36 
Q 684 19 347 128 
L 347 722 
Q 666 556 975 473 
Q 1284 391 1588 391 
Q 1994 391 2212 530 
Q 2431 669 2431 922 
Q 2431 1156 2273 1281 
Q 2116 1406 1581 1522 
L 1381 1569 
Q 847 1681 609 1914 
Q 372 2147 372 2553 
Q 372 3047 722 3315 
Q 1072 3584 1716 3584 
Q 2034 3584 2315 3537 
Q 2597 3491 2834 3397 
z
" transform="scale(0.015625)"/>
        <path id="DejaVuSans-74" d="M 1172 4494 
L 1172 3500 
L 2356 3500 
L 2356 3053 
L 1172 3053 
L 1172 1153 
Q 1172 725 1289 603 
Q 1406 481 1766 481 
L 2356 481 
L 2356 0 
L 1766 0 
Q 1100 0 847 248 
Q 594 497 594 1153 
L 594 3053 
L 172 3053 
L 172 3500 
L 594 3500 
L 594 4494 
L 1172 4494 
z
" transform="scale(0.015625)"/>
       </defs>
       <use xlink:href="#DejaVuSans-54"/>
       <use xlink:href="#DejaVuSans-65" x="44.083984"/>
       <use xlink:href="#DejaVuSans-73" x="105.607422"/>
       <use xlink:href="#DejaVuSans-74" x="157.707031"/>
      </g>
      <!-- (n=901) -->
      <g transform="translate(231.392188 428.5725) scale(0.2 -0.2)">
       <defs>
        <path id="DejaVuSans-28" d="M 1984 4856 
Q 1566 4138 1362 3434 
Q 1159 2731 1159 2009 
Q 1159 1288 1364 580 
Q 1569 -128 1984 -844 
L 1484 -844 
Q 1016 -109 783 600 
Q 550 1309 550 2009 
Q 550 2706 781 3412 
Q 1013 4119 1484 4856 
L 1984 4856 
z
" transform="scale(0.015625)"/>
        <path id="DejaVuSans-6e" d="M 3513 2113 
L 3513 0 
L 2938 0 
L 2938 2094 
Q 2938 2591 2744 2837 
Q 2550 3084 2163 3084 
Q 1697 3084 1428 2787 
Q 1159 2491 1159 1978 
L 1159 0 
L 581 0 
L 581 3500 
L 1159 3500 
L 1159 2956 
Q 1366 3272 1645 3428 
Q 1925 3584 2291 3584 
Q 2894 3584 3203 3211 
Q 3513 2838 3513 2113 
z
" transform="scale(0.015625)"/>
        <path id="DejaVuSans-3d" d="M 678 2906 
L 4684 2906 
L 4684 2381 
L 678 2381 
L 678 2906 
z
M 678 1631 
L 4684 1631 
L 4684 1100 
L 678 1100 
L 678 1631 
z
" transform="scale(0.015625)"/>
        <path id="DejaVuSans-39" d="M 703 97 
L 703 672 
Q 941 559 1184 500 
Q 1428 441 1663 441 
Q 2288 441 2617 861 
Q 2947 1281 2994 2138 
Q 2813 1869 2534 1725 
Q 2256 1581 1919 1581 
Q 1219 1581 811 2004 
Q 403 2428 403 3163 
Q 403 3881 828 4315 
Q 1253 4750 1959 4750 
Q 2769 4750 3195 4129 
Q 3622 3509 3622 2328 
Q 3622 1225 3098 567 
Q 2575 -91 1691 -91 
Q 1453 -91 1209 -44 
Q 966 3 703 97 
z
M 1959 2075 
Q 2384 2075 2632 2365 
Q 2881 2656 2881 3163 
Q 2881 3666 2632 3958 
Q 2384 4250 1959 4250 
Q 1534 4250 1286 3958 
Q 1038 3666 1038 3163 
Q 1038 2656 1286 2365 
Q 1534 2075 1959 2075 
z
" transform="scale(0.015625)"/>
        <path id="DejaVuSans-30" d="M 2034 4250 
Q 1547 4250 1301 3770 
Q 1056 3291 1056 2328 
Q 1056 1369 1301 889 
Q 1547 409 2034 409 
Q 2525 409 2770 889 
Q 3016 1369 3016 2328 
Q 3016 3291 2770 3770 
Q 2525 4250 2034 4250 
z
M 2034 4750 
Q 2819 4750 3233 4129 
Q 3647 3509 3647 2328 
Q 3647 1150 3233 529 
Q 2819 -91 2034 -91 
Q 1250 -91 836 529 
Q 422 1150 422 2328 
Q 422 3509 836 4129 
Q 1250 4750 2034 4750 
z
" transform="scale(0.015625)"/>
        <path id="DejaVuSans-31" d="M 794 531 
L 1825 531 
L 1825 4091 
L 703 3866 
L 703 4441 
L 1819 4666 
L 2450 4666 
L 2450 531 
L 3481 531 
L 3481 0 
L 794 0 
L 794 531 
z
" transform="scale(0.015625)"/>
        <path id="DejaVuSans-29" d="M 513 4856 
L 1013 4856 
Q 1481 4119 1714 3412 
Q 1947 2706 1947 2009 
Q 1947 1309 1714 600 
Q 1481 -109 1013 -844 
L 513 -844 
Q 928 -128 1133 580 
Q 1338 1288 1338 2009 
Q 1338 2731 1133 3434 
Q 928 4138 513 4856 
z
" transform="scale(0.015625)"/>
       </defs>
       <use xlink:href="#DejaVuSans-28"/>
       <use xlink:href="#DejaVuSans-6e" x="39.013672"/>
       <use xlink:href="#DejaVuSans-3d" x="102.392578"/>
       <use xlink:href="#DejaVuSans-39" x="186.181641"/>
       <use xlink:href="#DejaVuSans-30" x="249.804688"/>
       <use xlink:href="#DejaVuSans-31" x="313.427734"/>
       <use xlink:href="#DejaVuSans-29" x="377.050781"/>
      </g>
     </g>
    </g>
    <g id="xtick_2">
     <g id="line2d_2">
      <g>
       <use xlink:href="#m0392cdafe3" x="459" y="384.48" style="stroke: #000000; stroke-width: 0.8"/>
      </g>
     </g>
     <g id="text_2">
      <!-- Prefix -->
      <g transform="translate(430.889063 406.176875) scale(0.2 -0.2)">
       <defs>
        <path id="DejaVuSans-50" d="M 1259 4147 
L 1259 2394 
L 2053 2394 
Q 2494 2394 2734 2622 
Q 2975 2850 2975 3272 
Q 2975 3691 2734 3919 
Q 2494 4147 2053 4147 
L 1259 4147 
z
M 628 4666 
L 2053 4666 
Q 2838 4666 3239 4311 
Q 3641 3956 3641 3272 
Q 3641 2581 3239 2228 
Q 2838 1875 2053 1875 
L 1259 1875 
L 1259 0 
L 628 0 
L 628 4666 
z
" transform="scale(0.015625)"/>
        <path id="DejaVuSans-72" d="M 2631 2963 
Q 2534 3019 2420 3045 
Q 2306 3072 2169 3072 
Q 1681 3072 1420 2755 
Q 1159 2438 1159 1844 
L 1159 0 
L 581 0 
L 581 3500 
L 1159 3500 
L 1159 2956 
Q 1341 3275 1631 3429 
Q 1922 3584 2338 3584 
Q 2397 3584 2469 3576 
Q 2541 3569 2628 3553 
L 2631 2963 
z
" transform="scale(0.015625)"/>
        <path id="DejaVuSans-66" d="M 2375 4863 
L 2375 4384 
L 1825 4384 
Q 1516 4384 1395 4259 
Q 1275 4134 1275 3809 
L 1275 3500 
L 2222 3500 
L 2222 3053 
L 1275 3053 
L 1275 0 
L 697 0 
L 697 3053 
L 147 3053 
L 147 3500 
L 697 3500 
L 697 3744 
Q 697 4328 969 4595 
Q 1241 4863 1831 4863 
L 2375 4863 
z
" transform="scale(0.015625)"/>
        <path id="DejaVuSans-69" d="M 603 3500 
L 1178 3500 
L 1178 0 
L 603 0 
L 603 3500 
z
M 603 4863 
L 1178 4863 
L 1178 4134 
L 603 4134 
L 603 4863 
z
" transform="scale(0.015625)"/>
        <path id="DejaVuSans-78" d="M 3513 3500 
L 2247 1797 
L 3578 0 
L 2900 0 
L 1881 1375 
L 863 0 
L 184 0 
L 1544 1831 
L 300 3500 
L 978 3500 
L 1906 2253 
L 2834 3500 
L 3513 3500 
z
" transform="scale(0.015625)"/>
       </defs>
       <use xlink:href="#DejaVuSans-50"/>
       <use xlink:href="#DejaVuSans-72" x="58.552734"/>
       <use xlink:href="#DejaVuSans-65" x="97.416016"/>
       <use xlink:href="#DejaVuSans-66" x="158.939453"/>
       <use xlink:href="#DejaVuSans-69" x="194.144531"/>
       <use xlink:href="#DejaVuSans-78" x="221.927734"/>
      </g>
      <!-- (n=961) -->
      <g transform="translate(417.392187 428.5725) scale(0.2 -0.2)">
       <defs>
        <path id="DejaVuSans-36" d="M 2113 2584 
Q 1688 2584 1439 2293 
Q 1191 2003 1191 1497 
Q 1191 994 1439 701 
Q 1688 409 2113 409 
Q 2538 409 2786 701 
Q 3034 994 3034 1497 
Q 3034 2003 2786 2293 
Q 2538 2584 2113 2584 
z
M 3366 4563 
L 3366 3988 
Q 3128 4100 2886 4159 
Q 2644 4219 2406 4219 
Q 1781 4219 1451 3797 
Q 1122 3375 1075 2522 
Q 1259 2794 1537 2939 
Q 1816 3084 2150 3084 
Q 2853 3084 3261 2657 
Q 3669 2231 3669 1497 
Q 3669 778 3244 343 
Q 2819 -91 2113 -91 
Q 1303 -91 875 529 
Q 447 1150 447 2328 
Q 447 3434 972 4092 
Q 1497 4750 2381 4750 
Q 2619 4750 2861 4703 
Q 3103 4656 3366 4563 
z
" transform="scale(0.015625)"/>
       </defs>
       <use xlink:href="#DejaVuSans-28"/>
       <use xlink:href="#DejaVuSans-6e" x="39.013672"/>
       <use xlink:href="#DejaVuSans-3d" x="102.392578"/>
       <use xlink:href="#DejaVuSans-39" x="186.181641"/>
       <use xlink:href="#DejaVuSans-36" x="249.804688"/>
       <use xlink:href="#DejaVuSans-31" x="313.427734"/>
       <use xlink:href="#DejaVuSans-29" x="377.050781"/>
      </g>
     </g>
    </g>
    <g id="xtick_3">
     <g id="line2d_3">
      <g>
       <use xlink:href="#m0392cdafe3" x="645" y="384.48" style="stroke: #000000; stroke-width: 0.8"/>
      </g>
     </g>
     <g id="text_3">
      <!-- Finetune -->
      <g transform="translate(601.95625 406.176875) scale(0.2 -0.2)">
       <defs>
        <path id="DejaVuSans-46" d="M 628 4666 
L 3309 4666 
L 3309 4134 
L 1259 4134 
L 1259 2759 
L 3109 2759 
L 3109 2228 
L 1259 2228 
L 1259 0 
L 628 0 
L 628 4666 
z
" transform="scale(0.015625)"/>
        <path id="DejaVuSans-75" d="M 544 1381 
L 544 3500 
L 1119 3500 
L 1119 1403 
Q 1119 906 1312 657 
Q 1506 409 1894 409 
Q 2359 409 2629 706 
Q 2900 1003 2900 1516 
L 2900 3500 
L 3475 3500 
L 3475 0 
L 2900 0 
L 2900 538 
Q 2691 219 2414 64 
Q 2138 -91 1772 -91 
Q 1169 -91 856 284 
Q 544 659 544 1381 
z
M 1991 3584 
L 1991 3584 
z
" transform="scale(0.015625)"/>
       </defs>
       <use xlink:href="#DejaVuSans-46"/>
       <use xlink:href="#DejaVuSans-69" x="50.269531"/>
       <use xlink:href="#DejaVuSans-6e" x="78.052734"/>
       <use xlink:href="#DejaVuSans-65" x="141.431641"/>
       <use xlink:href="#DejaVuSans-74" x="202.955078"/>
       <use xlink:href="#DejaVuSans-75" x="242.164062"/>
       <use xlink:href="#DejaVuSans-6e" x="305.542969"/>
       <use xlink:href="#DejaVuSans-65" x="368.921875"/>
      </g>
      <!-- (n=988) -->
      <g transform="translate(603.392187 428.5725) scale(0.2 -0.2)">
       <defs>
        <path id="DejaVuSans-38" d="M 2034 2216 
Q 1584 2216 1326 1975 
Q 1069 1734 1069 1313 
Q 1069 891 1326 650 
Q 1584 409 2034 409 
Q 2484 409 2743 651 
Q 3003 894 3003 1313 
Q 3003 1734 2745 1975 
Q 2488 2216 2034 2216 
z
M 1403 2484 
Q 997 2584 770 2862 
Q 544 3141 544 3541 
Q 544 4100 942 4425 
Q 1341 4750 2034 4750 
Q 2731 4750 3128 4425 
Q 3525 4100 3525 3541 
Q 3525 3141 3298 2862 
Q 3072 2584 2669 2484 
Q 3125 2378 3379 2068 
Q 3634 1759 3634 1313 
Q 3634 634 3220 271 
Q 2806 -91 2034 -91 
Q 1263 -91 848 271 
Q 434 634 434 1313 
Q 434 1759 690 2068 
Q 947 2378 1403 2484 
z
M 1172 3481 
Q 1172 3119 1398 2916 
Q 1625 2713 2034 2713 
Q 2441 2713 2670 2916 
Q 2900 3119 2900 3481 
Q 2900 3844 2670 4047 
Q 2441 4250 2034 4250 
Q 1625 4250 1398 4047 
Q 1172 3844 1172 3481 
z
" transform="scale(0.015625)"/>
       </defs>
       <use xlink:href="#DejaVuSans-28"/>
       <use xlink:href="#DejaVuSans-6e" x="39.013672"/>
       <use xlink:href="#DejaVuSans-3d" x="102.392578"/>
       <use xlink:href="#DejaVuSans-39" x="186.181641"/>
       <use xlink:href="#DejaVuSans-38" x="249.804688"/>
       <use xlink:href="#DejaVuSans-38" x="313.427734"/>
       <use xlink:href="#DejaVuSans-29" x="377.050781"/>
      </g>
     </g>
    </g>
    <g id="xtick_4">
     <g id="line2d_4">
      <g>
       <use xlink:href="#m0392cdafe3" x="831" y="384.48" style="stroke: #000000; stroke-width: 0.8"/>
      </g>
     </g>
     <g id="text_4">
      <!-- PepLSTM -->
      <g transform="translate(786.175 406.176875) scale(0.2 -0.2)">
       <defs>
        <path id="DejaVuSans-70" d="M 1159 525 
L 1159 -1331 
L 581 -1331 
L 581 3500 
L 1159 3500 
L 1159 2969 
Q 1341 3281 1617 3432 
Q 1894 3584 2278 3584 
Q 2916 3584 3314 3078 
Q 3713 2572 3713 1747 
Q 3713 922 3314 415 
Q 2916 -91 2278 -91 
Q 1894 -91 1617 61 
Q 1341 213 1159 525 
z
M 3116 1747 
Q 3116 2381 2855 2742 
Q 2594 3103 2138 3103 
Q 1681 3103 1420 2742 
Q 1159 2381 1159 1747 
Q 1159 1113 1420 752 
Q 1681 391 2138 391 
Q 2594 391 2855 752 
Q 3116 1113 3116 1747 
z
" transform="scale(0.015625)"/>
        <path id="DejaVuSans-4c" d="M 628 4666 
L 1259 4666 
L 1259 531 
L 3531 531 
L 3531 0 
L 628 0 
L 628 4666 
z
" transform="scale(0.015625)"/>
        <path id="DejaVuSans-53" d="M 3425 4513 
L 3425 3897 
Q 3066 4069 2747 4153 
Q 2428 4238 2131 4238 
Q 1616 4238 1336 4038 
Q 1056 3838 1056 3469 
Q 1056 3159 1242 3001 
Q 1428 2844 1947 2747 
L 2328 2669 
Q 3034 2534 3370 2195 
Q 3706 1856 3706 1288 
Q 3706 609 3251 259 
Q 2797 -91 1919 -91 
Q 1588 -91 1214 -16 
Q 841 59 441 206 
L 441 856 
Q 825 641 1194 531 
Q 1563 422 1919 422 
Q 2459 422 2753 634 
Q 3047 847 3047 1241 
Q 3047 1584 2836 1778 
Q 2625 1972 2144 2069 
L 1759 2144 
Q 1053 2284 737 2584 
Q 422 2884 422 3419 
Q 422 4038 858 4394 
Q 1294 4750 2059 4750 
Q 2388 4750 2728 4690 
Q 3069 4631 3425 4513 
z
" transform="scale(0.015625)"/>
        <path id="DejaVuSans-4d" d="M 628 4666 
L 1569 4666 
L 2759 1491 
L 3956 4666 
L 4897 4666 
L 4897 0 
L 4281 0 
L 4281 4097 
L 3078 897 
L 2444 897 
L 1241 4097 
L 1241 0 
L 628 0 
L 628 4666 
z
" transform="scale(0.015625)"/>
       </defs>
       <use xlink:href="#DejaVuSans-50"/>
       <use xlink:href="#DejaVuSans-65" x="56.677734"/>
       <use xlink:href="#DejaVuSans-70" x="118.201172"/>
       <use xlink:href="#DejaVuSans-4c" x="181.677734"/>
       <use xlink:href="#DejaVuSans-53" x="237.390625"/>
       <use xlink:href="#DejaVuSans-54" x="300.867188"/>
       <use xlink:href="#DejaVuSans-4d" x="361.951172"/>
      </g>
      <!-- (n=990) -->
      <g transform="translate(789.392187 428.5725) scale(0.2 -0.2)">
       <use xlink:href="#DejaVuSans-28"/>
       <use xlink:href="#DejaVuSans-6e" x="39.013672"/>
       <use xlink:href="#DejaVuSans-3d" x="102.392578"/>
       <use xlink:href="#DejaVuSans-39" x="186.181641"/>
       <use xlink:href="#DejaVuSans-39" x="249.804688"/>
       <use xlink:href="#DejaVuSans-30" x="313.427734"/>
       <use xlink:href="#DejaVuSans-29" x="377.050781"/>
      </g>
     </g>
    </g>
    <g id="xtick_5">
     <g id="line2d_5">
      <g>
       <use xlink:href="#m0392cdafe3" x="1017" y="384.48" style="stroke: #000000; stroke-width: 0.8"/>
      </g>
     </g>
     <g id="text_5">
      <!-- PepCVAE -->
      <g transform="translate(972.485937 406.176875) scale(0.2 -0.2)">
       <defs>
        <path id="DejaVuSans-43" d="M 4122 4306 
L 4122 3641 
Q 3803 3938 3442 4084 
Q 3081 4231 2675 4231 
Q 1875 4231 1450 3742 
Q 1025 3253 1025 2328 
Q 1025 1406 1450 917 
Q 1875 428 2675 428 
Q 3081 428 3442 575 
Q 3803 722 4122 1019 
L 4122 359 
Q 3791 134 3420 21 
Q 3050 -91 2638 -91 
Q 1578 -91 968 557 
Q 359 1206 359 2328 
Q 359 3453 968 4101 
Q 1578 4750 2638 4750 
Q 3056 4750 3426 4639 
Q 3797 4528 4122 4306 
z
" transform="scale(0.015625)"/>
        <path id="DejaVuSans-56" d="M 1831 0 
L 50 4666 
L 709 4666 
L 2188 738 
L 3669 4666 
L 4325 4666 
L 2547 0 
L 1831 0 
z
" transform="scale(0.015625)"/>
        <path id="DejaVuSans-41" d="M 2188 4044 
L 1331 1722 
L 3047 1722 
L 2188 4044 
z
M 1831 4666 
L 2547 4666 
L 4325 0 
L 3669 0 
L 3244 1197 
L 1141 1197 
L 716 0 
L 50 0 
L 1831 4666 
z
" transform="scale(0.015625)"/>
        <path id="DejaVuSans-45" d="M 628 4666 
L 3578 4666 
L 3578 4134 
L 1259 4134 
L 1259 2753 
L 3481 2753 
L 3481 2222 
L 1259 2222 
L 1259 531 
L 3634 531 
L 3634 0 
L 628 0 
L 628 4666 
z
" transform="scale(0.015625)"/>
       </defs>
       <use xlink:href="#DejaVuSans-50"/>
       <use xlink:href="#DejaVuSans-65" x="56.677734"/>
       <use xlink:href="#DejaVuSans-70" x="118.201172"/>
       <use xlink:href="#DejaVuSans-43" x="181.677734"/>
       <use xlink:href="#DejaVuSans-56" x="251.501953"/>
       <use xlink:href="#DejaVuSans-41" x="313.535156"/>
       <use xlink:href="#DejaVuSans-45" x="381.943359"/>
      </g>
      <!-- (n=1000) -->
      <g transform="translate(969.029688 428.5725) scale(0.2 -0.2)">
       <use xlink:href="#DejaVuSans-28"/>
       <use xlink:href="#DejaVuSans-6e" x="39.013672"/>
       <use xlink:href="#DejaVuSans-3d" x="102.392578"/>
       <use xlink:href="#DejaVuSans-31" x="186.181641"/>
       <use xlink:href="#DejaVuSans-30" x="249.804688"/>
       <use xlink:href="#DejaVuSans-30" x="313.427734"/>
       <use xlink:href="#DejaVuSans-30" x="377.050781"/>
       <use xlink:href="#DejaVuSans-29" x="440.673828"/>
      </g>
     </g>
    </g>
    <g id="xtick_6">
     <g id="line2d_6">
      <g>
       <use xlink:href="#m0392cdafe3" x="1203" y="384.48" style="stroke: #000000; stroke-width: 0.8"/>
      </g>
     </g>
     <g id="text_6">
      <!-- Hydramp -->
      <g transform="translate(1156.884375 406.176875) scale(0.2 -0.2)">
       <defs>
        <path id="DejaVuSans-48" d="M 628 4666 
L 1259 4666 
L 1259 2753 
L 3553 2753 
L 3553 4666 
L 4184 4666 
L 4184 0 
L 3553 0 
L 3553 2222 
L 1259 2222 
L 1259 0 
L 628 0 
L 628 4666 
z
" transform="scale(0.015625)"/>
        <path id="DejaVuSans-79" d="M 2059 -325 
Q 1816 -950 1584 -1140 
Q 1353 -1331 966 -1331 
L 506 -1331 
L 506 -850 
L 844 -850 
Q 1081 -850 1212 -737 
Q 1344 -625 1503 -206 
L 1606 56 
L 191 3500 
L 800 3500 
L 1894 763 
L 2988 3500 
L 3597 3500 
L 2059 -325 
z
" transform="scale(0.015625)"/>
        <path id="DejaVuSans-64" d="M 2906 2969 
L 2906 4863 
L 3481 4863 
L 3481 0 
L 2906 0 
L 2906 525 
Q 2725 213 2448 61 
Q 2172 -91 1784 -91 
Q 1150 -91 751 415 
Q 353 922 353 1747 
Q 353 2572 751 3078 
Q 1150 3584 1784 3584 
Q 2172 3584 2448 3432 
Q 2725 3281 2906 2969 
z
M 947 1747 
Q 947 1113 1208 752 
Q 1469 391 1925 391 
Q 2381 391 2643 752 
Q 2906 1113 2906 1747 
Q 2906 2381 2643 2742 
Q 2381 3103 1925 3103 
Q 1469 3103 1208 2742 
Q 947 2381 947 1747 
z
" transform="scale(0.015625)"/>
        <path id="DejaVuSans-61" d="M 2194 1759 
Q 1497 1759 1228 1600 
Q 959 1441 959 1056 
Q 959 750 1161 570 
Q 1363 391 1709 391 
Q 2188 391 2477 730 
Q 2766 1069 2766 1631 
L 2766 1759 
L 2194 1759 
z
M 3341 1997 
L 3341 0 
L 2766 0 
L 2766 531 
Q 2569 213 2275 61 
Q 1981 -91 1556 -91 
Q 1019 -91 701 211 
Q 384 513 384 1019 
Q 384 1609 779 1909 
Q 1175 2209 1959 2209 
L 2766 2209 
L 2766 2266 
Q 2766 2663 2505 2880 
Q 2244 3097 1772 3097 
Q 1472 3097 1187 3025 
Q 903 2953 641 2809 
L 641 3341 
Q 956 3463 1253 3523 
Q 1550 3584 1831 3584 
Q 2591 3584 2966 3190 
Q 3341 2797 3341 1997 
z
" transform="scale(0.015625)"/>
        <path id="DejaVuSans-6d" d="M 3328 2828 
Q 3544 3216 3844 3400 
Q 4144 3584 4550 3584 
Q 5097 3584 5394 3201 
Q 5691 2819 5691 2113 
L 5691 0 
L 5113 0 
L 5113 2094 
Q 5113 2597 4934 2840 
Q 4756 3084 4391 3084 
Q 3944 3084 3684 2787 
Q 3425 2491 3425 1978 
L 3425 0 
L 2847 0 
L 2847 2094 
Q 2847 2600 2669 2842 
Q 2491 3084 2119 3084 
Q 1678 3084 1418 2786 
Q 1159 2488 1159 1978 
L 1159 0 
L 581 0 
L 581 3500 
L 1159 3500 
L 1159 2956 
Q 1356 3278 1631 3431 
Q 1906 3584 2284 3584 
Q 2666 3584 2933 3390 
Q 3200 3197 3328 2828 
z
" transform="scale(0.015625)"/>
       </defs>
       <use xlink:href="#DejaVuSans-48"/>
       <use xlink:href="#DejaVuSans-79" x="75.195312"/>
       <use xlink:href="#DejaVuSans-64" x="134.375"/>
       <use xlink:href="#DejaVuSans-72" x="197.851562"/>
       <use xlink:href="#DejaVuSans-61" x="238.964844"/>
       <use xlink:href="#DejaVuSans-6d" x="300.244141"/>
       <use xlink:href="#DejaVuSans-70" x="397.65625"/>
      </g>
      <!-- (n=1000) -->
      <g transform="translate(1155.029687 428.5725) scale(0.2 -0.2)">
       <use xlink:href="#DejaVuSans-28"/>
       <use xlink:href="#DejaVuSans-6e" x="39.013672"/>
       <use xlink:href="#DejaVuSans-3d" x="102.392578"/>
       <use xlink:href="#DejaVuSans-31" x="186.181641"/>
       <use xlink:href="#DejaVuSans-30" x="249.804688"/>
       <use xlink:href="#DejaVuSans-30" x="313.427734"/>
       <use xlink:href="#DejaVuSans-30" x="377.050781"/>
       <use xlink:href="#DejaVuSans-29" x="440.673828"/>
      </g>
     </g>
    </g>
    <g id="text_7">
     <!-- Methods -->
     <g transform="translate(694.24875 450.409063) scale(0.18 -0.18)">
      <defs>
       <path id="DejaVuSans-Bold-4d" d="M 588 4666 
L 2119 4666 
L 3181 2169 
L 4250 4666 
L 5778 4666 
L 5778 0 
L 4641 0 
L 4641 3413 
L 3566 897 
L 2803 897 
L 1728 3413 
L 1728 0 
L 588 0 
L 588 4666 
z
" transform="scale(0.015625)"/>
       <path id="DejaVuSans-Bold-65" d="M 4031 1759 
L 4031 1441 
L 1416 1441 
Q 1456 1047 1700 850 
Q 1944 653 2381 653 
Q 2734 653 3104 758 
Q 3475 863 3866 1075 
L 3866 213 
Q 3469 63 3072 -14 
Q 2675 -91 2278 -91 
Q 1328 -91 801 392 
Q 275 875 275 1747 
Q 275 2603 792 3093 
Q 1309 3584 2216 3584 
Q 3041 3584 3536 3087 
Q 4031 2591 4031 1759 
z
M 2881 2131 
Q 2881 2450 2695 2645 
Q 2509 2841 2209 2841 
Q 1884 2841 1681 2658 
Q 1478 2475 1428 2131 
L 2881 2131 
z
" transform="scale(0.015625)"/>
       <path id="DejaVuSans-Bold-74" d="M 1759 4494 
L 1759 3500 
L 2913 3500 
L 2913 2700 
L 1759 2700 
L 1759 1216 
Q 1759 972 1856 886 
Q 1953 800 2241 800 
L 2816 800 
L 2816 0 
L 1856 0 
Q 1194 0 917 276 
Q 641 553 641 1216 
L 641 2700 
L 84 2700 
L 84 3500 
L 641 3500 
L 641 4494 
L 1759 4494 
z
" transform="scale(0.015625)"/>
       <path id="DejaVuSans-Bold-68" d="M 4056 2131 
L 4056 0 
L 2931 0 
L 2931 347 
L 2931 1625 
Q 2931 2084 2911 2256 
Q 2891 2428 2841 2509 
Q 2775 2619 2662 2680 
Q 2550 2741 2406 2741 
Q 2056 2741 1856 2470 
Q 1656 2200 1656 1722 
L 1656 0 
L 538 0 
L 538 4863 
L 1656 4863 
L 1656 2988 
Q 1909 3294 2193 3439 
Q 2478 3584 2822 3584 
Q 3428 3584 3742 3212 
Q 4056 2841 4056 2131 
z
" transform="scale(0.015625)"/>
       <path id="DejaVuSans-Bold-6f" d="M 2203 2784 
Q 1831 2784 1636 2517 
Q 1441 2250 1441 1747 
Q 1441 1244 1636 976 
Q 1831 709 2203 709 
Q 2569 709 2762 976 
Q 2956 1244 2956 1747 
Q 2956 2250 2762 2517 
Q 2569 2784 2203 2784 
z
M 2203 3584 
Q 3106 3584 3614 3096 
Q 4122 2609 4122 1747 
Q 4122 884 3614 396 
Q 3106 -91 2203 -91 
Q 1297 -91 786 396 
Q 275 884 275 1747 
Q 275 2609 786 3096 
Q 1297 3584 2203 3584 
z
" transform="scale(0.015625)"/>
       <path id="DejaVuSans-Bold-64" d="M 2919 2988 
L 2919 4863 
L 4044 4863 
L 4044 0 
L 2919 0 
L 2919 506 
Q 2688 197 2409 53 
Q 2131 -91 1766 -91 
Q 1119 -91 703 423 
Q 288 938 288 1747 
Q 288 2556 703 3070 
Q 1119 3584 1766 3584 
Q 2128 3584 2408 3439 
Q 2688 3294 2919 2988 
z
M 2181 722 
Q 2541 722 2730 984 
Q 2919 1247 2919 1747 
Q 2919 2247 2730 2509 
Q 2541 2772 2181 2772 
Q 1825 2772 1636 2509 
Q 1447 2247 1447 1747 
Q 1447 1247 1636 984 
Q 1825 722 2181 722 
z
" transform="scale(0.015625)"/>
       <path id="DejaVuSans-Bold-73" d="M 3272 3391 
L 3272 2541 
Q 2913 2691 2578 2766 
Q 2244 2841 1947 2841 
Q 1628 2841 1473 2761 
Q 1319 2681 1319 2516 
Q 1319 2381 1436 2309 
Q 1553 2238 1856 2203 
L 2053 2175 
Q 2913 2066 3209 1816 
Q 3506 1566 3506 1031 
Q 3506 472 3093 190 
Q 2681 -91 1863 -91 
Q 1516 -91 1145 -36 
Q 775 19 384 128 
L 384 978 
Q 719 816 1070 734 
Q 1422 653 1784 653 
Q 2113 653 2278 743 
Q 2444 834 2444 1013 
Q 2444 1163 2330 1236 
Q 2216 1309 1875 1350 
L 1678 1375 
Q 931 1469 631 1722 
Q 331 1975 331 2491 
Q 331 3047 712 3315 
Q 1094 3584 1881 3584 
Q 2191 3584 2531 3537 
Q 2872 3491 3272 3391 
z
" transform="scale(0.015625)"/>
      </defs>
      <use xlink:href="#DejaVuSans-Bold-4d"/>
      <use xlink:href="#DejaVuSans-Bold-65" x="99.511719"/>
      <use xlink:href="#DejaVuSans-Bold-74" x="167.333984"/>
      <use xlink:href="#DejaVuSans-Bold-68" x="215.136719"/>
      <use xlink:href="#DejaVuSans-Bold-6f" x="286.328125"/>
      <use xlink:href="#DejaVuSans-Bold-64" x="355.029297"/>
      <use xlink:href="#DejaVuSans-Bold-73" x="426.611328"/>
     </g>
    </g>
   </g>
   <g id="matplotlib.axis_2">
    <g id="ytick_1">
     <g id="line2d_7">
      <defs>
       <path id="m49e4ea98b1" d="M 0 0 
L -3 0 
" style="stroke: #000000; stroke-width: 0.8"/>
      </defs>
      <g>
       <use xlink:href="#m49e4ea98b1" x="180" y="308.88" style="stroke: #000000; stroke-width: 0.8"/>
      </g>
     </g>
     <g id="text_8">
      <!-- 0.2 -->
      <g transform="translate(141.69375 316.478437) scale(0.2 -0.2)">
       <defs>
        <path id="DejaVuSans-2e" d="M 684 794 
L 1344 794 
L 1344 0 
L 684 0 
L 684 794 
z
" transform="scale(0.015625)"/>
        <path id="DejaVuSans-32" d="M 1228 531 
L 3431 531 
L 3431 0 
L 469 0 
L 469 531 
Q 828 903 1448 1529 
Q 2069 2156 2228 2338 
Q 2531 2678 2651 2914 
Q 2772 3150 2772 3378 
Q 2772 3750 2511 3984 
Q 2250 4219 1831 4219 
Q 1534 4219 1204 4116 
Q 875 4013 500 3803 
L 500 4441 
Q 881 4594 1212 4672 
Q 1544 4750 1819 4750 
Q 2544 4750 2975 4387 
Q 3406 4025 3406 3419 
Q 3406 3131 3298 2873 
Q 3191 2616 2906 2266 
Q 2828 2175 2409 1742 
Q 1991 1309 1228 531 
z
" transform="scale(0.015625)"/>
       </defs>
       <use xlink:href="#DejaVuSans-30"/>
       <use xlink:href="#DejaVuSans-2e" x="63.623047"/>
       <use xlink:href="#DejaVuSans-32" x="95.410156"/>
      </g>
     </g>
    </g>
    <g id="ytick_2">
     <g id="line2d_8">
      <g>
       <use xlink:href="#m49e4ea98b1" x="180" y="248.4" style="stroke: #000000; stroke-width: 0.8"/>
      </g>
     </g>
     <g id="text_9">
      <!-- 0.4 -->
      <g transform="translate(141.69375 255.998437) scale(0.2 -0.2)">
       <defs>
        <path id="DejaVuSans-34" d="M 2419 4116 
L 825 1625 
L 2419 1625 
L 2419 4116 
z
M 2253 4666 
L 3047 4666 
L 3047 1625 
L 3713 1625 
L 3713 1100 
L 3047 1100 
L 3047 0 
L 2419 0 
L 2419 1100 
L 313 1100 
L 313 1709 
L 2253 4666 
z
" transform="scale(0.015625)"/>
       </defs>
       <use xlink:href="#DejaVuSans-30"/>
       <use xlink:href="#DejaVuSans-2e" x="63.623047"/>
       <use xlink:href="#DejaVuSans-34" x="95.410156"/>
      </g>
     </g>
    </g>
    <g id="ytick_3">
     <g id="line2d_9">
      <g>
       <use xlink:href="#m49e4ea98b1" x="180" y="187.92" style="stroke: #000000; stroke-width: 0.8"/>
      </g>
     </g>
     <g id="text_10">
      <!-- 0.6 -->
      <g transform="translate(141.69375 195.518437) scale(0.2 -0.2)">
       <use xlink:href="#DejaVuSans-30"/>
       <use xlink:href="#DejaVuSans-2e" x="63.623047"/>
       <use xlink:href="#DejaVuSans-36" x="95.410156"/>
      </g>
     </g>
    </g>
    <g id="ytick_4">
     <g id="line2d_10">
      <g>
       <use xlink:href="#m49e4ea98b1" x="180" y="127.44" style="stroke: #000000; stroke-width: 0.8"/>
      </g>
     </g>
     <g id="text_11">
      <!-- 0.8 -->
      <g transform="translate(141.69375 135.038437) scale(0.2 -0.2)">
       <use xlink:href="#DejaVuSans-30"/>
       <use xlink:href="#DejaVuSans-2e" x="63.623047"/>
       <use xlink:href="#DejaVuSans-38" x="95.410156"/>
      </g>
     </g>
    </g>
    <g id="text_12">
     <!-- P(AMP) -->
     <g transform="translate(133.534375 259.650625) rotate(-90) scale(0.2 -0.2)">
      <defs>
       <path id="DejaVuSans-Bold-50" d="M 588 4666 
L 2584 4666 
Q 3475 4666 3951 4270 
Q 4428 3875 4428 3144 
Q 4428 2409 3951 2014 
Q 3475 1619 2584 1619 
L 1791 1619 
L 1791 0 
L 588 0 
L 588 4666 
z
M 1791 3794 
L 1791 2491 
L 2456 2491 
Q 2806 2491 2997 2661 
Q 3188 2831 3188 3144 
Q 3188 3456 2997 3625 
Q 2806 3794 2456 3794 
L 1791 3794 
z
" transform="scale(0.015625)"/>
       <path id="DejaVuSans-Bold-28" d="M 2413 -844 
L 1484 -844 
Q 1006 -72 778 623 
Q 550 1319 550 2003 
Q 550 2688 779 3389 
Q 1009 4091 1484 4856 
L 2413 4856 
Q 2013 4116 1813 3408 
Q 1613 2700 1613 2009 
Q 1613 1319 1811 609 
Q 2009 -100 2413 -844 
z
" transform="scale(0.015625)"/>
       <path id="DejaVuSans-Bold-41" d="M 3419 850 
L 1538 850 
L 1241 0 
L 31 0 
L 1759 4666 
L 3194 4666 
L 4922 0 
L 3713 0 
L 3419 850 
z
M 1838 1716 
L 3116 1716 
L 2478 3572 
L 1838 1716 
z
" transform="scale(0.015625)"/>
       <path id="DejaVuSans-Bold-29" d="M 513 -844 
Q 913 -100 1113 609 
Q 1313 1319 1313 2009 
Q 1313 2700 1113 3408 
Q 913 4116 513 4856 
L 1441 4856 
Q 1916 4091 2145 3389 
Q 2375 2688 2375 2003 
Q 2375 1319 2147 623 
Q 1919 -72 1441 -844 
L 513 -844 
z
" transform="scale(0.015625)"/>
      </defs>
      <use xlink:href="#DejaVuSans-Bold-50"/>
      <use xlink:href="#DejaVuSans-Bold-28" x="73.291016"/>
      <use xlink:href="#DejaVuSans-Bold-41" x="118.994141"/>
      <use xlink:href="#DejaVuSans-Bold-4d" x="196.386719"/>
      <use xlink:href="#DejaVuSans-Bold-50" x="295.898438"/>
      <use xlink:href="#DejaVuSans-Bold-29" x="369.189453"/>
     </g>
    </g>
   </g>
   <g id="line2d_11">
    <path d="M 245.1 142.56 
L 300.9 142.56 
L 300.9 79.056 
L 245.1 79.056 
L 245.1 142.56 
" clip-path="url(#pe056eed74d)" style="fill: none; stroke: #747473; stroke-width: 1.5; stroke-linecap: square"/>
   </g>
   <g id="line2d_12">
    <path d="M 273 142.56 
L 273 233.28 
" clip-path="url(#pe056eed74d)" style="fill: none; stroke: #747473; stroke-width: 1.5; stroke-linecap: square"/>
   </g>
   <g id="line2d_13">
    <path d="M 273 79.056 
L 273 66.96 
" clip-path="url(#pe056eed74d)" style="fill: none; stroke: #747473; stroke-width: 1.5; stroke-linecap: square"/>
   </g>
   <g id="line2d_14">
    <path d="M 431.1 130.464 
L 486.9 130.464 
L 486.9 79.056 
L 431.1 79.056 
L 431.1 130.464 
" clip-path="url(#pe056eed74d)" style="fill: none; stroke: #747473; stroke-width: 1.5; stroke-linecap: square"/>
   </g>
   <g id="line2d_15">
    <path d="M 459 130.464 
L 459 203.04 
" clip-path="url(#pe056eed74d)" style="fill: none; stroke: #747473; stroke-width: 1.5; stroke-linecap: square"/>
   </g>
   <g id="line2d_16">
    <path d="M 459 79.056 
L 459 66.96 
" clip-path="url(#pe056eed74d)" style="fill: none; stroke: #747473; stroke-width: 1.5; stroke-linecap: square"/>
   </g>
   <g id="line2d_17">
    <path d="M 617.1 139.536 
L 672.9 139.536 
L 672.9 79.056 
L 617.1 79.056 
L 617.1 139.536 
" clip-path="url(#pe056eed74d)" style="fill: none; stroke: #747473; stroke-width: 1.5; stroke-linecap: square"/>
   </g>
   <g id="line2d_18">
    <path d="M 645 139.536 
L 645 221.184 
" clip-path="url(#pe056eed74d)" style="fill: none; stroke: #747473; stroke-width: 1.5; stroke-linecap: square"/>
   </g>
   <g id="line2d_19">
    <path d="M 645 79.056 
L 645 66.96 
" clip-path="url(#pe056eed74d)" style="fill: none; stroke: #747473; stroke-width: 1.5; stroke-linecap: square"/>
   </g>
   <g id="line2d_20">
    <path d="M 803.1 205.308 
L 858.9 205.308 
L 858.9 79.056 
L 803.1 79.056 
L 803.1 205.308 
" clip-path="url(#pe056eed74d)" style="fill: none; stroke: #747473; stroke-width: 1.5; stroke-linecap: square"/>
   </g>
   <g id="line2d_21">
    <path d="M 831 205.308 
L 831 369.36 
" clip-path="url(#pe056eed74d)" style="fill: none; stroke: #747473; stroke-width: 1.5; stroke-linecap: square"/>
   </g>
   <g id="line2d_22">
    <path d="M 831 79.056 
L 831 66.96 
" clip-path="url(#pe056eed74d)" style="fill: none; stroke: #747473; stroke-width: 1.5; stroke-linecap: square"/>
   </g>
   <g id="line2d_23">
    <path d="M 989.1 184.896 
L 1044.9 184.896 
L 1044.9 112.32 
L 989.1 112.32 
L 989.1 184.896 
" clip-path="url(#pe056eed74d)" style="fill: none; stroke: #747473; stroke-width: 1.5; stroke-linecap: square"/>
   </g>
   <g id="line2d_24">
    <path d="M 1017 184.896 
L 1017 293.76 
" clip-path="url(#pe056eed74d)" style="fill: none; stroke: #747473; stroke-width: 1.5; stroke-linecap: square"/>
   </g>
   <g id="line2d_25">
    <path d="M 1017 112.32 
L 1017 66.96 
" clip-path="url(#pe056eed74d)" style="fill: none; stroke: #747473; stroke-width: 1.5; stroke-linecap: square"/>
   </g>
   <g id="line2d_26">
    <path d="M 1175.1 203.04 
L 1230.9 203.04 
L 1230.9 133.488 
L 1175.1 133.488 
L 1175.1 203.04 
" clip-path="url(#pe056eed74d)" style="fill: none; stroke: #747473; stroke-width: 1.5; stroke-linecap: square"/>
   </g>
   <g id="line2d_27">
    <path d="M 1203 203.04 
L 1203 305.856 
" clip-path="url(#pe056eed74d)" style="fill: none; stroke: #747473; stroke-width: 1.5; stroke-linecap: square"/>
   </g>
   <g id="line2d_28">
    <path d="M 1203 133.488 
L 1203 66.96 
" clip-path="url(#pe056eed74d)" style="fill: none; stroke: #747473; stroke-width: 1.5; stroke-linecap: square"/>
   </g>
   <g id="line2d_29">
    <path d="M 245.1 106.272 
L 300.9 106.272 
" clip-path="url(#pe056eed74d)" style="fill: none; stroke: #747473; stroke-width: 2"/>
   </g>
   <g id="line2d_30">
    <path d="M 431.1 97.2 
L 486.9 97.2 
" clip-path="url(#pe056eed74d)" style="fill: none; stroke: #747473; stroke-width: 2"/>
   </g>
   <g id="line2d_31">
    <path d="M 617.1 106.272 
L 672.9 106.272 
" clip-path="url(#pe056eed74d)" style="fill: none; stroke: #747473; stroke-width: 2"/>
   </g>
   <g id="line2d_32">
    <path d="M 803.1 127.44 
L 858.9 127.44 
" clip-path="url(#pe056eed74d)" style="fill: none; stroke: #747473; stroke-width: 2"/>
   </g>
   <g id="line2d_33">
    <path d="M 989.1 147.096 
L 1044.9 147.096 
" clip-path="url(#pe056eed74d)" style="fill: none; stroke: #747473; stroke-width: 2"/>
   </g>
   <g id="line2d_34">
    <path d="M 1175.1 166.752 
L 1230.9 166.752 
" clip-path="url(#pe056eed74d)" style="fill: none; stroke: #747473; stroke-width: 2"/>
   </g>
   <g id="patch_3">
    <path d="M 180 384.48 
L 180 51.84 
" style="fill: none; stroke: #b4aea9; stroke-width: 2; stroke-linejoin: miter; stroke-linecap: square"/>
   </g>
   <g id="patch_4">
    <path d="M 1296 384.48 
L 1296 51.84 
" style="fill: none"/>
   </g>
   <g id="patch_5">
    <path d="M 180 384.48 
L 1296 384.48 
" style="fill: none; stroke: #b4aea9; stroke-width: 2; stroke-linejoin: miter; stroke-linecap: square"/>
   </g>
   <g id="patch_6">
    <path d="M 180 51.84 
L 1296 51.84 
" style="fill: none"/>
   </g>
   <g id="line2d_35">
    <path d="M 273 119.854828 
L 319.5 119.854828 
" clip-path="url(#pe056eed74d)" style="fill: none; stroke-dasharray: 9.6,2.4,1.5,2.4; stroke-dashoffset: 0; stroke: #000000; stroke-width: 1.5"/>
   </g>
   <g id="line2d_36">
    <path d="M 459 108.757911 
L 505.5 108.757911 
" clip-path="url(#pe056eed74d)" style="fill: none; stroke-dasharray: 9.6,2.4,1.5,2.4; stroke-dashoffset: 0; stroke: #000000; stroke-width: 1.5"/>
   </g>
   <g id="line2d_37">
    <path d="M 645 115.751077 
L 691.5 115.751077 
" clip-path="url(#pe056eed74d)" style="fill: none; stroke-dasharray: 9.6,2.4,1.5,2.4; stroke-dashoffset: 0; stroke: #000000; stroke-width: 1.5"/>
   </g>
   <g id="line2d_38">
    <path d="M 831 147.358691 
L 877.5 147.358691 
" clip-path="url(#pe056eed74d)" style="fill: none; stroke-dasharray: 9.6,2.4,1.5,2.4; stroke-dashoffset: 0; stroke: #000000; stroke-width: 1.5"/>
   </g>
   <g id="line2d_39">
    <path d="M 1017 150.963696 
L 1063.5 150.963696 
" clip-path="url(#pe056eed74d)" style="fill: none; stroke-dasharray: 9.6,2.4,1.5,2.4; stroke-dashoffset: 0; stroke: #000000; stroke-width: 1.5"/>
   </g>
   <g id="line2d_40">
    <path d="M 1203 169.53408 
L 1249.5 169.53408 
" clip-path="url(#pe056eed74d)" style="fill: none; stroke-dasharray: 9.6,2.4,1.5,2.4; stroke-dashoffset: 0; stroke: #000000; stroke-width: 1.5"/>
   </g>
   <g id="text_13">
    <g id="patch_7">
     <path d="M 319.5 129.363422 
L 420.3 129.363422 
Q 422.55 129.363422 422.55 127.113422 
L 422.55 112.596234 
Q 422.55 110.346234 420.3 110.346234 
L 319.5 110.346234 
Q 317.25 110.346234 317.25 112.596234 
L 317.25 127.113422 
Q 317.25 129.363422 319.5 129.363422 
z
" style="fill: #ffffff; stroke: #000000; stroke-linejoin: miter"/>
    </g>
    <!-- ${\mu}_{\rm{mean}} = $0.825 -->
    <g transform="translate(319.5 123.963422) scale(0.15 -0.15)">
     <defs>
      <path id="DejaVuSans-Oblique-3bc" d="M -84 -1331 
L 856 3500 
L 1434 3500 
L 1009 1322 
Q 997 1256 987 1175 
Q 978 1094 978 1013 
Q 978 722 1161 565 
Q 1344 409 1684 409 
Q 2147 409 2431 671 
Q 2716 934 2816 1459 
L 3213 3500 
L 3788 3500 
L 3266 809 
Q 3253 750 3248 706 
Q 3244 663 3244 628 
Q 3244 531 3283 486 
Q 3322 441 3406 441 
Q 3438 441 3492 456 
Q 3547 472 3647 513 
L 3559 50 
Q 3422 -19 3297 -55 
Q 3172 -91 3053 -91 
Q 2847 -91 2730 40 
Q 2613 172 2613 403 
Q 2438 153 2195 31 
Q 1953 -91 1625 -91 
Q 1334 -91 1117 43 
Q 900 178 831 397 
L 494 -1331 
L -84 -1331 
z
" transform="scale(0.015625)"/>
      <path id="DejaVuSans-35" d="M 691 4666 
L 3169 4666 
L 3169 4134 
L 1269 4134 
L 1269 2991 
Q 1406 3038 1543 3061 
Q 1681 3084 1819 3084 
Q 2600 3084 3056 2656 
Q 3513 2228 3513 1497 
Q 3513 744 3044 326 
Q 2575 -91 1722 -91 
Q 1428 -91 1123 -41 
Q 819 9 494 109 
L 494 744 
Q 775 591 1075 516 
Q 1375 441 1709 441 
Q 2250 441 2565 725 
Q 2881 1009 2881 1497 
Q 2881 1984 2565 2268 
Q 2250 2553 1709 2553 
Q 1456 2553 1204 2497 
Q 953 2441 691 2322 
L 691 4666 
z
" transform="scale(0.015625)"/>
     </defs>
     <use xlink:href="#DejaVuSans-Oblique-3bc" transform="translate(0 0.78125)"/>
     <use xlink:href="#DejaVuSans-6d" transform="translate(63.623047 -15.625) scale(0.7)"/>
     <use xlink:href="#DejaVuSans-65" transform="translate(131.811523 -15.625) scale(0.7)"/>
     <use xlink:href="#DejaVuSans-61" transform="translate(174.87793 -15.625) scale(0.7)"/>
     <use xlink:href="#DejaVuSans-6e" transform="translate(217.773438 -15.625) scale(0.7)"/>
     <use xlink:href="#DejaVuSans-3d" transform="translate(284.355469 0.78125)"/>
     <use xlink:href="#DejaVuSans-30" transform="translate(387.626953 0.78125)"/>
     <use xlink:href="#DejaVuSans-2e" transform="translate(451.25 0.78125)"/>
     <use xlink:href="#DejaVuSans-38" transform="translate(480.412109 0.78125)"/>
     <use xlink:href="#DejaVuSans-32" transform="translate(544.035156 0.78125)"/>
     <use xlink:href="#DejaVuSans-35" transform="translate(607.658203 0.78125)"/>
    </g>
   </g>
   <g id="text_14">
    <g id="patch_8">
     <path d="M 505.5 118.266504 
L 606.3 118.266504 
Q 608.55 118.266504 608.55 116.016504 
L 608.55 101.499317 
Q 608.55 99.249317 606.3 99.249317 
L 505.5 99.249317 
Q 503.25 99.249317 503.25 101.499317 
L 503.25 116.016504 
Q 503.25 118.266504 505.5 118.266504 
z
" style="fill: #ffffff; stroke: #000000; stroke-linejoin: miter"/>
    </g>
    <!-- ${\mu}_{\rm{mean}} = $0.862 -->
    <g transform="translate(505.5 112.866504) scale(0.15 -0.15)">
     <use xlink:href="#DejaVuSans-Oblique-3bc" transform="translate(0 0.78125)"/>
     <use xlink:href="#DejaVuSans-6d" transform="translate(63.623047 -15.625) scale(0.7)"/>
     <use xlink:href="#DejaVuSans-65" transform="translate(131.811523 -15.625) scale(0.7)"/>
     <use xlink:href="#DejaVuSans-61" transform="translate(174.87793 -15.625) scale(0.7)"/>
     <use xlink:href="#DejaVuSans-6e" transform="translate(217.773438 -15.625) scale(0.7)"/>
     <use xlink:href="#DejaVuSans-3d" transform="translate(284.355469 0.78125)"/>
     <use xlink:href="#DejaVuSans-30" transform="translate(387.626953 0.78125)"/>
     <use xlink:href="#DejaVuSans-2e" transform="translate(451.25 0.78125)"/>
     <use xlink:href="#DejaVuSans-38" transform="translate(480.412109 0.78125)"/>
     <use xlink:href="#DejaVuSans-36" transform="translate(544.035156 0.78125)"/>
     <use xlink:href="#DejaVuSans-32" transform="translate(607.658203 0.78125)"/>
    </g>
   </g>
   <g id="text_15">
    <g id="patch_9">
     <path d="M 691.5 125.259671 
L 792.3 125.259671 
Q 794.55 125.259671 794.55 123.009671 
L 794.55 108.492483 
Q 794.55 106.242483 792.3 106.242483 
L 691.5 106.242483 
Q 689.25 106.242483 689.25 108.492483 
L 689.25 123.009671 
Q 689.25 125.259671 691.5 125.259671 
z
" style="fill: #ffffff; stroke: #000000; stroke-linejoin: miter"/>
    </g>
    <!-- ${\mu}_{\rm{mean}} = $0.839 -->
    <g transform="translate(691.5 119.859671) scale(0.15 -0.15)">
     <defs>
      <path id="DejaVuSans-33" d="M 2597 2516 
Q 3050 2419 3304 2112 
Q 3559 1806 3559 1356 
Q 3559 666 3084 287 
Q 2609 -91 1734 -91 
Q 1441 -91 1130 -33 
Q 819 25 488 141 
L 488 750 
Q 750 597 1062 519 
Q 1375 441 1716 441 
Q 2309 441 2620 675 
Q 2931 909 2931 1356 
Q 2931 1769 2642 2001 
Q 2353 2234 1838 2234 
L 1294 2234 
L 1294 2753 
L 1863 2753 
Q 2328 2753 2575 2939 
Q 2822 3125 2822 3475 
Q 2822 3834 2567 4026 
Q 2313 4219 1838 4219 
Q 1578 4219 1281 4162 
Q 984 4106 628 3988 
L 628 4550 
Q 988 4650 1302 4700 
Q 1616 4750 1894 4750 
Q 2613 4750 3031 4423 
Q 3450 4097 3450 3541 
Q 3450 3153 3228 2886 
Q 3006 2619 2597 2516 
z
" transform="scale(0.015625)"/>
     </defs>
     <use xlink:href="#DejaVuSans-Oblique-3bc" transform="translate(0 0.78125)"/>
     <use xlink:href="#DejaVuSans-6d" transform="translate(63.623047 -15.625) scale(0.7)"/>
     <use xlink:href="#DejaVuSans-65" transform="translate(131.811523 -15.625) scale(0.7)"/>
     <use xlink:href="#DejaVuSans-61" transform="translate(174.87793 -15.625) scale(0.7)"/>
     <use xlink:href="#DejaVuSans-6e" transform="translate(217.773438 -15.625) scale(0.7)"/>
     <use xlink:href="#DejaVuSans-3d" transform="translate(284.355469 0.78125)"/>
     <use xlink:href="#DejaVuSans-30" transform="translate(387.626953 0.78125)"/>
     <use xlink:href="#DejaVuSans-2e" transform="translate(451.25 0.78125)"/>
     <use xlink:href="#DejaVuSans-38" transform="translate(480.412109 0.78125)"/>
     <use xlink:href="#DejaVuSans-33" transform="translate(544.035156 0.78125)"/>
     <use xlink:href="#DejaVuSans-39" transform="translate(607.658203 0.78125)"/>
    </g>
   </g>
   <g id="text_16">
    <g id="patch_10">
     <path d="M 877.5 156.867285 
L 977.55 156.867285 
Q 979.8 156.867285 979.8 154.617285 
L 979.8 140.100097 
Q 979.8 137.850097 977.55 137.850097 
L 877.5 137.850097 
Q 875.25 137.850097 875.25 140.100097 
L 875.25 154.617285 
Q 875.25 156.867285 877.5 156.867285 
z
" style="fill: #ffffff; stroke: #000000; stroke-linejoin: miter"/>
    </g>
    <!-- ${\mu}_{\rm{mean}} = $0.734 -->
    <g transform="translate(877.5 151.467285) scale(0.15 -0.15)">
     <defs>
      <path id="DejaVuSans-37" d="M 525 4666 
L 3525 4666 
L 3525 4397 
L 1831 0 
L 1172 0 
L 2766 4134 
L 525 4134 
L 525 4666 
z
" transform="scale(0.015625)"/>
     </defs>
     <use xlink:href="#DejaVuSans-Oblique-3bc" transform="translate(0 0.78125)"/>
     <use xlink:href="#DejaVuSans-6d" transform="translate(63.623047 -15.625) scale(0.7)"/>
     <use xlink:href="#DejaVuSans-65" transform="translate(131.811523 -15.625) scale(0.7)"/>
     <use xlink:href="#DejaVuSans-61" transform="translate(174.87793 -15.625) scale(0.7)"/>
     <use xlink:href="#DejaVuSans-6e" transform="translate(217.773438 -15.625) scale(0.7)"/>
     <use xlink:href="#DejaVuSans-3d" transform="translate(284.355469 0.78125)"/>
     <use xlink:href="#DejaVuSans-30" transform="translate(387.626953 0.78125)"/>
     <use xlink:href="#DejaVuSans-2e" transform="translate(451.25 0.78125)"/>
     <use xlink:href="#DejaVuSans-37" transform="translate(475.287109 0.78125)"/>
     <use xlink:href="#DejaVuSans-33" transform="translate(538.910156 0.78125)"/>
     <use xlink:href="#DejaVuSans-34" transform="translate(602.533203 0.78125)"/>
    </g>
   </g>
   <g id="text_17">
    <g id="patch_11">
     <path d="M 1063.5 160.47229 
L 1163.55 160.47229 
Q 1165.8 160.47229 1165.8 158.22229 
L 1165.8 143.705102 
Q 1165.8 141.455102 1163.55 141.455102 
L 1063.5 141.455102 
Q 1061.25 141.455102 1061.25 143.705102 
L 1061.25 158.22229 
Q 1061.25 160.47229 1063.5 160.47229 
z
" style="fill: #ffffff; stroke: #000000; stroke-linejoin: miter"/>
    </g>
    <!-- ${\mu}_{\rm{mean}} = $0.722 -->
    <g transform="translate(1063.5 155.07229) scale(0.15 -0.15)">
     <use xlink:href="#DejaVuSans-Oblique-3bc" transform="translate(0 0.78125)"/>
     <use xlink:href="#DejaVuSans-6d" transform="translate(63.623047 -15.625) scale(0.7)"/>
     <use xlink:href="#DejaVuSans-65" transform="translate(131.811523 -15.625) scale(0.7)"/>
     <use xlink:href="#DejaVuSans-61" transform="translate(174.87793 -15.625) scale(0.7)"/>
     <use xlink:href="#DejaVuSans-6e" transform="translate(217.773438 -15.625) scale(0.7)"/>
     <use xlink:href="#DejaVuSans-3d" transform="translate(284.355469 0.78125)"/>
     <use xlink:href="#DejaVuSans-30" transform="translate(387.626953 0.78125)"/>
     <use xlink:href="#DejaVuSans-2e" transform="translate(451.25 0.78125)"/>
     <use xlink:href="#DejaVuSans-37" transform="translate(475.287109 0.78125)"/>
     <use xlink:href="#DejaVuSans-32" transform="translate(538.910156 0.78125)"/>
     <use xlink:href="#DejaVuSans-32" transform="translate(602.533203 0.78125)"/>
    </g>
   </g>
   <g id="text_18">
    <g id="patch_12">
     <path d="M 1249.5 179.042674 
L 1350.6 179.042674 
Q 1352.85 179.042674 1352.85 176.792674 
L 1352.85 162.275486 
Q 1352.85 160.025486 1350.6 160.025486 
L 1249.5 160.025486 
Q 1247.25 160.025486 1247.25 162.275486 
L 1247.25 176.792674 
Q 1247.25 179.042674 1249.5 179.042674 
z
" style="fill: #ffffff; stroke: #000000; stroke-linejoin: miter"/>
    </g>
    <!-- ${\mu}_{\rm{mean}} = $0.661 -->
    <g transform="translate(1249.5 173.642674) scale(0.15 -0.15)">
     <use xlink:href="#DejaVuSans-Oblique-3bc" transform="translate(0 0.78125)"/>
     <use xlink:href="#DejaVuSans-6d" transform="translate(63.623047 -15.625) scale(0.7)"/>
     <use xlink:href="#DejaVuSans-65" transform="translate(131.811523 -15.625) scale(0.7)"/>
     <use xlink:href="#DejaVuSans-61" transform="translate(174.87793 -15.625) scale(0.7)"/>
     <use xlink:href="#DejaVuSans-6e" transform="translate(217.773438 -15.625) scale(0.7)"/>
     <use xlink:href="#DejaVuSans-3d" transform="translate(284.355469 0.78125)"/>
     <use xlink:href="#DejaVuSans-30" transform="translate(387.626953 0.78125)"/>
     <use xlink:href="#DejaVuSans-2e" transform="translate(451.25 0.78125)"/>
     <use xlink:href="#DejaVuSans-36" transform="translate(483.037109 0.78125)"/>
     <use xlink:href="#DejaVuSans-36" transform="translate(546.660156 0.78125)"/>
     <use xlink:href="#DejaVuSans-31" transform="translate(610.283203 0.78125)"/>
    </g>
   </g>
  </g>
 </g>
 <defs>
  <clipPath id="pe056eed74d">
   <rect x="180" y="51.84" width="1116" height="332.64"/>
  </clipPath>
 </defs>
</svg>
