<?xml version="1.0" encoding="utf-8" standalone="no"?>
<!DOCTYPE svg PUBLIC "-//W3C//DTD SVG 1.1//EN"
  "http://www.w3.org/Graphics/SVG/1.1/DTD/svg11.dtd">
<svg xmlns:xlink="http://www.w3.org/1999/xlink" width="720pt" height="360pt" viewBox="0 0 720 360" xmlns="http://www.w3.org/2000/svg" version="1.1">
 <metadata>
  <rdf:RDF xmlns:dc="http://purl.org/dc/elements/1.1/" xmlns:cc="http://creativecommons.org/ns#" xmlns:rdf="http://www.w3.org/1999/02/22-rdf-syntax-ns#">
   <cc:Work>
    <dc:type rdf:resource="http://purl.org/dc/dcmitype/StillImage"/>
    <dc:date>2023-09-12T11:11:14.371697</dc:date>
    <dc:format>image/svg+xml</dc:format>
    <dc:creator>
     <cc:Agent>
      <dc:title>Matplotlib v3.7.1, https://matplotlib.org/</dc:title>
     </cc:Agent>
    </dc:creator>
   </cc:Work>
  </rdf:RDF>
 </metadata>
 <defs>
  <style type="text/css">*{stroke-linejoin: round; stroke-linecap: butt}</style>
 </defs>
 <g id="figure_1">
  <g id="patch_1">
   <path d="M 0 360 
L 720 360 
L 720 0 
L 0 0 
L 0 360 
z
" style="fill: none"/>
  </g>
  <g id="axes_1">
   <g id="patch_2">
    <path d="M 90 320.4 
L 648 320.4 
L 648 43.2 
L 90 43.2 
L 90 320.4 
z
" style="fill: none"/>
   </g>
   <g id="PolyCollection_1">
    <defs>
     <path id="m211a780a11" d="M 145.95079 -64.556832 
L 145.64921 -64.556832 
L 145.572141 -66.595661 
L 145.491282 -68.63449 
L 145.424906 -70.673319 
L 145.39124 -72.712148 
L 145.3998 -74.750977 
L 145.445072 -76.789806 
L 145.506181 -78.828635 
L 145.552561 -80.867464 
L 145.55257 -82.906293 
L 145.482176 -84.945122 
L 145.332826 -86.983951 
L 145.11776 -89.022779 
L 144.873478 -91.061608 
L 144.652032 -93.100437 
L 144.50413 -95.139266 
L 144.460097 -97.178095 
L 144.518657 -99.216924 
L 144.648874 -101.255753 
L 144.802679 -103.294582 
L 144.930688 -105.333411 
L 144.994618 -107.37224 
L 144.972783 -109.411069 
L 144.858478 -111.449898 
L 144.654112 -113.488727 
L 144.366013 -115.527555 
L 144.003492 -117.566384 
L 143.579749 -119.605213 
L 143.106229 -121.644042 
L 142.575067 -123.682871 
L 141.938529 -125.7217 
L 141.107419 -127.760529 
L 139.984724 -129.799358 
L 138.525211 -131.838187 
L 136.787168 -133.877016 
L 134.940592 -135.915845 
L 133.218655 -137.954674 
L 131.830281 -139.993503 
L 130.874562 -142.032331 
L 130.301251 -144.07116 
L 129.940947 -146.109989 
L 129.590884 -148.148818 
L 129.109878 -150.187647 
L 128.471344 -152.226476 
L 127.749458 -154.265305 
L 127.0529 -156.304134 
L 126.450302 -158.342963 
L 125.93417 -160.381792 
L 125.442264 -162.420621 
L 124.91391 -164.45945 
L 124.335399 -166.498279 
L 123.742455 -168.537107 
L 123.185172 -170.575936 
L 122.688572 -172.614765 
L 122.240071 -174.653594 
L 121.810846 -176.692423 
L 121.392537 -178.731252 
L 121.020496 -180.770081 
L 120.764416 -182.80891 
L 120.690562 -184.847739 
L 120.821869 -186.886568 
L 121.125652 -188.925397 
L 121.53757 -190.964226 
L 122.001583 -193.003055 
L 122.496227 -195.041883 
L 123.035452 -197.080712 
L 123.654812 -199.119541 
L 124.39735 -201.15837 
L 125.302638 -203.197199 
L 126.397349 -205.236028 
L 127.689576 -207.274857 
L 129.168396 -209.313686 
L 130.802689 -211.352515 
L 132.533808 -213.391344 
L 134.270293 -215.430173 
L 135.901103 -217.469002 
L 137.330638 -219.50783 
L 138.515568 -221.546659 
L 139.47653 -223.585488 
L 140.2754 -225.624317 
L 140.974096 -227.663146 
L 141.602441 -229.701975 
L 142.154155 -231.740804 
L 142.609427 -233.779633 
L 142.964412 -235.818462 
L 143.245189 -237.857291 
L 143.497813 -239.89612 
L 143.76464 -241.934949 
L 144.064449 -243.973778 
L 144.387125 -246.012606 
L 144.702383 -248.051435 
L 144.975632 -250.090264 
L 145.183348 -252.129093 
L 145.32187 -254.167922 
L 145.406466 -256.206751 
L 145.461987 -258.24558 
L 145.510773 -260.284409 
L 145.564436 -262.323238 
L 145.622885 -264.362067 
L 145.67918 -266.400896 
L 145.92082 -266.400896 
L 145.92082 -266.400896 
L 145.977115 -264.362067 
L 146.035564 -262.323238 
L 146.089227 -260.284409 
L 146.138013 -258.24558 
L 146.193534 -256.206751 
L 146.27813 -254.167922 
L 146.416652 -252.129093 
L 146.624368 -250.090264 
L 146.897617 -248.051435 
L 147.212875 -246.012606 
L 147.535551 -243.973778 
L 147.83536 -241.934949 
L 148.102187 -239.89612 
L 148.354811 -237.857291 
L 148.635588 -235.818462 
L 148.990573 -233.779633 
L 149.445845 -231.740804 
L 149.997559 -229.701975 
L 150.625904 -227.663146 
L 151.3246 -225.624317 
L 152.12347 -223.585488 
L 153.084432 -221.546659 
L 154.269362 -219.50783 
L 155.698897 -217.469002 
L 157.329707 -215.430173 
L 159.066192 -213.391344 
L 160.797311 -211.352515 
L 162.431604 -209.313686 
L 163.910424 -207.274857 
L 165.202651 -205.236028 
L 166.297362 -203.197199 
L 167.20265 -201.15837 
L 167.945188 -199.119541 
L 168.564548 -197.080712 
L 169.103773 -195.041883 
L 169.598417 -193.003055 
L 170.06243 -190.964226 
L 170.474348 -188.925397 
L 170.778131 -186.886568 
L 170.909438 -184.847739 
L 170.835584 -182.80891 
L 170.579504 -180.770081 
L 170.207463 -178.731252 
L 169.789154 -176.692423 
L 169.359929 -174.653594 
L 168.911428 -172.614765 
L 168.414828 -170.575936 
L 167.857545 -168.537107 
L 167.264601 -166.498279 
L 166.68609 -164.45945 
L 166.157736 -162.420621 
L 165.66583 -160.381792 
L 165.149698 -158.342963 
L 164.5471 -156.304134 
L 163.850542 -154.265305 
L 163.128656 -152.226476 
L 162.490122 -150.187647 
L 162.009116 -148.148818 
L 161.659053 -146.109989 
L 161.298749 -144.07116 
L 160.725438 -142.032331 
L 159.769719 -139.993503 
L 158.381345 -137.954674 
L 156.659408 -135.915845 
L 154.812832 -133.877016 
L 153.074789 -131.838187 
L 151.615276 -129.799358 
L 150.492581 -127.760529 
L 149.661471 -125.7217 
L 149.024933 -123.682871 
L 148.493771 -121.644042 
L 148.020251 -119.605213 
L 147.596508 -117.566384 
L 147.233987 -115.527555 
L 146.945888 -113.488727 
L 146.741522 -111.449898 
L 146.627217 -109.411069 
L 146.605382 -107.37224 
L 146.669312 -105.333411 
L 146.797321 -103.294582 
L 146.951126 -101.255753 
L 147.081343 -99.216924 
L 147.139903 -97.178095 
L 147.09587 -95.139266 
L 146.947968 -93.100437 
L 146.726522 -91.061608 
L 146.48224 -89.022779 
L 146.267174 -86.983951 
L 146.117824 -84.945122 
L 146.04743 -82.906293 
L 146.047439 -80.867464 
L 146.093819 -78.828635 
L 146.154928 -76.789806 
L 146.2002 -74.750977 
L 146.20876 -72.712148 
L 146.175094 -70.673319 
L 146.108718 -68.63449 
L 146.027859 -66.595661 
L 145.95079 -64.556832 
z
" style="stroke: #666666"/>
    </defs>
    <g clip-path="url(#p4ac6bc1323)">
     <use xlink:href="#m211a780a11" x="0" y="360" style="fill: #96c7c2; stroke: #666666"/>
    </g>
   </g>
   <g id="PolyCollection_2">
    <defs>
     <path id="m814a083ff8" d="M 258.212509 -118.388359 
L 256.587491 -118.388359 
L 256.210524 -119.654672 
L 255.826553 -120.920984 
L 255.516347 -122.187297 
L 255.352802 -123.45361 
L 255.366314 -124.719922 
L 255.524369 -125.986235 
L 255.736596 -127.252548 
L 255.881451 -128.51886 
L 255.840224 -129.785173 
L 255.525393 -131.051486 
L 254.898945 -132.317798 
L 253.982329 -133.584111 
L 252.857844 -134.850424 
L 251.656189 -136.116736 
L 250.525382 -137.383049 
L 249.586098 -138.649362 
L 248.890845 -139.915674 
L 248.40719 -141.181987 
L 248.03352 -142.4483 
L 247.637965 -143.714612 
L 247.100903 -144.980925 
L 246.34409 -146.247238 
L 245.339131 -147.51355 
L 244.097273 -148.779863 
L 242.649545 -150.046176 
L 241.030345 -151.312488 
L 239.274819 -152.578801 
L 237.428658 -153.845114 
L 235.556422 -155.111426 
L 233.734297 -156.377739 
L 232.02759 -157.644052 
L 230.468307 -158.910364 
L 229.047848 -160.176677 
L 227.725859 -161.442989 
L 226.445387 -162.709302 
L 225.147725 -163.975615 
L 223.789814 -165.241927 
L 222.367223 -166.50824 
L 220.934454 -167.774553 
L 219.605105 -169.040865 
L 218.520481 -170.307178 
L 217.794934 -171.573491 
L 217.465312 -172.839803 
L 217.475445 -174.106116 
L 217.709341 -175.372429 
L 218.057286 -176.638741 
L 218.476587 -177.905054 
L 219.010213 -179.171367 
L 219.752442 -180.437679 
L 220.783137 -181.703992 
L 222.109703 -182.970305 
L 223.649382 -184.236617 
L 225.260667 -185.50293 
L 226.805033 -186.769243 
L 228.202796 -188.035555 
L 229.450736 -189.301868 
L 230.595354 -190.568181 
L 231.687888 -191.834493 
L 232.759105 -193.100806 
L 233.830773 -194.367119 
L 234.944638 -195.633431 
L 236.172448 -196.899744 
L 237.588056 -198.166057 
L 239.217576 -199.432369 
L 241.004129 -200.698682 
L 242.814518 -201.964995 
L 244.487134 -203.231307 
L 245.895541 -204.49762 
L 246.994895 -205.763933 
L 247.829541 -207.030245 
L 248.501565 -208.296558 
L 249.120229 -209.562871 
L 249.759965 -210.829183 
L 250.445628 -212.095496 
L 251.164515 -213.361809 
L 251.889261 -214.628121 
L 252.594296 -215.894434 
L 253.259338 -217.160747 
L 253.86577 -218.427059 
L 254.395578 -219.693372 
L 254.836653 -220.959685 
L 255.189616 -222.225997 
L 255.468419 -223.49231 
L 255.692304 -224.758623 
L 255.874901 -226.024935 
L 256.019425 -227.291248 
L 256.123929 -228.557561 
L 256.191912 -229.823873 
L 256.238931 -231.090186 
L 256.289198 -232.356499 
L 256.364362 -233.622811 
L 256.472856 -234.889124 
L 256.607294 -236.155437 
L 256.750869 -237.421749 
L 256.887202 -238.688062 
L 257.00682 -239.954375 
L 257.107484 -241.220687 
L 257.190591 -242.487 
L 257.25772 -243.753313 
L 257.54228 -243.753313 
L 257.54228 -243.753313 
L 257.609409 -242.487 
L 257.692516 -241.220687 
L 257.79318 -239.954375 
L 257.912798 -238.688062 
L 258.049131 -237.421749 
L 258.192706 -236.155437 
L 258.327144 -234.889124 
L 258.435638 -233.622811 
L 258.510802 -232.356499 
L 258.561069 -231.090186 
L 258.608088 -229.823873 
L 258.676071 -228.557561 
L 258.780575 -227.291248 
L 258.925099 -226.024935 
L 259.107696 -224.758623 
L 259.331581 -223.49231 
L 259.610384 -222.225997 
L 259.963347 -220.959685 
L 260.404422 -219.693372 
L 260.93423 -218.427059 
L 261.540662 -217.160747 
L 262.205704 -215.894434 
L 262.910739 -214.628121 
L 263.635485 -213.361809 
L 264.354372 -212.095496 
L 265.040035 -210.829183 
L 265.679771 -209.562871 
L 266.298435 -208.296558 
L 266.970459 -207.030245 
L 267.805105 -205.763933 
L 268.904459 -204.49762 
L 270.312866 -203.231307 
L 271.985482 -201.964995 
L 273.795871 -200.698682 
L 275.582424 -199.432369 
L 277.211944 -198.166057 
L 278.627552 -196.899744 
L 279.855362 -195.633431 
L 280.969227 -194.367119 
L 282.040895 -193.100806 
L 283.112112 -191.834493 
L 284.204646 -190.568181 
L 285.349264 -189.301868 
L 286.597204 -188.035555 
L 287.994967 -186.769243 
L 289.539333 -185.50293 
L 291.150618 -184.236617 
L 292.690297 -182.970305 
L 294.016863 -181.703992 
L 295.047558 -180.437679 
L 295.789787 -179.171367 
L 296.323413 -177.905054 
L 296.742714 -176.638741 
L 297.090659 -175.372429 
L 297.324555 -174.106116 
L 297.334688 -172.839803 
L 297.005066 -171.573491 
L 296.279519 -170.307178 
L 295.194895 -169.040865 
L 293.865546 -167.774553 
L 292.432777 -166.50824 
L 291.010186 -165.241927 
L 289.652275 -163.975615 
L 288.354613 -162.709302 
L 287.074141 -161.442989 
L 285.752152 -160.176677 
L 284.331693 -158.910364 
L 282.77241 -157.644052 
L 281.065703 -156.377739 
L 279.243578 -155.111426 
L 277.371342 -153.845114 
L 275.525181 -152.578801 
L 273.769655 -151.312488 
L 272.150455 -150.046176 
L 270.702727 -148.779863 
L 269.460869 -147.51355 
L 268.45591 -146.247238 
L 267.699097 -144.980925 
L 267.162035 -143.714612 
L 266.76648 -142.4483 
L 266.39281 -141.181987 
L 265.909155 -139.915674 
L 265.213902 -138.649362 
L 264.274618 -137.383049 
L 263.143811 -136.116736 
L 261.942156 -134.850424 
L 260.817671 -133.584111 
L 259.901055 -132.317798 
L 259.274607 -131.051486 
L 258.959776 -129.785173 
L 258.918549 -128.51886 
L 259.063404 -127.252548 
L 259.275631 -125.986235 
L 259.433686 -124.719922 
L 259.447198 -123.45361 
L 259.283653 -122.187297 
L 258.973447 -120.920984 
L 258.589476 -119.654672 
L 258.212509 -118.388359 
z
" style="stroke: #666666"/>
    </defs>
    <g clip-path="url(#p4ac6bc1323)">
     <use xlink:href="#m814a083ff8" x="0" y="360" style="fill: #eebe8b; stroke: #666666"/>
    </g>
   </g>
   <g id="PolyCollection_3">
    <defs>
     <path id="m241b09a718" d="M 369.241887 -52.2 
L 368.758113 -52.2 
L 368.631878 -54.014706 
L 368.540288 -55.829413 
L 368.497274 -57.644119 
L 368.465451 -59.458825 
L 368.402636 -61.273532 
L 368.310642 -63.088238 
L 368.210315 -64.902944 
L 368.088431 -66.717651 
L 367.919561 -68.532357 
L 367.740174 -70.347063 
L 367.639934 -72.16177 
L 367.651957 -73.976476 
L 367.700394 -75.791182 
L 367.688092 -77.605889 
L 367.58719 -79.420595 
L 367.402936 -81.235301 
L 367.101645 -83.050008 
L 366.647533 -84.864714 
L 366.088591 -86.67942 
L 365.527866 -88.494127 
L 364.995462 -90.308833 
L 364.392991 -92.123539 
L 363.579588 -93.938246 
L 362.487722 -95.752952 
L 361.129461 -97.567658 
L 359.494552 -99.382365 
L 357.488589 -101.197071 
L 355.008565 -103.011777 
L 352.078113 -104.826484 
L 348.910007 -106.64119 
L 345.802414 -108.455896 
L 342.880437 -110.270603 
L 339.92589 -112.085309 
L 336.581079 -113.900015 
L 332.841257 -115.714722 
L 329.302102 -117.529428 
L 326.744998 -119.344135 
L 325.518674 -121.158841 
L 325.454804 -122.973547 
L 326.086241 -124.788254 
L 326.720624 -126.60296 
L 326.672073 -128.417666 
L 325.754538 -130.232373 
L 324.589169 -132.047079 
L 324.36 -133.861785 
L 326.014972 -135.676492 
L 329.573508 -137.491198 
L 334.236177 -139.305904 
L 339.018851 -141.120611 
L 343.266285 -142.935317 
L 346.802496 -144.750023 
L 349.734158 -146.56473 
L 352.178138 -148.379436 
L 354.229876 -150.194142 
L 356.066125 -152.008849 
L 357.896971 -153.823555 
L 359.789084 -155.638261 
L 361.591317 -157.452968 
L 363.064145 -159.267674 
L 364.08565 -161.08238 
L 364.737378 -162.897087 
L 365.211794 -164.711793 
L 365.659386 -166.526499 
L 366.120879 -168.341206 
L 366.565972 -170.155912 
L 366.953704 -171.970618 
L 367.251693 -173.785325 
L 367.432577 -175.600031 
L 367.493119 -177.414737 
L 367.490232 -179.229444 
L 367.533332 -181.04415 
L 367.705774 -182.858856 
L 367.989665 -184.673563 
L 368.288488 -186.488269 
L 368.520181 -188.302975 
L 368.665814 -190.117682 
L 368.74171 -191.932388 
L 368.767402 -193.747094 
L 368.769084 -195.561801 
L 368.781216 -197.376507 
L 368.823395 -199.191213 
L 368.884876 -201.00592 
L 368.940611 -202.820626 
L 368.975926 -204.635332 
L 368.992351 -206.450039 
L 368.998096 -208.264745 
L 368.999628 -210.079451 
L 368.999933 -211.894158 
L 368.999909 -213.708864 
L 368.999471 -215.52357 
L 368.997422 -217.338277 
L 368.990148 -219.152983 
L 368.970522 -220.967689 
L 368.930944 -222.782396 
L 368.873345 -224.597102 
L 368.818129 -226.411808 
L 368.795533 -228.226515 
L 368.820029 -230.041221 
L 368.875977 -231.855927 
L 369.124023 -231.855927 
L 369.124023 -231.855927 
L 369.179971 -230.041221 
L 369.204467 -228.226515 
L 369.181871 -226.411808 
L 369.126655 -224.597102 
L 369.069056 -222.782396 
L 369.029478 -220.967689 
L 369.009852 -219.152983 
L 369.002578 -217.338277 
L 369.000529 -215.52357 
L 369.000091 -213.708864 
L 369.000067 -211.894158 
L 369.000372 -210.079451 
L 369.001904 -208.264745 
L 369.007649 -206.450039 
L 369.024074 -204.635332 
L 369.059389 -202.820626 
L 369.115124 -201.00592 
L 369.176605 -199.191213 
L 369.218784 -197.376507 
L 369.230916 -195.561801 
L 369.232598 -193.747094 
L 369.25829 -191.932388 
L 369.334186 -190.117682 
L 369.479819 -188.302975 
L 369.711512 -186.488269 
L 370.010335 -184.673563 
L 370.294226 -182.858856 
L 370.466668 -181.04415 
L 370.509768 -179.229444 
L 370.506881 -177.414737 
L 370.567423 -175.600031 
L 370.748307 -173.785325 
L 371.046296 -171.970618 
L 371.434028 -170.155912 
L 371.879121 -168.341206 
L 372.340614 -166.526499 
L 372.788206 -164.711793 
L 373.262622 -162.897087 
L 373.91435 -161.08238 
L 374.935855 -159.267674 
L 376.408683 -157.452968 
L 378.210916 -155.638261 
L 380.103029 -153.823555 
L 381.933875 -152.008849 
L 383.770124 -150.194142 
L 385.821862 -148.379436 
L 388.265842 -146.56473 
L 391.197504 -144.750023 
L 394.733715 -142.935317 
L 398.981149 -141.120611 
L 403.763823 -139.305904 
L 408.426492 -137.491198 
L 411.985028 -135.676492 
L 413.64 -133.861785 
L 413.410831 -132.047079 
L 412.245462 -130.232373 
L 411.327927 -128.417666 
L 411.279376 -126.60296 
L 411.913759 -124.788254 
L 412.545196 -122.973547 
L 412.481326 -121.158841 
L 411.255002 -119.344135 
L 408.697898 -117.529428 
L 405.158743 -115.714722 
L 401.418921 -113.900015 
L 398.07411 -112.085309 
L 395.119563 -110.270603 
L 392.197586 -108.455896 
L 389.089993 -106.64119 
L 385.921887 -104.826484 
L 382.991435 -103.011777 
L 380.511411 -101.197071 
L 378.505448 -99.382365 
L 376.870539 -97.567658 
L 375.512278 -95.752952 
L 374.420412 -93.938246 
L 373.607009 -92.123539 
L 373.004538 -90.308833 
L 372.472134 -88.494127 
L 371.911409 -86.67942 
L 371.352467 -84.864714 
L 370.898355 -83.050008 
L 370.597064 -81.235301 
L 370.41281 -79.420595 
L 370.311908 -77.605889 
L 370.299606 -75.791182 
L 370.348043 -73.976476 
L 370.360066 -72.16177 
L 370.259826 -70.347063 
L 370.080439 -68.532357 
L 369.911569 -66.717651 
L 369.789685 -64.902944 
L 369.689358 -63.088238 
L 369.597364 -61.273532 
L 369.534549 -59.458825 
L 369.502726 -57.644119 
L 369.459712 -55.829413 
L 369.368122 -54.014706 
L 369.241887 -52.2 
z
" style="stroke: #666666"/>
    </defs>
    <g clip-path="url(#p4ac6bc1323)">
     <use xlink:href="#m241b09a718" x="0" y="360" style="fill: #e98c80; stroke: #666666"/>
    </g>
   </g>
   <g id="PolyCollection_4">
    <defs>
     <path id="m8778c944af" d="M 480.68838 -53.130686 
L 480.51162 -53.130686 
L 480.472173 -55.66674 
L 480.454326 -58.202793 
L 480.469194 -60.738847 
L 480.507453 -63.274901 
L 480.548408 -65.810954 
L 480.577338 -68.347008 
L 480.592157 -70.883062 
L 480.597861 -73.419115 
L 480.59954 -75.955169 
L 480.599918 -78.491223 
L 480.599959 -81.027276 
L 480.599794 -83.56333 
L 480.598928 -86.099384 
L 480.595586 -88.635437 
L 480.585607 -91.171491 
L 480.562637 -93.707545 
L 480.521899 -96.243598 
L 480.465517 -98.779652 
L 480.401602 -101.315706 
L 480.33569 -103.851759 
L 480.267919 -106.387813 
L 480.201986 -108.923867 
L 480.146681 -111.45992 
L 480.09921 -113.995974 
L 480.037117 -116.532028 
L 479.941332 -119.068081 
L 479.820646 -121.604135 
L 479.686431 -124.140189 
L 479.483757 -126.676243 
L 479.065288 -129.212296 
L 478.277713 -131.74835 
L 477.094736 -134.284404 
L 475.64711 -136.820457 
L 474.113472 -139.356511 
L 472.60702 -141.892565 
L 471.174205 -144.428618 
L 469.842348 -146.964672 
L 468.599848 -149.500726 
L 467.345082 -152.036779 
L 465.915163 -154.572833 
L 464.183283 -157.108887 
L 462.145383 -159.64494 
L 459.962637 -162.180994 
L 457.914829 -164.717048 
L 456.244254 -167.253101 
L 455.011955 -169.789155 
L 454.104312 -172.325209 
L 453.3571 -174.861262 
L 452.670594 -177.397316 
L 452.049479 -179.93337 
L 451.56767 -182.469423 
L 451.300141 -185.005477 
L 451.307108 -187.541531 
L 451.709281 -190.077584 
L 452.725478 -192.613638 
L 454.497179 -195.149692 
L 456.808785 -197.685746 
L 459.08195 -200.221799 
L 460.772807 -202.757853 
L 461.788658 -205.293907 
L 462.484484 -207.82996 
L 463.286407 -210.366014 
L 464.377609 -212.902068 
L 465.708073 -215.438121 
L 467.169904 -217.974175 
L 468.690588 -220.510229 
L 470.218672 -223.046282 
L 471.705767 -225.582336 
L 473.121795 -228.11839 
L 474.454855 -230.654443 
L 475.671916 -233.190497 
L 476.701605 -235.726551 
L 477.487154 -238.262604 
L 478.047156 -240.798658 
L 478.46256 -243.334712 
L 478.812647 -245.870765 
L 479.138412 -248.406819 
L 479.452764 -250.942873 
L 479.755337 -253.478926 
L 480.027212 -256.01498 
L 480.227376 -258.551034 
L 480.313393 -261.087087 
L 480.27626 -263.623141 
L 480.162723 -266.159195 
L 480.061339 -268.695249 
L 480.049086 -271.231302 
L 480.137431 -273.767356 
L 480.270918 -276.30341 
L 480.379253 -278.839463 
L 480.429831 -281.375517 
L 480.438172 -283.911571 
L 480.43906 -286.447624 
L 480.450536 -288.983678 
L 480.463405 -291.519732 
L 480.462219 -294.055785 
L 480.450188 -296.591839 
L 480.44803 -299.127893 
L 480.470529 -301.663946 
L 480.511282 -304.2 
L 480.688718 -304.2 
L 480.688718 -304.2 
L 480.729471 -301.663946 
L 480.75197 -299.127893 
L 480.749812 -296.591839 
L 480.737781 -294.055785 
L 480.736595 -291.519732 
L 480.749464 -288.983678 
L 480.76094 -286.447624 
L 480.761828 -283.911571 
L 480.770169 -281.375517 
L 480.820747 -278.839463 
L 480.929082 -276.30341 
L 481.062569 -273.767356 
L 481.150914 -271.231302 
L 481.138661 -268.695249 
L 481.037277 -266.159195 
L 480.92374 -263.623141 
L 480.886607 -261.087087 
L 480.972624 -258.551034 
L 481.172788 -256.01498 
L 481.444663 -253.478926 
L 481.747236 -250.942873 
L 482.061588 -248.406819 
L 482.387353 -245.870765 
L 482.73744 -243.334712 
L 483.152844 -240.798658 
L 483.712846 -238.262604 
L 484.498395 -235.726551 
L 485.528084 -233.190497 
L 486.745145 -230.654443 
L 488.078205 -228.11839 
L 489.494233 -225.582336 
L 490.981328 -223.046282 
L 492.509412 -220.510229 
L 494.030096 -217.974175 
L 495.491927 -215.438121 
L 496.822391 -212.902068 
L 497.913593 -210.366014 
L 498.715516 -207.82996 
L 499.411342 -205.293907 
L 500.427193 -202.757853 
L 502.11805 -200.221799 
L 504.391215 -197.685746 
L 506.702821 -195.149692 
L 508.474522 -192.613638 
L 509.490719 -190.077584 
L 509.892892 -187.541531 
L 509.899859 -185.005477 
L 509.63233 -182.469423 
L 509.150521 -179.93337 
L 508.529406 -177.397316 
L 507.8429 -174.861262 
L 507.095688 -172.325209 
L 506.188045 -169.789155 
L 504.955746 -167.253101 
L 503.285171 -164.717048 
L 501.237363 -162.180994 
L 499.054617 -159.64494 
L 497.016717 -157.108887 
L 495.284837 -154.572833 
L 493.854918 -152.036779 
L 492.600152 -149.500726 
L 491.357652 -146.964672 
L 490.025795 -144.428618 
L 488.59298 -141.892565 
L 487.086528 -139.356511 
L 485.55289 -136.820457 
L 484.105264 -134.284404 
L 482.922287 -131.74835 
L 482.134712 -129.212296 
L 481.716243 -126.676243 
L 481.513569 -124.140189 
L 481.379354 -121.604135 
L 481.258668 -119.068081 
L 481.162883 -116.532028 
L 481.10079 -113.995974 
L 481.053319 -111.45992 
L 480.998014 -108.923867 
L 480.932081 -106.387813 
L 480.86431 -103.851759 
L 480.798398 -101.315706 
L 480.734483 -98.779652 
L 480.678101 -96.243598 
L 480.637363 -93.707545 
L 480.614393 -91.171491 
L 480.604414 -88.635437 
L 480.601072 -86.099384 
L 480.600206 -83.56333 
L 480.600041 -81.027276 
L 480.600082 -78.491223 
L 480.60046 -75.955169 
L 480.602139 -73.419115 
L 480.607843 -70.883062 
L 480.622662 -68.347008 
L 480.651592 -65.810954 
L 480.692547 -63.274901 
L 480.730806 -60.738847 
L 480.745674 -58.202793 
L 480.727827 -55.66674 
L 480.68838 -53.130686 
z
" style="stroke: #666666"/>
    </defs>
    <g clip-path="url(#p4ac6bc1323)">
     <use xlink:href="#m8778c944af" x="0" y="360" style="fill: #8caec8; stroke: #666666"/>
    </g>
   </g>
   <g id="PolyCollection_5">
    <defs>
     <path id="m1863b6c8ca" d="M 592.303123 -107.76354 
L 592.096877 -107.76354 
L 592.04092 -109.660124 
L 591.960605 -111.556708 
L 591.838013 -113.453292 
L 591.647205 -115.349876 
L 591.364193 -117.24646 
L 590.980931 -119.143044 
L 590.510984 -121.039628 
L 589.97761 -122.936212 
L 589.39042 -124.832796 
L 588.730815 -126.72938 
L 587.962246 -128.625964 
L 587.06029 -130.522548 
L 586.039987 -132.419132 
L 584.95978 -134.315716 
L 583.897255 -136.2123 
L 582.906161 -138.108884 
L 581.971948 -140.005468 
L 580.988334 -141.902052 
L 579.776961 -143.798636 
L 578.15651 -145.69522 
L 576.039108 -147.591804 
L 573.50971 -149.488388 
L 570.844893 -151.384972 
L 568.449894 -153.281556 
L 566.72639 -155.17814 
L 565.919919 -157.074724 
L 566.019124 -158.971308 
L 566.763666 -160.867892 
L 567.757965 -162.764476 
L 568.624322 -164.66106 
L 569.116636 -166.557644 
L 569.159938 -168.454228 
L 568.829672 -170.350812 
L 568.296994 -172.247396 
L 567.75785 -174.14398 
L 567.367063 -176.040564 
L 567.207162 -177.937148 
L 567.303358 -179.833732 
L 567.656531 -181.730316 
L 568.252392 -183.6269 
L 569.039812 -185.523484 
L 569.914963 -187.420068 
L 570.746998 -189.316652 
L 571.436832 -191.213236 
L 571.964218 -193.10982 
L 572.387058 -195.006404 
L 572.796536 -196.902988 
L 573.262539 -198.799572 
L 573.803506 -200.696156 
L 574.391607 -202.59274 
L 574.980307 -204.489324 
L 575.533006 -206.385908 
L 576.039005 -208.282492 
L 576.515769 -210.179076 
L 577.003398 -212.07566 
L 577.555693 -213.972244 
L 578.227466 -215.868828 
L 579.056617 -217.765412 
L 580.044626 -219.661996 
L 581.146497 -221.55858 
L 582.281848 -223.455164 
L 583.367166 -225.351748 
L 584.351984 -227.248332 
L 585.235642 -229.144916 
L 586.055182 -231.0415 
L 586.856473 -232.938084 
L 587.668882 -234.834668 
L 588.494027 -236.731252 
L 589.306487 -238.627836 
L 590.061679 -240.52442 
L 590.709553 -242.421004 
L 591.212038 -244.317588 
L 591.557253 -246.214172 
L 591.762706 -248.110756 
L 591.866189 -250.00734 
L 591.910756 -251.903924 
L 591.932153 -253.800508 
L 591.952954 -255.697092 
L 591.982518 -257.593676 
L 592.019856 -259.49026 
L 592.057529 -261.386844 
L 592.086063 -263.283428 
L 592.098447 -265.180012 
L 592.093567 -267.076596 
L 592.077201 -268.97318 
L 592.059806 -270.869764 
L 592.051779 -272.766348 
L 592.058422 -274.662932 
L 592.077409 -276.559516 
L 592.100205 -278.4561 
L 592.116453 -280.352684 
L 592.118858 -282.249268 
L 592.106365 -284.145852 
L 592.084637 -286.042436 
L 592.063733 -287.93902 
L 592.053732 -289.835604 
L 592.060163 -291.732188 
L 592.081731 -293.628772 
L 592.111706 -295.525356 
L 592.288294 -295.525356 
L 592.288294 -295.525356 
L 592.318269 -293.628772 
L 592.339837 -291.732188 
L 592.346268 -289.835604 
L 592.336267 -287.93902 
L 592.315363 -286.042436 
L 592.293635 -284.145852 
L 592.281142 -282.249268 
L 592.283547 -280.352684 
L 592.299795 -278.4561 
L 592.322591 -276.559516 
L 592.341578 -274.662932 
L 592.348221 -272.766348 
L 592.340194 -270.869764 
L 592.322799 -268.97318 
L 592.306433 -267.076596 
L 592.301553 -265.180012 
L 592.313937 -263.283428 
L 592.342471 -261.386844 
L 592.380144 -259.49026 
L 592.417482 -257.593676 
L 592.447046 -255.697092 
L 592.467847 -253.800508 
L 592.489244 -251.903924 
L 592.533811 -250.00734 
L 592.637294 -248.110756 
L 592.842747 -246.214172 
L 593.187962 -244.317588 
L 593.690447 -242.421004 
L 594.338321 -240.52442 
L 595.093513 -238.627836 
L 595.905973 -236.731252 
L 596.731118 -234.834668 
L 597.543527 -232.938084 
L 598.344818 -231.0415 
L 599.164358 -229.144916 
L 600.048016 -227.248332 
L 601.032834 -225.351748 
L 602.118152 -223.455164 
L 603.253503 -221.55858 
L 604.355374 -219.661996 
L 605.343383 -217.765412 
L 606.172534 -215.868828 
L 606.844307 -213.972244 
L 607.396602 -212.07566 
L 607.884231 -210.179076 
L 608.360995 -208.282492 
L 608.866994 -206.385908 
L 609.419693 -204.489324 
L 610.008393 -202.59274 
L 610.596494 -200.696156 
L 611.137461 -198.799572 
L 611.603464 -196.902988 
L 612.012942 -195.006404 
L 612.435782 -193.10982 
L 612.963168 -191.213236 
L 613.653002 -189.316652 
L 614.485037 -187.420068 
L 615.360188 -185.523484 
L 616.147608 -183.6269 
L 616.743469 -181.730316 
L 617.096642 -179.833732 
L 617.192838 -177.937148 
L 617.032937 -176.040564 
L 616.64215 -174.14398 
L 616.103006 -172.247396 
L 615.570328 -170.350812 
L 615.240062 -168.454228 
L 615.283364 -166.557644 
L 615.775678 -164.66106 
L 616.642035 -162.764476 
L 617.636334 -160.867892 
L 618.380876 -158.971308 
L 618.480081 -157.074724 
L 617.67361 -155.17814 
L 615.950106 -153.281556 
L 613.555107 -151.384972 
L 610.89029 -149.488388 
L 608.360892 -147.591804 
L 606.24349 -145.69522 
L 604.623039 -143.798636 
L 603.411666 -141.902052 
L 602.428052 -140.005468 
L 601.493839 -138.108884 
L 600.502745 -136.2123 
L 599.44022 -134.315716 
L 598.360013 -132.419132 
L 597.33971 -130.522548 
L 596.437754 -128.625964 
L 595.669185 -126.72938 
L 595.00958 -124.832796 
L 594.42239 -122.936212 
L 593.889016 -121.039628 
L 593.419069 -119.143044 
L 593.035807 -117.24646 
L 592.752795 -115.349876 
L 592.561987 -113.453292 
L 592.439395 -111.556708 
L 592.35908 -109.660124 
L 592.303123 -107.76354 
z
" style="stroke: #666666"/>
    </defs>
    <g clip-path="url(#p4ac6bc1323)">
     <use xlink:href="#m1863b6c8ca" x="0" y="360" style="fill: #b2b2ce; stroke: #666666"/>
    </g>
   </g>
   <g id="matplotlib.axis_1">
    <g id="xtick_1">
     <g id="line2d_1">
      <defs>
       <path id="m3b21e2fc6b" d="M 0 0 
L 0 3.5 
" style="stroke: #000000; stroke-width: 0.8"/>
      </defs>
      <g>
       <use xlink:href="#m3b21e2fc6b" x="145.8" y="320.4" style="stroke: #000000; stroke-width: 0.8"/>
      </g>
     </g>
     <g id="text_1">
      <!-- Test -->
      <g transform="translate(124.140313 344.116562) scale(0.22 -0.22)">
       <defs>
        <path id="DejaVuSans-54" d="M -19 4666 
L 3928 4666 
L 3928 4134 
L 2272 4134 
L 2272 0 
L 1638 0 
L 1638 4134 
L -19 4134 
L -19 4666 
z
" transform="scale(0.015625)"/>
        <path id="DejaVuSans-65" d="M 3597 1894 
L 3597 1613 
L 953 1613 
Q 991 1019 1311 708 
Q 1631 397 2203 397 
Q 2534 397 2845 478 
Q 3156 559 3463 722 
L 3463 178 
Q 3153 47 2828 -22 
Q 2503 -91 2169 -91 
Q 1331 -91 842 396 
Q 353 884 353 1716 
Q 353 2575 817 3079 
Q 1281 3584 2069 3584 
Q 2775 3584 3186 3129 
Q 3597 2675 3597 1894 
z
M 3022 2063 
Q 3016 2534 2758 2815 
Q 2500 3097 2075 3097 
Q 1594 3097 1305 2825 
Q 1016 2553 972 2059 
L 3022 2063 
z
" transform="scale(0.015625)"/>
        <path id="DejaVuSans-73" d="M 2834 3397 
L 2834 2853 
Q 2591 2978 2328 3040 
Q 2066 3103 1784 3103 
Q 1356 3103 1142 2972 
Q 928 2841 928 2578 
Q 928 2378 1081 2264 
Q 1234 2150 1697 2047 
L 1894 2003 
Q 2506 1872 2764 1633 
Q 3022 1394 3022 966 
Q 3022 478 2636 193 
Q 2250 -91 1575 -91 
Q 1294 -91 989 -36 
Q 684 19 347 128 
L 347 722 
Q 666 556 975 473 
Q 1284 391 1588 391 
Q 1994 391 2212 530 
Q 2431 669 2431 922 
Q 2431 1156 2273 1281 
Q 2116 1406 1581 1522 
L 1381 1569 
Q 847 1681 609 1914 
Q 372 2147 372 2553 
Q 372 3047 722 3315 
Q 1072 3584 1716 3584 
Q 2034 3584 2315 3537 
Q 2597 3491 2834 3397 
z
" transform="scale(0.015625)"/>
        <path id="DejaVuSans-74" d="M 1172 4494 
L 1172 3500 
L 2356 3500 
L 2356 3053 
L 1172 3053 
L 1172 1153 
Q 1172 725 1289 603 
Q 1406 481 1766 481 
L 2356 481 
L 2356 0 
L 1766 0 
Q 1100 0 847 248 
Q 594 497 594 1153 
L 594 3053 
L 172 3053 
L 172 3500 
L 594 3500 
L 594 4494 
L 1172 4494 
z
" transform="scale(0.015625)"/>
       </defs>
       <use xlink:href="#DejaVuSans-54"/>
       <use xlink:href="#DejaVuSans-65" x="44.083984"/>
       <use xlink:href="#DejaVuSans-73" x="105.607422"/>
       <use xlink:href="#DejaVuSans-74" x="157.707031"/>
      </g>
     </g>
    </g>
    <g id="xtick_2">
     <g id="line2d_2">
      <g>
       <use xlink:href="#m3b21e2fc6b" x="257.4" y="320.4" style="stroke: #000000; stroke-width: 0.8"/>
      </g>
     </g>
     <g id="text_2">
      <!-- Random -->
      <g transform="translate(211.863438 344.116562) scale(0.22 -0.22)">
       <defs>
        <path id="DejaVuSans-52" d="M 2841 2188 
Q 3044 2119 3236 1894 
Q 3428 1669 3622 1275 
L 4263 0 
L 3584 0 
L 2988 1197 
Q 2756 1666 2539 1819 
Q 2322 1972 1947 1972 
L 1259 1972 
L 1259 0 
L 628 0 
L 628 4666 
L 2053 4666 
Q 2853 4666 3247 4331 
Q 3641 3997 3641 3322 
Q 3641 2881 3436 2590 
Q 3231 2300 2841 2188 
z
M 1259 4147 
L 1259 2491 
L 2053 2491 
Q 2509 2491 2742 2702 
Q 2975 2913 2975 3322 
Q 2975 3731 2742 3939 
Q 2509 4147 2053 4147 
L 1259 4147 
z
" transform="scale(0.015625)"/>
        <path id="DejaVuSans-61" d="M 2194 1759 
Q 1497 1759 1228 1600 
Q 959 1441 959 1056 
Q 959 750 1161 570 
Q 1363 391 1709 391 
Q 2188 391 2477 730 
Q 2766 1069 2766 1631 
L 2766 1759 
L 2194 1759 
z
M 3341 1997 
L 3341 0 
L 2766 0 
L 2766 531 
Q 2569 213 2275 61 
Q 1981 -91 1556 -91 
Q 1019 -91 701 211 
Q 384 513 384 1019 
Q 384 1609 779 1909 
Q 1175 2209 1959 2209 
L 2766 2209 
L 2766 2266 
Q 2766 2663 2505 2880 
Q 2244 3097 1772 3097 
Q 1472 3097 1187 3025 
Q 903 2953 641 2809 
L 641 3341 
Q 956 3463 1253 3523 
Q 1550 3584 1831 3584 
Q 2591 3584 2966 3190 
Q 3341 2797 3341 1997 
z
" transform="scale(0.015625)"/>
        <path id="DejaVuSans-6e" d="M 3513 2113 
L 3513 0 
L 2938 0 
L 2938 2094 
Q 2938 2591 2744 2837 
Q 2550 3084 2163 3084 
Q 1697 3084 1428 2787 
Q 1159 2491 1159 1978 
L 1159 0 
L 581 0 
L 581 3500 
L 1159 3500 
L 1159 2956 
Q 1366 3272 1645 3428 
Q 1925 3584 2291 3584 
Q 2894 3584 3203 3211 
Q 3513 2838 3513 2113 
z
" transform="scale(0.015625)"/>
        <path id="DejaVuSans-64" d="M 2906 2969 
L 2906 4863 
L 3481 4863 
L 3481 0 
L 2906 0 
L 2906 525 
Q 2725 213 2448 61 
Q 2172 -91 1784 -91 
Q 1150 -91 751 415 
Q 353 922 353 1747 
Q 353 2572 751 3078 
Q 1150 3584 1784 3584 
Q 2172 3584 2448 3432 
Q 2725 3281 2906 2969 
z
M 947 1747 
Q 947 1113 1208 752 
Q 1469 391 1925 391 
Q 2381 391 2643 752 
Q 2906 1113 2906 1747 
Q 2906 2381 2643 2742 
Q 2381 3103 1925 3103 
Q 1469 3103 1208 2742 
Q 947 2381 947 1747 
z
" transform="scale(0.015625)"/>
        <path id="DejaVuSans-6f" d="M 1959 3097 
Q 1497 3097 1228 2736 
Q 959 2375 959 1747 
Q 959 1119 1226 758 
Q 1494 397 1959 397 
Q 2419 397 2687 759 
Q 2956 1122 2956 1747 
Q 2956 2369 2687 2733 
Q 2419 3097 1959 3097 
z
M 1959 3584 
Q 2709 3584 3137 3096 
Q 3566 2609 3566 1747 
Q 3566 888 3137 398 
Q 2709 -91 1959 -91 
Q 1206 -91 779 398 
Q 353 888 353 1747 
Q 353 2609 779 3096 
Q 1206 3584 1959 3584 
z
" transform="scale(0.015625)"/>
        <path id="DejaVuSans-6d" d="M 3328 2828 
Q 3544 3216 3844 3400 
Q 4144 3584 4550 3584 
Q 5097 3584 5394 3201 
Q 5691 2819 5691 2113 
L 5691 0 
L 5113 0 
L 5113 2094 
Q 5113 2597 4934 2840 
Q 4756 3084 4391 3084 
Q 3944 3084 3684 2787 
Q 3425 2491 3425 1978 
L 3425 0 
L 2847 0 
L 2847 2094 
Q 2847 2600 2669 2842 
Q 2491 3084 2119 3084 
Q 1678 3084 1418 2786 
Q 1159 2488 1159 1978 
L 1159 0 
L 581 0 
L 581 3500 
L 1159 3500 
L 1159 2956 
Q 1356 3278 1631 3431 
Q 1906 3584 2284 3584 
Q 2666 3584 2933 3390 
Q 3200 3197 3328 2828 
z
" transform="scale(0.015625)"/>
       </defs>
       <use xlink:href="#DejaVuSans-52"/>
       <use xlink:href="#DejaVuSans-61" x="67.232422"/>
       <use xlink:href="#DejaVuSans-6e" x="128.511719"/>
       <use xlink:href="#DejaVuSans-64" x="191.890625"/>
       <use xlink:href="#DejaVuSans-6f" x="255.367188"/>
       <use xlink:href="#DejaVuSans-6d" x="316.548828"/>
      </g>
     </g>
    </g>
    <g id="xtick_3">
     <g id="line2d_3">
      <g>
       <use xlink:href="#m3b21e2fc6b" x="369" y="320.4" style="stroke: #000000; stroke-width: 0.8"/>
      </g>
     </g>
     <g id="text_3">
      <!-- Pretrain -->
      <g transform="translate(325.914375 344.116562) scale(0.22 -0.22)">
       <defs>
        <path id="DejaVuSans-50" d="M 1259 4147 
L 1259 2394 
L 2053 2394 
Q 2494 2394 2734 2622 
Q 2975 2850 2975 3272 
Q 2975 3691 2734 3919 
Q 2494 4147 2053 4147 
L 1259 4147 
z
M 628 4666 
L 2053 4666 
Q 2838 4666 3239 4311 
Q 3641 3956 3641 3272 
Q 3641 2581 3239 2228 
Q 2838 1875 2053 1875 
L 1259 1875 
L 1259 0 
L 628 0 
L 628 4666 
z
" transform="scale(0.015625)"/>
        <path id="DejaVuSans-72" d="M 2631 2963 
Q 2534 3019 2420 3045 
Q 2306 3072 2169 3072 
Q 1681 3072 1420 2755 
Q 1159 2438 1159 1844 
L 1159 0 
L 581 0 
L 581 3500 
L 1159 3500 
L 1159 2956 
Q 1341 3275 1631 3429 
Q 1922 3584 2338 3584 
Q 2397 3584 2469 3576 
Q 2541 3569 2628 3553 
L 2631 2963 
z
" transform="scale(0.015625)"/>
        <path id="DejaVuSans-69" d="M 603 3500 
L 1178 3500 
L 1178 0 
L 603 0 
L 603 3500 
z
M 603 4863 
L 1178 4863 
L 1178 4134 
L 603 4134 
L 603 4863 
z
" transform="scale(0.015625)"/>
       </defs>
       <use xlink:href="#DejaVuSans-50"/>
       <use xlink:href="#DejaVuSans-72" x="58.552734"/>
       <use xlink:href="#DejaVuSans-65" x="97.416016"/>
       <use xlink:href="#DejaVuSans-74" x="158.939453"/>
       <use xlink:href="#DejaVuSans-72" x="198.148438"/>
       <use xlink:href="#DejaVuSans-61" x="239.261719"/>
       <use xlink:href="#DejaVuSans-69" x="300.541016"/>
       <use xlink:href="#DejaVuSans-6e" x="328.324219"/>
      </g>
     </g>
    </g>
    <g id="xtick_4">
     <g id="line2d_4">
      <g>
       <use xlink:href="#m3b21e2fc6b" x="480.6" y="320.4" style="stroke: #000000; stroke-width: 0.8"/>
      </g>
     </g>
     <g id="text_4">
      <!-- Finetune -->
      <g transform="translate(433.251875 344.116562) scale(0.22 -0.22)">
       <defs>
        <path id="DejaVuSans-46" d="M 628 4666 
L 3309 4666 
L 3309 4134 
L 1259 4134 
L 1259 2759 
L 3109 2759 
L 3109 2228 
L 1259 2228 
L 1259 0 
L 628 0 
L 628 4666 
z
" transform="scale(0.015625)"/>
        <path id="DejaVuSans-75" d="M 544 1381 
L 544 3500 
L 1119 3500 
L 1119 1403 
Q 1119 906 1312 657 
Q 1506 409 1894 409 
Q 2359 409 2629 706 
Q 2900 1003 2900 1516 
L 2900 3500 
L 3475 3500 
L 3475 0 
L 2900 0 
L 2900 538 
Q 2691 219 2414 64 
Q 2138 -91 1772 -91 
Q 1169 -91 856 284 
Q 544 659 544 1381 
z
M 1991 3584 
L 1991 3584 
z
" transform="scale(0.015625)"/>
       </defs>
       <use xlink:href="#DejaVuSans-46"/>
       <use xlink:href="#DejaVuSans-69" x="50.269531"/>
       <use xlink:href="#DejaVuSans-6e" x="78.052734"/>
       <use xlink:href="#DejaVuSans-65" x="141.431641"/>
       <use xlink:href="#DejaVuSans-74" x="202.955078"/>
       <use xlink:href="#DejaVuSans-75" x="242.164062"/>
       <use xlink:href="#DejaVuSans-6e" x="305.542969"/>
       <use xlink:href="#DejaVuSans-65" x="368.921875"/>
      </g>
     </g>
    </g>
    <g id="xtick_5">
     <g id="line2d_5">
      <g>
       <use xlink:href="#m3b21e2fc6b" x="592.2" y="320.4" style="stroke: #000000; stroke-width: 0.8"/>
      </g>
     </g>
     <g id="text_5">
      <!-- Prefix -->
      <g transform="translate(561.277969 344.116562) scale(0.22 -0.22)">
       <defs>
        <path id="DejaVuSans-66" d="M 2375 4863 
L 2375 4384 
L 1825 4384 
Q 1516 4384 1395 4259 
Q 1275 4134 1275 3809 
L 1275 3500 
L 2222 3500 
L 2222 3053 
L 1275 3053 
L 1275 0 
L 697 0 
L 697 3053 
L 147 3053 
L 147 3500 
L 697 3500 
L 697 3744 
Q 697 4328 969 4595 
Q 1241 4863 1831 4863 
L 2375 4863 
z
" transform="scale(0.015625)"/>
        <path id="DejaVuSans-78" d="M 3513 3500 
L 2247 1797 
L 3578 0 
L 2900 0 
L 1881 1375 
L 863 0 
L 184 0 
L 1544 1831 
L 300 3500 
L 978 3500 
L 1906 2253 
L 2834 3500 
L 3513 3500 
z
" transform="scale(0.015625)"/>
       </defs>
       <use xlink:href="#DejaVuSans-50"/>
       <use xlink:href="#DejaVuSans-72" x="58.552734"/>
       <use xlink:href="#DejaVuSans-65" x="97.416016"/>
       <use xlink:href="#DejaVuSans-66" x="158.939453"/>
       <use xlink:href="#DejaVuSans-69" x="194.144531"/>
       <use xlink:href="#DejaVuSans-78" x="221.927734"/>
      </g>
     </g>
    </g>
   </g>
   <g id="matplotlib.axis_2">
    <g id="ytick_1">
     <g id="line2d_6">
      <defs>
       <path id="m59c1fe6858" d="M 0 0 
L -3.5 0 
" style="stroke: #000000; stroke-width: 0.8"/>
      </defs>
      <g>
       <use xlink:href="#m59c1fe6858" x="90" y="286.945677" style="stroke: #000000; stroke-width: 0.8"/>
      </g>
     </g>
     <g id="text_6">
      <!-- −0.002 -->
      <g transform="translate(-2.117969 295.68388) scale(0.23 -0.23)">
       <defs>
        <path id="DejaVuSans-2212" d="M 678 2272 
L 4684 2272 
L 4684 1741 
L 678 1741 
L 678 2272 
z
" transform="scale(0.015625)"/>
        <path id="DejaVuSans-30" d="M 2034 4250 
Q 1547 4250 1301 3770 
Q 1056 3291 1056 2328 
Q 1056 1369 1301 889 
Q 1547 409 2034 409 
Q 2525 409 2770 889 
Q 3016 1369 3016 2328 
Q 3016 3291 2770 3770 
Q 2525 4250 2034 4250 
z
M 2034 4750 
Q 2819 4750 3233 4129 
Q 3647 3509 3647 2328 
Q 3647 1150 3233 529 
Q 2819 -91 2034 -91 
Q 1250 -91 836 529 
Q 422 1150 422 2328 
Q 422 3509 836 4129 
Q 1250 4750 2034 4750 
z
" transform="scale(0.015625)"/>
        <path id="DejaVuSans-2e" d="M 684 794 
L 1344 794 
L 1344 0 
L 684 0 
L 684 794 
z
" transform="scale(0.015625)"/>
        <path id="DejaVuSans-32" d="M 1228 531 
L 3431 531 
L 3431 0 
L 469 0 
L 469 531 
Q 828 903 1448 1529 
Q 2069 2156 2228 2338 
Q 2531 2678 2651 2914 
Q 2772 3150 2772 3378 
Q 2772 3750 2511 3984 
Q 2250 4219 1831 4219 
Q 1534 4219 1204 4116 
Q 875 4013 500 3803 
L 500 4441 
Q 881 4594 1212 4672 
Q 1544 4750 1819 4750 
Q 2544 4750 2975 4387 
Q 3406 4025 3406 3419 
Q 3406 3131 3298 2873 
Q 3191 2616 2906 2266 
Q 2828 2175 2409 1742 
Q 1991 1309 1228 531 
z
" transform="scale(0.015625)"/>
       </defs>
       <use xlink:href="#DejaVuSans-2212"/>
       <use xlink:href="#DejaVuSans-30" x="83.789062"/>
       <use xlink:href="#DejaVuSans-2e" x="147.412109"/>
       <use xlink:href="#DejaVuSans-30" x="179.199219"/>
       <use xlink:href="#DejaVuSans-30" x="242.822266"/>
       <use xlink:href="#DejaVuSans-32" x="306.445312"/>
      </g>
     </g>
    </g>
    <g id="ytick_2">
     <g id="line2d_7">
      <g>
       <use xlink:href="#m59c1fe6858" x="90" y="236.488885" style="stroke: #000000; stroke-width: 0.8"/>
      </g>
     </g>
     <g id="text_7">
      <!-- 0.000 -->
      <g transform="translate(17.155312 245.227089) scale(0.23 -0.23)">
       <use xlink:href="#DejaVuSans-30"/>
       <use xlink:href="#DejaVuSans-2e" x="63.623047"/>
       <use xlink:href="#DejaVuSans-30" x="95.410156"/>
       <use xlink:href="#DejaVuSans-30" x="159.033203"/>
       <use xlink:href="#DejaVuSans-30" x="222.65625"/>
      </g>
     </g>
    </g>
    <g id="ytick_3">
     <g id="line2d_8">
      <g>
       <use xlink:href="#m59c1fe6858" x="90" y="186.032094" style="stroke: #000000; stroke-width: 0.8"/>
      </g>
     </g>
     <g id="text_8">
      <!-- 0.002 -->
      <g transform="translate(17.155312 194.770298) scale(0.23 -0.23)">
       <use xlink:href="#DejaVuSans-30"/>
       <use xlink:href="#DejaVuSans-2e" x="63.623047"/>
       <use xlink:href="#DejaVuSans-30" x="95.410156"/>
       <use xlink:href="#DejaVuSans-30" x="159.033203"/>
       <use xlink:href="#DejaVuSans-32" x="222.65625"/>
      </g>
     </g>
    </g>
    <g id="ytick_4">
     <g id="line2d_9">
      <g>
       <use xlink:href="#m59c1fe6858" x="90" y="135.575303" style="stroke: #000000; stroke-width: 0.8"/>
      </g>
     </g>
     <g id="text_9">
      <!-- 0.004 -->
      <g transform="translate(17.155312 144.313506) scale(0.23 -0.23)">
       <defs>
        <path id="DejaVuSans-34" d="M 2419 4116 
L 825 1625 
L 2419 1625 
L 2419 4116 
z
M 2253 4666 
L 3047 4666 
L 3047 1625 
L 3713 1625 
L 3713 1100 
L 3047 1100 
L 3047 0 
L 2419 0 
L 2419 1100 
L 313 1100 
L 313 1709 
L 2253 4666 
z
" transform="scale(0.015625)"/>
       </defs>
       <use xlink:href="#DejaVuSans-30"/>
       <use xlink:href="#DejaVuSans-2e" x="63.623047"/>
       <use xlink:href="#DejaVuSans-30" x="95.410156"/>
       <use xlink:href="#DejaVuSans-30" x="159.033203"/>
       <use xlink:href="#DejaVuSans-34" x="222.65625"/>
      </g>
     </g>
    </g>
    <g id="ytick_5">
     <g id="line2d_10">
      <g>
       <use xlink:href="#m59c1fe6858" x="90" y="85.118512" style="stroke: #000000; stroke-width: 0.8"/>
      </g>
     </g>
     <g id="text_10">
      <!-- 0.006 -->
      <g transform="translate(17.155312 93.856715) scale(0.23 -0.23)">
       <defs>
        <path id="DejaVuSans-36" d="M 2113 2584 
Q 1688 2584 1439 2293 
Q 1191 2003 1191 1497 
Q 1191 994 1439 701 
Q 1688 409 2113 409 
Q 2538 409 2786 701 
Q 3034 994 3034 1497 
Q 3034 2003 2786 2293 
Q 2538 2584 2113 2584 
z
M 3366 4563 
L 3366 3988 
Q 3128 4100 2886 4159 
Q 2644 4219 2406 4219 
Q 1781 4219 1451 3797 
Q 1122 3375 1075 2522 
Q 1259 2794 1537 2939 
Q 1816 3084 2150 3084 
Q 2853 3084 3261 2657 
Q 3669 2231 3669 1497 
Q 3669 778 3244 343 
Q 2819 -91 2113 -91 
Q 1303 -91 875 529 
Q 447 1150 447 2328 
Q 447 3434 972 4092 
Q 1497 4750 2381 4750 
Q 2619 4750 2861 4703 
Q 3103 4656 3366 4563 
z
" transform="scale(0.015625)"/>
       </defs>
       <use xlink:href="#DejaVuSans-30"/>
       <use xlink:href="#DejaVuSans-2e" x="63.623047"/>
       <use xlink:href="#DejaVuSans-30" x="95.410156"/>
       <use xlink:href="#DejaVuSans-30" x="159.033203"/>
       <use xlink:href="#DejaVuSans-36" x="222.65625"/>
      </g>
     </g>
    </g>
   </g>
   <g id="line2d_11">
    <path d="M 145.8 259.837005 
L 145.8 103.594139 
" clip-path="url(#p4ac6bc1323)" style="fill: none; stroke: #666666; stroke-linecap: square"/>
   </g>
   <g id="line2d_12">
    <path d="M 145.8 202.705803 
L 145.8 162.412984 
" clip-path="url(#p4ac6bc1323)" style="fill: none; stroke: #666666; stroke-width: 3; stroke-linecap: square"/>
   </g>
   <g id="line2d_13">
    <path d="M 257.4 232.759832 
L 257.4 133.551923 
" clip-path="url(#p4ac6bc1323)" style="fill: none; stroke: #666666; stroke-linecap: square"/>
   </g>
   <g id="line2d_14">
    <path d="M 257.4 196.890649 
L 257.4 171.373947 
" clip-path="url(#p4ac6bc1323)" style="fill: none; stroke: #666666; stroke-width: 3; stroke-linecap: square"/>
   </g>
   <g id="line2d_15">
    <path d="M 369 273.184341 
L 369 191.564274 
" clip-path="url(#p4ac6bc1323)" style="fill: none; stroke: #666666; stroke-linecap: square"/>
   </g>
   <g id="line2d_16">
    <path d="M 369 242.754225 
L 369 222.258824 
" clip-path="url(#p4ac6bc1323)" style="fill: none; stroke: #666666; stroke-width: 3; stroke-linecap: square"/>
   </g>
   <g id="line2d_17">
    <path d="M 480.6 243.376466 
L 480.6 107.260244 
" clip-path="url(#p4ac6bc1323)" style="fill: none; stroke: #666666; stroke-linecap: square"/>
   </g>
   <g id="line2d_18">
    <path d="M 480.6 192.381295 
L 480.6 158.112616 
" clip-path="url(#p4ac6bc1323)" style="fill: none; stroke: #666666; stroke-width: 3; stroke-linecap: square"/>
   </g>
   <g id="line2d_19">
    <path d="M 592.2 246.889418 
L 592.2 102.830106 
" clip-path="url(#p4ac6bc1323)" style="fill: none; stroke: #666666; stroke-linecap: square"/>
   </g>
   <g id="line2d_20">
    <path d="M 592.2 201.616661 
L 592.2 160.510644 
" clip-path="url(#p4ac6bc1323)" style="fill: none; stroke: #666666; stroke-width: 3; stroke-linecap: square"/>
   </g>
   <g id="patch_3">
    <path d="M 90 320.4 
L 90 43.2 
" style="fill: none; stroke: #000000; stroke-width: 0.8; stroke-linejoin: miter; stroke-linecap: square"/>
   </g>
   <g id="patch_4">
    <path d="M 648 320.4 
L 648 43.2 
" style="fill: none; stroke: #000000; stroke-width: 0.8; stroke-linejoin: miter; stroke-linecap: square"/>
   </g>
   <g id="patch_5">
    <path d="M 90 320.4 
L 648 320.4 
" style="fill: none; stroke: #000000; stroke-width: 0.8; stroke-linejoin: miter; stroke-linecap: square"/>
   </g>
   <g id="patch_6">
    <path d="M 90 43.2 
L 648 43.2 
" style="fill: none; stroke: #000000; stroke-width: 0.8; stroke-linejoin: miter; stroke-linecap: square"/>
   </g>
   <g id="PathCollection_1">
    <defs>
     <path id="m7edb3b028d" d="M 0 1 
C 0.265203 1 0.51958 0.894634 0.707107 0.707107 
C 0.894634 0.51958 1 0.265203 1 0 
C 1 -0.265203 0.894634 -0.51958 0.707107 -0.707107 
C 0.51958 -0.894634 0.265203 -1 0 -1 
C -0.265203 -1 -0.51958 -0.894634 -0.707107 -0.707107 
C -0.894634 -0.51958 -1 -0.265203 -1 0 
C -1 0.265203 -0.894634 0.51958 -0.707107 0.707107 
C -0.51958 0.894634 -0.265203 1 0 1 
z
" style="stroke: #666666"/>
    </defs>
    <g clip-path="url(#p4ac6bc1323)">
     <use xlink:href="#m7edb3b028d" x="145.8" y="180.673443" style="fill: #ffffff; stroke: #666666"/>
    </g>
   </g>
   <g id="PathCollection_2">
    <g clip-path="url(#p4ac6bc1323)">
     <use xlink:href="#m7edb3b028d" x="257.4" y="184.911859" style="fill: #ffffff; stroke: #666666"/>
    </g>
   </g>
   <g id="PathCollection_3">
    <g clip-path="url(#p4ac6bc1323)">
     <use xlink:href="#m7edb3b028d" x="369" y="232.053465" style="fill: #ffffff; stroke: #666666"/>
    </g>
   </g>
   <g id="PathCollection_4">
    <g clip-path="url(#p4ac6bc1323)">
     <use xlink:href="#m7edb3b028d" x="480.6" y="175.451582" style="fill: #ffffff; stroke: #666666"/>
    </g>
   </g>
   <g id="PathCollection_5">
    <g clip-path="url(#p4ac6bc1323)">
     <use xlink:href="#m7edb3b028d" x="592.2" y="181.695732" style="fill: #ffffff; stroke: #666666"/>
    </g>
   </g>
   <g id="text_11">
    <!-- Charge Density -->
    <g transform="translate(264.940313 37.2) scale(0.27 -0.27)">
     <defs>
      <path id="DejaVuSans-43" d="M 4122 4306 
L 4122 3641 
Q 3803 3938 3442 4084 
Q 3081 4231 2675 4231 
Q 1875 4231 1450 3742 
Q 1025 3253 1025 2328 
Q 1025 1406 1450 917 
Q 1875 428 2675 428 
Q 3081 428 3442 575 
Q 3803 722 4122 1019 
L 4122 359 
Q 3791 134 3420 21 
Q 3050 -91 2638 -91 
Q 1578 -91 968 557 
Q 359 1206 359 2328 
Q 359 3453 968 4101 
Q 1578 4750 2638 4750 
Q 3056 4750 3426 4639 
Q 3797 4528 4122 4306 
z
" transform="scale(0.015625)"/>
      <path id="DejaVuSans-68" d="M 3513 2113 
L 3513 0 
L 2938 0 
L 2938 2094 
Q 2938 2591 2744 2837 
Q 2550 3084 2163 3084 
Q 1697 3084 1428 2787 
Q 1159 2491 1159 1978 
L 1159 0 
L 581 0 
L 581 4863 
L 1159 4863 
L 1159 2956 
Q 1366 3272 1645 3428 
Q 1925 3584 2291 3584 
Q 2894 3584 3203 3211 
Q 3513 2838 3513 2113 
z
" transform="scale(0.015625)"/>
      <path id="DejaVuSans-67" d="M 2906 1791 
Q 2906 2416 2648 2759 
Q 2391 3103 1925 3103 
Q 1463 3103 1205 2759 
Q 947 2416 947 1791 
Q 947 1169 1205 825 
Q 1463 481 1925 481 
Q 2391 481 2648 825 
Q 2906 1169 2906 1791 
z
M 3481 434 
Q 3481 -459 3084 -895 
Q 2688 -1331 1869 -1331 
Q 1566 -1331 1297 -1286 
Q 1028 -1241 775 -1147 
L 775 -588 
Q 1028 -725 1275 -790 
Q 1522 -856 1778 -856 
Q 2344 -856 2625 -561 
Q 2906 -266 2906 331 
L 2906 616 
Q 2728 306 2450 153 
Q 2172 0 1784 0 
Q 1141 0 747 490 
Q 353 981 353 1791 
Q 353 2603 747 3093 
Q 1141 3584 1784 3584 
Q 2172 3584 2450 3431 
Q 2728 3278 2906 2969 
L 2906 3500 
L 3481 3500 
L 3481 434 
z
" transform="scale(0.015625)"/>
      <path id="DejaVuSans-20" transform="scale(0.015625)"/>
      <path id="DejaVuSans-44" d="M 1259 4147 
L 1259 519 
L 2022 519 
Q 2988 519 3436 956 
Q 3884 1394 3884 2338 
Q 3884 3275 3436 3711 
Q 2988 4147 2022 4147 
L 1259 4147 
z
M 628 4666 
L 1925 4666 
Q 3281 4666 3915 4102 
Q 4550 3538 4550 2338 
Q 4550 1131 3912 565 
Q 3275 0 1925 0 
L 628 0 
L 628 4666 
z
" transform="scale(0.015625)"/>
      <path id="DejaVuSans-79" d="M 2059 -325 
Q 1816 -950 1584 -1140 
Q 1353 -1331 966 -1331 
L 506 -1331 
L 506 -850 
L 844 -850 
Q 1081 -850 1212 -737 
Q 1344 -625 1503 -206 
L 1606 56 
L 191 3500 
L 800 3500 
L 1894 763 
L 2988 3500 
L 3597 3500 
L 2059 -325 
z
" transform="scale(0.015625)"/>
     </defs>
     <use xlink:href="#DejaVuSans-43"/>
     <use xlink:href="#DejaVuSans-68" x="69.824219"/>
     <use xlink:href="#DejaVuSans-61" x="133.203125"/>
     <use xlink:href="#DejaVuSans-72" x="194.482422"/>
     <use xlink:href="#DejaVuSans-67" x="233.845703"/>
     <use xlink:href="#DejaVuSans-65" x="297.322266"/>
     <use xlink:href="#DejaVuSans-20" x="358.845703"/>
     <use xlink:href="#DejaVuSans-44" x="390.632812"/>
     <use xlink:href="#DejaVuSans-65" x="467.634766"/>
     <use xlink:href="#DejaVuSans-6e" x="529.158203"/>
     <use xlink:href="#DejaVuSans-73" x="592.537109"/>
     <use xlink:href="#DejaVuSans-69" x="644.636719"/>
     <use xlink:href="#DejaVuSans-74" x="672.419922"/>
     <use xlink:href="#DejaVuSans-79" x="711.628906"/>
    </g>
   </g>
  </g>
 </g>
 <defs>
  <clipPath id="p4ac6bc1323">
   <rect x="90" y="43.2" width="558" height="277.2"/>
  </clipPath>
 </defs>
</svg>
