<?xml version="1.0" encoding="utf-8" standalone="no"?>
<!DOCTYPE svg PUBLIC "-//W3C//DTD SVG 1.1//EN"
  "http://www.w3.org/Graphics/SVG/1.1/DTD/svg11.dtd">
<svg xmlns:xlink="http://www.w3.org/1999/xlink" width="720pt" height="360pt" viewBox="0 0 720 360" xmlns="http://www.w3.org/2000/svg" version="1.1">
 <metadata>
  <rdf:RDF xmlns:dc="http://purl.org/dc/elements/1.1/" xmlns:cc="http://creativecommons.org/ns#" xmlns:rdf="http://www.w3.org/1999/02/22-rdf-syntax-ns#">
   <cc:Work>
    <dc:type rdf:resource="http://purl.org/dc/dcmitype/StillImage"/>
    <dc:date>2023-09-12T11:11:14.114513</dc:date>
    <dc:format>image/svg+xml</dc:format>
    <dc:creator>
     <cc:Agent>
      <dc:title>Matplotlib v3.7.1, https://matplotlib.org/</dc:title>
     </cc:Agent>
    </dc:creator>
   </cc:Work>
  </rdf:RDF>
 </metadata>
 <defs>
  <style type="text/css">*{stroke-linejoin: round; stroke-linecap: butt}</style>
 </defs>
 <g id="figure_1">
  <g id="patch_1">
   <path d="M 0 360 
L 720 360 
L 720 0 
L 0 0 
L 0 360 
z
" style="fill: none"/>
  </g>
  <g id="axes_1">
   <g id="patch_2">
    <path d="M 90 320.4 
L 648 320.4 
L 648 43.2 
L 90 43.2 
L 90 320.4 
z
" style="fill: none"/>
   </g>
   <g id="PolyCollection_1">
    <defs>
     <path id="m819a6ca08c" d="M 146.00396 -93.844483 
L 145.59604 -93.844483 
L 145.398931 -95.475234 
L 145.15874 -97.105986 
L 144.955844 -98.736737 
L 144.866221 -100.367489 
L 144.894945 -101.998241 
L 144.978116 -103.628992 
L 145.044356 -105.259744 
L 145.05848 -106.890495 
L 145.021916 -108.521247 
L 144.929728 -110.151999 
L 144.715684 -111.78275 
L 144.277615 -113.413502 
L 143.599812 -115.044253 
L 142.758146 -116.675005 
L 141.625103 -118.305757 
L 139.618894 -119.936508 
L 136.037517 -121.56726 
L 130.932139 -123.198011 
L 125.603385 -124.828763 
L 121.602819 -126.459515 
L 119.127113 -128.090266 
L 117.052323 -129.721018 
L 114.227932 -131.351769 
L 110.386969 -132.982521 
L 106.330842 -134.613272 
L 103.145338 -136.244024 
L 101.408208 -137.874776 
L 101.16 -139.505527 
L 101.825044 -141.136279 
L 102.693562 -142.76703 
L 103.739491 -144.397782 
L 105.453748 -146.028534 
L 108.372724 -147.659285 
L 112.479298 -149.290037 
L 116.94561 -150.920788 
L 121.068141 -152.55154 
L 124.712336 -154.182292 
L 127.820416 -155.813043 
L 130.332007 -157.443795 
L 132.316952 -159.074546 
L 133.965001 -160.705298 
L 135.445135 -162.336049 
L 136.703574 -163.966801 
L 137.608784 -165.597553 
L 138.205977 -167.228304 
L 138.704521 -168.859056 
L 139.309787 -170.489807 
L 140.073423 -172.120559 
L 140.941451 -173.751311 
L 141.846294 -175.382062 
L 142.691875 -177.012814 
L 143.411648 -178.643565 
L 143.990175 -180.274317 
L 144.364801 -181.905069 
L 144.463129 -183.53582 
L 144.364485 -185.166572 
L 144.304936 -186.797323 
L 144.452818 -188.428075 
L 144.724716 -190.058827 
L 144.903349 -191.689578 
L 144.905698 -193.32033 
L 144.868934 -194.951081 
L 144.973825 -196.581833 
L 145.233587 -198.212584 
L 145.508346 -199.843336 
L 145.680706 -201.474088 
L 145.735664 -203.104839 
L 145.709491 -204.735591 
L 145.645949 -206.366342 
L 145.596126 -207.997094 
L 145.601234 -209.627846 
L 145.657898 -211.258597 
L 145.725533 -212.889349 
L 145.771396 -214.5201 
L 145.791946 -216.150852 
L 145.798338 -217.781604 
L 145.799749 -219.412355 
L 145.799972 -221.043107 
L 145.799998 -222.673858 
L 145.8 -224.30461 
L 145.8 -225.935362 
L 145.8 -227.566113 
L 145.8 -229.196865 
L 145.8 -230.827616 
L 145.8 -232.458368 
L 145.8 -234.089119 
L 145.8 -235.719871 
L 145.8 -237.350623 
L 145.799994 -238.981374 
L 145.799934 -240.612126 
L 145.799471 -242.242877 
L 145.796888 -243.873629 
L 145.786575 -245.504381 
L 145.757555 -247.135132 
L 145.701633 -248.765884 
L 145.632904 -250.396635 
L 145.591945 -252.027387 
L 145.610117 -253.658139 
L 145.672976 -255.28889 
L 145.927024 -255.28889 
L 145.927024 -255.28889 
L 145.989883 -253.658139 
L 146.008055 -252.027387 
L 145.967096 -250.396635 
L 145.898367 -248.765884 
L 145.842445 -247.135132 
L 145.813425 -245.504381 
L 145.803112 -243.873629 
L 145.800529 -242.242877 
L 145.800066 -240.612126 
L 145.800006 -238.981374 
L 145.8 -237.350623 
L 145.8 -235.719871 
L 145.8 -234.089119 
L 145.8 -232.458368 
L 145.8 -230.827616 
L 145.8 -229.196865 
L 145.8 -227.566113 
L 145.8 -225.935362 
L 145.8 -224.30461 
L 145.800002 -222.673858 
L 145.800028 -221.043107 
L 145.800251 -219.412355 
L 145.801662 -217.781604 
L 145.808054 -216.150852 
L 145.828604 -214.5201 
L 145.874467 -212.889349 
L 145.942102 -211.258597 
L 145.998766 -209.627846 
L 146.003874 -207.997094 
L 145.954051 -206.366342 
L 145.890509 -204.735591 
L 145.864336 -203.104839 
L 145.919294 -201.474088 
L 146.091654 -199.843336 
L 146.366413 -198.212584 
L 146.626175 -196.581833 
L 146.731066 -194.951081 
L 146.694302 -193.32033 
L 146.696651 -191.689578 
L 146.875284 -190.058827 
L 147.147182 -188.428075 
L 147.295064 -186.797323 
L 147.235515 -185.166572 
L 147.136871 -183.53582 
L 147.235199 -181.905069 
L 147.609825 -180.274317 
L 148.188352 -178.643565 
L 148.908125 -177.012814 
L 149.753706 -175.382062 
L 150.658549 -173.751311 
L 151.526577 -172.120559 
L 152.290213 -170.489807 
L 152.895479 -168.859056 
L 153.394023 -167.228304 
L 153.991216 -165.597553 
L 154.896426 -163.966801 
L 156.154865 -162.336049 
L 157.634999 -160.705298 
L 159.283048 -159.074546 
L 161.267993 -157.443795 
L 163.779584 -155.813043 
L 166.887664 -154.182292 
L 170.531859 -152.55154 
L 174.65439 -150.920788 
L 179.120702 -149.290037 
L 183.227276 -147.659285 
L 186.146252 -146.028534 
L 187.860509 -144.397782 
L 188.906438 -142.76703 
L 189.774956 -141.136279 
L 190.44 -139.505527 
L 190.191792 -137.874776 
L 188.454662 -136.244024 
L 185.269158 -134.613272 
L 181.213031 -132.982521 
L 177.372068 -131.351769 
L 174.547677 -129.721018 
L 172.472887 -128.090266 
L 169.997181 -126.459515 
L 165.996615 -124.828763 
L 160.667861 -123.198011 
L 155.562483 -121.56726 
L 151.981106 -119.936508 
L 149.974897 -118.305757 
L 148.841854 -116.675005 
L 148.000188 -115.044253 
L 147.322385 -113.413502 
L 146.884316 -111.78275 
L 146.670272 -110.151999 
L 146.578084 -108.521247 
L 146.54152 -106.890495 
L 146.555644 -105.259744 
L 146.621884 -103.628992 
L 146.705055 -101.998241 
L 146.733779 -100.367489 
L 146.644156 -98.736737 
L 146.44126 -97.105986 
L 146.201069 -95.475234 
L 146.00396 -93.844483 
z
" style="stroke: #666666"/>
    </defs>
    <g clip-path="url(#pcfea1c1dff)">
     <use xlink:href="#m819a6ca08c" x="0" y="360" style="fill: #96c7c2; stroke: #666666"/>
    </g>
   </g>
   <g id="PolyCollection_2">
    <defs>
     <path id="mea721e8436" d="M 258.63492 -116.882301 
L 256.16508 -116.882301 
L 255.538942 -118.075945 
L 254.735408 -119.269588 
L 253.756301 -120.463232 
L 252.617004 -121.656875 
L 251.34441 -122.850519 
L 249.973513 -124.044162 
L 248.543464 -125.237806 
L 247.094069 -126.431449 
L 245.66345 -127.625093 
L 244.286891 -128.818736 
L 242.996099 -130.012379 
L 241.817824 -131.206023 
L 240.77139 -132.399666 
L 239.865649 -133.59331 
L 239.096746 -134.786953 
L 238.448108 -135.980597 
L 237.893063 -137.17424 
L 237.398901 -138.367884 
L 236.930556 -139.561527 
L 236.452992 -140.755171 
L 235.933193 -141.948814 
L 235.343635 -143.142458 
L 234.668493 -144.336101 
L 233.911814 -145.529744 
L 233.104652 -146.723388 
L 232.306735 -147.917031 
L 231.598637 -149.110675 
L 231.063385 -150.304318 
L 230.761692 -151.497962 
L 230.710501 -152.691605 
L 230.876323 -153.885249 
L 231.189742 -155.078892 
L 231.576592 -156.272536 
L 231.990954 -157.466179 
L 232.432642 -158.659823 
L 232.939706 -159.853466 
L 233.56029 -161.04711 
L 234.31939 -162.240753 
L 235.197957 -163.434396 
L 236.133668 -164.62804 
L 237.040485 -165.821683 
L 237.835643 -167.015327 
L 238.462113 -168.20897 
L 238.900084 -169.402614 
L 239.167446 -170.596257 
L 239.312774 -171.789901 
L 239.404424 -172.983544 
L 239.518092 -174.177188 
L 239.724271 -175.370831 
L 240.077033 -176.564475 
L 240.605681 -177.758118 
L 241.310709 -178.951762 
L 242.164925 -180.145405 
L 243.119675 -181.339048 
L 244.114897 -182.532692 
L 245.090902 -183.726335 
L 245.999523 -184.919979 
L 246.81258 -186.113622 
L 247.525794 -187.307266 
L 248.156701 -188.500909 
L 248.736338 -189.694553 
L 249.296869 -190.888196 
L 249.859651 -192.08184 
L 250.428642 -193.275483 
L 250.991704 -194.469127 
L 251.528395 -195.66277 
L 252.019812 -196.856413 
L 252.455798 -198.050057 
L 252.837082 -199.2437 
L 253.17284 -200.437344 
L 253.475969 -201.630987 
L 253.758518 -202.824631 
L 254.028776 -204.018274 
L 254.290432 -205.211918 
L 254.543448 -206.405561 
L 254.786016 -207.599205 
L 255.016814 -208.792848 
L 255.236697 -209.986492 
L 255.449011 -211.180135 
L 255.658131 -212.373779 
L 255.866711 -213.567422 
L 256.073169 -214.761065 
L 256.271122 -215.954709 
L 256.451599 -217.148352 
L 256.607011 -218.341996 
L 256.734599 -219.535639 
L 256.83726 -220.729283 
L 256.921379 -221.922926 
L 256.993178 -223.11657 
L 257.055939 -224.310213 
L 257.109604 -225.503857 
L 257.152635 -226.6975 
L 257.184573 -227.891144 
L 257.207543 -229.084787 
L 257.225861 -230.27843 
L 257.244184 -231.472074 
L 257.265503 -232.665717 
L 257.290144 -233.859361 
L 257.316162 -235.053004 
L 257.483838 -235.053004 
L 257.483838 -235.053004 
L 257.509856 -233.859361 
L 257.534497 -232.665717 
L 257.555816 -231.472074 
L 257.574139 -230.27843 
L 257.592457 -229.084787 
L 257.615427 -227.891144 
L 257.647365 -226.6975 
L 257.690396 -225.503857 
L 257.744061 -224.310213 
L 257.806822 -223.11657 
L 257.878621 -221.922926 
L 257.96274 -220.729283 
L 258.065401 -219.535639 
L 258.192989 -218.341996 
L 258.348401 -217.148352 
L 258.528878 -215.954709 
L 258.726831 -214.761065 
L 258.933289 -213.567422 
L 259.141869 -212.373779 
L 259.350989 -211.180135 
L 259.563303 -209.986492 
L 259.783186 -208.792848 
L 260.013984 -207.599205 
L 260.256552 -206.405561 
L 260.509568 -205.211918 
L 260.771224 -204.018274 
L 261.041482 -202.824631 
L 261.324031 -201.630987 
L 261.62716 -200.437344 
L 261.962918 -199.2437 
L 262.344202 -198.050057 
L 262.780188 -196.856413 
L 263.271605 -195.66277 
L 263.808296 -194.469127 
L 264.371358 -193.275483 
L 264.940349 -192.08184 
L 265.503131 -190.888196 
L 266.063662 -189.694553 
L 266.643299 -188.500909 
L 267.274206 -187.307266 
L 267.98742 -186.113622 
L 268.800477 -184.919979 
L 269.709098 -183.726335 
L 270.685103 -182.532692 
L 271.680325 -181.339048 
L 272.635075 -180.145405 
L 273.489291 -178.951762 
L 274.194319 -177.758118 
L 274.722967 -176.564475 
L 275.075729 -175.370831 
L 275.281908 -174.177188 
L 275.395576 -172.983544 
L 275.487226 -171.789901 
L 275.632554 -170.596257 
L 275.899916 -169.402614 
L 276.337887 -168.20897 
L 276.964357 -167.015327 
L 277.759515 -165.821683 
L 278.666332 -164.62804 
L 279.602043 -163.434396 
L 280.48061 -162.240753 
L 281.23971 -161.04711 
L 281.860294 -159.853466 
L 282.367358 -158.659823 
L 282.809046 -157.466179 
L 283.223408 -156.272536 
L 283.610258 -155.078892 
L 283.923677 -153.885249 
L 284.089499 -152.691605 
L 284.038308 -151.497962 
L 283.736615 -150.304318 
L 283.201363 -149.110675 
L 282.493265 -147.917031 
L 281.695348 -146.723388 
L 280.888186 -145.529744 
L 280.131507 -144.336101 
L 279.456365 -143.142458 
L 278.866807 -141.948814 
L 278.347008 -140.755171 
L 277.869444 -139.561527 
L 277.401099 -138.367884 
L 276.906937 -137.17424 
L 276.351892 -135.980597 
L 275.703254 -134.786953 
L 274.934351 -133.59331 
L 274.02861 -132.399666 
L 272.982176 -131.206023 
L 271.803901 -130.012379 
L 270.513109 -128.818736 
L 269.13655 -127.625093 
L 267.705931 -126.431449 
L 266.256536 -125.237806 
L 264.826487 -124.044162 
L 263.45559 -122.850519 
L 262.182996 -121.656875 
L 261.043699 -120.463232 
L 260.064592 -119.269588 
L 259.261058 -118.075945 
L 258.63492 -116.882301 
z
" style="stroke: #666666"/>
    </defs>
    <g clip-path="url(#pcfea1c1dff)">
     <use xlink:href="#mea721e8436" x="0" y="360" style="fill: #eebe8b; stroke: #666666"/>
    </g>
   </g>
   <g id="PolyCollection_3">
    <defs>
     <path id="mfb45716aae" d="M 369.106582 -52.2 
L 368.893418 -52.2 
L 368.826094 -54.123095 
L 368.773885 -56.046189 
L 368.737895 -57.969284 
L 368.69756 -59.892378 
L 368.640183 -61.815473 
L 368.561156 -63.738568 
L 368.459358 -65.661662 
L 368.363719 -67.584757 
L 368.321852 -69.507852 
L 368.322728 -71.430946 
L 368.287551 -73.354041 
L 368.185661 -75.277135 
L 368.092587 -77.20023 
L 368.068115 -79.123325 
L 368.039029 -81.046419 
L 367.879899 -82.969514 
L 367.564692 -84.892608 
L 367.159059 -86.815703 
L 366.677072 -88.738798 
L 366.045115 -90.661892 
L 365.232809 -92.584987 
L 364.323045 -94.508081 
L 363.39009 -96.431176 
L 362.342445 -98.354271 
L 360.925589 -100.277365 
L 358.883837 -102.20046 
L 356.158139 -104.123555 
L 352.984241 -106.046649 
L 349.81197 -107.969744 
L 346.901345 -109.892838 
L 343.919853 -111.815933 
L 340.357034 -113.739028 
L 336.486206 -115.662122 
L 333.457456 -117.585217 
L 332.152887 -119.508311 
L 332.408699 -121.431406 
L 333.273175 -123.354501 
L 333.607375 -125.277595 
L 332.943195 -127.20069 
L 332.0749 -129.123784 
L 332.468029 -131.046879 
L 334.876284 -132.969974 
L 338.879836 -134.893068 
L 343.506293 -136.816163 
L 347.830141 -138.739258 
L 351.39075 -140.662352 
L 354.21991 -142.585447 
L 356.53039 -144.508541 
L 358.546573 -146.431636 
L 360.455171 -148.354731 
L 362.252033 -150.277825 
L 363.721093 -152.20092 
L 364.728046 -154.124014 
L 365.375003 -156.047109 
L 365.837197 -157.970204 
L 366.227461 -159.893298 
L 366.606362 -161.816393 
L 366.99059 -163.739487 
L 367.355675 -165.662582 
L 367.672406 -167.585677 
L 367.917771 -169.508771 
L 368.077914 -171.431866 
L 368.180442 -173.354961 
L 368.285652 -175.278055 
L 368.40985 -177.20115 
L 368.506365 -179.124244 
L 368.552075 -181.047339 
L 368.59448 -182.970434 
L 368.675123 -184.893528 
L 368.760795 -186.816623 
L 368.802206 -188.739717 
L 368.813522 -190.662812 
L 368.842524 -192.585907 
L 368.898559 -194.509001 
L 368.952657 -196.432096 
L 368.984197 -198.35519 
L 368.996239 -200.278285 
L 368.999362 -202.20138 
L 368.999923 -204.124474 
L 368.999993 -206.047569 
L 369 -207.970664 
L 369 -209.893758 
L 369 -211.816853 
L 369 -213.739947 
L 369 -215.663042 
L 369 -217.586137 
L 369 -219.509231 
L 369 -221.432326 
L 368.999999 -223.35542 
L 368.999979 -225.278515 
L 368.999793 -227.20161 
L 368.998526 -229.124704 
L 368.992536 -231.047799 
L 368.97307 -232.970893 
L 368.930787 -234.893988 
L 368.873283 -236.817083 
L 368.834739 -238.740177 
L 368.846468 -240.663272 
L 368.898394 -242.586367 
L 369.101606 -242.586367 
L 369.101606 -242.586367 
L 369.153532 -240.663272 
L 369.165261 -238.740177 
L 369.126717 -236.817083 
L 369.069213 -234.893988 
L 369.02693 -232.970893 
L 369.007464 -231.047799 
L 369.001474 -229.124704 
L 369.000207 -227.20161 
L 369.000021 -225.278515 
L 369.000001 -223.35542 
L 369 -221.432326 
L 369 -219.509231 
L 369 -217.586137 
L 369 -215.663042 
L 369 -213.739947 
L 369 -211.816853 
L 369 -209.893758 
L 369 -207.970664 
L 369.000007 -206.047569 
L 369.000077 -204.124474 
L 369.000638 -202.20138 
L 369.003761 -200.278285 
L 369.015803 -198.35519 
L 369.047343 -196.432096 
L 369.101441 -194.509001 
L 369.157476 -192.585907 
L 369.186478 -190.662812 
L 369.197794 -188.739717 
L 369.239205 -186.816623 
L 369.324877 -184.893528 
L 369.40552 -182.970434 
L 369.447925 -181.047339 
L 369.493635 -179.124244 
L 369.59015 -177.20115 
L 369.714348 -175.278055 
L 369.819558 -173.354961 
L 369.922086 -171.431866 
L 370.082229 -169.508771 
L 370.327594 -167.585677 
L 370.644325 -165.662582 
L 371.00941 -163.739487 
L 371.393638 -161.816393 
L 371.772539 -159.893298 
L 372.162803 -157.970204 
L 372.624997 -156.047109 
L 373.271954 -154.124014 
L 374.278907 -152.20092 
L 375.747967 -150.277825 
L 377.544829 -148.354731 
L 379.453427 -146.431636 
L 381.46961 -144.508541 
L 383.78009 -142.585447 
L 386.60925 -140.662352 
L 390.169859 -138.739258 
L 394.493707 -136.816163 
L 399.120164 -134.893068 
L 403.123716 -132.969974 
L 405.531971 -131.046879 
L 405.9251 -129.123784 
L 405.056805 -127.20069 
L 404.392625 -125.277595 
L 404.726825 -123.354501 
L 405.591301 -121.431406 
L 405.847113 -119.508311 
L 404.542544 -117.585217 
L 401.513794 -115.662122 
L 397.642966 -113.739028 
L 394.080147 -111.815933 
L 391.098655 -109.892838 
L 388.18803 -107.969744 
L 385.015759 -106.046649 
L 381.841861 -104.123555 
L 379.116163 -102.20046 
L 377.074411 -100.277365 
L 375.657555 -98.354271 
L 374.60991 -96.431176 
L 373.676955 -94.508081 
L 372.767191 -92.584987 
L 371.954885 -90.661892 
L 371.322928 -88.738798 
L 370.840941 -86.815703 
L 370.435308 -84.892608 
L 370.120101 -82.969514 
L 369.960971 -81.046419 
L 369.931885 -79.123325 
L 369.907413 -77.20023 
L 369.814339 -75.277135 
L 369.712449 -73.354041 
L 369.677272 -71.430946 
L 369.678148 -69.507852 
L 369.636281 -67.584757 
L 369.540642 -65.661662 
L 369.438844 -63.738568 
L 369.359817 -61.815473 
L 369.30244 -59.892378 
L 369.262105 -57.969284 
L 369.226115 -56.046189 
L 369.173906 -54.123095 
L 369.106582 -52.2 
z
" style="stroke: #666666"/>
    </defs>
    <g clip-path="url(#pcfea1c1dff)">
     <use xlink:href="#mfb45716aae" x="0" y="360" style="fill: #e98c80; stroke: #666666"/>
    </g>
   </g>
   <g id="PolyCollection_4">
    <defs>
     <path id="m8510aeeb5c" d="M 480.805717 -104.416528 
L 480.394283 -104.416528 
L 480.25922 -106.434542 
L 480.14351 -108.452557 
L 480.084178 -110.470572 
L 480.070124 -112.488587 
L 480.017702 -114.506602 
L 479.759853 -116.524617 
L 479.058597 -118.542632 
L 477.654739 -120.560647 
L 475.376427 -122.578661 
L 472.262238 -124.596676 
L 468.547622 -126.614691 
L 464.496627 -128.632706 
L 460.271598 -130.650721 
L 455.963989 -132.668736 
L 451.712544 -134.686751 
L 447.776619 -136.704765 
L 444.528472 -138.72278 
L 442.376735 -140.740795 
L 441.64936 -142.75881 
L 442.414474 -144.776825 
L 444.301267 -146.79484 
L 446.685705 -148.812855 
L 449.199616 -150.83087 
L 451.892473 -152.848884 
L 454.821854 -154.866899 
L 457.702605 -156.884914 
L 460.095271 -158.902929 
L 461.81358 -160.920944 
L 463.059795 -162.938959 
L 464.228239 -164.956974 
L 465.623428 -166.974989 
L 467.304774 -168.993003 
L 469.106937 -171.011018 
L 470.770435 -173.029033 
L 472.103759 -175.047048 
L 473.074798 -177.065063 
L 473.767898 -179.083078 
L 474.301155 -181.101093 
L 474.792377 -183.119108 
L 475.323876 -185.137122 
L 475.896906 -187.155137 
L 476.463696 -189.173152 
L 477.010299 -191.191167 
L 477.560152 -193.209182 
L 478.105406 -195.227197 
L 478.585622 -197.245212 
L 478.937998 -199.263227 
L 479.15487 -201.281241 
L 479.291884 -203.299256 
L 479.416804 -205.317271 
L 479.558237 -207.335286 
L 479.707726 -209.353301 
L 479.847897 -211.371316 
L 479.964449 -213.389331 
L 480.045189 -215.407346 
L 480.083588 -217.42536 
L 480.091569 -219.443375 
L 480.103007 -221.46139 
L 480.1493 -223.479405 
L 480.231621 -225.49742 
L 480.32286 -227.515435 
L 480.390159 -229.53345 
L 480.418285 -231.551465 
L 480.421015 -233.569479 
L 480.421208 -235.587494 
L 480.4158 -237.605509 
L 480.38172 -239.623524 
L 480.324685 -241.641539 
L 480.294881 -243.659554 
L 480.333488 -245.677569 
L 480.423171 -247.695584 
L 480.511808 -249.713598 
L 480.56703 -251.731613 
L 480.590768 -253.749628 
L 480.598064 -255.767643 
L 480.599696 -257.785658 
L 480.599964 -259.803673 
L 480.599997 -261.821688 
L 480.6 -263.839703 
L 480.6 -265.857717 
L 480.6 -267.875732 
L 480.6 -269.893747 
L 480.6 -271.911762 
L 480.6 -273.929777 
L 480.6 -275.947792 
L 480.6 -277.965807 
L 480.6 -279.983822 
L 480.599999 -282.001836 
L 480.59999 -284.019851 
L 480.59991 -286.037866 
L 480.599379 -288.055881 
L 480.596801 -290.073896 
L 480.58768 -292.091911 
L 480.564511 -294.109926 
L 480.523532 -296.127941 
L 480.476751 -298.145955 
L 480.451407 -300.16397 
L 480.465994 -302.181985 
L 480.509601 -304.2 
L 480.690399 -304.2 
L 480.690399 -304.2 
L 480.734006 -302.181985 
L 480.748593 -300.16397 
L 480.723249 -298.145955 
L 480.676468 -296.127941 
L 480.635489 -294.109926 
L 480.61232 -292.091911 
L 480.603199 -290.073896 
L 480.600621 -288.055881 
L 480.60009 -286.037866 
L 480.60001 -284.019851 
L 480.600001 -282.001836 
L 480.6 -279.983822 
L 480.6 -277.965807 
L 480.6 -275.947792 
L 480.6 -273.929777 
L 480.6 -271.911762 
L 480.6 -269.893747 
L 480.6 -267.875732 
L 480.6 -265.857717 
L 480.6 -263.839703 
L 480.600003 -261.821688 
L 480.600036 -259.803673 
L 480.600304 -257.785658 
L 480.601936 -255.767643 
L 480.609232 -253.749628 
L 480.63297 -251.731613 
L 480.688192 -249.713598 
L 480.776829 -247.695584 
L 480.866512 -245.677569 
L 480.905119 -243.659554 
L 480.875315 -241.641539 
L 480.81828 -239.623524 
L 480.7842 -237.605509 
L 480.778792 -235.587494 
L 480.778985 -233.569479 
L 480.781715 -231.551465 
L 480.809841 -229.53345 
L 480.87714 -227.515435 
L 480.968379 -225.49742 
L 481.0507 -223.479405 
L 481.096993 -221.46139 
L 481.108431 -219.443375 
L 481.116412 -217.42536 
L 481.154811 -215.407346 
L 481.235551 -213.389331 
L 481.352103 -211.371316 
L 481.492274 -209.353301 
L 481.641763 -207.335286 
L 481.783196 -205.317271 
L 481.908116 -203.299256 
L 482.04513 -201.281241 
L 482.262002 -199.263227 
L 482.614378 -197.245212 
L 483.094594 -195.227197 
L 483.639848 -193.209182 
L 484.189701 -191.191167 
L 484.736304 -189.173152 
L 485.303094 -187.155137 
L 485.876124 -185.137122 
L 486.407623 -183.119108 
L 486.898845 -181.101093 
L 487.432102 -179.083078 
L 488.125202 -177.065063 
L 489.096241 -175.047048 
L 490.429565 -173.029033 
L 492.093063 -171.011018 
L 493.895226 -168.993003 
L 495.576572 -166.974989 
L 496.971761 -164.956974 
L 498.140205 -162.938959 
L 499.38642 -160.920944 
L 501.104729 -158.902929 
L 503.497395 -156.884914 
L 506.378146 -154.866899 
L 509.307527 -152.848884 
L 512.000384 -150.83087 
L 514.514295 -148.812855 
L 516.898733 -146.79484 
L 518.785526 -144.776825 
L 519.55064 -142.75881 
L 518.823265 -140.740795 
L 516.671528 -138.72278 
L 513.423381 -136.704765 
L 509.487456 -134.686751 
L 505.236011 -132.668736 
L 500.928402 -130.650721 
L 496.703373 -128.632706 
L 492.652378 -126.614691 
L 488.937762 -124.596676 
L 485.823573 -122.578661 
L 483.545261 -120.560647 
L 482.141403 -118.542632 
L 481.440147 -116.524617 
L 481.182298 -114.506602 
L 481.129876 -112.488587 
L 481.115822 -110.470572 
L 481.05649 -108.452557 
L 480.94078 -106.434542 
L 480.805717 -104.416528 
z
" style="stroke: #666666"/>
    </defs>
    <g clip-path="url(#pcfea1c1dff)">
     <use xlink:href="#m8510aeeb5c" x="0" y="360" style="fill: #8caec8; stroke: #666666"/>
    </g>
   </g>
   <g id="PolyCollection_5">
    <defs>
     <path id="m6438e8d34c" d="M 592.278082 -98.065056 
L 592.121918 -98.065056 
L 592.089333 -100.070401 
L 592.071813 -102.075747 
L 592.078247 -104.081092 
L 592.102987 -106.086438 
L 592.125435 -108.091783 
L 592.11153 -110.097129 
L 592.004571 -112.102474 
L 591.705368 -114.10782 
L 591.058943 -116.113166 
L 589.86694 -118.118511 
L 587.932165 -120.123857 
L 585.131808 -122.129202 
L 581.508065 -124.134548 
L 577.336187 -126.139893 
L 573.093272 -128.145239 
L 569.284736 -130.150584 
L 566.218438 -132.15593 
L 563.904416 -134.161275 
L 562.151686 -136.166621 
L 560.758416 -138.171966 
L 559.662769 -140.177312 
L 558.990596 -142.182657 
L 558.973218 -144.188003 
L 559.764168 -146.193348 
L 561.282725 -148.198694 
L 563.223703 -150.204039 
L 565.237269 -152.209385 
L 567.124001 -154.21473 
L 568.881411 -156.220076 
L 570.600735 -158.225421 
L 572.351321 -160.230767 
L 574.14198 -162.236112 
L 575.928353 -164.241458 
L 577.628779 -166.246803 
L 579.169524 -168.252149 
L 580.550123 -170.257494 
L 581.84278 -172.26284 
L 583.086385 -174.268185 
L 584.193556 -176.273531 
L 585.02281 -178.278876 
L 585.563821 -180.284222 
L 585.995891 -182.289567 
L 586.516211 -184.294913 
L 587.144399 -186.300258 
L 587.742574 -188.305604 
L 588.197206 -190.310949 
L 588.52586 -192.316295 
L 588.819106 -194.321641 
L 589.132517 -196.326986 
L 589.450481 -198.332332 
L 589.731015 -200.337677 
L 589.965944 -202.343023 
L 590.191606 -204.348368 
L 590.443914 -206.353714 
L 590.715324 -208.359059 
L 590.963799 -210.364405 
L 591.154876 -212.36975 
L 591.283684 -214.375096 
L 591.361027 -216.380441 
L 591.392387 -218.385787 
L 591.376777 -220.391132 
L 591.322141 -222.396478 
L 591.256236 -224.401823 
L 591.218392 -226.407169 
L 591.236385 -228.412514 
L 591.306934 -230.41786 
L 591.396588 -232.423205 
L 591.464899 -234.428551 
L 591.49438 -236.433896 
L 591.503389 -238.439242 
L 591.529834 -240.444587 
L 591.599793 -242.449933 
L 591.708192 -244.455278 
L 591.825259 -246.460624 
L 591.920179 -248.465969 
L 591.981333 -250.471315 
L 592.016883 -252.47666 
L 592.038895 -254.482006 
L 592.051212 -256.487351 
L 592.053859 -258.492697 
L 592.053446 -260.498042 
L 592.062346 -262.503388 
L 592.087219 -264.508733 
L 592.122416 -266.514079 
L 592.155928 -268.519425 
L 592.179463 -270.52477 
L 592.192152 -272.530116 
L 592.197431 -274.535461 
L 592.1987 -276.540807 
L 592.196984 -278.546152 
L 592.189948 -280.551498 
L 592.171519 -282.556843 
L 592.133924 -284.562189 
L 592.074715 -286.567534 
L 592.005875 -288.57288 
L 591.954198 -290.578225 
L 591.945661 -292.583571 
L 591.984939 -294.588916 
L 592.051394 -296.594262 
L 592.348606 -296.594262 
L 592.348606 -296.594262 
L 592.415061 -294.588916 
L 592.454339 -292.583571 
L 592.445802 -290.578225 
L 592.394125 -288.57288 
L 592.325285 -286.567534 
L 592.266076 -284.562189 
L 592.228481 -282.556843 
L 592.210052 -280.551498 
L 592.203016 -278.546152 
L 592.2013 -276.540807 
L 592.202569 -274.535461 
L 592.207848 -272.530116 
L 592.220537 -270.52477 
L 592.244072 -268.519425 
L 592.277584 -266.514079 
L 592.312781 -264.508733 
L 592.337654 -262.503388 
L 592.346554 -260.498042 
L 592.346141 -258.492697 
L 592.348788 -256.487351 
L 592.361105 -254.482006 
L 592.383117 -252.47666 
L 592.418667 -250.471315 
L 592.479821 -248.465969 
L 592.574741 -246.460624 
L 592.691808 -244.455278 
L 592.800207 -242.449933 
L 592.870166 -240.444587 
L 592.896611 -238.439242 
L 592.90562 -236.433896 
L 592.935101 -234.428551 
L 593.003412 -232.423205 
L 593.093066 -230.41786 
L 593.163615 -228.412514 
L 593.181608 -226.407169 
L 593.143764 -224.401823 
L 593.077859 -222.396478 
L 593.023223 -220.391132 
L 593.007613 -218.385787 
L 593.038973 -216.380441 
L 593.116316 -214.375096 
L 593.245124 -212.36975 
L 593.436201 -210.364405 
L 593.684676 -208.359059 
L 593.956086 -206.353714 
L 594.208394 -204.348368 
L 594.434056 -202.343023 
L 594.668985 -200.337677 
L 594.949519 -198.332332 
L 595.267483 -196.326986 
L 595.580894 -194.321641 
L 595.87414 -192.316295 
L 596.202794 -190.310949 
L 596.657426 -188.305604 
L 597.255601 -186.300258 
L 597.883789 -184.294913 
L 598.404109 -182.289567 
L 598.836179 -180.284222 
L 599.37719 -178.278876 
L 600.206444 -176.273531 
L 601.313615 -174.268185 
L 602.55722 -172.26284 
L 603.849877 -170.257494 
L 605.230476 -168.252149 
L 606.771221 -166.246803 
L 608.471647 -164.241458 
L 610.25802 -162.236112 
L 612.048679 -160.230767 
L 613.799265 -158.225421 
L 615.518589 -156.220076 
L 617.275999 -154.21473 
L 619.162731 -152.209385 
L 621.176297 -150.204039 
L 623.117275 -148.198694 
L 624.635832 -146.193348 
L 625.426782 -144.188003 
L 625.409404 -142.182657 
L 624.737231 -140.177312 
L 623.641584 -138.171966 
L 622.248314 -136.166621 
L 620.495584 -134.161275 
L 618.181562 -132.15593 
L 615.115264 -130.150584 
L 611.306728 -128.145239 
L 607.063813 -126.139893 
L 602.891935 -124.134548 
L 599.268192 -122.129202 
L 596.467835 -120.123857 
L 594.53306 -118.118511 
L 593.341057 -116.113166 
L 592.694632 -114.10782 
L 592.395429 -112.102474 
L 592.28847 -110.097129 
L 592.274565 -108.091783 
L 592.297013 -106.086438 
L 592.321753 -104.081092 
L 592.328187 -102.075747 
L 592.310667 -100.070401 
L 592.278082 -98.065056 
z
" style="stroke: #666666"/>
    </defs>
    <g clip-path="url(#pcfea1c1dff)">
     <use xlink:href="#m6438e8d34c" x="0" y="360" style="fill: #b2b2ce; stroke: #666666"/>
    </g>
   </g>
   <g id="matplotlib.axis_1">
    <g id="xtick_1">
     <g id="line2d_1">
      <defs>
       <path id="m07e9b8f8de" d="M 0 0 
L 0 3.5 
" style="stroke: #000000; stroke-width: 0.8"/>
      </defs>
      <g>
       <use xlink:href="#m07e9b8f8de" x="145.8" y="320.4" style="stroke: #000000; stroke-width: 0.8"/>
      </g>
     </g>
     <g id="text_1">
      <!-- Test -->
      <g transform="translate(124.140313 344.116562) scale(0.22 -0.22)">
       <defs>
        <path id="DejaVuSans-54" d="M -19 4666 
L 3928 4666 
L 3928 4134 
L 2272 4134 
L 2272 0 
L 1638 0 
L 1638 4134 
L -19 4134 
L -19 4666 
z
" transform="scale(0.015625)"/>
        <path id="DejaVuSans-65" d="M 3597 1894 
L 3597 1613 
L 953 1613 
Q 991 1019 1311 708 
Q 1631 397 2203 397 
Q 2534 397 2845 478 
Q 3156 559 3463 722 
L 3463 178 
Q 3153 47 2828 -22 
Q 2503 -91 2169 -91 
Q 1331 -91 842 396 
Q 353 884 353 1716 
Q 353 2575 817 3079 
Q 1281 3584 2069 3584 
Q 2775 3584 3186 3129 
Q 3597 2675 3597 1894 
z
M 3022 2063 
Q 3016 2534 2758 2815 
Q 2500 3097 2075 3097 
Q 1594 3097 1305 2825 
Q 1016 2553 972 2059 
L 3022 2063 
z
" transform="scale(0.015625)"/>
        <path id="DejaVuSans-73" d="M 2834 3397 
L 2834 2853 
Q 2591 2978 2328 3040 
Q 2066 3103 1784 3103 
Q 1356 3103 1142 2972 
Q 928 2841 928 2578 
Q 928 2378 1081 2264 
Q 1234 2150 1697 2047 
L 1894 2003 
Q 2506 1872 2764 1633 
Q 3022 1394 3022 966 
Q 3022 478 2636 193 
Q 2250 -91 1575 -91 
Q 1294 -91 989 -36 
Q 684 19 347 128 
L 347 722 
Q 666 556 975 473 
Q 1284 391 1588 391 
Q 1994 391 2212 530 
Q 2431 669 2431 922 
Q 2431 1156 2273 1281 
Q 2116 1406 1581 1522 
L 1381 1569 
Q 847 1681 609 1914 
Q 372 2147 372 2553 
Q 372 3047 722 3315 
Q 1072 3584 1716 3584 
Q 2034 3584 2315 3537 
Q 2597 3491 2834 3397 
z
" transform="scale(0.015625)"/>
        <path id="DejaVuSans-74" d="M 1172 4494 
L 1172 3500 
L 2356 3500 
L 2356 3053 
L 1172 3053 
L 1172 1153 
Q 1172 725 1289 603 
Q 1406 481 1766 481 
L 2356 481 
L 2356 0 
L 1766 0 
Q 1100 0 847 248 
Q 594 497 594 1153 
L 594 3053 
L 172 3053 
L 172 3500 
L 594 3500 
L 594 4494 
L 1172 4494 
z
" transform="scale(0.015625)"/>
       </defs>
       <use xlink:href="#DejaVuSans-54"/>
       <use xlink:href="#DejaVuSans-65" x="44.083984"/>
       <use xlink:href="#DejaVuSans-73" x="105.607422"/>
       <use xlink:href="#DejaVuSans-74" x="157.707031"/>
      </g>
     </g>
    </g>
    <g id="xtick_2">
     <g id="line2d_2">
      <g>
       <use xlink:href="#m07e9b8f8de" x="257.4" y="320.4" style="stroke: #000000; stroke-width: 0.8"/>
      </g>
     </g>
     <g id="text_2">
      <!-- Random -->
      <g transform="translate(211.863438 344.116562) scale(0.22 -0.22)">
       <defs>
        <path id="DejaVuSans-52" d="M 2841 2188 
Q 3044 2119 3236 1894 
Q 3428 1669 3622 1275 
L 4263 0 
L 3584 0 
L 2988 1197 
Q 2756 1666 2539 1819 
Q 2322 1972 1947 1972 
L 1259 1972 
L 1259 0 
L 628 0 
L 628 4666 
L 2053 4666 
Q 2853 4666 3247 4331 
Q 3641 3997 3641 3322 
Q 3641 2881 3436 2590 
Q 3231 2300 2841 2188 
z
M 1259 4147 
L 1259 2491 
L 2053 2491 
Q 2509 2491 2742 2702 
Q 2975 2913 2975 3322 
Q 2975 3731 2742 3939 
Q 2509 4147 2053 4147 
L 1259 4147 
z
" transform="scale(0.015625)"/>
        <path id="DejaVuSans-61" d="M 2194 1759 
Q 1497 1759 1228 1600 
Q 959 1441 959 1056 
Q 959 750 1161 570 
Q 1363 391 1709 391 
Q 2188 391 2477 730 
Q 2766 1069 2766 1631 
L 2766 1759 
L 2194 1759 
z
M 3341 1997 
L 3341 0 
L 2766 0 
L 2766 531 
Q 2569 213 2275 61 
Q 1981 -91 1556 -91 
Q 1019 -91 701 211 
Q 384 513 384 1019 
Q 384 1609 779 1909 
Q 1175 2209 1959 2209 
L 2766 2209 
L 2766 2266 
Q 2766 2663 2505 2880 
Q 2244 3097 1772 3097 
Q 1472 3097 1187 3025 
Q 903 2953 641 2809 
L 641 3341 
Q 956 3463 1253 3523 
Q 1550 3584 1831 3584 
Q 2591 3584 2966 3190 
Q 3341 2797 3341 1997 
z
" transform="scale(0.015625)"/>
        <path id="DejaVuSans-6e" d="M 3513 2113 
L 3513 0 
L 2938 0 
L 2938 2094 
Q 2938 2591 2744 2837 
Q 2550 3084 2163 3084 
Q 1697 3084 1428 2787 
Q 1159 2491 1159 1978 
L 1159 0 
L 581 0 
L 581 3500 
L 1159 3500 
L 1159 2956 
Q 1366 3272 1645 3428 
Q 1925 3584 2291 3584 
Q 2894 3584 3203 3211 
Q 3513 2838 3513 2113 
z
" transform="scale(0.015625)"/>
        <path id="DejaVuSans-64" d="M 2906 2969 
L 2906 4863 
L 3481 4863 
L 3481 0 
L 2906 0 
L 2906 525 
Q 2725 213 2448 61 
Q 2172 -91 1784 -91 
Q 1150 -91 751 415 
Q 353 922 353 1747 
Q 353 2572 751 3078 
Q 1150 3584 1784 3584 
Q 2172 3584 2448 3432 
Q 2725 3281 2906 2969 
z
M 947 1747 
Q 947 1113 1208 752 
Q 1469 391 1925 391 
Q 2381 391 2643 752 
Q 2906 1113 2906 1747 
Q 2906 2381 2643 2742 
Q 2381 3103 1925 3103 
Q 1469 3103 1208 2742 
Q 947 2381 947 1747 
z
" transform="scale(0.015625)"/>
        <path id="DejaVuSans-6f" d="M 1959 3097 
Q 1497 3097 1228 2736 
Q 959 2375 959 1747 
Q 959 1119 1226 758 
Q 1494 397 1959 397 
Q 2419 397 2687 759 
Q 2956 1122 2956 1747 
Q 2956 2369 2687 2733 
Q 2419 3097 1959 3097 
z
M 1959 3584 
Q 2709 3584 3137 3096 
Q 3566 2609 3566 1747 
Q 3566 888 3137 398 
Q 2709 -91 1959 -91 
Q 1206 -91 779 398 
Q 353 888 353 1747 
Q 353 2609 779 3096 
Q 1206 3584 1959 3584 
z
" transform="scale(0.015625)"/>
        <path id="DejaVuSans-6d" d="M 3328 2828 
Q 3544 3216 3844 3400 
Q 4144 3584 4550 3584 
Q 5097 3584 5394 3201 
Q 5691 2819 5691 2113 
L 5691 0 
L 5113 0 
L 5113 2094 
Q 5113 2597 4934 2840 
Q 4756 3084 4391 3084 
Q 3944 3084 3684 2787 
Q 3425 2491 3425 1978 
L 3425 0 
L 2847 0 
L 2847 2094 
Q 2847 2600 2669 2842 
Q 2491 3084 2119 3084 
Q 1678 3084 1418 2786 
Q 1159 2488 1159 1978 
L 1159 0 
L 581 0 
L 581 3500 
L 1159 3500 
L 1159 2956 
Q 1356 3278 1631 3431 
Q 1906 3584 2284 3584 
Q 2666 3584 2933 3390 
Q 3200 3197 3328 2828 
z
" transform="scale(0.015625)"/>
       </defs>
       <use xlink:href="#DejaVuSans-52"/>
       <use xlink:href="#DejaVuSans-61" x="67.232422"/>
       <use xlink:href="#DejaVuSans-6e" x="128.511719"/>
       <use xlink:href="#DejaVuSans-64" x="191.890625"/>
       <use xlink:href="#DejaVuSans-6f" x="255.367188"/>
       <use xlink:href="#DejaVuSans-6d" x="316.548828"/>
      </g>
     </g>
    </g>
    <g id="xtick_3">
     <g id="line2d_3">
      <g>
       <use xlink:href="#m07e9b8f8de" x="369" y="320.4" style="stroke: #000000; stroke-width: 0.8"/>
      </g>
     </g>
     <g id="text_3">
      <!-- Pretrain -->
      <g transform="translate(325.914375 344.116562) scale(0.22 -0.22)">
       <defs>
        <path id="DejaVuSans-50" d="M 1259 4147 
L 1259 2394 
L 2053 2394 
Q 2494 2394 2734 2622 
Q 2975 2850 2975 3272 
Q 2975 3691 2734 3919 
Q 2494 4147 2053 4147 
L 1259 4147 
z
M 628 4666 
L 2053 4666 
Q 2838 4666 3239 4311 
Q 3641 3956 3641 3272 
Q 3641 2581 3239 2228 
Q 2838 1875 2053 1875 
L 1259 1875 
L 1259 0 
L 628 0 
L 628 4666 
z
" transform="scale(0.015625)"/>
        <path id="DejaVuSans-72" d="M 2631 2963 
Q 2534 3019 2420 3045 
Q 2306 3072 2169 3072 
Q 1681 3072 1420 2755 
Q 1159 2438 1159 1844 
L 1159 0 
L 581 0 
L 581 3500 
L 1159 3500 
L 1159 2956 
Q 1341 3275 1631 3429 
Q 1922 3584 2338 3584 
Q 2397 3584 2469 3576 
Q 2541 3569 2628 3553 
L 2631 2963 
z
" transform="scale(0.015625)"/>
        <path id="DejaVuSans-69" d="M 603 3500 
L 1178 3500 
L 1178 0 
L 603 0 
L 603 3500 
z
M 603 4863 
L 1178 4863 
L 1178 4134 
L 603 4134 
L 603 4863 
z
" transform="scale(0.015625)"/>
       </defs>
       <use xlink:href="#DejaVuSans-50"/>
       <use xlink:href="#DejaVuSans-72" x="58.552734"/>
       <use xlink:href="#DejaVuSans-65" x="97.416016"/>
       <use xlink:href="#DejaVuSans-74" x="158.939453"/>
       <use xlink:href="#DejaVuSans-72" x="198.148438"/>
       <use xlink:href="#DejaVuSans-61" x="239.261719"/>
       <use xlink:href="#DejaVuSans-69" x="300.541016"/>
       <use xlink:href="#DejaVuSans-6e" x="328.324219"/>
      </g>
     </g>
    </g>
    <g id="xtick_4">
     <g id="line2d_4">
      <g>
       <use xlink:href="#m07e9b8f8de" x="480.6" y="320.4" style="stroke: #000000; stroke-width: 0.8"/>
      </g>
     </g>
     <g id="text_4">
      <!-- Finetune -->
      <g transform="translate(433.251875 344.116562) scale(0.22 -0.22)">
       <defs>
        <path id="DejaVuSans-46" d="M 628 4666 
L 3309 4666 
L 3309 4134 
L 1259 4134 
L 1259 2759 
L 3109 2759 
L 3109 2228 
L 1259 2228 
L 1259 0 
L 628 0 
L 628 4666 
z
" transform="scale(0.015625)"/>
        <path id="DejaVuSans-75" d="M 544 1381 
L 544 3500 
L 1119 3500 
L 1119 1403 
Q 1119 906 1312 657 
Q 1506 409 1894 409 
Q 2359 409 2629 706 
Q 2900 1003 2900 1516 
L 2900 3500 
L 3475 3500 
L 3475 0 
L 2900 0 
L 2900 538 
Q 2691 219 2414 64 
Q 2138 -91 1772 -91 
Q 1169 -91 856 284 
Q 544 659 544 1381 
z
M 1991 3584 
L 1991 3584 
z
" transform="scale(0.015625)"/>
       </defs>
       <use xlink:href="#DejaVuSans-46"/>
       <use xlink:href="#DejaVuSans-69" x="50.269531"/>
       <use xlink:href="#DejaVuSans-6e" x="78.052734"/>
       <use xlink:href="#DejaVuSans-65" x="141.431641"/>
       <use xlink:href="#DejaVuSans-74" x="202.955078"/>
       <use xlink:href="#DejaVuSans-75" x="242.164062"/>
       <use xlink:href="#DejaVuSans-6e" x="305.542969"/>
       <use xlink:href="#DejaVuSans-65" x="368.921875"/>
      </g>
     </g>
    </g>
    <g id="xtick_5">
     <g id="line2d_5">
      <g>
       <use xlink:href="#m07e9b8f8de" x="592.2" y="320.4" style="stroke: #000000; stroke-width: 0.8"/>
      </g>
     </g>
     <g id="text_5">
      <!-- Prefix -->
      <g transform="translate(561.277969 344.116562) scale(0.22 -0.22)">
       <defs>
        <path id="DejaVuSans-66" d="M 2375 4863 
L 2375 4384 
L 1825 4384 
Q 1516 4384 1395 4259 
Q 1275 4134 1275 3809 
L 1275 3500 
L 2222 3500 
L 2222 3053 
L 1275 3053 
L 1275 0 
L 697 0 
L 697 3053 
L 147 3053 
L 147 3500 
L 697 3500 
L 697 3744 
Q 697 4328 969 4595 
Q 1241 4863 1831 4863 
L 2375 4863 
z
" transform="scale(0.015625)"/>
        <path id="DejaVuSans-78" d="M 3513 3500 
L 2247 1797 
L 3578 0 
L 2900 0 
L 1881 1375 
L 863 0 
L 184 0 
L 1544 1831 
L 300 3500 
L 978 3500 
L 1906 2253 
L 2834 3500 
L 3513 3500 
z
" transform="scale(0.015625)"/>
       </defs>
       <use xlink:href="#DejaVuSans-50"/>
       <use xlink:href="#DejaVuSans-72" x="58.552734"/>
       <use xlink:href="#DejaVuSans-65" x="97.416016"/>
       <use xlink:href="#DejaVuSans-66" x="158.939453"/>
       <use xlink:href="#DejaVuSans-69" x="194.144531"/>
       <use xlink:href="#DejaVuSans-78" x="221.927734"/>
      </g>
     </g>
    </g>
   </g>
   <g id="matplotlib.axis_2">
    <g id="ytick_1">
     <g id="line2d_6">
      <defs>
       <path id="m4de8446325" d="M 0 0 
L -3.5 0 
" style="stroke: #000000; stroke-width: 0.8"/>
      </defs>
      <g>
       <use xlink:href="#m4de8446325" x="90" y="286.807768" style="stroke: #000000; stroke-width: 0.8"/>
      </g>
     </g>
     <g id="text_6">
      <!-- −10 -->
      <g transform="translate(34.459219 295.545972) scale(0.23 -0.23)">
       <defs>
        <path id="DejaVuSans-2212" d="M 678 2272 
L 4684 2272 
L 4684 1741 
L 678 1741 
L 678 2272 
z
" transform="scale(0.015625)"/>
        <path id="DejaVuSans-31" d="M 794 531 
L 1825 531 
L 1825 4091 
L 703 3866 
L 703 4441 
L 1819 4666 
L 2450 4666 
L 2450 531 
L 3481 531 
L 3481 0 
L 794 0 
L 794 531 
z
" transform="scale(0.015625)"/>
        <path id="DejaVuSans-30" d="M 2034 4250 
Q 1547 4250 1301 3770 
Q 1056 3291 1056 2328 
Q 1056 1369 1301 889 
Q 1547 409 2034 409 
Q 2525 409 2770 889 
Q 3016 1369 3016 2328 
Q 3016 3291 2770 3770 
Q 2525 4250 2034 4250 
z
M 2034 4750 
Q 2819 4750 3233 4129 
Q 3647 3509 3647 2328 
Q 3647 1150 3233 529 
Q 2819 -91 2034 -91 
Q 1250 -91 836 529 
Q 422 1150 422 2328 
Q 422 3509 836 4129 
Q 1250 4750 2034 4750 
z
" transform="scale(0.015625)"/>
       </defs>
       <use xlink:href="#DejaVuSans-2212"/>
       <use xlink:href="#DejaVuSans-31" x="83.789062"/>
       <use xlink:href="#DejaVuSans-30" x="147.412109"/>
      </g>
     </g>
    </g>
    <g id="ytick_2">
     <g id="line2d_7">
      <g>
       <use xlink:href="#m4de8446325" x="90" y="243.095868" style="stroke: #000000; stroke-width: 0.8"/>
      </g>
     </g>
     <g id="text_7">
      <!-- 0 -->
      <g transform="translate(68.36625 251.834071) scale(0.23 -0.23)">
       <use xlink:href="#DejaVuSans-30"/>
      </g>
     </g>
    </g>
    <g id="ytick_3">
     <g id="line2d_8">
      <g>
       <use xlink:href="#m4de8446325" x="90" y="199.383967" style="stroke: #000000; stroke-width: 0.8"/>
      </g>
     </g>
     <g id="text_8">
      <!-- 10 -->
      <g transform="translate(53.7325 208.12217) scale(0.23 -0.23)">
       <use xlink:href="#DejaVuSans-31"/>
       <use xlink:href="#DejaVuSans-30" x="63.623047"/>
      </g>
     </g>
    </g>
    <g id="ytick_4">
     <g id="line2d_9">
      <g>
       <use xlink:href="#m4de8446325" x="90" y="155.672066" style="stroke: #000000; stroke-width: 0.8"/>
      </g>
     </g>
     <g id="text_9">
      <!-- 20 -->
      <g transform="translate(53.7325 164.410269) scale(0.23 -0.23)">
       <defs>
        <path id="DejaVuSans-32" d="M 1228 531 
L 3431 531 
L 3431 0 
L 469 0 
L 469 531 
Q 828 903 1448 1529 
Q 2069 2156 2228 2338 
Q 2531 2678 2651 2914 
Q 2772 3150 2772 3378 
Q 2772 3750 2511 3984 
Q 2250 4219 1831 4219 
Q 1534 4219 1204 4116 
Q 875 4013 500 3803 
L 500 4441 
Q 881 4594 1212 4672 
Q 1544 4750 1819 4750 
Q 2544 4750 2975 4387 
Q 3406 4025 3406 3419 
Q 3406 3131 3298 2873 
Q 3191 2616 2906 2266 
Q 2828 2175 2409 1742 
Q 1991 1309 1228 531 
z
" transform="scale(0.015625)"/>
       </defs>
       <use xlink:href="#DejaVuSans-32"/>
       <use xlink:href="#DejaVuSans-30" x="63.623047"/>
      </g>
     </g>
    </g>
    <g id="ytick_5">
     <g id="line2d_10">
      <g>
       <use xlink:href="#m4de8446325" x="90" y="111.960165" style="stroke: #000000; stroke-width: 0.8"/>
      </g>
     </g>
     <g id="text_10">
      <!-- 30 -->
      <g transform="translate(53.7325 120.698368) scale(0.23 -0.23)">
       <defs>
        <path id="DejaVuSans-33" d="M 2597 2516 
Q 3050 2419 3304 2112 
Q 3559 1806 3559 1356 
Q 3559 666 3084 287 
Q 2609 -91 1734 -91 
Q 1441 -91 1130 -33 
Q 819 25 488 141 
L 488 750 
Q 750 597 1062 519 
Q 1375 441 1716 441 
Q 2309 441 2620 675 
Q 2931 909 2931 1356 
Q 2931 1769 2642 2001 
Q 2353 2234 1838 2234 
L 1294 2234 
L 1294 2753 
L 1863 2753 
Q 2328 2753 2575 2939 
Q 2822 3125 2822 3475 
Q 2822 3834 2567 4026 
Q 2313 4219 1838 4219 
Q 1578 4219 1281 4162 
Q 984 4106 628 3988 
L 628 4550 
Q 988 4650 1302 4700 
Q 1616 4750 1894 4750 
Q 2613 4750 3031 4423 
Q 3450 4097 3450 3541 
Q 3450 3153 3228 2886 
Q 3006 2619 2597 2516 
z
" transform="scale(0.015625)"/>
       </defs>
       <use xlink:href="#DejaVuSans-33"/>
       <use xlink:href="#DejaVuSans-30" x="63.623047"/>
      </g>
     </g>
    </g>
    <g id="ytick_6">
     <g id="line2d_11">
      <g>
       <use xlink:href="#m4de8446325" x="90" y="68.248264" style="stroke: #000000; stroke-width: 0.8"/>
      </g>
     </g>
     <g id="text_11">
      <!-- 40 -->
      <g transform="translate(53.7325 76.986467) scale(0.23 -0.23)">
       <defs>
        <path id="DejaVuSans-34" d="M 2419 4116 
L 825 1625 
L 2419 1625 
L 2419 4116 
z
M 2253 4666 
L 3047 4666 
L 3047 1625 
L 3713 1625 
L 3713 1100 
L 3047 1100 
L 3047 0 
L 2419 0 
L 2419 1100 
L 313 1100 
L 313 1709 
L 2253 4666 
z
" transform="scale(0.015625)"/>
       </defs>
       <use xlink:href="#DejaVuSans-34"/>
       <use xlink:href="#DejaVuSans-30" x="63.623047"/>
      </g>
     </g>
    </g>
   </g>
   <g id="line2d_12">
    <path d="M 145.8 251.414242 
L 145.8 185.859505 
" clip-path="url(#pcfea1c1dff)" style="fill: none; stroke: #666666; stroke-linecap: square"/>
   </g>
   <g id="line2d_13">
    <path d="M 145.8 225.632963 
L 145.8 208.313215 
" clip-path="url(#pcfea1c1dff)" style="fill: none; stroke: #666666; stroke-width: 3; stroke-linecap: square"/>
   </g>
   <g id="line2d_14">
    <path d="M 257.4 239.02629 
L 257.4 141.72797 
" clip-path="url(#pcfea1c1dff)" style="fill: none; stroke: #666666; stroke-linecap: square"/>
   </g>
   <g id="line2d_15">
    <path d="M 257.4 216.882933 
L 257.4 186.252912 
" clip-path="url(#pcfea1c1dff)" style="fill: none; stroke: #666666; stroke-width: 3; stroke-linecap: square"/>
   </g>
   <g id="line2d_16">
    <path d="M 369 269.602764 
L 369 198.833197 
" clip-path="url(#pcfea1c1dff)" style="fill: none; stroke: #666666; stroke-linecap: square"/>
   </g>
   <g id="line2d_17">
    <path d="M 369 243.690349 
L 369 225.637334 
" clip-path="url(#pcfea1c1dff)" style="fill: none; stroke: #666666; stroke-width: 3; stroke-linecap: square"/>
   </g>
   <g id="line2d_18">
    <path d="M 480.6 251.838248 
L 480.6 168.239237 
" clip-path="url(#pcfea1c1dff)" style="fill: none; stroke: #666666; stroke-linecap: square"/>
   </g>
   <g id="line2d_19">
    <path d="M 480.6 221.261773 
L 480.6 199.405823 
" clip-path="url(#pcfea1c1dff)" style="fill: none; stroke: #666666; stroke-width: 3; stroke-linecap: square"/>
   </g>
   <g id="line2d_20">
    <path d="M 592.2 238.742162 
L 592.2 168.374744 
" clip-path="url(#pcfea1c1dff)" style="fill: none; stroke: #666666; stroke-linecap: square"/>
   </g>
   <g id="line2d_21">
    <path d="M 592.2 221.261773 
L 592.2 199.401451 
" clip-path="url(#pcfea1c1dff)" style="fill: none; stroke: #666666; stroke-width: 3; stroke-linecap: square"/>
   </g>
   <g id="patch_3">
    <path d="M 90 320.4 
L 90 43.2 
" style="fill: none; stroke: #000000; stroke-width: 0.8; stroke-linejoin: miter; stroke-linecap: square"/>
   </g>
   <g id="patch_4">
    <path d="M 648 320.4 
L 648 43.2 
" style="fill: none; stroke: #000000; stroke-width: 0.8; stroke-linejoin: miter; stroke-linecap: square"/>
   </g>
   <g id="patch_5">
    <path d="M 90 320.4 
L 648 320.4 
" style="fill: none; stroke: #000000; stroke-width: 0.8; stroke-linejoin: miter; stroke-linecap: square"/>
   </g>
   <g id="patch_6">
    <path d="M 90 43.2 
L 648 43.2 
" style="fill: none; stroke: #000000; stroke-width: 0.8; stroke-linejoin: miter; stroke-linecap: square"/>
   </g>
   <g id="PathCollection_1">
    <defs>
     <path id="mc46afdeb57" d="M 0 1 
C 0.265203 1 0.51958 0.894634 0.707107 0.707107 
C 0.894634 0.51958 1 0.265203 1 0 
C 1 -0.265203 0.894634 -0.51958 0.707107 -0.707107 
C 0.51958 -0.894634 0.265203 -1 0 -1 
C -0.265203 -1 -0.51958 -0.894634 -0.707107 -0.707107 
C -0.894634 -0.51958 -1 -0.265203 -1 0 
C -1 0.265203 -0.894634 0.51958 -0.707107 0.707107 
C -0.51958 0.894634 -0.265203 1 0 1 
z
" style="stroke: #666666"/>
    </defs>
    <g clip-path="url(#pcfea1c1dff)">
     <use xlink:href="#mc46afdeb57" x="145.8" y="216.894954" style="fill: #ffffff; stroke: #666666"/>
    </g>
   </g>
   <g id="PathCollection_2">
    <g clip-path="url(#pcfea1c1dff)">
     <use xlink:href="#mc46afdeb57" x="257.4" y="203.348636" style="fill: #ffffff; stroke: #666666"/>
    </g>
   </g>
   <g id="PathCollection_3">
    <g clip-path="url(#pcfea1c1dff)">
     <use xlink:href="#mc46afdeb57" x="369" y="234.672584" style="fill: #ffffff; stroke: #666666"/>
    </g>
   </g>
   <g id="PathCollection_4">
    <g clip-path="url(#pcfea1c1dff)">
     <use xlink:href="#mc46afdeb57" x="480.6" y="212.519393" style="fill: #ffffff; stroke: #666666"/>
    </g>
   </g>
   <g id="PathCollection_5">
    <g clip-path="url(#pcfea1c1dff)">
     <use xlink:href="#mc46afdeb57" x="592.2" y="212.519393" style="fill: #ffffff; stroke: #666666"/>
    </g>
   </g>
   <g id="text_12">
    <!-- Charge -->
    <g transform="translate(320.553984 37.2) scale(0.27 -0.27)">
     <defs>
      <path id="DejaVuSans-43" d="M 4122 4306 
L 4122 3641 
Q 3803 3938 3442 4084 
Q 3081 4231 2675 4231 
Q 1875 4231 1450 3742 
Q 1025 3253 1025 2328 
Q 1025 1406 1450 917 
Q 1875 428 2675 428 
Q 3081 428 3442 575 
Q 3803 722 4122 1019 
L 4122 359 
Q 3791 134 3420 21 
Q 3050 -91 2638 -91 
Q 1578 -91 968 557 
Q 359 1206 359 2328 
Q 359 3453 968 4101 
Q 1578 4750 2638 4750 
Q 3056 4750 3426 4639 
Q 3797 4528 4122 4306 
z
" transform="scale(0.015625)"/>
      <path id="DejaVuSans-68" d="M 3513 2113 
L 3513 0 
L 2938 0 
L 2938 2094 
Q 2938 2591 2744 2837 
Q 2550 3084 2163 3084 
Q 1697 3084 1428 2787 
Q 1159 2491 1159 1978 
L 1159 0 
L 581 0 
L 581 4863 
L 1159 4863 
L 1159 2956 
Q 1366 3272 1645 3428 
Q 1925 3584 2291 3584 
Q 2894 3584 3203 3211 
Q 3513 2838 3513 2113 
z
" transform="scale(0.015625)"/>
      <path id="DejaVuSans-67" d="M 2906 1791 
Q 2906 2416 2648 2759 
Q 2391 3103 1925 3103 
Q 1463 3103 1205 2759 
Q 947 2416 947 1791 
Q 947 1169 1205 825 
Q 1463 481 1925 481 
Q 2391 481 2648 825 
Q 2906 1169 2906 1791 
z
M 3481 434 
Q 3481 -459 3084 -895 
Q 2688 -1331 1869 -1331 
Q 1566 -1331 1297 -1286 
Q 1028 -1241 775 -1147 
L 775 -588 
Q 1028 -725 1275 -790 
Q 1522 -856 1778 -856 
Q 2344 -856 2625 -561 
Q 2906 -266 2906 331 
L 2906 616 
Q 2728 306 2450 153 
Q 2172 0 1784 0 
Q 1141 0 747 490 
Q 353 981 353 1791 
Q 353 2603 747 3093 
Q 1141 3584 1784 3584 
Q 2172 3584 2450 3431 
Q 2728 3278 2906 2969 
L 2906 3500 
L 3481 3500 
L 3481 434 
z
" transform="scale(0.015625)"/>
     </defs>
     <use xlink:href="#DejaVuSans-43"/>
     <use xlink:href="#DejaVuSans-68" x="69.824219"/>
     <use xlink:href="#DejaVuSans-61" x="133.203125"/>
     <use xlink:href="#DejaVuSans-72" x="194.482422"/>
     <use xlink:href="#DejaVuSans-67" x="233.845703"/>
     <use xlink:href="#DejaVuSans-65" x="297.322266"/>
    </g>
   </g>
  </g>
 </g>
 <defs>
  <clipPath id="pcfea1c1dff">
   <rect x="90" y="43.2" width="558" height="277.2"/>
  </clipPath>
 </defs>
</svg>
