<?xml version="1.0" encoding="utf-8" standalone="no"?>
<!DOCTYPE svg PUBLIC "-//W3C//DTD SVG 1.1//EN"
  "http://www.w3.org/Graphics/SVG/1.1/DTD/svg11.dtd">
<svg xmlns:xlink="http://www.w3.org/1999/xlink" width="720pt" height="360pt" viewBox="0 0 720 360" xmlns="http://www.w3.org/2000/svg" version="1.1">
 <metadata>
  <rdf:RDF xmlns:dc="http://purl.org/dc/elements/1.1/" xmlns:cc="http://creativecommons.org/ns#" xmlns:rdf="http://www.w3.org/1999/02/22-rdf-syntax-ns#">
   <cc:Work>
    <dc:type rdf:resource="http://purl.org/dc/dcmitype/StillImage"/>
    <dc:date>2023-09-12T11:11:13.849472</dc:date>
    <dc:format>image/svg+xml</dc:format>
    <dc:creator>
     <cc:Agent>
      <dc:title>Matplotlib v3.7.1, https://matplotlib.org/</dc:title>
     </cc:Agent>
    </dc:creator>
   </cc:Work>
  </rdf:RDF>
 </metadata>
 <defs>
  <style type="text/css">*{stroke-linejoin: round; stroke-linecap: butt}</style>
 </defs>
 <g id="figure_1">
  <g id="patch_1">
   <path d="M 0 360 
L 720 360 
L 720 0 
L 0 0 
L 0 360 
z
" style="fill: none"/>
  </g>
  <g id="axes_1">
   <g id="patch_2">
    <path d="M 90 320.4 
L 648 320.4 
L 648 43.2 
L 90 43.2 
L 90 320.4 
z
" style="fill: none"/>
   </g>
   <g id="PolyCollection_1">
    <defs>
     <path id="m20b3a1a53f" d="M 146.030902 -52.2 
L 145.569098 -52.2 
L 145.43295 -54.745455 
L 145.243708 -57.290909 
L 144.993891 -59.836364 
L 144.679559 -62.381818 
L 144.300832 -64.927273 
L 143.861349 -67.472727 
L 143.366856 -70.018182 
L 142.823536 -72.563636 
L 142.236975 -75.109091 
L 141.61248 -77.654545 
L 140.956914 -80.2 
L 140.28139 -82.745455 
L 139.603428 -85.290909 
L 138.947014 -87.836364 
L 138.339622 -90.381818 
L 137.806666 -92.927273 
L 137.365274 -95.472727 
L 137.01993 -98.018182 
L 136.761821 -100.563636 
L 136.572046 -103.109091 
L 136.427055 -105.654545 
L 136.30388 -108.2 
L 136.183266 -110.745455 
L 136.0502 -113.290909 
L 135.8929 -115.836364 
L 135.701994 -118.381818 
L 135.47123 -120.927273 
L 135.199673 -123.472727 
L 134.893891 -126.018182 
L 134.568013 -128.563636 
L 134.240449 -131.109091 
L 133.928092 -133.654545 
L 133.640773 -136.2 
L 133.379195 -138.745455 
L 133.137957 -141.290909 
L 132.912449 -143.836364 
L 132.706085 -146.381818 
L 132.533931 -148.927273 
L 132.420691 -151.472727 
L 132.393935 -154.018182 
L 132.475811 -156.563636 
L 132.676885 -159.109091 
L 132.994134 -161.654545 
L 133.412696 -164.2 
L 133.909263 -166.745455 
L 134.45511 -169.290909 
L 135.018358 -171.836364 
L 135.566621 -174.381818 
L 136.071353 -176.927273 
L 136.51364 -179.472727 
L 136.889159 -182.018182 
L 137.209381 -184.563636 
L 137.49756 -187.109091 
L 137.780816 -189.654545 
L 138.081689 -192.2 
L 138.412689 -194.745455 
L 138.775512 -197.290909 
L 139.164066 -199.836364 
L 139.568852 -202.381818 
L 139.980189 -204.927273 
L 140.389157 -207.472727 
L 140.786864 -210.018182 
L 141.163674 -212.563636 
L 141.509828 -215.109091 
L 141.817683 -217.654545 
L 142.084525 -220.2 
L 142.314377 -222.745455 
L 142.517638 -225.290909 
L 142.708419 -227.836364 
L 142.900355 -230.381818 
L 143.102282 -232.927273 
L 143.315157 -235.472727 
L 143.531322 -238.018182 
L 143.736515 -240.563636 
L 143.914144 -243.109091 
L 144.050525 -245.654545 
L 144.139315 -248.2 
L 144.183647 -250.745455 
L 144.195355 -253.290909 
L 144.191765 -255.836364 
L 144.191276 -258.381818 
L 144.209141 -260.927273 
L 144.25445 -263.472727 
L 144.32884 -266.018182 
L 144.426976 -268.563636 
L 144.538522 -271.109091 
L 144.651106 -273.654545 
L 144.753531 -276.2 
L 144.838472 -278.745455 
L 144.904053 -281.290909 
L 144.953993 -283.836364 
L 144.996333 -286.381818 
L 145.041026 -288.927273 
L 145.096954 -291.472727 
L 145.169201 -294.018182 
L 145.257488 -296.563636 
L 145.356379 -299.109091 
L 145.457184 -301.654545 
L 145.550756 -304.2 
L 146.049244 -304.2 
L 146.049244 -304.2 
L 146.142816 -301.654545 
L 146.243621 -299.109091 
L 146.342512 -296.563636 
L 146.430799 -294.018182 
L 146.503046 -291.472727 
L 146.558974 -288.927273 
L 146.603667 -286.381818 
L 146.646007 -283.836364 
L 146.695947 -281.290909 
L 146.761528 -278.745455 
L 146.846469 -276.2 
L 146.948894 -273.654545 
L 147.061478 -271.109091 
L 147.173024 -268.563636 
L 147.27116 -266.018182 
L 147.34555 -263.472727 
L 147.390859 -260.927273 
L 147.408724 -258.381818 
L 147.408235 -255.836364 
L 147.404645 -253.290909 
L 147.416353 -250.745455 
L 147.460685 -248.2 
L 147.549475 -245.654545 
L 147.685856 -243.109091 
L 147.863485 -240.563636 
L 148.068678 -238.018182 
L 148.284843 -235.472727 
L 148.497718 -232.927273 
L 148.699645 -230.381818 
L 148.891581 -227.836364 
L 149.082362 -225.290909 
L 149.285623 -222.745455 
L 149.515475 -220.2 
L 149.782317 -217.654545 
L 150.090172 -215.109091 
L 150.436326 -212.563636 
L 150.813136 -210.018182 
L 151.210843 -207.472727 
L 151.619811 -204.927273 
L 152.031148 -202.381818 
L 152.435934 -199.836364 
L 152.824488 -197.290909 
L 153.187311 -194.745455 
L 153.518311 -192.2 
L 153.819184 -189.654545 
L 154.10244 -187.109091 
L 154.390619 -184.563636 
L 154.710841 -182.018182 
L 155.08636 -179.472727 
L 155.528647 -176.927273 
L 156.033379 -174.381818 
L 156.581642 -171.836364 
L 157.14489 -169.290909 
L 157.690737 -166.745455 
L 158.187304 -164.2 
L 158.605866 -161.654545 
L 158.923115 -159.109091 
L 159.124189 -156.563636 
L 159.206065 -154.018182 
L 159.179309 -151.472727 
L 159.066069 -148.927273 
L 158.893915 -146.381818 
L 158.687551 -143.836364 
L 158.462043 -141.290909 
L 158.220805 -138.745455 
L 157.959227 -136.2 
L 157.671908 -133.654545 
L 157.359551 -131.109091 
L 157.031987 -128.563636 
L 156.706109 -126.018182 
L 156.400327 -123.472727 
L 156.12877 -120.927273 
L 155.898006 -118.381818 
L 155.7071 -115.836364 
L 155.5498 -113.290909 
L 155.416734 -110.745455 
L 155.29612 -108.2 
L 155.172945 -105.654545 
L 155.027954 -103.109091 
L 154.838179 -100.563636 
L 154.58007 -98.018182 
L 154.234726 -95.472727 
L 153.793334 -92.927273 
L 153.260378 -90.381818 
L 152.652986 -87.836364 
L 151.996572 -85.290909 
L 151.31861 -82.745455 
L 150.643086 -80.2 
L 149.98752 -77.654545 
L 149.363025 -75.109091 
L 148.776464 -72.563636 
L 148.233144 -70.018182 
L 147.738651 -67.472727 
L 147.299168 -64.927273 
L 146.920441 -62.381818 
L 146.606109 -59.836364 
L 146.356292 -57.290909 
L 146.16705 -54.745455 
L 146.030902 -52.2 
z
" style="stroke: #666666"/>
    </defs>
    <g clip-path="url(#p71fa45410c)">
     <use xlink:href="#m20b3a1a53f" x="0" y="360" style="fill: #96c7c2; stroke: #666666"/>
    </g>
   </g>
   <g id="PolyCollection_2">
    <defs>
     <path id="m1a70e4d080" d="M 258.441239 -58.143037 
L 256.358761 -58.143037 
L 255.670996 -59.605455 
L 254.712524 -61.067872 
L 253.475615 -62.53029 
L 251.992614 -63.992708 
L 250.332587 -65.455126 
L 248.585179 -66.917544 
L 246.836973 -68.379961 
L 245.148987 -69.842379 
L 243.543296 -71.304797 
L 242.00353 -72.767215 
L 240.489892 -74.229633 
L 238.96448 -75.692051 
L 237.417097 -77.154468 
L 235.878483 -78.616886 
L 234.412116 -80.079304 
L 233.088005 -81.541722 
L 231.954589 -83.00414 
L 231.027076 -84.466557 
L 230.298689 -85.928975 
L 229.764277 -87.391393 
L 229.436915 -88.853811 
L 229.344108 -90.316229 
L 229.505203 -91.778646 
L 229.904321 -93.241064 
L 230.47577 -94.703482 
L 231.112 -96.1659 
L 231.693209 -97.628318 
L 232.12802 -99.090735 
L 232.389246 -100.553153 
L 232.529183 -102.015571 
L 232.665839 -103.477989 
L 232.943422 -104.940407 
L 233.48219 -106.402825 
L 234.338029 -107.865242 
L 235.487502 -109.32766 
L 236.842123 -110.790078 
L 238.282611 -112.252496 
L 239.69632 -113.714914 
L 241.002126 -115.177331 
L 242.155938 -116.639749 
L 243.141713 -118.102167 
L 243.960223 -119.564585 
L 244.625612 -121.027003 
L 245.169818 -122.48942 
L 245.645503 -123.951838 
L 246.117762 -125.414256 
L 246.644095 -126.876674 
L 247.252761 -128.339092 
L 247.932597 -129.80151 
L 248.640427 -131.263927 
L 249.321508 -132.726345 
L 249.931872 -134.188763 
L 250.452194 -135.651181 
L 250.888724 -137.113599 
L 251.2634 -138.576016 
L 251.599617 -140.038434 
L 251.910983 -141.500852 
L 252.197902 -142.96327 
L 252.452331 -144.425688 
L 252.666831 -145.888105 
L 252.84234 -147.350523 
L 252.990637 -148.812941 
L 253.130858 -150.275359 
L 253.282532 -151.737777 
L 253.458867 -153.200194 
L 253.663258 -154.662612 
L 253.890066 -156.12503 
L 254.128687 -157.587448 
L 254.368676 -159.049866 
L 254.603545 -160.512284 
L 254.831931 -161.974701 
L 255.056226 -163.437119 
L 255.279982 -164.899537 
L 255.505543 -166.361955 
L 255.732723 -167.824373 
L 255.958525 -169.28679 
L 256.177432 -170.749208 
L 256.381998 -172.211626 
L 256.563696 -173.674044 
L 256.714033 -175.136462 
L 256.825758 -176.598879 
L 256.893927 -178.061297 
L 256.916839 -179.523715 
L 256.89706 -180.986133 
L 256.84246 -182.448551 
L 256.76661 -183.910969 
L 256.687552 -185.373386 
L 256.624497 -186.835804 
L 256.59327 -188.298222 
L 256.602283 -189.76064 
L 256.650799 -191.223058 
L 256.730212 -192.685475 
L 256.827616 -194.147893 
L 256.930021 -195.610311 
L 257.027507 -197.072729 
L 257.114348 -198.535147 
L 257.188328 -199.997564 
L 257.249232 -201.459982 
L 257.297615 -202.9224 
L 257.502385 -202.9224 
L 257.502385 -202.9224 
L 257.550768 -201.459982 
L 257.611672 -199.997564 
L 257.685652 -198.535147 
L 257.772493 -197.072729 
L 257.869979 -195.610311 
L 257.972384 -194.147893 
L 258.069788 -192.685475 
L 258.149201 -191.223058 
L 258.197717 -189.76064 
L 258.20673 -188.298222 
L 258.175503 -186.835804 
L 258.112448 -185.373386 
L 258.03339 -183.910969 
L 257.95754 -182.448551 
L 257.90294 -180.986133 
L 257.883161 -179.523715 
L 257.906073 -178.061297 
L 257.974242 -176.598879 
L 258.085967 -175.136462 
L 258.236304 -173.674044 
L 258.418002 -172.211626 
L 258.622568 -170.749208 
L 258.841475 -169.28679 
L 259.067277 -167.824373 
L 259.294457 -166.361955 
L 259.520018 -164.899537 
L 259.743774 -163.437119 
L 259.968069 -161.974701 
L 260.196455 -160.512284 
L 260.431324 -159.049866 
L 260.671313 -157.587448 
L 260.909934 -156.12503 
L 261.136742 -154.662612 
L 261.341133 -153.200194 
L 261.517468 -151.737777 
L 261.669142 -150.275359 
L 261.809363 -148.812941 
L 261.95766 -147.350523 
L 262.133169 -145.888105 
L 262.347669 -144.425688 
L 262.602098 -142.96327 
L 262.889017 -141.500852 
L 263.200383 -140.038434 
L 263.5366 -138.576016 
L 263.911276 -137.113599 
L 264.347806 -135.651181 
L 264.868128 -134.188763 
L 265.478492 -132.726345 
L 266.159573 -131.263927 
L 266.867403 -129.80151 
L 267.547239 -128.339092 
L 268.155905 -126.876674 
L 268.682238 -125.414256 
L 269.154497 -123.951838 
L 269.630182 -122.48942 
L 270.174388 -121.027003 
L 270.839777 -119.564585 
L 271.658287 -118.102167 
L 272.644062 -116.639749 
L 273.797874 -115.177331 
L 275.10368 -113.714914 
L 276.517389 -112.252496 
L 277.957877 -110.790078 
L 279.312498 -109.32766 
L 280.461971 -107.865242 
L 281.31781 -106.402825 
L 281.856578 -104.940407 
L 282.134161 -103.477989 
L 282.270817 -102.015571 
L 282.410754 -100.553153 
L 282.67198 -99.090735 
L 283.106791 -97.628318 
L 283.688 -96.1659 
L 284.32423 -94.703482 
L 284.895679 -93.241064 
L 285.294797 -91.778646 
L 285.455892 -90.316229 
L 285.363085 -88.853811 
L 285.035723 -87.391393 
L 284.501311 -85.928975 
L 283.772924 -84.466557 
L 282.845411 -83.00414 
L 281.711995 -81.541722 
L 280.387884 -80.079304 
L 278.921517 -78.616886 
L 277.382903 -77.154468 
L 275.83552 -75.692051 
L 274.310108 -74.229633 
L 272.79647 -72.767215 
L 271.256704 -71.304797 
L 269.651013 -69.842379 
L 267.963027 -68.379961 
L 266.214821 -66.917544 
L 264.467413 -65.455126 
L 262.807386 -63.992708 
L 261.324385 -62.53029 
L 260.087476 -61.067872 
L 259.129004 -59.605455 
L 258.441239 -58.143037 
z
" style="stroke: #666666"/>
    </defs>
    <g clip-path="url(#p71fa45410c)">
     <use xlink:href="#m1a70e4d080" x="0" y="360" style="fill: #eebe8b; stroke: #666666"/>
    </g>
   </g>
   <g id="PolyCollection_3">
    <defs>
     <path id="ma95996a4ef" d="M 370.118316 -59.16164 
L 367.881684 -59.16164 
L 366.973305 -60.119 
L 365.597627 -61.07636 
L 363.681589 -62.033721 
L 361.211111 -62.991081 
L 358.238904 -63.948441 
L 354.876235 -64.905801 
L 351.280047 -65.863161 
L 347.645748 -66.820522 
L 344.201639 -67.777882 
L 341.187302 -68.735242 
L 338.802734 -69.692602 
L 337.139313 -70.649963 
L 336.129479 -71.607323 
L 335.554108 -72.564683 
L 335.116016 -73.522043 
L 334.544806 -74.479403 
L 333.677808 -75.436764 
L 332.482772 -76.394124 
L 331.030556 -77.351484 
L 329.451026 -78.308844 
L 327.895932 -79.266205 
L 326.510602 -80.223565 
L 325.411421 -81.180925 
L 324.676864 -82.138285 
L 324.36 -83.095646 
L 324.509057 -84.053006 
L 325.165304 -85.010366 
L 326.323583 -85.967726 
L 327.882677 -86.925086 
L 329.637273 -87.882447 
L 331.339087 -88.839807 
L 332.798917 -89.797167 
L 333.964109 -90.754527 
L 334.920936 -91.711888 
L 335.824967 -92.669248 
L 336.809814 -93.626608 
L 337.931833 -94.583968 
L 339.176395 -95.541328 
L 340.507906 -96.498689 
L 341.91998 -97.456049 
L 343.448217 -98.413409 
L 345.139229 -99.370769 
L 347.002281 -100.32813 
L 348.979491 -101.28549 
L 350.952004 -102.24285 
L 352.773373 -103.20021 
L 354.310483 -104.157571 
L 355.478879 -105.114931 
L 356.267361 -106.072291 
L 356.746175 -107.029651 
L 357.050607 -107.987011 
L 357.338388 -108.944372 
L 357.734878 -109.901732 
L 358.291859 -110.859092 
L 358.981947 -111.816452 
L 359.7307 -112.773813 
L 360.465577 -113.731173 
L 361.151555 -114.688533 
L 361.794432 -115.645893 
L 362.415938 -116.603253 
L 363.022671 -117.560614 
L 363.591671 -118.517974 
L 364.081159 -119.475334 
L 364.45757 -120.432694 
L 364.720791 -121.390055 
L 364.912212 -122.347415 
L 365.100823 -123.304775 
L 365.354497 -124.262135 
L 365.710957 -125.219496 
L 366.162692 -126.176856 
L 366.662545 -127.134216 
L 367.145792 -128.091576 
L 367.556441 -129.048936 
L 367.865167 -130.006297 
L 368.072992 -130.963657 
L 368.203 -131.921017 
L 368.286723 -132.878377 
L 368.351668 -133.835738 
L 368.414173 -134.793098 
L 368.478958 -135.750458 
L 368.543726 -136.707818 
L 368.604707 -137.665178 
L 368.65932 -138.622539 
L 368.705399 -139.579899 
L 368.739821 -140.537259 
L 368.759465 -141.494619 
L 368.76429 -142.45198 
L 368.759336 -143.40934 
L 368.752916 -144.3667 
L 368.751723 -145.32406 
L 368.756683 -146.281421 
L 368.763193 -147.238781 
L 368.76578 -148.196141 
L 368.763513 -149.153501 
L 368.761775 -150.110861 
L 368.769005 -151.068222 
L 368.791005 -152.025582 
L 368.827121 -152.982942 
L 368.870745 -153.940302 
L 369.129255 -153.940302 
L 369.129255 -153.940302 
L 369.172879 -152.982942 
L 369.208995 -152.025582 
L 369.230995 -151.068222 
L 369.238225 -150.110861 
L 369.236487 -149.153501 
L 369.23422 -148.196141 
L 369.236807 -147.238781 
L 369.243317 -146.281421 
L 369.248277 -145.32406 
L 369.247084 -144.3667 
L 369.240664 -143.40934 
L 369.23571 -142.45198 
L 369.240535 -141.494619 
L 369.260179 -140.537259 
L 369.294601 -139.579899 
L 369.34068 -138.622539 
L 369.395293 -137.665178 
L 369.456274 -136.707818 
L 369.521042 -135.750458 
L 369.585827 -134.793098 
L 369.648332 -133.835738 
L 369.713277 -132.878377 
L 369.797 -131.921017 
L 369.927008 -130.963657 
L 370.134833 -130.006297 
L 370.443559 -129.048936 
L 370.854208 -128.091576 
L 371.337455 -127.134216 
L 371.837308 -126.176856 
L 372.289043 -125.219496 
L 372.645503 -124.262135 
L 372.899177 -123.304775 
L 373.087788 -122.347415 
L 373.279209 -121.390055 
L 373.54243 -120.432694 
L 373.918841 -119.475334 
L 374.408329 -118.517974 
L 374.977329 -117.560614 
L 375.584062 -116.603253 
L 376.205568 -115.645893 
L 376.848445 -114.688533 
L 377.534423 -113.731173 
L 378.2693 -112.773813 
L 379.018053 -111.816452 
L 379.708141 -110.859092 
L 380.265122 -109.901732 
L 380.661612 -108.944372 
L 380.949393 -107.987011 
L 381.253825 -107.029651 
L 381.732639 -106.072291 
L 382.521121 -105.114931 
L 383.689517 -104.157571 
L 385.226627 -103.20021 
L 387.047996 -102.24285 
L 389.020509 -101.28549 
L 390.997719 -100.32813 
L 392.860771 -99.370769 
L 394.551783 -98.413409 
L 396.08002 -97.456049 
L 397.492094 -96.498689 
L 398.823605 -95.541328 
L 400.068167 -94.583968 
L 401.190186 -93.626608 
L 402.175033 -92.669248 
L 403.079064 -91.711888 
L 404.035891 -90.754527 
L 405.201083 -89.797167 
L 406.660913 -88.839807 
L 408.362727 -87.882447 
L 410.117323 -86.925086 
L 411.676417 -85.967726 
L 412.834696 -85.010366 
L 413.490943 -84.053006 
L 413.64 -83.095646 
L 413.323136 -82.138285 
L 412.588579 -81.180925 
L 411.489398 -80.223565 
L 410.104068 -79.266205 
L 408.548974 -78.308844 
L 406.969444 -77.351484 
L 405.517228 -76.394124 
L 404.322192 -75.436764 
L 403.455194 -74.479403 
L 402.883984 -73.522043 
L 402.445892 -72.564683 
L 401.870521 -71.607323 
L 400.860687 -70.649963 
L 399.197266 -69.692602 
L 396.812698 -68.735242 
L 393.798361 -67.777882 
L 390.354252 -66.820522 
L 386.719953 -65.863161 
L 383.123765 -64.905801 
L 379.761096 -63.948441 
L 376.788889 -62.991081 
L 374.318411 -62.033721 
L 372.402373 -61.07636 
L 371.026695 -60.119 
L 370.118316 -59.16164 
z
" style="stroke: #666666"/>
    </defs>
    <g clip-path="url(#p71fa45410c)">
     <use xlink:href="#ma95996a4ef" x="0" y="360" style="fill: #e98c80; stroke: #666666"/>
    </g>
   </g>
   <g id="PolyCollection_4">
    <defs>
     <path id="m88453c9de7" d="M 480.964861 -58.456046 
L 480.235139 -58.456046 
L 480.025951 -60.84836 
L 479.746501 -63.240675 
L 479.396718 -65.63299 
L 478.985438 -68.025305 
L 478.529661 -70.417619 
L 478.051303 -72.809934 
L 477.572063 -75.202249 
L 477.10792 -77.594563 
L 476.665341 -79.986878 
L 476.241123 -82.379193 
L 475.826546 -84.771507 
L 475.414384 -87.163822 
L 475.005358 -89.556137 
L 474.610327 -91.948452 
L 474.246535 -94.340766 
L 473.929665 -96.733081 
L 473.665976 -99.125396 
L 473.448756 -101.51771 
L 473.260753 -103.910025 
L 473.080965 -106.30234 
L 472.892248 -108.694654 
L 472.686363 -111.086969 
L 472.464838 -113.479284 
L 472.23604 -115.871599 
L 472.010162 -118.263913 
L 471.794044 -120.656228 
L 471.587217 -123.048543 
L 471.379842 -125.440857 
L 471.153028 -127.833172 
L 470.881965 -130.225487 
L 470.542066 -132.617801 
L 470.116992 -135.010116 
L 469.605938 -137.402431 
L 469.026849 -139.794745 
L 468.41361 -142.18706 
L 467.807987 -144.579375 
L 467.249647 -146.97169 
L 466.768088 -149.364004 
L 466.378826 -151.756319 
L 466.083854 -154.148634 
L 465.875148 -156.540948 
L 465.739972 -158.933263 
L 465.66724 -161.325578 
L 465.653797 -163.717892 
L 465.708395 -166.110207 
L 465.850717 -168.502522 
L 466.104276 -170.894837 
L 466.485254 -173.287151 
L 466.992213 -175.679466 
L 467.601966 -178.071781 
L 468.274043 -180.464095 
L 468.961762 -182.85641 
L 469.624738 -185.248725 
L 470.237568 -187.641039 
L 470.792116 -190.033354 
L 471.294223 -192.425669 
L 471.757701 -194.817984 
L 472.198406 -197.210298 
L 472.629911 -199.602613 
L 473.060976 -201.994928 
L 473.494493 -204.387242 
L 473.927647 -206.779557 
L 474.353224 -209.171872 
L 474.761881 -211.564186 
L 475.144889 -213.956501 
L 475.496593 -216.348816 
L 475.815916 -218.74113 
L 476.106585 -221.133445 
L 476.37619 -223.52576 
L 476.634409 -225.918075 
L 476.89086 -228.310389 
L 477.152956 -230.702704 
L 477.424184 -233.095019 
L 477.703203 -235.487333 
L 477.984092 -237.879648 
L 478.257831 -240.271963 
L 478.514663 -242.664277 
L 478.746646 -245.056592 
L 478.949657 -247.448907 
L 479.12431 -249.841222 
L 479.275647 -252.233536 
L 479.411724 -254.625851 
L 479.541449 -257.018166 
L 479.672137 -259.41048 
L 479.807417 -261.802795 
L 479.946129 -264.19511 
L 480.082687 -266.587424 
L 480.208884 -268.979739 
L 480.316538 -271.372054 
L 480.400011 -273.764368 
L 480.45773 -276.156683 
L 480.492321 -278.548998 
L 480.509523 -280.941313 
L 480.516427 -283.333627 
L 480.519648 -285.725942 
L 480.523946 -288.118257 
L 480.531596 -290.510571 
L 480.542577 -292.902886 
L 480.555379 -295.295201 
L 480.644621 -295.295201 
L 480.644621 -295.295201 
L 480.657423 -292.902886 
L 480.668404 -290.510571 
L 480.676054 -288.118257 
L 480.680352 -285.725942 
L 480.683573 -283.333627 
L 480.690477 -280.941313 
L 480.707679 -278.548998 
L 480.74227 -276.156683 
L 480.799989 -273.764368 
L 480.883462 -271.372054 
L 480.991116 -268.979739 
L 481.117313 -266.587424 
L 481.253871 -264.19511 
L 481.392583 -261.802795 
L 481.527863 -259.41048 
L 481.658551 -257.018166 
L 481.788276 -254.625851 
L 481.924353 -252.233536 
L 482.07569 -249.841222 
L 482.250343 -247.448907 
L 482.453354 -245.056592 
L 482.685337 -242.664277 
L 482.942169 -240.271963 
L 483.215908 -237.879648 
L 483.496797 -235.487333 
L 483.775816 -233.095019 
L 484.047044 -230.702704 
L 484.30914 -228.310389 
L 484.565591 -225.918075 
L 484.82381 -223.52576 
L 485.093415 -221.133445 
L 485.384084 -218.74113 
L 485.703407 -216.348816 
L 486.055111 -213.956501 
L 486.438119 -211.564186 
L 486.846776 -209.171872 
L 487.272353 -206.779557 
L 487.705507 -204.387242 
L 488.139024 -201.994928 
L 488.570089 -199.602613 
L 489.001594 -197.210298 
L 489.442299 -194.817984 
L 489.905777 -192.425669 
L 490.407884 -190.033354 
L 490.962432 -187.641039 
L 491.575262 -185.248725 
L 492.238238 -182.85641 
L 492.925957 -180.464095 
L 493.598034 -178.071781 
L 494.207787 -175.679466 
L 494.714746 -173.287151 
L 495.095724 -170.894837 
L 495.349283 -168.502522 
L 495.491605 -166.110207 
L 495.546203 -163.717892 
L 495.53276 -161.325578 
L 495.460028 -158.933263 
L 495.324852 -156.540948 
L 495.116146 -154.148634 
L 494.821174 -151.756319 
L 494.431912 -149.364004 
L 493.950353 -146.97169 
L 493.392013 -144.579375 
L 492.78639 -142.18706 
L 492.173151 -139.794745 
L 491.594062 -137.402431 
L 491.083008 -135.010116 
L 490.657934 -132.617801 
L 490.318035 -130.225487 
L 490.046972 -127.833172 
L 489.820158 -125.440857 
L 489.612783 -123.048543 
L 489.405956 -120.656228 
L 489.189838 -118.263913 
L 488.96396 -115.871599 
L 488.735162 -113.479284 
L 488.513637 -111.086969 
L 488.307752 -108.694654 
L 488.119035 -106.30234 
L 487.939247 -103.910025 
L 487.751244 -101.51771 
L 487.534024 -99.125396 
L 487.270335 -96.733081 
L 486.953465 -94.340766 
L 486.589673 -91.948452 
L 486.194642 -89.556137 
L 485.785616 -87.163822 
L 485.373454 -84.771507 
L 484.958877 -82.379193 
L 484.534659 -79.986878 
L 484.09208 -77.594563 
L 483.627937 -75.202249 
L 483.148697 -72.809934 
L 482.670339 -70.417619 
L 482.214562 -68.025305 
L 481.803282 -65.63299 
L 481.453499 -63.240675 
L 481.174049 -60.84836 
L 480.964861 -58.456046 
z
" style="stroke: #666666"/>
    </defs>
    <g clip-path="url(#p71fa45410c)">
     <use xlink:href="#m88453c9de7" x="0" y="360" style="fill: #8caec8; stroke: #666666"/>
    </g>
   </g>
   <g id="PolyCollection_5">
    <defs>
     <path id="mc8e2c57224" d="M 592.501127 -56.924728 
L 591.898873 -56.924728 
L 591.737212 -59.381195 
L 591.529089 -61.837662 
L 591.274648 -64.294129 
L 590.97687 -66.750596 
L 590.642034 -69.207063 
L 590.279735 -71.66353 
L 589.900744 -74.119997 
L 589.512464 -76.576464 
L 589.114408 -79.032931 
L 588.697529 -81.489399 
L 588.249331 -83.945866 
L 587.762804 -86.402333 
L 587.244201 -88.8588 
L 586.714605 -91.315267 
L 586.20329 -93.771734 
L 585.735181 -96.228201 
L 585.318149 -98.684668 
L 584.936375 -101.141135 
L 584.553234 -103.597602 
L 584.123022 -106.05407 
L 583.607753 -108.510537 
L 582.994058 -110.967004 
L 582.304721 -113.423471 
L 581.598767 -115.879938 
L 580.95562 -118.336405 
L 580.44513 -120.792872 
L 580.094938 -123.249339 
L 579.872508 -125.705806 
L 579.694559 -128.162273 
L 579.461974 -130.61874 
L 579.102855 -133.075208 
L 578.601154 -135.531675 
L 577.997396 -137.988142 
L 577.364936 -140.444609 
L 576.778388 -142.901076 
L 576.291772 -145.357543 
L 575.933898 -147.81401 
L 575.716375 -150.270477 
L 575.644113 -152.726944 
L 575.721147 -155.183411 
L 575.950866 -157.639878 
L 576.333206 -160.096346 
L 576.860961 -162.552813 
L 577.516021 -165.00928 
L 578.266818 -167.465747 
L 579.069474 -169.922214 
L 579.874315 -172.378681 
L 580.636174 -174.835148 
L 581.323997 -177.291615 
L 581.92557 -179.748082 
L 582.446478 -182.204549 
L 582.905467 -184.661017 
L 583.328969 -187.117484 
L 583.745943 -189.573951 
L 584.182673 -192.030418 
L 584.657252 -194.486885 
L 585.174601 -196.943352 
L 585.723725 -199.399819 
L 586.278736 -201.856286 
L 586.804218 -204.312753 
L 587.264391 -206.76922 
L 587.634171 -209.225687 
L 587.908698 -211.682155 
L 588.107047 -214.138622 
L 588.267147 -216.595089 
L 588.432948 -219.051556 
L 588.639471 -221.508023 
L 588.902844 -223.96449 
L 589.219205 -226.420957 
L 589.570744 -228.877424 
L 589.933641 -231.333891 
L 590.283628 -233.790358 
L 590.598669 -236.246825 
L 590.860864 -238.703293 
L 591.059297 -241.15976 
L 591.193099 -243.616227 
L 591.272497 -246.072694 
L 591.316246 -248.529161 
L 591.346012 -250.985628 
L 591.380038 -253.442095 
L 591.428675 -255.898562 
L 591.493266 -258.355029 
L 591.568379 -260.811496 
L 591.646006 -263.267963 
L 591.719729 -265.724431 
L 591.786985 -268.180898 
L 591.848681 -270.637365 
L 591.906818 -273.093832 
L 591.961902 -275.550299 
L 592.011818 -278.006766 
L 592.052804 -280.463233 
L 592.081747 -282.9197 
L 592.098303 -285.376167 
L 592.105524 -287.832634 
L 592.108679 -290.289102 
L 592.113003 -292.745569 
L 592.121646 -295.202036 
L 592.134851 -297.658503 
L 592.150578 -300.11497 
L 592.249422 -300.11497 
L 592.249422 -300.11497 
L 592.265149 -297.658503 
L 592.278354 -295.202036 
L 592.286997 -292.745569 
L 592.291321 -290.289102 
L 592.294476 -287.832634 
L 592.301697 -285.376167 
L 592.318253 -282.9197 
L 592.347196 -280.463233 
L 592.388182 -278.006766 
L 592.438098 -275.550299 
L 592.493182 -273.093832 
L 592.551319 -270.637365 
L 592.613015 -268.180898 
L 592.680271 -265.724431 
L 592.753994 -263.267963 
L 592.831621 -260.811496 
L 592.906734 -258.355029 
L 592.971325 -255.898562 
L 593.019962 -253.442095 
L 593.053988 -250.985628 
L 593.083754 -248.529161 
L 593.127503 -246.072694 
L 593.206901 -243.616227 
L 593.340703 -241.15976 
L 593.539136 -238.703293 
L 593.801331 -236.246825 
L 594.116372 -233.790358 
L 594.466359 -231.333891 
L 594.829256 -228.877424 
L 595.180795 -226.420957 
L 595.497156 -223.96449 
L 595.760529 -221.508023 
L 595.967052 -219.051556 
L 596.132853 -216.595089 
L 596.292953 -214.138622 
L 596.491302 -211.682155 
L 596.765829 -209.225687 
L 597.135609 -206.76922 
L 597.595782 -204.312753 
L 598.121264 -201.856286 
L 598.676275 -199.399819 
L 599.225399 -196.943352 
L 599.742748 -194.486885 
L 600.217327 -192.030418 
L 600.654057 -189.573951 
L 601.071031 -187.117484 
L 601.494533 -184.661017 
L 601.953522 -182.204549 
L 602.47443 -179.748082 
L 603.076003 -177.291615 
L 603.763826 -174.835148 
L 604.525685 -172.378681 
L 605.330526 -169.922214 
L 606.133182 -167.465747 
L 606.883979 -165.00928 
L 607.539039 -162.552813 
L 608.066794 -160.096346 
L 608.449134 -157.639878 
L 608.678853 -155.183411 
L 608.755887 -152.726944 
L 608.683625 -150.270477 
L 608.466102 -147.81401 
L 608.108228 -145.357543 
L 607.621612 -142.901076 
L 607.035064 -140.444609 
L 606.402604 -137.988142 
L 605.798846 -135.531675 
L 605.297145 -133.075208 
L 604.938026 -130.61874 
L 604.705441 -128.162273 
L 604.527492 -125.705806 
L 604.305062 -123.249339 
L 603.95487 -120.792872 
L 603.44438 -118.336405 
L 602.801233 -115.879938 
L 602.095279 -113.423471 
L 601.405942 -110.967004 
L 600.792247 -108.510537 
L 600.276978 -106.05407 
L 599.846766 -103.597602 
L 599.463625 -101.141135 
L 599.081851 -98.684668 
L 598.664819 -96.228201 
L 598.19671 -93.771734 
L 597.685395 -91.315267 
L 597.155799 -88.8588 
L 596.637196 -86.402333 
L 596.150669 -83.945866 
L 595.702471 -81.489399 
L 595.285592 -79.032931 
L 594.887536 -76.576464 
L 594.499256 -74.119997 
L 594.120265 -71.66353 
L 593.757966 -69.207063 
L 593.42313 -66.750596 
L 593.125352 -64.294129 
L 592.870911 -61.837662 
L 592.662788 -59.381195 
L 592.501127 -56.924728 
z
" style="stroke: #666666"/>
    </defs>
    <g clip-path="url(#p71fa45410c)">
     <use xlink:href="#mc8e2c57224" x="0" y="360" style="fill: #b2b2ce; stroke: #666666"/>
    </g>
   </g>
   <g id="matplotlib.axis_1">
    <g id="xtick_1">
     <g id="line2d_1">
      <defs>
       <path id="m056660166d" d="M 0 0 
L 0 3.5 
" style="stroke: #000000; stroke-width: 0.8"/>
      </defs>
      <g>
       <use xlink:href="#m056660166d" x="145.8" y="320.4" style="stroke: #000000; stroke-width: 0.8"/>
      </g>
     </g>
     <g id="text_1">
      <!-- Test -->
      <g transform="translate(124.140313 344.116562) scale(0.22 -0.22)">
       <defs>
        <path id="DejaVuSans-54" d="M -19 4666 
L 3928 4666 
L 3928 4134 
L 2272 4134 
L 2272 0 
L 1638 0 
L 1638 4134 
L -19 4134 
L -19 4666 
z
" transform="scale(0.015625)"/>
        <path id="DejaVuSans-65" d="M 3597 1894 
L 3597 1613 
L 953 1613 
Q 991 1019 1311 708 
Q 1631 397 2203 397 
Q 2534 397 2845 478 
Q 3156 559 3463 722 
L 3463 178 
Q 3153 47 2828 -22 
Q 2503 -91 2169 -91 
Q 1331 -91 842 396 
Q 353 884 353 1716 
Q 353 2575 817 3079 
Q 1281 3584 2069 3584 
Q 2775 3584 3186 3129 
Q 3597 2675 3597 1894 
z
M 3022 2063 
Q 3016 2534 2758 2815 
Q 2500 3097 2075 3097 
Q 1594 3097 1305 2825 
Q 1016 2553 972 2059 
L 3022 2063 
z
" transform="scale(0.015625)"/>
        <path id="DejaVuSans-73" d="M 2834 3397 
L 2834 2853 
Q 2591 2978 2328 3040 
Q 2066 3103 1784 3103 
Q 1356 3103 1142 2972 
Q 928 2841 928 2578 
Q 928 2378 1081 2264 
Q 1234 2150 1697 2047 
L 1894 2003 
Q 2506 1872 2764 1633 
Q 3022 1394 3022 966 
Q 3022 478 2636 193 
Q 2250 -91 1575 -91 
Q 1294 -91 989 -36 
Q 684 19 347 128 
L 347 722 
Q 666 556 975 473 
Q 1284 391 1588 391 
Q 1994 391 2212 530 
Q 2431 669 2431 922 
Q 2431 1156 2273 1281 
Q 2116 1406 1581 1522 
L 1381 1569 
Q 847 1681 609 1914 
Q 372 2147 372 2553 
Q 372 3047 722 3315 
Q 1072 3584 1716 3584 
Q 2034 3584 2315 3537 
Q 2597 3491 2834 3397 
z
" transform="scale(0.015625)"/>
        <path id="DejaVuSans-74" d="M 1172 4494 
L 1172 3500 
L 2356 3500 
L 2356 3053 
L 1172 3053 
L 1172 1153 
Q 1172 725 1289 603 
Q 1406 481 1766 481 
L 2356 481 
L 2356 0 
L 1766 0 
Q 1100 0 847 248 
Q 594 497 594 1153 
L 594 3053 
L 172 3053 
L 172 3500 
L 594 3500 
L 594 4494 
L 1172 4494 
z
" transform="scale(0.015625)"/>
       </defs>
       <use xlink:href="#DejaVuSans-54"/>
       <use xlink:href="#DejaVuSans-65" x="44.083984"/>
       <use xlink:href="#DejaVuSans-73" x="105.607422"/>
       <use xlink:href="#DejaVuSans-74" x="157.707031"/>
      </g>
     </g>
    </g>
    <g id="xtick_2">
     <g id="line2d_2">
      <g>
       <use xlink:href="#m056660166d" x="257.4" y="320.4" style="stroke: #000000; stroke-width: 0.8"/>
      </g>
     </g>
     <g id="text_2">
      <!-- Random -->
      <g transform="translate(211.863438 344.116562) scale(0.22 -0.22)">
       <defs>
        <path id="DejaVuSans-52" d="M 2841 2188 
Q 3044 2119 3236 1894 
Q 3428 1669 3622 1275 
L 4263 0 
L 3584 0 
L 2988 1197 
Q 2756 1666 2539 1819 
Q 2322 1972 1947 1972 
L 1259 1972 
L 1259 0 
L 628 0 
L 628 4666 
L 2053 4666 
Q 2853 4666 3247 4331 
Q 3641 3997 3641 3322 
Q 3641 2881 3436 2590 
Q 3231 2300 2841 2188 
z
M 1259 4147 
L 1259 2491 
L 2053 2491 
Q 2509 2491 2742 2702 
Q 2975 2913 2975 3322 
Q 2975 3731 2742 3939 
Q 2509 4147 2053 4147 
L 1259 4147 
z
" transform="scale(0.015625)"/>
        <path id="DejaVuSans-61" d="M 2194 1759 
Q 1497 1759 1228 1600 
Q 959 1441 959 1056 
Q 959 750 1161 570 
Q 1363 391 1709 391 
Q 2188 391 2477 730 
Q 2766 1069 2766 1631 
L 2766 1759 
L 2194 1759 
z
M 3341 1997 
L 3341 0 
L 2766 0 
L 2766 531 
Q 2569 213 2275 61 
Q 1981 -91 1556 -91 
Q 1019 -91 701 211 
Q 384 513 384 1019 
Q 384 1609 779 1909 
Q 1175 2209 1959 2209 
L 2766 2209 
L 2766 2266 
Q 2766 2663 2505 2880 
Q 2244 3097 1772 3097 
Q 1472 3097 1187 3025 
Q 903 2953 641 2809 
L 641 3341 
Q 956 3463 1253 3523 
Q 1550 3584 1831 3584 
Q 2591 3584 2966 3190 
Q 3341 2797 3341 1997 
z
" transform="scale(0.015625)"/>
        <path id="DejaVuSans-6e" d="M 3513 2113 
L 3513 0 
L 2938 0 
L 2938 2094 
Q 2938 2591 2744 2837 
Q 2550 3084 2163 3084 
Q 1697 3084 1428 2787 
Q 1159 2491 1159 1978 
L 1159 0 
L 581 0 
L 581 3500 
L 1159 3500 
L 1159 2956 
Q 1366 3272 1645 3428 
Q 1925 3584 2291 3584 
Q 2894 3584 3203 3211 
Q 3513 2838 3513 2113 
z
" transform="scale(0.015625)"/>
        <path id="DejaVuSans-64" d="M 2906 2969 
L 2906 4863 
L 3481 4863 
L 3481 0 
L 2906 0 
L 2906 525 
Q 2725 213 2448 61 
Q 2172 -91 1784 -91 
Q 1150 -91 751 415 
Q 353 922 353 1747 
Q 353 2572 751 3078 
Q 1150 3584 1784 3584 
Q 2172 3584 2448 3432 
Q 2725 3281 2906 2969 
z
M 947 1747 
Q 947 1113 1208 752 
Q 1469 391 1925 391 
Q 2381 391 2643 752 
Q 2906 1113 2906 1747 
Q 2906 2381 2643 2742 
Q 2381 3103 1925 3103 
Q 1469 3103 1208 2742 
Q 947 2381 947 1747 
z
" transform="scale(0.015625)"/>
        <path id="DejaVuSans-6f" d="M 1959 3097 
Q 1497 3097 1228 2736 
Q 959 2375 959 1747 
Q 959 1119 1226 758 
Q 1494 397 1959 397 
Q 2419 397 2687 759 
Q 2956 1122 2956 1747 
Q 2956 2369 2687 2733 
Q 2419 3097 1959 3097 
z
M 1959 3584 
Q 2709 3584 3137 3096 
Q 3566 2609 3566 1747 
Q 3566 888 3137 398 
Q 2709 -91 1959 -91 
Q 1206 -91 779 398 
Q 353 888 353 1747 
Q 353 2609 779 3096 
Q 1206 3584 1959 3584 
z
" transform="scale(0.015625)"/>
        <path id="DejaVuSans-6d" d="M 3328 2828 
Q 3544 3216 3844 3400 
Q 4144 3584 4550 3584 
Q 5097 3584 5394 3201 
Q 5691 2819 5691 2113 
L 5691 0 
L 5113 0 
L 5113 2094 
Q 5113 2597 4934 2840 
Q 4756 3084 4391 3084 
Q 3944 3084 3684 2787 
Q 3425 2491 3425 1978 
L 3425 0 
L 2847 0 
L 2847 2094 
Q 2847 2600 2669 2842 
Q 2491 3084 2119 3084 
Q 1678 3084 1418 2786 
Q 1159 2488 1159 1978 
L 1159 0 
L 581 0 
L 581 3500 
L 1159 3500 
L 1159 2956 
Q 1356 3278 1631 3431 
Q 1906 3584 2284 3584 
Q 2666 3584 2933 3390 
Q 3200 3197 3328 2828 
z
" transform="scale(0.015625)"/>
       </defs>
       <use xlink:href="#DejaVuSans-52"/>
       <use xlink:href="#DejaVuSans-61" x="67.232422"/>
       <use xlink:href="#DejaVuSans-6e" x="128.511719"/>
       <use xlink:href="#DejaVuSans-64" x="191.890625"/>
       <use xlink:href="#DejaVuSans-6f" x="255.367188"/>
       <use xlink:href="#DejaVuSans-6d" x="316.548828"/>
      </g>
     </g>
    </g>
    <g id="xtick_3">
     <g id="line2d_3">
      <g>
       <use xlink:href="#m056660166d" x="369" y="320.4" style="stroke: #000000; stroke-width: 0.8"/>
      </g>
     </g>
     <g id="text_3">
      <!-- Pretrain -->
      <g transform="translate(325.914375 344.116562) scale(0.22 -0.22)">
       <defs>
        <path id="DejaVuSans-50" d="M 1259 4147 
L 1259 2394 
L 2053 2394 
Q 2494 2394 2734 2622 
Q 2975 2850 2975 3272 
Q 2975 3691 2734 3919 
Q 2494 4147 2053 4147 
L 1259 4147 
z
M 628 4666 
L 2053 4666 
Q 2838 4666 3239 4311 
Q 3641 3956 3641 3272 
Q 3641 2581 3239 2228 
Q 2838 1875 2053 1875 
L 1259 1875 
L 1259 0 
L 628 0 
L 628 4666 
z
" transform="scale(0.015625)"/>
        <path id="DejaVuSans-72" d="M 2631 2963 
Q 2534 3019 2420 3045 
Q 2306 3072 2169 3072 
Q 1681 3072 1420 2755 
Q 1159 2438 1159 1844 
L 1159 0 
L 581 0 
L 581 3500 
L 1159 3500 
L 1159 2956 
Q 1341 3275 1631 3429 
Q 1922 3584 2338 3584 
Q 2397 3584 2469 3576 
Q 2541 3569 2628 3553 
L 2631 2963 
z
" transform="scale(0.015625)"/>
        <path id="DejaVuSans-69" d="M 603 3500 
L 1178 3500 
L 1178 0 
L 603 0 
L 603 3500 
z
M 603 4863 
L 1178 4863 
L 1178 4134 
L 603 4134 
L 603 4863 
z
" transform="scale(0.015625)"/>
       </defs>
       <use xlink:href="#DejaVuSans-50"/>
       <use xlink:href="#DejaVuSans-72" x="58.552734"/>
       <use xlink:href="#DejaVuSans-65" x="97.416016"/>
       <use xlink:href="#DejaVuSans-74" x="158.939453"/>
       <use xlink:href="#DejaVuSans-72" x="198.148438"/>
       <use xlink:href="#DejaVuSans-61" x="239.261719"/>
       <use xlink:href="#DejaVuSans-69" x="300.541016"/>
       <use xlink:href="#DejaVuSans-6e" x="328.324219"/>
      </g>
     </g>
    </g>
    <g id="xtick_4">
     <g id="line2d_4">
      <g>
       <use xlink:href="#m056660166d" x="480.6" y="320.4" style="stroke: #000000; stroke-width: 0.8"/>
      </g>
     </g>
     <g id="text_4">
      <!-- Finetune -->
      <g transform="translate(433.251875 344.116562) scale(0.22 -0.22)">
       <defs>
        <path id="DejaVuSans-46" d="M 628 4666 
L 3309 4666 
L 3309 4134 
L 1259 4134 
L 1259 2759 
L 3109 2759 
L 3109 2228 
L 1259 2228 
L 1259 0 
L 628 0 
L 628 4666 
z
" transform="scale(0.015625)"/>
        <path id="DejaVuSans-75" d="M 544 1381 
L 544 3500 
L 1119 3500 
L 1119 1403 
Q 1119 906 1312 657 
Q 1506 409 1894 409 
Q 2359 409 2629 706 
Q 2900 1003 2900 1516 
L 2900 3500 
L 3475 3500 
L 3475 0 
L 2900 0 
L 2900 538 
Q 2691 219 2414 64 
Q 2138 -91 1772 -91 
Q 1169 -91 856 284 
Q 544 659 544 1381 
z
M 1991 3584 
L 1991 3584 
z
" transform="scale(0.015625)"/>
       </defs>
       <use xlink:href="#DejaVuSans-46"/>
       <use xlink:href="#DejaVuSans-69" x="50.269531"/>
       <use xlink:href="#DejaVuSans-6e" x="78.052734"/>
       <use xlink:href="#DejaVuSans-65" x="141.431641"/>
       <use xlink:href="#DejaVuSans-74" x="202.955078"/>
       <use xlink:href="#DejaVuSans-75" x="242.164062"/>
       <use xlink:href="#DejaVuSans-6e" x="305.542969"/>
       <use xlink:href="#DejaVuSans-65" x="368.921875"/>
      </g>
     </g>
    </g>
    <g id="xtick_5">
     <g id="line2d_5">
      <g>
       <use xlink:href="#m056660166d" x="592.2" y="320.4" style="stroke: #000000; stroke-width: 0.8"/>
      </g>
     </g>
     <g id="text_5">
      <!-- Prefix -->
      <g transform="translate(561.277969 344.116562) scale(0.22 -0.22)">
       <defs>
        <path id="DejaVuSans-66" d="M 2375 4863 
L 2375 4384 
L 1825 4384 
Q 1516 4384 1395 4259 
Q 1275 4134 1275 3809 
L 1275 3500 
L 2222 3500 
L 2222 3053 
L 1275 3053 
L 1275 0 
L 697 0 
L 697 3053 
L 147 3053 
L 147 3500 
L 697 3500 
L 697 3744 
Q 697 4328 969 4595 
Q 1241 4863 1831 4863 
L 2375 4863 
z
" transform="scale(0.015625)"/>
        <path id="DejaVuSans-78" d="M 3513 3500 
L 2247 1797 
L 3578 0 
L 2900 0 
L 1881 1375 
L 863 0 
L 184 0 
L 1544 1831 
L 300 3500 
L 978 3500 
L 1906 2253 
L 2834 3500 
L 3513 3500 
z
" transform="scale(0.015625)"/>
       </defs>
       <use xlink:href="#DejaVuSans-50"/>
       <use xlink:href="#DejaVuSans-72" x="58.552734"/>
       <use xlink:href="#DejaVuSans-65" x="97.416016"/>
       <use xlink:href="#DejaVuSans-66" x="158.939453"/>
       <use xlink:href="#DejaVuSans-69" x="194.144531"/>
       <use xlink:href="#DejaVuSans-78" x="221.927734"/>
      </g>
     </g>
    </g>
   </g>
   <g id="matplotlib.axis_2">
    <g id="ytick_1">
     <g id="line2d_6">
      <defs>
       <path id="m1bcb8ab7c1" d="M 0 0 
L -3.5 0 
" style="stroke: #000000; stroke-width: 0.8"/>
      </defs>
      <g>
       <use xlink:href="#m1bcb8ab7c1" x="90" y="298.50521" style="stroke: #000000; stroke-width: 0.8"/>
      </g>
     </g>
     <g id="text_6">
      <!-- 0.0 -->
      <g transform="translate(46.422812 307.243413) scale(0.23 -0.23)">
       <defs>
        <path id="DejaVuSans-30" d="M 2034 4250 
Q 1547 4250 1301 3770 
Q 1056 3291 1056 2328 
Q 1056 1369 1301 889 
Q 1547 409 2034 409 
Q 2525 409 2770 889 
Q 3016 1369 3016 2328 
Q 3016 3291 2770 3770 
Q 2525 4250 2034 4250 
z
M 2034 4750 
Q 2819 4750 3233 4129 
Q 3647 3509 3647 2328 
Q 3647 1150 3233 529 
Q 2819 -91 2034 -91 
Q 1250 -91 836 529 
Q 422 1150 422 2328 
Q 422 3509 836 4129 
Q 1250 4750 2034 4750 
z
" transform="scale(0.015625)"/>
        <path id="DejaVuSans-2e" d="M 684 794 
L 1344 794 
L 1344 0 
L 684 0 
L 684 794 
z
" transform="scale(0.015625)"/>
       </defs>
       <use xlink:href="#DejaVuSans-30"/>
       <use xlink:href="#DejaVuSans-2e" x="63.623047"/>
       <use xlink:href="#DejaVuSans-30" x="95.410156"/>
      </g>
     </g>
    </g>
    <g id="ytick_2">
     <g id="line2d_7">
      <g>
       <use xlink:href="#m1bcb8ab7c1" x="90" y="258.115379" style="stroke: #000000; stroke-width: 0.8"/>
      </g>
     </g>
     <g id="text_7">
      <!-- 0.2 -->
      <g transform="translate(46.422812 266.853583) scale(0.23 -0.23)">
       <defs>
        <path id="DejaVuSans-32" d="M 1228 531 
L 3431 531 
L 3431 0 
L 469 0 
L 469 531 
Q 828 903 1448 1529 
Q 2069 2156 2228 2338 
Q 2531 2678 2651 2914 
Q 2772 3150 2772 3378 
Q 2772 3750 2511 3984 
Q 2250 4219 1831 4219 
Q 1534 4219 1204 4116 
Q 875 4013 500 3803 
L 500 4441 
Q 881 4594 1212 4672 
Q 1544 4750 1819 4750 
Q 2544 4750 2975 4387 
Q 3406 4025 3406 3419 
Q 3406 3131 3298 2873 
Q 3191 2616 2906 2266 
Q 2828 2175 2409 1742 
Q 1991 1309 1228 531 
z
" transform="scale(0.015625)"/>
       </defs>
       <use xlink:href="#DejaVuSans-30"/>
       <use xlink:href="#DejaVuSans-2e" x="63.623047"/>
       <use xlink:href="#DejaVuSans-32" x="95.410156"/>
      </g>
     </g>
    </g>
    <g id="ytick_3">
     <g id="line2d_8">
      <g>
       <use xlink:href="#m1bcb8ab7c1" x="90" y="217.725548" style="stroke: #000000; stroke-width: 0.8"/>
      </g>
     </g>
     <g id="text_8">
      <!-- 0.4 -->
      <g transform="translate(46.422812 226.463752) scale(0.23 -0.23)">
       <defs>
        <path id="DejaVuSans-34" d="M 2419 4116 
L 825 1625 
L 2419 1625 
L 2419 4116 
z
M 2253 4666 
L 3047 4666 
L 3047 1625 
L 3713 1625 
L 3713 1100 
L 3047 1100 
L 3047 0 
L 2419 0 
L 2419 1100 
L 313 1100 
L 313 1709 
L 2253 4666 
z
" transform="scale(0.015625)"/>
       </defs>
       <use xlink:href="#DejaVuSans-30"/>
       <use xlink:href="#DejaVuSans-2e" x="63.623047"/>
       <use xlink:href="#DejaVuSans-34" x="95.410156"/>
      </g>
     </g>
    </g>
    <g id="ytick_4">
     <g id="line2d_9">
      <g>
       <use xlink:href="#m1bcb8ab7c1" x="90" y="177.335718" style="stroke: #000000; stroke-width: 0.8"/>
      </g>
     </g>
     <g id="text_9">
      <!-- 0.6 -->
      <g transform="translate(46.422812 186.073921) scale(0.23 -0.23)">
       <defs>
        <path id="DejaVuSans-36" d="M 2113 2584 
Q 1688 2584 1439 2293 
Q 1191 2003 1191 1497 
Q 1191 994 1439 701 
Q 1688 409 2113 409 
Q 2538 409 2786 701 
Q 3034 994 3034 1497 
Q 3034 2003 2786 2293 
Q 2538 2584 2113 2584 
z
M 3366 4563 
L 3366 3988 
Q 3128 4100 2886 4159 
Q 2644 4219 2406 4219 
Q 1781 4219 1451 3797 
Q 1122 3375 1075 2522 
Q 1259 2794 1537 2939 
Q 1816 3084 2150 3084 
Q 2853 3084 3261 2657 
Q 3669 2231 3669 1497 
Q 3669 778 3244 343 
Q 2819 -91 2113 -91 
Q 1303 -91 875 529 
Q 447 1150 447 2328 
Q 447 3434 972 4092 
Q 1497 4750 2381 4750 
Q 2619 4750 2861 4703 
Q 3103 4656 3366 4563 
z
" transform="scale(0.015625)"/>
       </defs>
       <use xlink:href="#DejaVuSans-30"/>
       <use xlink:href="#DejaVuSans-2e" x="63.623047"/>
       <use xlink:href="#DejaVuSans-36" x="95.410156"/>
      </g>
     </g>
    </g>
    <g id="ytick_5">
     <g id="line2d_10">
      <g>
       <use xlink:href="#m1bcb8ab7c1" x="90" y="136.945887" style="stroke: #000000; stroke-width: 0.8"/>
      </g>
     </g>
     <g id="text_10">
      <!-- 0.8 -->
      <g transform="translate(46.422812 145.68409) scale(0.23 -0.23)">
       <defs>
        <path id="DejaVuSans-38" d="M 2034 2216 
Q 1584 2216 1326 1975 
Q 1069 1734 1069 1313 
Q 1069 891 1326 650 
Q 1584 409 2034 409 
Q 2484 409 2743 651 
Q 3003 894 3003 1313 
Q 3003 1734 2745 1975 
Q 2488 2216 2034 2216 
z
M 1403 2484 
Q 997 2584 770 2862 
Q 544 3141 544 3541 
Q 544 4100 942 4425 
Q 1341 4750 2034 4750 
Q 2731 4750 3128 4425 
Q 3525 4100 3525 3541 
Q 3525 3141 3298 2862 
Q 3072 2584 2669 2484 
Q 3125 2378 3379 2068 
Q 3634 1759 3634 1313 
Q 3634 634 3220 271 
Q 2806 -91 2034 -91 
Q 1263 -91 848 271 
Q 434 634 434 1313 
Q 434 1759 690 2068 
Q 947 2378 1403 2484 
z
M 1172 3481 
Q 1172 3119 1398 2916 
Q 1625 2713 2034 2713 
Q 2441 2713 2670 2916 
Q 2900 3119 2900 3481 
Q 2900 3844 2670 4047 
Q 2441 4250 2034 4250 
Q 1625 4250 1398 4047 
Q 1172 3844 1172 3481 
z
" transform="scale(0.015625)"/>
       </defs>
       <use xlink:href="#DejaVuSans-30"/>
       <use xlink:href="#DejaVuSans-2e" x="63.623047"/>
       <use xlink:href="#DejaVuSans-38" x="95.410156"/>
      </g>
     </g>
    </g>
    <g id="ytick_6">
     <g id="line2d_11">
      <g>
       <use xlink:href="#m1bcb8ab7c1" x="90" y="96.556056" style="stroke: #000000; stroke-width: 0.8"/>
      </g>
     </g>
     <g id="text_11">
      <!-- 1.0 -->
      <g transform="translate(46.422812 105.294259) scale(0.23 -0.23)">
       <defs>
        <path id="DejaVuSans-31" d="M 794 531 
L 1825 531 
L 1825 4091 
L 703 3866 
L 703 4441 
L 1819 4666 
L 2450 4666 
L 2450 531 
L 3481 531 
L 3481 0 
L 794 0 
L 794 531 
z
" transform="scale(0.015625)"/>
       </defs>
       <use xlink:href="#DejaVuSans-31"/>
       <use xlink:href="#DejaVuSans-2e" x="63.623047"/>
       <use xlink:href="#DejaVuSans-30" x="95.410156"/>
      </g>
     </g>
    </g>
    <g id="ytick_7">
     <g id="line2d_12">
      <g>
       <use xlink:href="#m1bcb8ab7c1" x="90" y="56.166225" style="stroke: #000000; stroke-width: 0.8"/>
      </g>
     </g>
     <g id="text_12">
      <!-- 1.2 -->
      <g transform="translate(46.422812 64.904428) scale(0.23 -0.23)">
       <use xlink:href="#DejaVuSans-31"/>
       <use xlink:href="#DejaVuSans-2e" x="63.623047"/>
       <use xlink:href="#DejaVuSans-32" x="95.410156"/>
      </g>
     </g>
    </g>
   </g>
   <g id="line2d_13">
    <path d="M 145.8 298.50521 
L 145.8 83.408571 
" clip-path="url(#p71fa45410c)" style="fill: none; stroke: #666666; stroke-linecap: square"/>
   </g>
   <g id="line2d_14">
    <path d="M 145.8 241.040805 
L 145.8 177.279163 
" clip-path="url(#p71fa45410c)" style="fill: none; stroke: #666666; stroke-width: 3; stroke-linecap: square"/>
   </g>
   <g id="line2d_15">
    <path d="M 257.4 297.064883 
L 257.4 199.412524 
" clip-path="url(#p71fa45410c)" style="fill: none; stroke: #666666; stroke-linecap: square"/>
   </g>
   <g id="line2d_16">
    <path d="M 257.4 274.646753 
L 257.4 244.214931 
" clip-path="url(#p71fa45410c)" style="fill: none; stroke: #666666; stroke-width: 3; stroke-linecap: square"/>
   </g>
   <g id="line2d_17">
    <path d="M 369 297.988518 
L 369 236.084781 
" clip-path="url(#p71fa45410c)" style="fill: none; stroke: #666666; stroke-linecap: square"/>
   </g>
   <g id="line2d_18">
    <path d="M 369 283.396073 
L 369 264.438906 
" clip-path="url(#p71fa45410c)" style="fill: none; stroke: #666666; stroke-width: 3; stroke-linecap: square"/>
   </g>
   <g id="line2d_19">
    <path d="M 480.6 293.270741 
L 480.6 95.509489 
" clip-path="url(#p71fa45410c)" style="fill: none; stroke: #666666; stroke-linecap: square"/>
   </g>
   <g id="line2d_20">
    <path d="M 480.6 232.605156 
L 480.6 176.046733 
" clip-path="url(#p71fa45410c)" style="fill: none; stroke: #666666; stroke-width: 3; stroke-linecap: square"/>
   </g>
   <g id="line2d_21">
    <path d="M 592.2 295.373081 
L 592.2 109.725554 
" clip-path="url(#p71fa45410c)" style="fill: none; stroke: #666666; stroke-linecap: square"/>
   </g>
   <g id="line2d_22">
    <path d="M 592.2 236.164274 
L 592.2 184.261992 
" clip-path="url(#p71fa45410c)" style="fill: none; stroke: #666666; stroke-width: 3; stroke-linecap: square"/>
   </g>
   <g id="patch_3">
    <path d="M 90 320.4 
L 90 43.2 
" style="fill: none; stroke: #000000; stroke-width: 0.8; stroke-linejoin: miter; stroke-linecap: square"/>
   </g>
   <g id="patch_4">
    <path d="M 648 320.4 
L 648 43.2 
" style="fill: none; stroke: #000000; stroke-width: 0.8; stroke-linejoin: miter; stroke-linecap: square"/>
   </g>
   <g id="patch_5">
    <path d="M 90 320.4 
L 648 320.4 
" style="fill: none; stroke: #000000; stroke-width: 0.8; stroke-linejoin: miter; stroke-linecap: square"/>
   </g>
   <g id="patch_6">
    <path d="M 90 43.2 
L 648 43.2 
" style="fill: none; stroke: #000000; stroke-width: 0.8; stroke-linejoin: miter; stroke-linecap: square"/>
   </g>
   <g id="PathCollection_1">
    <defs>
     <path id="m498c446886" d="M 0 1 
C 0.265203 1 0.51958 0.894634 0.707107 0.707107 
C 0.894634 0.51958 1 0.265203 1 0 
C 1 -0.265203 0.894634 -0.51958 0.707107 -0.707107 
C 0.51958 -0.894634 0.265203 -1 0 -1 
C -0.265203 -1 -0.51958 -0.894634 -0.707107 -0.707107 
C -0.894634 -0.51958 -1 -0.265203 -1 0 
C -1 0.265203 -0.894634 0.51958 -0.707107 0.707107 
C -0.51958 0.894634 -0.265203 1 0 1 
z
" style="stroke: #666666"/>
    </defs>
    <g clip-path="url(#p71fa45410c)">
     <use xlink:href="#m498c446886" x="145.8" y="209.521325" style="fill: #ffffff; stroke: #666666"/>
    </g>
   </g>
   <g id="PathCollection_2">
    <g clip-path="url(#p71fa45410c)">
     <use xlink:href="#m498c446886" x="257.4" y="261.535149" style="fill: #ffffff; stroke: #666666"/>
    </g>
   </g>
   <g id="PathCollection_3">
    <g clip-path="url(#p71fa45410c)">
     <use xlink:href="#m498c446886" x="369" y="274.61551" style="fill: #ffffff; stroke: #666666"/>
    </g>
   </g>
   <g id="PathCollection_4">
    <g clip-path="url(#p71fa45410c)">
     <use xlink:href="#m498c446886" x="480.6" y="202.028917" style="fill: #ffffff; stroke: #666666"/>
    </g>
   </g>
   <g id="PathCollection_5">
    <g clip-path="url(#p71fa45410c)">
     <use xlink:href="#m498c446886" x="592.2" y="209.401896" style="fill: #ffffff; stroke: #666666"/>
    </g>
   </g>
   <g id="text_13">
    <!-- Hydrophobic moment -->
    <g transform="translate(222.645234 37.2) scale(0.27 -0.27)">
     <defs>
      <path id="DejaVuSans-48" d="M 628 4666 
L 1259 4666 
L 1259 2753 
L 3553 2753 
L 3553 4666 
L 4184 4666 
L 4184 0 
L 3553 0 
L 3553 2222 
L 1259 2222 
L 1259 0 
L 628 0 
L 628 4666 
z
" transform="scale(0.015625)"/>
      <path id="DejaVuSans-79" d="M 2059 -325 
Q 1816 -950 1584 -1140 
Q 1353 -1331 966 -1331 
L 506 -1331 
L 506 -850 
L 844 -850 
Q 1081 -850 1212 -737 
Q 1344 -625 1503 -206 
L 1606 56 
L 191 3500 
L 800 3500 
L 1894 763 
L 2988 3500 
L 3597 3500 
L 2059 -325 
z
" transform="scale(0.015625)"/>
      <path id="DejaVuSans-70" d="M 1159 525 
L 1159 -1331 
L 581 -1331 
L 581 3500 
L 1159 3500 
L 1159 2969 
Q 1341 3281 1617 3432 
Q 1894 3584 2278 3584 
Q 2916 3584 3314 3078 
Q 3713 2572 3713 1747 
Q 3713 922 3314 415 
Q 2916 -91 2278 -91 
Q 1894 -91 1617 61 
Q 1341 213 1159 525 
z
M 3116 1747 
Q 3116 2381 2855 2742 
Q 2594 3103 2138 3103 
Q 1681 3103 1420 2742 
Q 1159 2381 1159 1747 
Q 1159 1113 1420 752 
Q 1681 391 2138 391 
Q 2594 391 2855 752 
Q 3116 1113 3116 1747 
z
" transform="scale(0.015625)"/>
      <path id="DejaVuSans-68" d="M 3513 2113 
L 3513 0 
L 2938 0 
L 2938 2094 
Q 2938 2591 2744 2837 
Q 2550 3084 2163 3084 
Q 1697 3084 1428 2787 
Q 1159 2491 1159 1978 
L 1159 0 
L 581 0 
L 581 4863 
L 1159 4863 
L 1159 2956 
Q 1366 3272 1645 3428 
Q 1925 3584 2291 3584 
Q 2894 3584 3203 3211 
Q 3513 2838 3513 2113 
z
" transform="scale(0.015625)"/>
      <path id="DejaVuSans-62" d="M 3116 1747 
Q 3116 2381 2855 2742 
Q 2594 3103 2138 3103 
Q 1681 3103 1420 2742 
Q 1159 2381 1159 1747 
Q 1159 1113 1420 752 
Q 1681 391 2138 391 
Q 2594 391 2855 752 
Q 3116 1113 3116 1747 
z
M 1159 2969 
Q 1341 3281 1617 3432 
Q 1894 3584 2278 3584 
Q 2916 3584 3314 3078 
Q 3713 2572 3713 1747 
Q 3713 922 3314 415 
Q 2916 -91 2278 -91 
Q 1894 -91 1617 61 
Q 1341 213 1159 525 
L 1159 0 
L 581 0 
L 581 4863 
L 1159 4863 
L 1159 2969 
z
" transform="scale(0.015625)"/>
      <path id="DejaVuSans-63" d="M 3122 3366 
L 3122 2828 
Q 2878 2963 2633 3030 
Q 2388 3097 2138 3097 
Q 1578 3097 1268 2742 
Q 959 2388 959 1747 
Q 959 1106 1268 751 
Q 1578 397 2138 397 
Q 2388 397 2633 464 
Q 2878 531 3122 666 
L 3122 134 
Q 2881 22 2623 -34 
Q 2366 -91 2075 -91 
Q 1284 -91 818 406 
Q 353 903 353 1747 
Q 353 2603 823 3093 
Q 1294 3584 2113 3584 
Q 2378 3584 2631 3529 
Q 2884 3475 3122 3366 
z
" transform="scale(0.015625)"/>
      <path id="DejaVuSans-20" transform="scale(0.015625)"/>
     </defs>
     <use xlink:href="#DejaVuSans-48"/>
     <use xlink:href="#DejaVuSans-79" x="75.195312"/>
     <use xlink:href="#DejaVuSans-64" x="134.375"/>
     <use xlink:href="#DejaVuSans-72" x="197.851562"/>
     <use xlink:href="#DejaVuSans-6f" x="236.714844"/>
     <use xlink:href="#DejaVuSans-70" x="297.896484"/>
     <use xlink:href="#DejaVuSans-68" x="361.373047"/>
     <use xlink:href="#DejaVuSans-6f" x="424.751953"/>
     <use xlink:href="#DejaVuSans-62" x="485.933594"/>
     <use xlink:href="#DejaVuSans-69" x="549.410156"/>
     <use xlink:href="#DejaVuSans-63" x="577.193359"/>
     <use xlink:href="#DejaVuSans-20" x="632.173828"/>
     <use xlink:href="#DejaVuSans-6d" x="663.960938"/>
     <use xlink:href="#DejaVuSans-6f" x="761.373047"/>
     <use xlink:href="#DejaVuSans-6d" x="822.554688"/>
     <use xlink:href="#DejaVuSans-65" x="919.966797"/>
     <use xlink:href="#DejaVuSans-6e" x="981.490234"/>
     <use xlink:href="#DejaVuSans-74" x="1044.869141"/>
    </g>
   </g>
  </g>
 </g>
 <defs>
  <clipPath id="p71fa45410c">
   <rect x="90" y="43.2" width="558" height="277.2"/>
  </clipPath>
 </defs>
</svg>
