<?xml version="1.0" encoding="utf-8" standalone="no"?>
<!DOCTYPE svg PUBLIC "-//W3C//DTD SVG 1.1//EN"
  "http://www.w3.org/Graphics/SVG/1.1/DTD/svg11.dtd">
<svg xmlns:xlink="http://www.w3.org/1999/xlink" width="720pt" height="360pt" viewBox="0 0 720 360" xmlns="http://www.w3.org/2000/svg" version="1.1">
 <metadata>
  <rdf:RDF xmlns:dc="http://purl.org/dc/elements/1.1/" xmlns:cc="http://creativecommons.org/ns#" xmlns:rdf="http://www.w3.org/1999/02/22-rdf-syntax-ns#">
   <cc:Work>
    <dc:type rdf:resource="http://purl.org/dc/dcmitype/StillImage"/>
    <dc:date>2023-09-12T11:11:13.505450</dc:date>
    <dc:format>image/svg+xml</dc:format>
    <dc:creator>
     <cc:Agent>
      <dc:title>Matplotlib v3.7.1, https://matplotlib.org/</dc:title>
     </cc:Agent>
    </dc:creator>
   </cc:Work>
  </rdf:RDF>
 </metadata>
 <defs>
  <style type="text/css">*{stroke-linejoin: round; stroke-linecap: butt}</style>
 </defs>
 <g id="figure_1">
  <g id="patch_1">
   <path d="M 0 360 
L 720 360 
L 720 0 
L 0 0 
L 0 360 
z
" style="fill: none"/>
  </g>
  <g id="axes_1">
   <g id="patch_2">
    <path d="M 90 320.4 
L 648 320.4 
L 648 43.2 
L 90 43.2 
L 90 320.4 
z
" style="fill: none"/>
   </g>
   <g id="PolyCollection_1">
    <defs>
     <path id="m8d75e87065" d="M 145.877563 -69.52688 
L 145.722437 -69.52688 
L 145.696152 -71.888883 
L 145.675707 -74.250885 
L 145.665664 -76.612888 
L 145.665947 -78.97489 
L 145.671014 -81.336893 
L 145.672235 -83.698895 
L 145.662128 -86.060898 
L 145.637752 -88.422901 
L 145.601201 -90.784903 
L 145.557284 -93.146906 
L 145.510186 -95.508908 
L 145.46117 -97.870911 
L 145.408187 -100.232913 
L 145.347008 -102.594916 
L 145.273001 -104.956918 
L 145.182923 -107.318921 
L 145.076626 -109.680923 
L 144.958691 -112.042926 
L 144.839656 -114.404928 
L 144.735416 -116.766931 
L 144.662983 -119.128933 
L 144.632749 -121.490936 
L 144.641093 -123.852939 
L 144.66865 -126.214941 
L 144.686051 -128.576944 
L 144.663211 -130.938946 
L 144.576492 -133.300949 
L 144.411971 -135.662951 
L 144.167672 -138.024954 
L 143.857285 -140.386956 
L 143.51306 -142.748959 
L 143.181736 -145.110961 
L 142.909137 -147.472964 
L 142.716441 -149.834966 
L 142.579195 -152.196969 
L 142.423063 -154.558971 
L 142.144174 -156.920974 
L 141.648842 -159.282976 
L 140.894596 -161.644979 
L 139.910398 -164.006982 
L 138.783187 -166.368984 
L 137.616663 -168.730987 
L 136.485272 -171.092989 
L 135.409827 -173.454992 
L 134.36746 -175.816994 
L 133.325902 -178.178997 
L 132.276137 -180.540999 
L 131.240349 -182.903002 
L 130.252715 -185.265004 
L 129.332751 -187.627007 
L 128.476221 -189.989009 
L 127.67274 -192.351012 
L 126.936003 -194.713014 
L 126.320985 -197.075017 
L 125.910698 -199.43702 
L 125.776001 -201.799022 
L 125.930339 -204.161025 
L 126.304956 -206.523027 
L 126.758411 -208.88503 
L 127.116492 -211.247032 
L 127.225632 -213.609035 
L 126.999018 -215.971037 
L 126.439143 -218.33304 
L 125.631446 -220.695042 
L 124.716174 -223.057045 
L 123.851705 -225.419047 
L 123.17913 -227.78105 
L 122.792502 -230.143052 
L 122.721345 -232.505055 
L 122.937043 -234.867058 
L 123.387735 -237.22906 
L 124.045071 -239.591063 
L 124.93006 -241.953065 
L 126.094508 -244.315068 
L 127.565681 -246.67707 
L 129.290039 -249.039073 
L 131.115652 -251.401075 
L 132.830358 -253.763078 
L 134.239397 -256.12508 
L 135.242223 -258.487083 
L 135.867505 -260.849085 
L 136.249255 -263.211088 
L 136.561405 -265.57309 
L 136.950097 -267.935093 
L 137.497119 -270.297096 
L 138.22099 -272.659098 
L 139.097968 -275.021101 
L 140.081563 -277.383103 
L 141.112482 -279.745106 
L 142.124178 -282.107108 
L 143.051145 -284.469111 
L 143.840827 -286.831113 
L 144.464277 -289.193116 
L 144.920305 -291.555118 
L 145.231258 -293.917121 
L 145.432548 -296.279123 
L 145.560619 -298.641126 
L 145.644147 -301.003128 
L 145.701041 -303.365131 
L 145.898959 -303.365131 
L 145.898959 -303.365131 
L 145.955853 -301.003128 
L 146.039381 -298.641126 
L 146.167452 -296.279123 
L 146.368742 -293.917121 
L 146.679695 -291.555118 
L 147.135723 -289.193116 
L 147.759173 -286.831113 
L 148.548855 -284.469111 
L 149.475822 -282.107108 
L 150.487518 -279.745106 
L 151.518437 -277.383103 
L 152.502032 -275.021101 
L 153.37901 -272.659098 
L 154.102881 -270.297096 
L 154.649903 -267.935093 
L 155.038595 -265.57309 
L 155.350745 -263.211088 
L 155.732495 -260.849085 
L 156.357777 -258.487083 
L 157.360603 -256.12508 
L 158.769642 -253.763078 
L 160.484348 -251.401075 
L 162.309961 -249.039073 
L 164.034319 -246.67707 
L 165.505492 -244.315068 
L 166.66994 -241.953065 
L 167.554929 -239.591063 
L 168.212265 -237.22906 
L 168.662957 -234.867058 
L 168.878655 -232.505055 
L 168.807498 -230.143052 
L 168.42087 -227.78105 
L 167.748295 -225.419047 
L 166.883826 -223.057045 
L 165.968554 -220.695042 
L 165.160857 -218.33304 
L 164.600982 -215.971037 
L 164.374368 -213.609035 
L 164.483508 -211.247032 
L 164.841589 -208.88503 
L 165.295044 -206.523027 
L 165.669661 -204.161025 
L 165.823999 -201.799022 
L 165.689302 -199.43702 
L 165.279015 -197.075017 
L 164.663997 -194.713014 
L 163.92726 -192.351012 
L 163.123779 -189.989009 
L 162.267249 -187.627007 
L 161.347285 -185.265004 
L 160.359651 -182.903002 
L 159.323863 -180.540999 
L 158.274098 -178.178997 
L 157.23254 -175.816994 
L 156.190173 -173.454992 
L 155.114728 -171.092989 
L 153.983337 -168.730987 
L 152.816813 -166.368984 
L 151.689602 -164.006982 
L 150.705404 -161.644979 
L 149.951158 -159.282976 
L 149.455826 -156.920974 
L 149.176937 -154.558971 
L 149.020805 -152.196969 
L 148.883559 -149.834966 
L 148.690863 -147.472964 
L 148.418264 -145.110961 
L 148.08694 -142.748959 
L 147.742715 -140.386956 
L 147.432328 -138.024954 
L 147.188029 -135.662951 
L 147.023508 -133.300949 
L 146.936789 -130.938946 
L 146.913949 -128.576944 
L 146.93135 -126.214941 
L 146.958907 -123.852939 
L 146.967251 -121.490936 
L 146.937017 -119.128933 
L 146.864584 -116.766931 
L 146.760344 -114.404928 
L 146.641309 -112.042926 
L 146.523374 -109.680923 
L 146.417077 -107.318921 
L 146.326999 -104.956918 
L 146.252992 -102.594916 
L 146.191813 -100.232913 
L 146.13883 -97.870911 
L 146.089814 -95.508908 
L 146.042716 -93.146906 
L 145.998799 -90.784903 
L 145.962248 -88.422901 
L 145.937872 -86.060898 
L 145.927765 -83.698895 
L 145.928986 -81.336893 
L 145.934053 -78.97489 
L 145.934336 -76.612888 
L 145.924293 -74.250885 
L 145.903848 -71.888883 
L 145.877563 -69.52688 
z
" style="stroke: #666666"/>
    </defs>
    <g clip-path="url(#p1bc5732121)">
     <use xlink:href="#m8d75e87065" x="0" y="360" style="fill: #96c7c2; stroke: #666666"/>
    </g>
   </g>
   <g id="PolyCollection_2">
    <defs>
     <path id="me16fb752d9" d="M 257.512572 -119.884614 
L 257.287428 -119.884614 
L 257.236687 -121.711463 
L 257.191531 -123.538313 
L 257.1548 -125.365162 
L 257.117109 -127.192012 
L 257.065242 -129.018861 
L 256.997798 -130.845711 
L 256.931898 -132.67256 
L 256.892063 -134.499409 
L 256.889611 -136.326259 
L 256.910076 -138.153108 
L 256.919825 -139.979958 
L 256.887724 -141.806807 
L 256.805575 -143.633657 
L 256.691893 -145.460506 
L 256.576962 -147.287355 
L 256.480246 -149.114205 
L 256.394008 -150.941054 
L 256.283219 -152.767904 
L 256.106979 -154.594753 
L 255.854592 -156.421603 
L 255.568725 -158.248452 
L 255.3244 -160.075301 
L 255.168616 -161.902151 
L 255.07078 -163.729 
L 254.931024 -165.55585 
L 254.641075 -167.382699 
L 254.150123 -169.209549 
L 253.490068 -171.036398 
L 252.743469 -172.863247 
L 251.975547 -174.690097 
L 251.183459 -176.516946 
L 250.305826 -178.343796 
L 249.275174 -180.170645 
L 248.053652 -181.997495 
L 246.628719 -183.824344 
L 245.007963 -185.651193 
L 243.241923 -187.478043 
L 241.434783 -189.304892 
L 239.692807 -191.131742 
L 238.043673 -192.958591 
L 236.417663 -194.78544 
L 234.718322 -196.61229 
L 232.905654 -198.439139 
L 231.008916 -200.265989 
L 229.077171 -202.092838 
L 227.141714 -203.919688 
L 225.231863 -205.746537 
L 223.404627 -207.573386 
L 221.728216 -209.400236 
L 220.23587 -211.227085 
L 218.932347 -213.053935 
L 217.875334 -214.880784 
L 217.235143 -216.707634 
L 217.232033 -218.534483 
L 217.986887 -220.361332 
L 219.428673 -222.188182 
L 221.341877 -224.015031 
L 223.487591 -225.841881 
L 225.684338 -227.66873 
L 227.82474 -229.49558 
L 229.873694 -231.322429 
L 231.857671 -233.149278 
L 233.825226 -234.976128 
L 235.807212 -236.802977 
L 237.819826 -238.629827 
L 239.877347 -240.456676 
L 241.953972 -242.283526 
L 243.930818 -244.110375 
L 245.629996 -245.937224 
L 246.944252 -247.764074 
L 247.93666 -249.590923 
L 248.798114 -251.417773 
L 249.701568 -253.244622 
L 250.696613 -255.071472 
L 251.727532 -256.898321 
L 252.719648 -258.72517 
L 253.629894 -260.55202 
L 254.433348 -262.378869 
L 255.099966 -264.205719 
L 255.607055 -266.032568 
L 255.968381 -267.859418 
L 256.234423 -269.686267 
L 256.45603 -271.513116 
L 256.649567 -273.339966 
L 256.799822 -275.166815 
L 256.89386 -276.993665 
L 256.946448 -278.820514 
L 256.990804 -280.647364 
L 257.048386 -282.474213 
L 257.111746 -284.301062 
L 257.156095 -286.127912 
L 257.164387 -287.954761 
L 257.141585 -289.781611 
L 257.109531 -291.60846 
L 257.092158 -293.43531 
L 257.103905 -295.262159 
L 257.145854 -297.089008 
L 257.207623 -298.915858 
L 257.273017 -300.742707 
L 257.526983 -300.742707 
L 257.526983 -300.742707 
L 257.592377 -298.915858 
L 257.654146 -297.089008 
L 257.696095 -295.262159 
L 257.707842 -293.43531 
L 257.690469 -291.60846 
L 257.658415 -289.781611 
L 257.635613 -287.954761 
L 257.643905 -286.127912 
L 257.688254 -284.301062 
L 257.751614 -282.474213 
L 257.809196 -280.647364 
L 257.853552 -278.820514 
L 257.90614 -276.993665 
L 258.000178 -275.166815 
L 258.150433 -273.339966 
L 258.34397 -271.513116 
L 258.565577 -269.686267 
L 258.831619 -267.859418 
L 259.192945 -266.032568 
L 259.700034 -264.205719 
L 260.366652 -262.378869 
L 261.170106 -260.55202 
L 262.080352 -258.72517 
L 263.072468 -256.898321 
L 264.103387 -255.071472 
L 265.098432 -253.244622 
L 266.001886 -251.417773 
L 266.86334 -249.590923 
L 267.855748 -247.764074 
L 269.170004 -245.937224 
L 270.869182 -244.110375 
L 272.846028 -242.283526 
L 274.922653 -240.456676 
L 276.980174 -238.629827 
L 278.992788 -236.802977 
L 280.974774 -234.976128 
L 282.942329 -233.149278 
L 284.926306 -231.322429 
L 286.97526 -229.49558 
L 289.115662 -227.66873 
L 291.312409 -225.841881 
L 293.458123 -224.015031 
L 295.371327 -222.188182 
L 296.813113 -220.361332 
L 297.567967 -218.534483 
L 297.564857 -216.707634 
L 296.924666 -214.880784 
L 295.867653 -213.053935 
L 294.56413 -211.227085 
L 293.071784 -209.400236 
L 291.395373 -207.573386 
L 289.568137 -205.746537 
L 287.658286 -203.919688 
L 285.722829 -202.092838 
L 283.791084 -200.265989 
L 281.894346 -198.439139 
L 280.081678 -196.61229 
L 278.382337 -194.78544 
L 276.756327 -192.958591 
L 275.107193 -191.131742 
L 273.365217 -189.304892 
L 271.558077 -187.478043 
L 269.792037 -185.651193 
L 268.171281 -183.824344 
L 266.746348 -181.997495 
L 265.524826 -180.170645 
L 264.494174 -178.343796 
L 263.616541 -176.516946 
L 262.824453 -174.690097 
L 262.056531 -172.863247 
L 261.309932 -171.036398 
L 260.649877 -169.209549 
L 260.158925 -167.382699 
L 259.868976 -165.55585 
L 259.72922 -163.729 
L 259.631384 -161.902151 
L 259.4756 -160.075301 
L 259.231275 -158.248452 
L 258.945408 -156.421603 
L 258.693021 -154.594753 
L 258.516781 -152.767904 
L 258.405992 -150.941054 
L 258.319754 -149.114205 
L 258.223038 -147.287355 
L 258.108107 -145.460506 
L 257.994425 -143.633657 
L 257.912276 -141.806807 
L 257.880175 -139.979958 
L 257.889924 -138.153108 
L 257.910389 -136.326259 
L 257.907937 -134.499409 
L 257.868102 -132.67256 
L 257.802202 -130.845711 
L 257.734758 -129.018861 
L 257.682891 -127.192012 
L 257.6452 -125.365162 
L 257.608469 -123.538313 
L 257.563313 -121.711463 
L 257.512572 -119.884614 
z
" style="stroke: #666666"/>
    </defs>
    <g clip-path="url(#p1bc5732121)">
     <use xlink:href="#me16fb752d9" x="0" y="360" style="fill: #eebe8b; stroke: #666666"/>
    </g>
   </g>
   <g id="PolyCollection_3">
    <defs>
     <path id="m894f7b9379" d="M 369.12052 -124.024955 
L 368.87948 -124.024955 
L 368.828173 -125.844905 
L 368.801904 -127.664855 
L 368.815325 -129.484805 
L 368.860783 -131.304755 
L 368.915136 -133.124705 
L 368.958169 -134.944654 
L 368.983326 -136.764604 
L 368.994626 -138.584554 
L 368.998599 -140.404504 
L 368.999704 -142.224454 
L 368.999945 -144.044404 
L 368.999956 -145.864354 
L 368.999763 -147.684304 
L 368.998771 -149.504254 
L 368.994772 -151.324204 
L 368.981759 -153.144154 
L 368.947579 -154.964104 
L 368.875237 -156.784054 
L 368.752329 -158.604004 
L 368.586088 -160.423954 
L 368.410402 -162.243904 
L 368.271825 -164.063854 
L 368.200622 -165.883804 
L 368.189927 -167.703754 
L 368.198536 -169.523704 
L 368.16945 -171.343653 
L 368.046599 -173.163603 
L 367.787178 -174.983553 
L 367.38199 -176.803503 
L 366.880195 -178.623453 
L 366.384556 -180.443403 
L 365.997399 -182.263353 
L 365.758438 -184.083303 
L 365.634797 -185.903253 
L 365.561146 -187.723203 
L 365.474714 -189.543153 
L 365.319076 -191.363103 
L 365.041637 -193.183053 
L 364.607408 -195.003003 
L 364.014786 -196.822953 
L 363.278337 -198.642903 
L 362.365633 -200.462853 
L 361.141437 -202.282803 
L 359.418181 -204.102753 
L 357.129084 -205.922703 
L 354.466007 -207.742653 
L 351.796285 -209.562602 
L 349.405005 -211.382552 
L 347.325768 -213.202502 
L 345.414237 -215.022452 
L 343.531793 -216.842402 
L 341.629049 -218.662352 
L 339.704477 -220.482302 
L 337.767246 -222.302252 
L 335.866183 -224.122202 
L 334.095269 -225.942152 
L 332.503194 -227.762102 
L 331.015641 -229.582052 
L 329.51287 -231.402002 
L 327.979367 -233.221952 
L 326.521684 -235.041902 
L 325.2798 -236.861852 
L 324.446059 -238.681802 
L 324.36 -240.501752 
L 325.384161 -242.321702 
L 327.56797 -244.141652 
L 330.540935 -245.961602 
L 333.828036 -247.781551 
L 337.186794 -249.601501 
L 340.591859 -251.421451 
L 344.032193 -253.241401 
L 347.443685 -255.061351 
L 350.766702 -256.881301 
L 353.944763 -258.701251 
L 356.860404 -260.521201 
L 359.334431 -262.341151 
L 361.213654 -264.161101 
L 362.460931 -265.981051 
L 363.17936 -267.801001 
L 363.566868 -269.620951 
L 363.837648 -271.440901 
L 364.156744 -273.260851 
L 364.609117 -275.080801 
L 365.195723 -276.900751 
L 365.850193 -278.720701 
L 366.475224 -280.540651 
L 366.9895 -282.360601 
L 367.369143 -284.180551 
L 367.658921 -286.0005 
L 367.931662 -287.82045 
L 368.221502 -289.6404 
L 368.49726 -291.46035 
L 368.700769 -293.2803 
L 368.802164 -295.10025 
L 368.820035 -296.9202 
L 368.803299 -298.74015 
L 368.799007 -300.5601 
L 368.827604 -302.38005 
L 368.87939 -304.2 
L 369.12061 -304.2 
L 369.12061 -304.2 
L 369.172396 -302.38005 
L 369.200993 -300.5601 
L 369.196701 -298.74015 
L 369.179965 -296.9202 
L 369.197836 -295.10025 
L 369.299231 -293.2803 
L 369.50274 -291.46035 
L 369.778498 -289.6404 
L 370.068338 -287.82045 
L 370.341079 -286.0005 
L 370.630857 -284.180551 
L 371.0105 -282.360601 
L 371.524776 -280.540651 
L 372.149807 -278.720701 
L 372.804277 -276.900751 
L 373.390883 -275.080801 
L 373.843256 -273.260851 
L 374.162352 -271.440901 
L 374.433132 -269.620951 
L 374.82064 -267.801001 
L 375.539069 -265.981051 
L 376.786346 -264.161101 
L 378.665569 -262.341151 
L 381.139596 -260.521201 
L 384.055237 -258.701251 
L 387.233298 -256.881301 
L 390.556315 -255.061351 
L 393.967807 -253.241401 
L 397.408141 -251.421451 
L 400.813206 -249.601501 
L 404.171964 -247.781551 
L 407.459065 -245.961602 
L 410.43203 -244.141652 
L 412.615839 -242.321702 
L 413.64 -240.501752 
L 413.553941 -238.681802 
L 412.7202 -236.861852 
L 411.478316 -235.041902 
L 410.020633 -233.221952 
L 408.48713 -231.402002 
L 406.984359 -229.582052 
L 405.496806 -227.762102 
L 403.904731 -225.942152 
L 402.133817 -224.122202 
L 400.232754 -222.302252 
L 398.295523 -220.482302 
L 396.370951 -218.662352 
L 394.468207 -216.842402 
L 392.585763 -215.022452 
L 390.674232 -213.202502 
L 388.594995 -211.382552 
L 386.203715 -209.562602 
L 383.533993 -207.742653 
L 380.870916 -205.922703 
L 378.581819 -204.102753 
L 376.858563 -202.282803 
L 375.634367 -200.462853 
L 374.721663 -198.642903 
L 373.985214 -196.822953 
L 373.392592 -195.003003 
L 372.958363 -193.183053 
L 372.680924 -191.363103 
L 372.525286 -189.543153 
L 372.438854 -187.723203 
L 372.365203 -185.903253 
L 372.241562 -184.083303 
L 372.002601 -182.263353 
L 371.615444 -180.443403 
L 371.119805 -178.623453 
L 370.61801 -176.803503 
L 370.212822 -174.983553 
L 369.953401 -173.163603 
L 369.83055 -171.343653 
L 369.801464 -169.523704 
L 369.810073 -167.703754 
L 369.799378 -165.883804 
L 369.728175 -164.063854 
L 369.589598 -162.243904 
L 369.413912 -160.423954 
L 369.247671 -158.604004 
L 369.124763 -156.784054 
L 369.052421 -154.964104 
L 369.018241 -153.144154 
L 369.005228 -151.324204 
L 369.001229 -149.504254 
L 369.000237 -147.684304 
L 369.000044 -145.864354 
L 369.000055 -144.044404 
L 369.000296 -142.224454 
L 369.001401 -140.404504 
L 369.005374 -138.584554 
L 369.016674 -136.764604 
L 369.041831 -134.944654 
L 369.084864 -133.124705 
L 369.139217 -131.304755 
L 369.184675 -129.484805 
L 369.198096 -127.664855 
L 369.171827 -125.844905 
L 369.12052 -124.024955 
z
" style="stroke: #666666"/>
    </defs>
    <g clip-path="url(#p1bc5732121)">
     <use xlink:href="#m894f7b9379" x="0" y="360" style="fill: #e98c80; stroke: #666666"/>
    </g>
   </g>
   <g id="PolyCollection_4">
    <defs>
     <path id="m908897f638" d="M 480.716201 -53.93062 
L 480.483799 -53.93062 
L 480.414491 -56.403822 
L 480.326314 -58.877025 
L 480.226398 -61.350227 
L 480.128643 -63.82343 
L 480.051832 -66.296632 
L 480.013935 -68.769835 
L 480.024097 -71.243037 
L 480.07659 -73.71624 
L 480.15128 -76.189442 
L 480.221735 -78.662645 
L 480.267081 -81.135847 
L 480.281033 -83.60905 
L 480.273084 -86.082252 
L 480.261551 -88.555455 
L 480.262722 -91.028657 
L 480.282202 -93.50186 
L 480.312603 -95.975062 
L 480.337557 -98.448265 
L 480.338471 -100.921467 
L 480.300002 -103.39467 
L 480.212749 -105.867872 
L 480.074619 -108.341074 
L 479.892595 -110.814277 
L 479.684044 -113.287479 
L 479.474277 -115.760682 
L 479.288442 -118.233884 
L 479.140659 -120.707087 
L 479.027054 -123.180289 
L 478.927932 -125.653492 
L 478.818147 -128.126694 
L 478.679133 -130.599897 
L 478.505315 -133.073099 
L 478.301759 -135.546302 
L 478.075473 -138.019504 
L 477.826391 -140.492707 
L 477.544288 -142.965909 
L 477.214234 -145.439112 
L 476.827257 -147.912314 
L 476.388668 -150.385517 
L 475.917948 -152.858719 
L 475.440639 -155.331922 
L 474.978444 -157.805124 
L 474.543576 -160.278327 
L 474.137688 -162.751529 
L 473.750623 -165.224732 
L 473.355889 -167.697934 
L 472.907836 -170.171137 
L 472.350613 -172.644339 
L 471.642267 -175.117542 
L 470.781663 -177.590744 
L 469.816995 -180.063947 
L 468.824674 -182.537149 
L 467.870336 -185.010352 
L 466.97947 -187.483554 
L 466.138415 -189.956757 
L 465.322156 -192.429959 
L 464.524468 -194.903162 
L 463.767024 -197.376364 
L 463.085278 -199.849567 
L 462.508527 -202.322769 
L 462.050412 -204.795972 
L 461.708713 -207.269174 
L 461.46221 -209.742377 
L 461.2605 -212.215579 
L 461.018869 -214.688782 
L 460.634653 -217.161984 
L 460.027513 -219.635187 
L 459.185017 -222.108389 
L 458.184828 -224.581592 
L 457.175845 -227.054794 
L 456.326769 -229.527997 
L 455.771509 -232.001199 
L 455.579106 -234.474402 
L 455.755175 -236.947604 
L 456.263233 -239.420807 
L 457.051478 -241.894009 
L 458.075931 -244.367212 
L 459.312266 -246.840414 
L 460.749902 -249.313617 
L 462.372935 -251.786819 
L 464.145871 -254.260022 
L 466.018341 -256.733224 
L 467.941598 -259.206427 
L 469.875331 -261.679629 
L 471.775104 -264.152832 
L 473.575246 -266.626034 
L 475.190495 -269.099237 
L 476.542508 -271.572439 
L 477.593068 -274.045642 
L 478.359003 -276.518844 
L 478.899175 -278.992047 
L 479.285166 -281.465249 
L 479.575783 -283.938452 
L 479.807355 -286.411654 
L 479.997862 -288.884857 
L 480.155484 -291.358059 
L 480.284474 -293.831262 
L 480.387366 -296.304464 
L 480.465829 -298.777667 
L 480.734171 -298.777667 
L 480.734171 -298.777667 
L 480.812634 -296.304464 
L 480.915526 -293.831262 
L 481.044516 -291.358059 
L 481.202138 -288.884857 
L 481.392645 -286.411654 
L 481.624217 -283.938452 
L 481.914834 -281.465249 
L 482.300825 -278.992047 
L 482.840997 -276.518844 
L 483.606932 -274.045642 
L 484.657492 -271.572439 
L 486.009505 -269.099237 
L 487.624754 -266.626034 
L 489.424896 -264.152832 
L 491.324669 -261.679629 
L 493.258402 -259.206427 
L 495.181659 -256.733224 
L 497.054129 -254.260022 
L 498.827065 -251.786819 
L 500.450098 -249.313617 
L 501.887734 -246.840414 
L 503.124069 -244.367212 
L 504.148522 -241.894009 
L 504.936767 -239.420807 
L 505.444825 -236.947604 
L 505.620894 -234.474402 
L 505.428491 -232.001199 
L 504.873231 -229.527997 
L 504.024155 -227.054794 
L 503.015172 -224.581592 
L 502.014983 -222.108389 
L 501.172487 -219.635187 
L 500.565347 -217.161984 
L 500.181131 -214.688782 
L 499.9395 -212.215579 
L 499.73779 -209.742377 
L 499.491287 -207.269174 
L 499.149588 -204.795972 
L 498.691473 -202.322769 
L 498.114722 -199.849567 
L 497.432976 -197.376364 
L 496.675532 -194.903162 
L 495.877844 -192.429959 
L 495.061585 -189.956757 
L 494.22053 -187.483554 
L 493.329664 -185.010352 
L 492.375326 -182.537149 
L 491.383005 -180.063947 
L 490.418337 -177.590744 
L 489.557733 -175.117542 
L 488.849387 -172.644339 
L 488.292164 -170.171137 
L 487.844111 -167.697934 
L 487.449377 -165.224732 
L 487.062312 -162.751529 
L 486.656424 -160.278327 
L 486.221556 -157.805124 
L 485.759361 -155.331922 
L 485.282052 -152.858719 
L 484.811332 -150.385517 
L 484.372743 -147.912314 
L 483.985766 -145.439112 
L 483.655712 -142.965909 
L 483.373609 -140.492707 
L 483.124527 -138.019504 
L 482.898241 -135.546302 
L 482.694685 -133.073099 
L 482.520867 -130.599897 
L 482.381853 -128.126694 
L 482.272068 -125.653492 
L 482.172946 -123.180289 
L 482.059341 -120.707087 
L 481.911558 -118.233884 
L 481.725723 -115.760682 
L 481.515956 -113.287479 
L 481.307405 -110.814277 
L 481.125381 -108.341074 
L 480.987251 -105.867872 
L 480.899998 -103.39467 
L 480.861529 -100.921467 
L 480.862443 -98.448265 
L 480.887397 -95.975062 
L 480.917798 -93.50186 
L 480.937278 -91.028657 
L 480.938449 -88.555455 
L 480.926916 -86.082252 
L 480.918967 -83.60905 
L 480.932919 -81.135847 
L 480.978265 -78.662645 
L 481.04872 -76.189442 
L 481.12341 -73.71624 
L 481.175903 -71.243037 
L 481.186065 -68.769835 
L 481.148168 -66.296632 
L 481.071357 -63.82343 
L 480.973602 -61.350227 
L 480.873686 -58.877025 
L 480.785509 -56.403822 
L 480.716201 -53.93062 
z
" style="stroke: #666666"/>
    </defs>
    <g clip-path="url(#p1bc5732121)">
     <use xlink:href="#m908897f638" x="0" y="360" style="fill: #8caec8; stroke: #666666"/>
    </g>
   </g>
   <g id="PolyCollection_5">
    <defs>
     <path id="mb58517a021" d="M 592.2915 -52.2 
L 592.1085 -52.2 
L 592.068922 -54.685294 
L 592.0306 -57.170587 
L 592.002223 -59.655881 
L 591.991198 -62.141175 
L 592.000558 -64.626469 
L 592.027555 -67.111762 
L 592.064712 -69.597056 
L 592.102589 -72.08235 
L 592.132612 -74.567644 
L 592.148511 -77.052937 
L 592.146103 -79.538231 
L 592.122373 -82.023525 
L 592.075123 -84.508819 
L 592.003846 -86.994112 
L 591.911385 -89.479406 
L 591.805186 -91.9647 
L 591.696879 -94.449993 
L 591.599662 -96.935287 
L 591.524248 -99.420581 
L 591.475327 -101.905875 
L 591.450425 -104.391168 
L 591.441636 -106.876462 
L 591.438801 -109.361756 
L 591.432187 -111.84705 
L 591.413872 -114.332343 
L 591.37835 -116.817637 
L 591.322903 -119.302931 
L 591.247536 -121.788225 
L 591.154172 -124.273518 
L 591.045422 -126.758812 
L 590.92331 -129.244106 
L 590.787824 -131.729399 
L 590.635405 -134.214693 
L 590.458791 -136.699987 
L 590.249547 -139.185281 
L 590.001792 -141.670574 
L 589.713124 -144.155868 
L 589.380846 -146.641162 
L 588.997279 -149.126456 
L 588.550606 -151.611749 
L 588.033083 -154.097043 
L 587.450456 -156.582337 
L 586.823473 -159.067631 
L 586.17801 -161.552924 
L 585.529893 -164.038218 
L 584.875247 -166.523512 
L 584.193284 -169.008805 
L 583.459619 -171.494099 
L 582.662747 -173.979393 
L 581.817414 -176.464687 
L 580.971655 -178.94998 
L 580.20367 -181.435274 
L 579.603384 -183.920568 
L 579.239706 -186.405862 
L 579.127859 -188.891155 
L 579.218179 -191.376449 
L 579.415809 -193.861743 
L 579.616598 -196.347037 
L 579.731855 -198.83233 
L 579.688329 -201.317624 
L 579.416746 -203.802918 
L 578.853477 -206.288211 
L 577.963353 -208.773505 
L 576.765846 -211.258799 
L 575.339678 -213.744093 
L 573.798914 -216.229386 
L 572.257521 -218.71468 
L 570.807131 -221.199974 
L 569.519884 -223.685268 
L 568.466618 -226.170561 
L 567.727148 -228.655855 
L 567.37488 -231.141149 
L 567.440721 -233.626443 
L 567.883797 -236.111736 
L 568.596506 -238.59703 
L 569.445621 -241.082324 
L 570.32274 -243.567618 
L 571.17351 -246.052911 
L 571.996114 -248.538205 
L 572.821084 -251.023499 
L 573.688458 -253.508792 
L 574.630596 -255.994086 
L 575.663937 -258.47938 
L 576.791686 -260.964674 
L 578.014255 -263.449967 
L 579.336583 -265.935261 
L 580.762312 -268.420555 
L 582.277318 -270.905849 
L 583.837069 -273.391142 
L 585.370552 -275.876436 
L 586.799894 -278.36173 
L 588.063033 -280.847024 
L 589.126819 -283.332317 
L 589.986766 -285.817611 
L 590.658156 -288.302905 
L 591.165683 -290.788198 
L 591.536254 -293.273492 
L 591.795772 -295.758786 
L 591.968354 -298.24408 
L 592.431646 -298.24408 
L 592.431646 -298.24408 
L 592.604228 -295.758786 
L 592.863746 -293.273492 
L 593.234317 -290.788198 
L 593.741844 -288.302905 
L 594.413234 -285.817611 
L 595.273181 -283.332317 
L 596.336967 -280.847024 
L 597.600106 -278.36173 
L 599.029448 -275.876436 
L 600.562931 -273.391142 
L 602.122682 -270.905849 
L 603.637688 -268.420555 
L 605.063417 -265.935261 
L 606.385745 -263.449967 
L 607.608314 -260.964674 
L 608.736063 -258.47938 
L 609.769404 -255.994086 
L 610.711542 -253.508792 
L 611.578916 -251.023499 
L 612.403886 -248.538205 
L 613.22649 -246.052911 
L 614.07726 -243.567618 
L 614.954379 -241.082324 
L 615.803494 -238.59703 
L 616.516203 -236.111736 
L 616.959279 -233.626443 
L 617.02512 -231.141149 
L 616.672852 -228.655855 
L 615.933382 -226.170561 
L 614.880116 -223.685268 
L 613.592869 -221.199974 
L 612.142479 -218.71468 
L 610.601086 -216.229386 
L 609.060322 -213.744093 
L 607.634154 -211.258799 
L 606.436647 -208.773505 
L 605.546523 -206.288211 
L 604.983254 -203.802918 
L 604.711671 -201.317624 
L 604.668145 -198.83233 
L 604.783402 -196.347037 
L 604.984191 -193.861743 
L 605.181821 -191.376449 
L 605.272141 -188.891155 
L 605.160294 -186.405862 
L 604.796616 -183.920568 
L 604.19633 -181.435274 
L 603.428345 -178.94998 
L 602.582586 -176.464687 
L 601.737253 -173.979393 
L 600.940381 -171.494099 
L 600.206716 -169.008805 
L 599.524753 -166.523512 
L 598.870107 -164.038218 
L 598.22199 -161.552924 
L 597.576527 -159.067631 
L 596.949544 -156.582337 
L 596.366917 -154.097043 
L 595.849394 -151.611749 
L 595.402721 -149.126456 
L 595.019154 -146.641162 
L 594.686876 -144.155868 
L 594.398208 -141.670574 
L 594.150453 -139.185281 
L 593.941209 -136.699987 
L 593.764595 -134.214693 
L 593.612176 -131.729399 
L 593.47669 -129.244106 
L 593.354578 -126.758812 
L 593.245828 -124.273518 
L 593.152464 -121.788225 
L 593.077097 -119.302931 
L 593.02165 -116.817637 
L 592.986128 -114.332343 
L 592.967813 -111.84705 
L 592.961199 -109.361756 
L 592.958364 -106.876462 
L 592.949575 -104.391168 
L 592.924673 -101.905875 
L 592.875752 -99.420581 
L 592.800338 -96.935287 
L 592.703121 -94.449993 
L 592.594814 -91.9647 
L 592.488615 -89.479406 
L 592.396154 -86.994112 
L 592.324877 -84.508819 
L 592.277627 -82.023525 
L 592.253897 -79.538231 
L 592.251489 -77.052937 
L 592.267388 -74.567644 
L 592.297411 -72.08235 
L 592.335288 -69.597056 
L 592.372445 -67.111762 
L 592.399442 -64.626469 
L 592.408802 -62.141175 
L 592.397777 -59.655881 
L 592.3694 -57.170587 
L 592.331078 -54.685294 
L 592.2915 -52.2 
z
" style="stroke: #666666"/>
    </defs>
    <g clip-path="url(#p1bc5732121)">
     <use xlink:href="#mb58517a021" x="0" y="360" style="fill: #b2b2ce; stroke: #666666"/>
    </g>
   </g>
   <g id="matplotlib.axis_1">
    <g id="xtick_1">
     <g id="line2d_1">
      <defs>
       <path id="m4b99f07333" d="M 0 0 
L 0 3.5 
" style="stroke: #000000; stroke-width: 0.8"/>
      </defs>
      <g>
       <use xlink:href="#m4b99f07333" x="145.8" y="320.4" style="stroke: #000000; stroke-width: 0.8"/>
      </g>
     </g>
     <g id="text_1">
      <!-- Test -->
      <g transform="translate(124.140313 344.116562) scale(0.22 -0.22)">
       <defs>
        <path id="DejaVuSans-54" d="M -19 4666 
L 3928 4666 
L 3928 4134 
L 2272 4134 
L 2272 0 
L 1638 0 
L 1638 4134 
L -19 4134 
L -19 4666 
z
" transform="scale(0.015625)"/>
        <path id="DejaVuSans-65" d="M 3597 1894 
L 3597 1613 
L 953 1613 
Q 991 1019 1311 708 
Q 1631 397 2203 397 
Q 2534 397 2845 478 
Q 3156 559 3463 722 
L 3463 178 
Q 3153 47 2828 -22 
Q 2503 -91 2169 -91 
Q 1331 -91 842 396 
Q 353 884 353 1716 
Q 353 2575 817 3079 
Q 1281 3584 2069 3584 
Q 2775 3584 3186 3129 
Q 3597 2675 3597 1894 
z
M 3022 2063 
Q 3016 2534 2758 2815 
Q 2500 3097 2075 3097 
Q 1594 3097 1305 2825 
Q 1016 2553 972 2059 
L 3022 2063 
z
" transform="scale(0.015625)"/>
        <path id="DejaVuSans-73" d="M 2834 3397 
L 2834 2853 
Q 2591 2978 2328 3040 
Q 2066 3103 1784 3103 
Q 1356 3103 1142 2972 
Q 928 2841 928 2578 
Q 928 2378 1081 2264 
Q 1234 2150 1697 2047 
L 1894 2003 
Q 2506 1872 2764 1633 
Q 3022 1394 3022 966 
Q 3022 478 2636 193 
Q 2250 -91 1575 -91 
Q 1294 -91 989 -36 
Q 684 19 347 128 
L 347 722 
Q 666 556 975 473 
Q 1284 391 1588 391 
Q 1994 391 2212 530 
Q 2431 669 2431 922 
Q 2431 1156 2273 1281 
Q 2116 1406 1581 1522 
L 1381 1569 
Q 847 1681 609 1914 
Q 372 2147 372 2553 
Q 372 3047 722 3315 
Q 1072 3584 1716 3584 
Q 2034 3584 2315 3537 
Q 2597 3491 2834 3397 
z
" transform="scale(0.015625)"/>
        <path id="DejaVuSans-74" d="M 1172 4494 
L 1172 3500 
L 2356 3500 
L 2356 3053 
L 1172 3053 
L 1172 1153 
Q 1172 725 1289 603 
Q 1406 481 1766 481 
L 2356 481 
L 2356 0 
L 1766 0 
Q 1100 0 847 248 
Q 594 497 594 1153 
L 594 3053 
L 172 3053 
L 172 3500 
L 594 3500 
L 594 4494 
L 1172 4494 
z
" transform="scale(0.015625)"/>
       </defs>
       <use xlink:href="#DejaVuSans-54"/>
       <use xlink:href="#DejaVuSans-65" x="44.083984"/>
       <use xlink:href="#DejaVuSans-73" x="105.607422"/>
       <use xlink:href="#DejaVuSans-74" x="157.707031"/>
      </g>
     </g>
    </g>
    <g id="xtick_2">
     <g id="line2d_2">
      <g>
       <use xlink:href="#m4b99f07333" x="257.4" y="320.4" style="stroke: #000000; stroke-width: 0.8"/>
      </g>
     </g>
     <g id="text_2">
      <!-- Random -->
      <g transform="translate(211.863438 344.116562) scale(0.22 -0.22)">
       <defs>
        <path id="DejaVuSans-52" d="M 2841 2188 
Q 3044 2119 3236 1894 
Q 3428 1669 3622 1275 
L 4263 0 
L 3584 0 
L 2988 1197 
Q 2756 1666 2539 1819 
Q 2322 1972 1947 1972 
L 1259 1972 
L 1259 0 
L 628 0 
L 628 4666 
L 2053 4666 
Q 2853 4666 3247 4331 
Q 3641 3997 3641 3322 
Q 3641 2881 3436 2590 
Q 3231 2300 2841 2188 
z
M 1259 4147 
L 1259 2491 
L 2053 2491 
Q 2509 2491 2742 2702 
Q 2975 2913 2975 3322 
Q 2975 3731 2742 3939 
Q 2509 4147 2053 4147 
L 1259 4147 
z
" transform="scale(0.015625)"/>
        <path id="DejaVuSans-61" d="M 2194 1759 
Q 1497 1759 1228 1600 
Q 959 1441 959 1056 
Q 959 750 1161 570 
Q 1363 391 1709 391 
Q 2188 391 2477 730 
Q 2766 1069 2766 1631 
L 2766 1759 
L 2194 1759 
z
M 3341 1997 
L 3341 0 
L 2766 0 
L 2766 531 
Q 2569 213 2275 61 
Q 1981 -91 1556 -91 
Q 1019 -91 701 211 
Q 384 513 384 1019 
Q 384 1609 779 1909 
Q 1175 2209 1959 2209 
L 2766 2209 
L 2766 2266 
Q 2766 2663 2505 2880 
Q 2244 3097 1772 3097 
Q 1472 3097 1187 3025 
Q 903 2953 641 2809 
L 641 3341 
Q 956 3463 1253 3523 
Q 1550 3584 1831 3584 
Q 2591 3584 2966 3190 
Q 3341 2797 3341 1997 
z
" transform="scale(0.015625)"/>
        <path id="DejaVuSans-6e" d="M 3513 2113 
L 3513 0 
L 2938 0 
L 2938 2094 
Q 2938 2591 2744 2837 
Q 2550 3084 2163 3084 
Q 1697 3084 1428 2787 
Q 1159 2491 1159 1978 
L 1159 0 
L 581 0 
L 581 3500 
L 1159 3500 
L 1159 2956 
Q 1366 3272 1645 3428 
Q 1925 3584 2291 3584 
Q 2894 3584 3203 3211 
Q 3513 2838 3513 2113 
z
" transform="scale(0.015625)"/>
        <path id="DejaVuSans-64" d="M 2906 2969 
L 2906 4863 
L 3481 4863 
L 3481 0 
L 2906 0 
L 2906 525 
Q 2725 213 2448 61 
Q 2172 -91 1784 -91 
Q 1150 -91 751 415 
Q 353 922 353 1747 
Q 353 2572 751 3078 
Q 1150 3584 1784 3584 
Q 2172 3584 2448 3432 
Q 2725 3281 2906 2969 
z
M 947 1747 
Q 947 1113 1208 752 
Q 1469 391 1925 391 
Q 2381 391 2643 752 
Q 2906 1113 2906 1747 
Q 2906 2381 2643 2742 
Q 2381 3103 1925 3103 
Q 1469 3103 1208 2742 
Q 947 2381 947 1747 
z
" transform="scale(0.015625)"/>
        <path id="DejaVuSans-6f" d="M 1959 3097 
Q 1497 3097 1228 2736 
Q 959 2375 959 1747 
Q 959 1119 1226 758 
Q 1494 397 1959 397 
Q 2419 397 2687 759 
Q 2956 1122 2956 1747 
Q 2956 2369 2687 2733 
Q 2419 3097 1959 3097 
z
M 1959 3584 
Q 2709 3584 3137 3096 
Q 3566 2609 3566 1747 
Q 3566 888 3137 398 
Q 2709 -91 1959 -91 
Q 1206 -91 779 398 
Q 353 888 353 1747 
Q 353 2609 779 3096 
Q 1206 3584 1959 3584 
z
" transform="scale(0.015625)"/>
        <path id="DejaVuSans-6d" d="M 3328 2828 
Q 3544 3216 3844 3400 
Q 4144 3584 4550 3584 
Q 5097 3584 5394 3201 
Q 5691 2819 5691 2113 
L 5691 0 
L 5113 0 
L 5113 2094 
Q 5113 2597 4934 2840 
Q 4756 3084 4391 3084 
Q 3944 3084 3684 2787 
Q 3425 2491 3425 1978 
L 3425 0 
L 2847 0 
L 2847 2094 
Q 2847 2600 2669 2842 
Q 2491 3084 2119 3084 
Q 1678 3084 1418 2786 
Q 1159 2488 1159 1978 
L 1159 0 
L 581 0 
L 581 3500 
L 1159 3500 
L 1159 2956 
Q 1356 3278 1631 3431 
Q 1906 3584 2284 3584 
Q 2666 3584 2933 3390 
Q 3200 3197 3328 2828 
z
" transform="scale(0.015625)"/>
       </defs>
       <use xlink:href="#DejaVuSans-52"/>
       <use xlink:href="#DejaVuSans-61" x="67.232422"/>
       <use xlink:href="#DejaVuSans-6e" x="128.511719"/>
       <use xlink:href="#DejaVuSans-64" x="191.890625"/>
       <use xlink:href="#DejaVuSans-6f" x="255.367188"/>
       <use xlink:href="#DejaVuSans-6d" x="316.548828"/>
      </g>
     </g>
    </g>
    <g id="xtick_3">
     <g id="line2d_3">
      <g>
       <use xlink:href="#m4b99f07333" x="369" y="320.4" style="stroke: #000000; stroke-width: 0.8"/>
      </g>
     </g>
     <g id="text_3">
      <!-- Pretrain -->
      <g transform="translate(325.914375 344.116562) scale(0.22 -0.22)">
       <defs>
        <path id="DejaVuSans-50" d="M 1259 4147 
L 1259 2394 
L 2053 2394 
Q 2494 2394 2734 2622 
Q 2975 2850 2975 3272 
Q 2975 3691 2734 3919 
Q 2494 4147 2053 4147 
L 1259 4147 
z
M 628 4666 
L 2053 4666 
Q 2838 4666 3239 4311 
Q 3641 3956 3641 3272 
Q 3641 2581 3239 2228 
Q 2838 1875 2053 1875 
L 1259 1875 
L 1259 0 
L 628 0 
L 628 4666 
z
" transform="scale(0.015625)"/>
        <path id="DejaVuSans-72" d="M 2631 2963 
Q 2534 3019 2420 3045 
Q 2306 3072 2169 3072 
Q 1681 3072 1420 2755 
Q 1159 2438 1159 1844 
L 1159 0 
L 581 0 
L 581 3500 
L 1159 3500 
L 1159 2956 
Q 1341 3275 1631 3429 
Q 1922 3584 2338 3584 
Q 2397 3584 2469 3576 
Q 2541 3569 2628 3553 
L 2631 2963 
z
" transform="scale(0.015625)"/>
        <path id="DejaVuSans-69" d="M 603 3500 
L 1178 3500 
L 1178 0 
L 603 0 
L 603 3500 
z
M 603 4863 
L 1178 4863 
L 1178 4134 
L 603 4134 
L 603 4863 
z
" transform="scale(0.015625)"/>
       </defs>
       <use xlink:href="#DejaVuSans-50"/>
       <use xlink:href="#DejaVuSans-72" x="58.552734"/>
       <use xlink:href="#DejaVuSans-65" x="97.416016"/>
       <use xlink:href="#DejaVuSans-74" x="158.939453"/>
       <use xlink:href="#DejaVuSans-72" x="198.148438"/>
       <use xlink:href="#DejaVuSans-61" x="239.261719"/>
       <use xlink:href="#DejaVuSans-69" x="300.541016"/>
       <use xlink:href="#DejaVuSans-6e" x="328.324219"/>
      </g>
     </g>
    </g>
    <g id="xtick_4">
     <g id="line2d_4">
      <g>
       <use xlink:href="#m4b99f07333" x="480.6" y="320.4" style="stroke: #000000; stroke-width: 0.8"/>
      </g>
     </g>
     <g id="text_4">
      <!-- Finetune -->
      <g transform="translate(433.251875 344.116562) scale(0.22 -0.22)">
       <defs>
        <path id="DejaVuSans-46" d="M 628 4666 
L 3309 4666 
L 3309 4134 
L 1259 4134 
L 1259 2759 
L 3109 2759 
L 3109 2228 
L 1259 2228 
L 1259 0 
L 628 0 
L 628 4666 
z
" transform="scale(0.015625)"/>
        <path id="DejaVuSans-75" d="M 544 1381 
L 544 3500 
L 1119 3500 
L 1119 1403 
Q 1119 906 1312 657 
Q 1506 409 1894 409 
Q 2359 409 2629 706 
Q 2900 1003 2900 1516 
L 2900 3500 
L 3475 3500 
L 3475 0 
L 2900 0 
L 2900 538 
Q 2691 219 2414 64 
Q 2138 -91 1772 -91 
Q 1169 -91 856 284 
Q 544 659 544 1381 
z
M 1991 3584 
L 1991 3584 
z
" transform="scale(0.015625)"/>
       </defs>
       <use xlink:href="#DejaVuSans-46"/>
       <use xlink:href="#DejaVuSans-69" x="50.269531"/>
       <use xlink:href="#DejaVuSans-6e" x="78.052734"/>
       <use xlink:href="#DejaVuSans-65" x="141.431641"/>
       <use xlink:href="#DejaVuSans-74" x="202.955078"/>
       <use xlink:href="#DejaVuSans-75" x="242.164062"/>
       <use xlink:href="#DejaVuSans-6e" x="305.542969"/>
       <use xlink:href="#DejaVuSans-65" x="368.921875"/>
      </g>
     </g>
    </g>
    <g id="xtick_5">
     <g id="line2d_5">
      <g>
       <use xlink:href="#m4b99f07333" x="592.2" y="320.4" style="stroke: #000000; stroke-width: 0.8"/>
      </g>
     </g>
     <g id="text_5">
      <!-- Prefix -->
      <g transform="translate(561.277969 344.116562) scale(0.22 -0.22)">
       <defs>
        <path id="DejaVuSans-66" d="M 2375 4863 
L 2375 4384 
L 1825 4384 
Q 1516 4384 1395 4259 
Q 1275 4134 1275 3809 
L 1275 3500 
L 2222 3500 
L 2222 3053 
L 1275 3053 
L 1275 0 
L 697 0 
L 697 3053 
L 147 3053 
L 147 3500 
L 697 3500 
L 697 3744 
Q 697 4328 969 4595 
Q 1241 4863 1831 4863 
L 2375 4863 
z
" transform="scale(0.015625)"/>
        <path id="DejaVuSans-78" d="M 3513 3500 
L 2247 1797 
L 3578 0 
L 2900 0 
L 1881 1375 
L 863 0 
L 184 0 
L 1544 1831 
L 300 3500 
L 978 3500 
L 1906 2253 
L 2834 3500 
L 3513 3500 
z
" transform="scale(0.015625)"/>
       </defs>
       <use xlink:href="#DejaVuSans-50"/>
       <use xlink:href="#DejaVuSans-72" x="58.552734"/>
       <use xlink:href="#DejaVuSans-65" x="97.416016"/>
       <use xlink:href="#DejaVuSans-66" x="158.939453"/>
       <use xlink:href="#DejaVuSans-69" x="194.144531"/>
       <use xlink:href="#DejaVuSans-78" x="221.927734"/>
      </g>
     </g>
    </g>
   </g>
   <g id="matplotlib.axis_2">
    <g id="ytick_1">
     <g id="line2d_6">
      <defs>
       <path id="m00aef7ce26" d="M 0 0 
L -3.5 0 
" style="stroke: #000000; stroke-width: 0.8"/>
      </defs>
      <g>
       <use xlink:href="#m00aef7ce26" x="90" y="306.354879" style="stroke: #000000; stroke-width: 0.8"/>
      </g>
     </g>
     <g id="text_6">
      <!-- −2.0 -->
      <g transform="translate(27.149531 315.093082) scale(0.23 -0.23)">
       <defs>
        <path id="DejaVuSans-2212" d="M 678 2272 
L 4684 2272 
L 4684 1741 
L 678 1741 
L 678 2272 
z
" transform="scale(0.015625)"/>
        <path id="DejaVuSans-32" d="M 1228 531 
L 3431 531 
L 3431 0 
L 469 0 
L 469 531 
Q 828 903 1448 1529 
Q 2069 2156 2228 2338 
Q 2531 2678 2651 2914 
Q 2772 3150 2772 3378 
Q 2772 3750 2511 3984 
Q 2250 4219 1831 4219 
Q 1534 4219 1204 4116 
Q 875 4013 500 3803 
L 500 4441 
Q 881 4594 1212 4672 
Q 1544 4750 1819 4750 
Q 2544 4750 2975 4387 
Q 3406 4025 3406 3419 
Q 3406 3131 3298 2873 
Q 3191 2616 2906 2266 
Q 2828 2175 2409 1742 
Q 1991 1309 1228 531 
z
" transform="scale(0.015625)"/>
        <path id="DejaVuSans-2e" d="M 684 794 
L 1344 794 
L 1344 0 
L 684 0 
L 684 794 
z
" transform="scale(0.015625)"/>
        <path id="DejaVuSans-30" d="M 2034 4250 
Q 1547 4250 1301 3770 
Q 1056 3291 1056 2328 
Q 1056 1369 1301 889 
Q 1547 409 2034 409 
Q 2525 409 2770 889 
Q 3016 1369 3016 2328 
Q 3016 3291 2770 3770 
Q 2525 4250 2034 4250 
z
M 2034 4750 
Q 2819 4750 3233 4129 
Q 3647 3509 3647 2328 
Q 3647 1150 3233 529 
Q 2819 -91 2034 -91 
Q 1250 -91 836 529 
Q 422 1150 422 2328 
Q 422 3509 836 4129 
Q 1250 4750 2034 4750 
z
" transform="scale(0.015625)"/>
       </defs>
       <use xlink:href="#DejaVuSans-2212"/>
       <use xlink:href="#DejaVuSans-32" x="83.789062"/>
       <use xlink:href="#DejaVuSans-2e" x="147.412109"/>
       <use xlink:href="#DejaVuSans-30" x="179.199219"/>
      </g>
     </g>
    </g>
    <g id="ytick_2">
     <g id="line2d_7">
      <g>
       <use xlink:href="#m00aef7ce26" x="90" y="263.591754" style="stroke: #000000; stroke-width: 0.8"/>
      </g>
     </g>
     <g id="text_7">
      <!-- −1.5 -->
      <g transform="translate(27.149531 272.329957) scale(0.23 -0.23)">
       <defs>
        <path id="DejaVuSans-31" d="M 794 531 
L 1825 531 
L 1825 4091 
L 703 3866 
L 703 4441 
L 1819 4666 
L 2450 4666 
L 2450 531 
L 3481 531 
L 3481 0 
L 794 0 
L 794 531 
z
" transform="scale(0.015625)"/>
        <path id="DejaVuSans-35" d="M 691 4666 
L 3169 4666 
L 3169 4134 
L 1269 4134 
L 1269 2991 
Q 1406 3038 1543 3061 
Q 1681 3084 1819 3084 
Q 2600 3084 3056 2656 
Q 3513 2228 3513 1497 
Q 3513 744 3044 326 
Q 2575 -91 1722 -91 
Q 1428 -91 1123 -41 
Q 819 9 494 109 
L 494 744 
Q 775 591 1075 516 
Q 1375 441 1709 441 
Q 2250 441 2565 725 
Q 2881 1009 2881 1497 
Q 2881 1984 2565 2268 
Q 2250 2553 1709 2553 
Q 1456 2553 1204 2497 
Q 953 2441 691 2322 
L 691 4666 
z
" transform="scale(0.015625)"/>
       </defs>
       <use xlink:href="#DejaVuSans-2212"/>
       <use xlink:href="#DejaVuSans-31" x="83.789062"/>
       <use xlink:href="#DejaVuSans-2e" x="147.412109"/>
       <use xlink:href="#DejaVuSans-35" x="179.199219"/>
      </g>
     </g>
    </g>
    <g id="ytick_3">
     <g id="line2d_8">
      <g>
       <use xlink:href="#m00aef7ce26" x="90" y="220.828629" style="stroke: #000000; stroke-width: 0.8"/>
      </g>
     </g>
     <g id="text_8">
      <!-- −1.0 -->
      <g transform="translate(27.149531 229.566832) scale(0.23 -0.23)">
       <use xlink:href="#DejaVuSans-2212"/>
       <use xlink:href="#DejaVuSans-31" x="83.789062"/>
       <use xlink:href="#DejaVuSans-2e" x="147.412109"/>
       <use xlink:href="#DejaVuSans-30" x="179.199219"/>
      </g>
     </g>
    </g>
    <g id="ytick_4">
     <g id="line2d_9">
      <g>
       <use xlink:href="#m00aef7ce26" x="90" y="178.065504" style="stroke: #000000; stroke-width: 0.8"/>
      </g>
     </g>
     <g id="text_9">
      <!-- −0.5 -->
      <g transform="translate(27.149531 186.803707) scale(0.23 -0.23)">
       <use xlink:href="#DejaVuSans-2212"/>
       <use xlink:href="#DejaVuSans-30" x="83.789062"/>
       <use xlink:href="#DejaVuSans-2e" x="147.412109"/>
       <use xlink:href="#DejaVuSans-35" x="179.199219"/>
      </g>
     </g>
    </g>
    <g id="ytick_5">
     <g id="line2d_10">
      <g>
       <use xlink:href="#m00aef7ce26" x="90" y="135.302379" style="stroke: #000000; stroke-width: 0.8"/>
      </g>
     </g>
     <g id="text_10">
      <!-- 0.0 -->
      <g transform="translate(46.422812 144.040582) scale(0.23 -0.23)">
       <use xlink:href="#DejaVuSans-30"/>
       <use xlink:href="#DejaVuSans-2e" x="63.623047"/>
       <use xlink:href="#DejaVuSans-30" x="95.410156"/>
      </g>
     </g>
    </g>
    <g id="ytick_6">
     <g id="line2d_11">
      <g>
       <use xlink:href="#m00aef7ce26" x="90" y="92.539254" style="stroke: #000000; stroke-width: 0.8"/>
      </g>
     </g>
     <g id="text_11">
      <!-- 0.5 -->
      <g transform="translate(46.422812 101.277457) scale(0.23 -0.23)">
       <use xlink:href="#DejaVuSans-30"/>
       <use xlink:href="#DejaVuSans-2e" x="63.623047"/>
       <use xlink:href="#DejaVuSans-35" x="95.410156"/>
      </g>
     </g>
    </g>
    <g id="ytick_7">
     <g id="line2d_12">
      <g>
       <use xlink:href="#m00aef7ce26" x="90" y="49.776129" style="stroke: #000000; stroke-width: 0.8"/>
      </g>
     </g>
     <g id="text_12">
      <!-- 1.0 -->
      <g transform="translate(46.422812 58.514333) scale(0.23 -0.23)">
       <use xlink:href="#DejaVuSans-31"/>
       <use xlink:href="#DejaVuSans-2e" x="63.623047"/>
       <use xlink:href="#DejaVuSans-30" x="95.410156"/>
      </g>
     </g>
    </g>
   </g>
   <g id="line2d_13">
    <path d="M 145.8 236.793529 
L 145.8 63.460329 
" clip-path="url(#p1bc5732121)" style="fill: none; stroke: #666666; stroke-linecap: square"/>
   </g>
   <g id="line2d_14">
    <path d="M 145.8 166.809083 
L 145.8 119.508023 
" clip-path="url(#p1bc5732121)" style="fill: none; stroke: #666666; stroke-width: 3; stroke-linecap: square"/>
   </g>
   <g id="line2d_15">
    <path d="M 257.4 195.245125 
L 257.4 91.826536 
" clip-path="url(#p1bc5732121)" style="fill: none; stroke: #666666; stroke-linecap: square"/>
   </g>
   <g id="line2d_16">
    <path d="M 257.4 157.899747 
L 257.4 131.171218 
" clip-path="url(#p1bc5732121)" style="fill: none; stroke: #666666; stroke-width: 3; stroke-linecap: square"/>
   </g>
   <g id="line2d_17">
    <path d="M 369 173.466092 
L 369 79.480054 
" clip-path="url(#p1bc5732121)" style="fill: none; stroke: #666666; stroke-linecap: square"/>
   </g>
   <g id="line2d_18">
    <path d="M 369 138.476353 
L 369 114.52132 
" clip-path="url(#p1bc5732121)" style="fill: none; stroke: #666666; stroke-width: 3; stroke-linecap: square"/>
   </g>
   <g id="line2d_19">
    <path d="M 480.6 233.486514 
L 480.6 68.328747 
" clip-path="url(#p1bc5732121)" style="fill: none; stroke: #666666; stroke-linecap: square"/>
   </g>
   <g id="line2d_20">
    <path d="M 480.6 165.501967 
L 480.6 119.8934 
" clip-path="url(#p1bc5732121)" style="fill: none; stroke: #666666; stroke-width: 3; stroke-linecap: square"/>
   </g>
   <g id="line2d_21">
    <path d="M 592.2 238.901676 
L 592.2 68.986641 
" clip-path="url(#p1bc5732121)" style="fill: none; stroke: #666666; stroke-linecap: square"/>
   </g>
   <g id="line2d_22">
    <path d="M 592.2 164.666392 
L 592.2 114.15407 
" clip-path="url(#p1bc5732121)" style="fill: none; stroke: #666666; stroke-width: 3; stroke-linecap: square"/>
   </g>
   <g id="patch_3">
    <path d="M 90 320.4 
L 90 43.2 
" style="fill: none; stroke: #000000; stroke-width: 0.8; stroke-linejoin: miter; stroke-linecap: square"/>
   </g>
   <g id="patch_4">
    <path d="M 648 320.4 
L 648 43.2 
" style="fill: none; stroke: #000000; stroke-width: 0.8; stroke-linejoin: miter; stroke-linecap: square"/>
   </g>
   <g id="patch_5">
    <path d="M 90 320.4 
L 648 320.4 
" style="fill: none; stroke: #000000; stroke-width: 0.8; stroke-linejoin: miter; stroke-linecap: square"/>
   </g>
   <g id="patch_6">
    <path d="M 90 43.2 
L 648 43.2 
" style="fill: none; stroke: #000000; stroke-width: 0.8; stroke-linejoin: miter; stroke-linecap: square"/>
   </g>
   <g id="PathCollection_1">
    <defs>
     <path id="m65bc9366f1" d="M 0 1 
C 0.265203 1 0.51958 0.894634 0.707107 0.707107 
C 0.894634 0.51958 1 0.265203 1 0 
C 1 -0.265203 0.894634 -0.51958 0.707107 -0.707107 
C 0.51958 -0.894634 0.265203 -1 0 -1 
C -0.265203 -1 -0.51958 -0.894634 -0.707107 -0.707107 
C -0.894634 -0.51958 -1 -0.265203 -1 0 
C -1 0.265203 -0.894634 0.51958 -0.707107 0.707107 
C -0.51958 0.894634 -0.265203 1 0 1 
z
" style="stroke: #666666"/>
    </defs>
    <g clip-path="url(#p1bc5732121)">
     <use xlink:href="#m65bc9366f1" x="145.8" y="140.323927" style="fill: #ffffff; stroke: #666666"/>
    </g>
   </g>
   <g id="PathCollection_2">
    <g clip-path="url(#p1bc5732121)">
     <use xlink:href="#m65bc9366f1" x="257.4" y="143.987593" style="fill: #ffffff; stroke: #666666"/>
    </g>
   </g>
   <g id="PathCollection_3">
    <g clip-path="url(#p1bc5732121)">
     <use xlink:href="#m65bc9366f1" x="369" y="125.163955" style="fill: #ffffff; stroke: #666666"/>
    </g>
   </g>
   <g id="PathCollection_4">
    <g clip-path="url(#p1bc5732121)">
     <use xlink:href="#m65bc9366f1" x="480.6" y="139.778253" style="fill: #ffffff; stroke: #666666"/>
    </g>
   </g>
   <g id="PathCollection_5">
    <g clip-path="url(#p1bc5732121)">
     <use xlink:href="#m65bc9366f1" x="592.2" y="134.162029" style="fill: #ffffff; stroke: #666666"/>
    </g>
   </g>
   <g id="text_13">
    <!-- Hydrophobicity -->
    <g transform="translate(266.617266 37.2) scale(0.27 -0.27)">
     <defs>
      <path id="DejaVuSans-48" d="M 628 4666 
L 1259 4666 
L 1259 2753 
L 3553 2753 
L 3553 4666 
L 4184 4666 
L 4184 0 
L 3553 0 
L 3553 2222 
L 1259 2222 
L 1259 0 
L 628 0 
L 628 4666 
z
" transform="scale(0.015625)"/>
      <path id="DejaVuSans-79" d="M 2059 -325 
Q 1816 -950 1584 -1140 
Q 1353 -1331 966 -1331 
L 506 -1331 
L 506 -850 
L 844 -850 
Q 1081 -850 1212 -737 
Q 1344 -625 1503 -206 
L 1606 56 
L 191 3500 
L 800 3500 
L 1894 763 
L 2988 3500 
L 3597 3500 
L 2059 -325 
z
" transform="scale(0.015625)"/>
      <path id="DejaVuSans-70" d="M 1159 525 
L 1159 -1331 
L 581 -1331 
L 581 3500 
L 1159 3500 
L 1159 2969 
Q 1341 3281 1617 3432 
Q 1894 3584 2278 3584 
Q 2916 3584 3314 3078 
Q 3713 2572 3713 1747 
Q 3713 922 3314 415 
Q 2916 -91 2278 -91 
Q 1894 -91 1617 61 
Q 1341 213 1159 525 
z
M 3116 1747 
Q 3116 2381 2855 2742 
Q 2594 3103 2138 3103 
Q 1681 3103 1420 2742 
Q 1159 2381 1159 1747 
Q 1159 1113 1420 752 
Q 1681 391 2138 391 
Q 2594 391 2855 752 
Q 3116 1113 3116 1747 
z
" transform="scale(0.015625)"/>
      <path id="DejaVuSans-68" d="M 3513 2113 
L 3513 0 
L 2938 0 
L 2938 2094 
Q 2938 2591 2744 2837 
Q 2550 3084 2163 3084 
Q 1697 3084 1428 2787 
Q 1159 2491 1159 1978 
L 1159 0 
L 581 0 
L 581 4863 
L 1159 4863 
L 1159 2956 
Q 1366 3272 1645 3428 
Q 1925 3584 2291 3584 
Q 2894 3584 3203 3211 
Q 3513 2838 3513 2113 
z
" transform="scale(0.015625)"/>
      <path id="DejaVuSans-62" d="M 3116 1747 
Q 3116 2381 2855 2742 
Q 2594 3103 2138 3103 
Q 1681 3103 1420 2742 
Q 1159 2381 1159 1747 
Q 1159 1113 1420 752 
Q 1681 391 2138 391 
Q 2594 391 2855 752 
Q 3116 1113 3116 1747 
z
M 1159 2969 
Q 1341 3281 1617 3432 
Q 1894 3584 2278 3584 
Q 2916 3584 3314 3078 
Q 3713 2572 3713 1747 
Q 3713 922 3314 415 
Q 2916 -91 2278 -91 
Q 1894 -91 1617 61 
Q 1341 213 1159 525 
L 1159 0 
L 581 0 
L 581 4863 
L 1159 4863 
L 1159 2969 
z
" transform="scale(0.015625)"/>
      <path id="DejaVuSans-63" d="M 3122 3366 
L 3122 2828 
Q 2878 2963 2633 3030 
Q 2388 3097 2138 3097 
Q 1578 3097 1268 2742 
Q 959 2388 959 1747 
Q 959 1106 1268 751 
Q 1578 397 2138 397 
Q 2388 397 2633 464 
Q 2878 531 3122 666 
L 3122 134 
Q 2881 22 2623 -34 
Q 2366 -91 2075 -91 
Q 1284 -91 818 406 
Q 353 903 353 1747 
Q 353 2603 823 3093 
Q 1294 3584 2113 3584 
Q 2378 3584 2631 3529 
Q 2884 3475 3122 3366 
z
" transform="scale(0.015625)"/>
     </defs>
     <use xlink:href="#DejaVuSans-48"/>
     <use xlink:href="#DejaVuSans-79" x="75.195312"/>
     <use xlink:href="#DejaVuSans-64" x="134.375"/>
     <use xlink:href="#DejaVuSans-72" x="197.851562"/>
     <use xlink:href="#DejaVuSans-6f" x="236.714844"/>
     <use xlink:href="#DejaVuSans-70" x="297.896484"/>
     <use xlink:href="#DejaVuSans-68" x="361.373047"/>
     <use xlink:href="#DejaVuSans-6f" x="424.751953"/>
     <use xlink:href="#DejaVuSans-62" x="485.933594"/>
     <use xlink:href="#DejaVuSans-69" x="549.410156"/>
     <use xlink:href="#DejaVuSans-63" x="577.193359"/>
     <use xlink:href="#DejaVuSans-69" x="632.173828"/>
     <use xlink:href="#DejaVuSans-74" x="659.957031"/>
     <use xlink:href="#DejaVuSans-79" x="699.166016"/>
    </g>
   </g>
  </g>
 </g>
 <defs>
  <clipPath id="p1bc5732121">
   <rect x="90" y="43.2" width="558" height="277.2"/>
  </clipPath>
 </defs>
</svg>
