<?xml version="1.0" encoding="utf-8" standalone="no"?>
<!DOCTYPE svg PUBLIC "-//W3C//DTD SVG 1.1//EN"
  "http://www.w3.org/Graphics/SVG/1.1/DTD/svg11.dtd">
<svg xmlns:xlink="http://www.w3.org/1999/xlink" width="720pt" height="360pt" viewBox="0 0 720 360" xmlns="http://www.w3.org/2000/svg" version="1.1">
 <metadata>
  <rdf:RDF xmlns:dc="http://purl.org/dc/elements/1.1/" xmlns:cc="http://creativecommons.org/ns#" xmlns:rdf="http://www.w3.org/1999/02/22-rdf-syntax-ns#">
   <cc:Work>
    <dc:type rdf:resource="http://purl.org/dc/dcmitype/StillImage"/>
    <dc:date>2023-09-12T11:11:14.624473</dc:date>
    <dc:format>image/svg+xml</dc:format>
    <dc:creator>
     <cc:Agent>
      <dc:title>Matplotlib v3.7.1, https://matplotlib.org/</dc:title>
     </cc:Agent>
    </dc:creator>
   </cc:Work>
  </rdf:RDF>
 </metadata>
 <defs>
  <style type="text/css">*{stroke-linejoin: round; stroke-linecap: butt}</style>
 </defs>
 <g id="figure_1">
  <g id="patch_1">
   <path d="M 0 360 
L 720 360 
L 720 0 
L 0 0 
L 0 360 
z
" style="fill: none"/>
  </g>
  <g id="axes_1">
   <g id="patch_2">
    <path d="M 90 320.4 
L 648 320.4 
L 648 43.2 
L 90 43.2 
L 90 320.4 
z
" style="fill: none"/>
   </g>
   <g id="PolyCollection_1">
    <defs>
     <path id="macdaf96440" d="M 145.920562 -63.515284 
L 145.679438 -63.515284 
L 145.614168 -65.946443 
L 145.54417 -68.377602 
L 145.482598 -70.808761 
L 145.440766 -73.239919 
L 145.422753 -75.671078 
L 145.423228 -78.102237 
L 145.42882 -80.533396 
L 145.421393 -82.964554 
L 145.382205 -85.395713 
L 145.297801 -87.826872 
L 145.168187 -90.25803 
L 145.013949 -92.689189 
L 144.875076 -95.120348 
L 144.796793 -97.551507 
L 144.807761 -99.982665 
L 144.904799 -102.413824 
L 145.055314 -104.844983 
L 145.215084 -107.276142 
L 145.348167 -109.7073 
L 145.437342 -112.138459 
L 145.483454 -114.569618 
L 145.49906 -117.000777 
L 145.501189 -119.431935 
L 145.504774 -121.863094 
L 145.517799 -124.294253 
L 145.540077 -126.725412 
L 145.565974 -129.15657 
L 145.588398 -131.587729 
L 145.601151 -134.018888 
L 145.599375 -136.450047 
L 145.579463 -138.881205 
L 145.53929 -141.312364 
L 145.478943 -143.743523 
L 145.402179 -146.174682 
L 145.317981 -148.60584 
L 145.24037 -151.036999 
L 145.185118 -153.468158 
L 145.164352 -155.899317 
L 145.181727 -158.330475 
L 145.230411 -160.761634 
L 145.2942 -163.192793 
L 145.350415 -165.623952 
L 145.373397 -168.05511 
L 145.339635 -170.486269 
L 145.236608 -172.917428 
L 145.073706 -175.348587 
L 144.887323 -177.779745 
L 144.731442 -180.210904 
L 144.6544 -182.642063 
L 144.675307 -185.073222 
L 144.776435 -187.50438 
L 144.915998 -189.935539 
L 145.050172 -192.366698 
L 145.148799 -194.797856 
L 145.197819 -197.229015 
L 145.191606 -199.660174 
L 145.121303 -202.091333 
L 144.963321 -204.522491 
L 144.672187 -206.95365 
L 144.183795 -209.384809 
L 143.43367 -211.815968 
L 142.388116 -214.247126 
L 141.077369 -216.678285 
L 139.612558 -219.109444 
L 138.165848 -221.540603 
L 136.903456 -223.971761 
L 135.890716 -226.40292 
L 135.02397 -228.834079 
L 134.050209 -231.265238 
L 132.687013 -233.696396 
L 130.777661 -236.127555 
L 128.376465 -238.558714 
L 125.706763 -240.989873 
L 123.03935 -243.421031 
L 120.603811 -245.85219 
L 118.596065 -248.283349 
L 117.228323 -250.714508 
L 116.711972 -253.145666 
L 117.137156 -255.576825 
L 118.338943 -258.007984 
L 119.885147 -260.439143 
L 121.23697 -262.870301 
L 121.998278 -265.30146 
L 122.098648 -267.732619 
L 121.800974 -270.163778 
L 121.545446 -272.594936 
L 121.744589 -275.026095 
L 122.650873 -277.457254 
L 124.334031 -279.888413 
L 126.718791 -282.319571 
L 129.62351 -284.75073 
L 132.788764 -287.181889 
L 135.918322 -289.613048 
L 138.740637 -292.044206 
L 141.068997 -294.475365 
L 142.831223 -296.906524 
L 144.05866 -299.337683 
L 144.847662 -301.768841 
L 145.316338 -304.2 
L 146.283662 -304.2 
L 146.283662 -304.2 
L 146.752338 -301.768841 
L 147.54134 -299.337683 
L 148.768777 -296.906524 
L 150.531003 -294.475365 
L 152.859363 -292.044206 
L 155.681678 -289.613048 
L 158.811236 -287.181889 
L 161.97649 -284.75073 
L 164.881209 -282.319571 
L 167.265969 -279.888413 
L 168.949127 -277.457254 
L 169.855411 -275.026095 
L 170.054554 -272.594936 
L 169.799026 -270.163778 
L 169.501352 -267.732619 
L 169.601722 -265.30146 
L 170.36303 -262.870301 
L 171.714853 -260.439143 
L 173.261057 -258.007984 
L 174.462844 -255.576825 
L 174.888028 -253.145666 
L 174.371677 -250.714508 
L 173.003935 -248.283349 
L 170.996189 -245.85219 
L 168.56065 -243.421031 
L 165.893237 -240.989873 
L 163.223535 -238.558714 
L 160.822339 -236.127555 
L 158.912987 -233.696396 
L 157.549791 -231.265238 
L 156.57603 -228.834079 
L 155.709284 -226.40292 
L 154.696544 -223.971761 
L 153.434152 -221.540603 
L 151.987442 -219.109444 
L 150.522631 -216.678285 
L 149.211884 -214.247126 
L 148.16633 -211.815968 
L 147.416205 -209.384809 
L 146.927813 -206.95365 
L 146.636679 -204.522491 
L 146.478697 -202.091333 
L 146.408394 -199.660174 
L 146.402181 -197.229015 
L 146.451201 -194.797856 
L 146.549828 -192.366698 
L 146.684002 -189.935539 
L 146.823565 -187.50438 
L 146.924693 -185.073222 
L 146.9456 -182.642063 
L 146.868558 -180.210904 
L 146.712677 -177.779745 
L 146.526294 -175.348587 
L 146.363392 -172.917428 
L 146.260365 -170.486269 
L 146.226603 -168.05511 
L 146.249585 -165.623952 
L 146.3058 -163.192793 
L 146.369589 -160.761634 
L 146.418273 -158.330475 
L 146.435648 -155.899317 
L 146.414882 -153.468158 
L 146.35963 -151.036999 
L 146.282019 -148.60584 
L 146.197821 -146.174682 
L 146.121057 -143.743523 
L 146.06071 -141.312364 
L 146.020537 -138.881205 
L 146.000625 -136.450047 
L 145.998849 -134.018888 
L 146.011602 -131.587729 
L 146.034026 -129.15657 
L 146.059923 -126.725412 
L 146.082201 -124.294253 
L 146.095226 -121.863094 
L 146.098811 -119.431935 
L 146.10094 -117.000777 
L 146.116546 -114.569618 
L 146.162658 -112.138459 
L 146.251833 -109.7073 
L 146.384916 -107.276142 
L 146.544686 -104.844983 
L 146.695201 -102.413824 
L 146.792239 -99.982665 
L 146.803207 -97.551507 
L 146.724924 -95.120348 
L 146.586051 -92.689189 
L 146.431813 -90.25803 
L 146.302199 -87.826872 
L 146.217795 -85.395713 
L 146.178607 -82.964554 
L 146.17118 -80.533396 
L 146.176772 -78.102237 
L 146.177247 -75.671078 
L 146.159234 -73.239919 
L 146.117402 -70.808761 
L 146.05583 -68.377602 
L 145.985832 -65.946443 
L 145.920562 -63.515284 
z
" style="stroke: #666666"/>
    </defs>
    <g clip-path="url(#p04b0306dcb)">
     <use xlink:href="#macdaf96440" x="0" y="360" style="fill: #96c7c2; stroke: #666666"/>
    </g>
   </g>
   <g id="PolyCollection_2">
    <defs>
     <path id="mbc17daddd1" d="M 257.509054 -137.851911 
L 257.290946 -137.851911 
L 257.238292 -139.456335 
L 257.191869 -141.060759 
L 257.158821 -142.665183 
L 257.136457 -144.269607 
L 257.117368 -145.874031 
L 257.097049 -147.478455 
L 257.074081 -149.082878 
L 257.044311 -150.687302 
L 256.998437 -152.291726 
L 256.928437 -153.89615 
L 256.839 -155.500574 
L 256.753063 -157.104998 
L 256.7028 -158.709422 
L 256.711359 -160.313846 
L 256.780838 -161.918269 
L 256.894397 -163.522693 
L 257.026093 -165.127117 
L 257.149205 -166.731541 
L 257.240613 -168.335965 
L 257.282943 -169.940389 
L 257.266399 -171.544813 
L 257.192956 -173.149237 
L 257.083122 -174.75366 
L 256.977237 -176.358084 
L 256.921182 -177.962508 
L 256.941027 -179.566932 
L 257.02722 -181.171356 
L 257.143151 -182.77578 
L 257.249746 -184.380204 
L 257.324859 -185.984628 
L 257.365507 -187.589051 
L 257.377537 -189.193475 
L 257.364471 -190.797899 
L 257.324047 -192.402323 
L 257.254812 -194.006747 
L 257.167966 -195.611171 
L 257.092278 -197.215595 
L 257.061549 -198.820019 
L 257.090962 -200.424443 
L 257.164393 -202.028866 
L 257.245589 -203.63329 
L 257.300946 -205.237714 
L 257.312874 -206.842138 
L 257.277632 -208.446562 
L 257.195124 -210.050986 
L 257.056839 -211.65541 
L 256.836063 -213.259834 
L 256.490588 -214.864257 
L 255.986917 -216.468681 
L 255.334684 -218.073105 
L 254.601666 -219.677529 
L 253.893208 -221.281953 
L 253.314859 -222.886377 
L 252.944973 -224.490801 
L 252.810621 -226.095225 
L 252.84787 -227.699648 
L 252.879506 -229.304072 
L 252.673177 -230.908496 
L 252.057497 -232.51292 
L 250.979029 -234.117344 
L 249.454516 -235.721768 
L 247.526281 -237.326192 
L 245.303892 -238.930616 
L 242.993197 -240.53504 
L 240.797662 -242.139463 
L 238.787675 -243.743887 
L 236.917953 -245.348311 
L 235.169903 -246.952735 
L 233.619762 -248.557159 
L 232.340496 -250.161583 
L 231.26401 -251.766007 
L 230.186137 -253.370431 
L 228.941654 -254.974854 
L 227.56333 -256.579278 
L 226.213668 -258.183702 
L 224.937372 -259.788126 
L 223.533531 -261.39255 
L 221.726917 -262.996974 
L 219.459542 -264.601398 
L 216.997021 -266.205822 
L 214.785746 -267.810245 
L 213.259532 -269.414669 
L 212.76 -271.019093 
L 213.520725 -272.623517 
L 215.610019 -274.227941 
L 218.871964 -275.832365 
L 222.970249 -277.436789 
L 227.5221 -279.041213 
L 232.210241 -280.645636 
L 236.802827 -282.25006 
L 241.109802 -283.854484 
L 244.954107 -285.458908 
L 248.201902 -287.063332 
L 250.813869 -288.667756 
L 252.847342 -290.27218 
L 254.399718 -291.876604 
L 255.551961 -293.481028 
L 256.359166 -295.085451 
L 256.874491 -296.689875 
L 257.925509 -296.689875 
L 257.925509 -296.689875 
L 258.440834 -295.085451 
L 259.248039 -293.481028 
L 260.400282 -291.876604 
L 261.952658 -290.27218 
L 263.986131 -288.667756 
L 266.598098 -287.063332 
L 269.845893 -285.458908 
L 273.690198 -283.854484 
L 277.997173 -282.25006 
L 282.589759 -280.645636 
L 287.2779 -279.041213 
L 291.829751 -277.436789 
L 295.928036 -275.832365 
L 299.189981 -274.227941 
L 301.279275 -272.623517 
L 302.04 -271.019093 
L 301.540468 -269.414669 
L 300.014254 -267.810245 
L 297.802979 -266.205822 
L 295.340458 -264.601398 
L 293.073083 -262.996974 
L 291.266469 -261.39255 
L 289.862628 -259.788126 
L 288.586332 -258.183702 
L 287.23667 -256.579278 
L 285.858346 -254.974854 
L 284.613863 -253.370431 
L 283.53599 -251.766007 
L 282.459504 -250.161583 
L 281.180238 -248.557159 
L 279.630097 -246.952735 
L 277.882047 -245.348311 
L 276.012325 -243.743887 
L 274.002338 -242.139463 
L 271.806803 -240.53504 
L 269.496108 -238.930616 
L 267.273719 -237.326192 
L 265.345484 -235.721768 
L 263.820971 -234.117344 
L 262.742503 -232.51292 
L 262.126823 -230.908496 
L 261.920494 -229.304072 
L 261.95213 -227.699648 
L 261.989379 -226.095225 
L 261.855027 -224.490801 
L 261.485141 -222.886377 
L 260.906792 -221.281953 
L 260.198334 -219.677529 
L 259.465316 -218.073105 
L 258.813083 -216.468681 
L 258.309412 -214.864257 
L 257.963937 -213.259834 
L 257.743161 -211.65541 
L 257.604876 -210.050986 
L 257.522368 -208.446562 
L 257.487126 -206.842138 
L 257.499054 -205.237714 
L 257.554411 -203.63329 
L 257.635607 -202.028866 
L 257.709038 -200.424443 
L 257.738451 -198.820019 
L 257.707722 -197.215595 
L 257.632034 -195.611171 
L 257.545188 -194.006747 
L 257.475953 -192.402323 
L 257.435529 -190.797899 
L 257.422463 -189.193475 
L 257.434493 -187.589051 
L 257.475141 -185.984628 
L 257.550254 -184.380204 
L 257.656849 -182.77578 
L 257.77278 -181.171356 
L 257.858973 -179.566932 
L 257.878818 -177.962508 
L 257.822763 -176.358084 
L 257.716878 -174.75366 
L 257.607044 -173.149237 
L 257.533601 -171.544813 
L 257.517057 -169.940389 
L 257.559387 -168.335965 
L 257.650795 -166.731541 
L 257.773907 -165.127117 
L 257.905603 -163.522693 
L 258.019162 -161.918269 
L 258.088641 -160.313846 
L 258.0972 -158.709422 
L 258.046937 -157.104998 
L 257.961 -155.500574 
L 257.871563 -153.89615 
L 257.801563 -152.291726 
L 257.755689 -150.687302 
L 257.725919 -149.082878 
L 257.702951 -147.478455 
L 257.682632 -145.874031 
L 257.663543 -144.269607 
L 257.641179 -142.665183 
L 257.608131 -141.060759 
L 257.561708 -139.456335 
L 257.509054 -137.851911 
z
" style="stroke: #666666"/>
    </defs>
    <g clip-path="url(#p04b0306dcb)">
     <use xlink:href="#mbc17daddd1" x="0" y="360" style="fill: #eebe8b; stroke: #666666"/>
    </g>
   </g>
   <g id="PolyCollection_3">
    <defs>
     <path id="m123ddf8b1c" d="M 369.16905 -52.2 
L 368.83095 -52.2 
L 368.760221 -54.724288 
L 368.6645 -57.248576 
L 368.535448 -59.772863 
L 368.362122 -62.297151 
L 368.130828 -64.821439 
L 367.825575 -67.345727 
L 367.429314 -69.870014 
L 366.92609 -72.394302 
L 366.303948 -74.91859 
L 365.558209 -77.442878 
L 364.694536 -79.967165 
L 363.731065 -82.491453 
L 362.699019 -85.015741 
L 361.641394 -87.540029 
L 360.609714 -90.064316 
L 359.659188 -92.588604 
L 358.842959 -95.112892 
L 358.206267 -97.63718 
L 357.781423 -100.161467 
L 357.584337 -102.685755 
L 357.613102 -105.210043 
L 357.848818 -107.734331 
L 358.25847 -110.258619 
L 358.799325 -112.782906 
L 359.424081 -115.307194 
L 360.085905 -117.831482 
L 360.742612 -120.35577 
L 361.359541 -122.880057 
L 361.911029 -125.404345 
L 362.380717 -127.928633 
L 362.761056 -130.452921 
L 363.052357 -132.977208 
L 363.261565 -135.501496 
L 363.400773 -138.025784 
L 363.485462 -140.550072 
L 363.532508 -143.074359 
L 363.558177 -145.598647 
L 363.57639 -148.122935 
L 363.597571 -150.647223 
L 363.628182 -153.17151 
L 363.67092 -155.695798 
L 363.72534 -158.220086 
L 363.788709 -160.744374 
L 363.856873 -163.268662 
L 363.925085 -165.792949 
L 363.988685 -168.317237 
L 364.043598 -170.841525 
L 364.086532 -173.365813 
L 364.114818 -175.8901 
L 364.125947 -178.414388 
L 364.116957 -180.938676 
L 364.083892 -183.462964 
L 364.021541 -185.987251 
L 363.92346 -188.511539 
L 363.782221 -191.035827 
L 363.589737 -193.560115 
L 363.337632 -196.084402 
L 363.017776 -198.60869 
L 362.623252 -201.132978 
L 362.149905 -203.657266 
L 361.598451 -206.181553 
L 360.976745 -208.705841 
L 360.301545 -211.230129 
L 359.599075 -213.754417 
L 358.903925 -216.278705 
L 358.256216 -218.802992 
L 357.69743 -221.32728 
L 357.265634 -223.851568 
L 356.990906 -226.375856 
L 356.891699 -228.900143 
L 356.972633 -231.424431 
L 357.223966 -233.948719 
L 357.622775 -236.473007 
L 358.135693 -238.997294 
L 358.722894 -241.521582 
L 359.342843 -244.04587 
L 359.957214 -246.570158 
L 360.535257 -249.094445 
L 361.056966 -251.618733 
L 361.51454 -254.143021 
L 361.91194 -256.667309 
L 362.262704 -259.191597 
L 362.586464 -261.715884 
L 362.904879 -264.240172 
L 363.237705 -266.76446 
L 363.599669 -269.288748 
L 363.998545 -271.813035 
L 364.434617 -274.337323 
L 364.901377 -276.861611 
L 365.387164 -279.385899 
L 365.877302 -281.910186 
L 366.356305 -284.434474 
L 366.809805 -286.958762 
L 367.225973 -289.48305 
L 367.596358 -292.007337 
L 367.916167 -294.531625 
L 368.184098 -297.055913 
L 368.401846 -299.580201 
L 368.573431 -302.104488 
L 369.426569 -302.104488 
L 369.426569 -302.104488 
L 369.598154 -299.580201 
L 369.815902 -297.055913 
L 370.083833 -294.531625 
L 370.403642 -292.007337 
L 370.774027 -289.48305 
L 371.190195 -286.958762 
L 371.643695 -284.434474 
L 372.122698 -281.910186 
L 372.612836 -279.385899 
L 373.098623 -276.861611 
L 373.565383 -274.337323 
L 374.001455 -271.813035 
L 374.400331 -269.288748 
L 374.762295 -266.76446 
L 375.095121 -264.240172 
L 375.413536 -261.715884 
L 375.737296 -259.191597 
L 376.08806 -256.667309 
L 376.48546 -254.143021 
L 376.943034 -251.618733 
L 377.464743 -249.094445 
L 378.042786 -246.570158 
L 378.657157 -244.04587 
L 379.277106 -241.521582 
L 379.864307 -238.997294 
L 380.377225 -236.473007 
L 380.776034 -233.948719 
L 381.027367 -231.424431 
L 381.108301 -228.900143 
L 381.009094 -226.375856 
L 380.734366 -223.851568 
L 380.30257 -221.32728 
L 379.743784 -218.802992 
L 379.096075 -216.278705 
L 378.400925 -213.754417 
L 377.698455 -211.230129 
L 377.023255 -208.705841 
L 376.401549 -206.181553 
L 375.850095 -203.657266 
L 375.376748 -201.132978 
L 374.982224 -198.60869 
L 374.662368 -196.084402 
L 374.410263 -193.560115 
L 374.217779 -191.035827 
L 374.07654 -188.511539 
L 373.978459 -185.987251 
L 373.916108 -183.462964 
L 373.883043 -180.938676 
L 373.874053 -178.414388 
L 373.885182 -175.8901 
L 373.913468 -173.365813 
L 373.956402 -170.841525 
L 374.011315 -168.317237 
L 374.074915 -165.792949 
L 374.143127 -163.268662 
L 374.211291 -160.744374 
L 374.27466 -158.220086 
L 374.32908 -155.695798 
L 374.371818 -153.17151 
L 374.402429 -150.647223 
L 374.42361 -148.122935 
L 374.441823 -145.598647 
L 374.467492 -143.074359 
L 374.514538 -140.550072 
L 374.599227 -138.025784 
L 374.738435 -135.501496 
L 374.947643 -132.977208 
L 375.238944 -130.452921 
L 375.619283 -127.928633 
L 376.088971 -125.404345 
L 376.640459 -122.880057 
L 377.257388 -120.35577 
L 377.914095 -117.831482 
L 378.575919 -115.307194 
L 379.200675 -112.782906 
L 379.74153 -110.258619 
L 380.151182 -107.734331 
L 380.386898 -105.210043 
L 380.415663 -102.685755 
L 380.218577 -100.161467 
L 379.793733 -97.63718 
L 379.157041 -95.112892 
L 378.340812 -92.588604 
L 377.390286 -90.064316 
L 376.358606 -87.540029 
L 375.300981 -85.015741 
L 374.268935 -82.491453 
L 373.305464 -79.967165 
L 372.441791 -77.442878 
L 371.696052 -74.91859 
L 371.07391 -72.394302 
L 370.570686 -69.870014 
L 370.174425 -67.345727 
L 369.869172 -64.821439 
L 369.637878 -62.297151 
L 369.464552 -59.772863 
L 369.3355 -57.248576 
L 369.239779 -54.724288 
L 369.16905 -52.2 
z
" style="stroke: #666666"/>
    </defs>
    <g clip-path="url(#p04b0306dcb)">
     <use xlink:href="#m123ddf8b1c" x="0" y="360" style="fill: #e98c80; stroke: #666666"/>
    </g>
   </g>
   <g id="PolyCollection_4">
    <defs>
     <path id="m6dbead61d2" d="M 480.688679 -70.391805 
L 480.511321 -70.391805 
L 480.468643 -72.722375 
L 480.454166 -75.052944 
L 480.478488 -77.383514 
L 480.523037 -79.714084 
L 480.558598 -82.044654 
L 480.567228 -84.375223 
L 480.545454 -86.705793 
L 480.502679 -89.036363 
L 480.463065 -91.366932 
L 480.453249 -93.697502 
L 480.475642 -96.028072 
L 480.501733 -98.358642 
L 480.500079 -100.689211 
L 480.466874 -103.019781 
L 480.425289 -105.350351 
L 480.398163 -107.68092 
L 480.390241 -110.01149 
L 480.397976 -112.34206 
L 480.417739 -114.67263 
L 480.437217 -117.003199 
L 480.441776 -119.333769 
L 480.438127 -121.664339 
L 480.450776 -123.994908 
L 480.489192 -126.325478 
L 480.535475 -128.656048 
L 480.565477 -130.986618 
L 480.566937 -133.317187 
L 480.539511 -135.647757 
L 480.494903 -137.978327 
L 480.458951 -140.308897 
L 480.456174 -142.639466 
L 480.483781 -144.970036 
L 480.51078 -147.300606 
L 480.50863 -149.631175 
L 480.479575 -151.961745 
L 480.454455 -154.292315 
L 480.462037 -156.622885 
L 480.501103 -158.953454 
L 480.546541 -161.284024 
L 480.576754 -163.614594 
L 480.584715 -165.945163 
L 480.565931 -168.275733 
L 480.507626 -170.606303 
L 480.399176 -172.936873 
L 480.257046 -175.267442 
L 480.130451 -177.598012 
L 480.06758 -179.928582 
L 480.074722 -182.259152 
L 480.117184 -184.589721 
L 480.164171 -186.920291 
L 480.221997 -189.250861 
L 480.30722 -191.58143 
L 480.399949 -193.912 
L 480.451076 -196.24257 
L 480.432643 -198.57314 
L 480.368627 -200.903709 
L 480.3186 -203.234279 
L 480.326345 -205.564849 
L 480.374283 -207.895418 
L 480.383676 -210.225988 
L 480.245359 -212.556558 
L 479.841671 -214.887128 
L 479.075056 -217.217697 
L 477.948251 -219.548267 
L 476.669091 -221.878837 
L 475.645557 -224.209406 
L 475.230634 -226.539976 
L 475.326922 -228.870546 
L 475.282124 -231.201116 
L 474.264138 -233.531685 
L 471.739296 -235.862255 
L 467.743642 -238.192825 
L 462.859753 -240.523395 
L 457.784329 -242.853964 
L 452.941238 -245.184534 
L 448.732763 -247.515104 
L 445.849924 -249.845673 
L 444.880432 -252.176243 
L 445.704621 -254.506813 
L 447.522078 -256.837383 
L 449.497662 -259.167952 
L 451.313546 -261.498522 
L 453.069348 -263.829092 
L 454.723318 -266.159661 
L 455.82225 -268.490231 
L 455.945442 -270.820801 
L 455.260227 -273.151371 
L 454.407436 -275.48194 
L 454.042434 -277.81251 
L 454.638935 -280.14308 
L 456.404739 -282.47365 
L 459.218782 -284.804219 
L 462.784778 -287.134789 
L 466.779012 -289.465359 
L 470.787343 -291.795928 
L 474.3187 -294.126498 
L 477.018909 -296.457068 
L 478.810197 -298.787638 
L 479.83403 -301.118207 
L 481.36597 -301.118207 
L 481.36597 -301.118207 
L 482.389803 -298.787638 
L 484.181091 -296.457068 
L 486.8813 -294.126498 
L 490.412657 -291.795928 
L 494.420988 -289.465359 
L 498.415222 -287.134789 
L 501.981218 -284.804219 
L 504.795261 -282.47365 
L 506.561065 -280.14308 
L 507.157566 -277.81251 
L 506.792564 -275.48194 
L 505.939773 -273.151371 
L 505.254558 -270.820801 
L 505.37775 -268.490231 
L 506.476682 -266.159661 
L 508.130652 -263.829092 
L 509.886454 -261.498522 
L 511.702338 -259.167952 
L 513.677922 -256.837383 
L 515.495379 -254.506813 
L 516.319568 -252.176243 
L 515.350076 -249.845673 
L 512.467237 -247.515104 
L 508.258762 -245.184534 
L 503.415671 -242.853964 
L 498.340247 -240.523395 
L 493.456358 -238.192825 
L 489.460704 -235.862255 
L 486.935862 -233.531685 
L 485.917876 -231.201116 
L 485.873078 -228.870546 
L 485.969366 -226.539976 
L 485.554443 -224.209406 
L 484.530909 -221.878837 
L 483.251749 -219.548267 
L 482.124944 -217.217697 
L 481.358329 -214.887128 
L 480.954641 -212.556558 
L 480.816324 -210.225988 
L 480.825717 -207.895418 
L 480.873655 -205.564849 
L 480.8814 -203.234279 
L 480.831373 -200.903709 
L 480.767357 -198.57314 
L 480.748924 -196.24257 
L 480.800051 -193.912 
L 480.89278 -191.58143 
L 480.978003 -189.250861 
L 481.035829 -186.920291 
L 481.082816 -184.589721 
L 481.125278 -182.259152 
L 481.13242 -179.928582 
L 481.069549 -177.598012 
L 480.942954 -175.267442 
L 480.800824 -172.936873 
L 480.692374 -170.606303 
L 480.634069 -168.275733 
L 480.615285 -165.945163 
L 480.623246 -163.614594 
L 480.653459 -161.284024 
L 480.698897 -158.953454 
L 480.737963 -156.622885 
L 480.745545 -154.292315 
L 480.720425 -151.961745 
L 480.69137 -149.631175 
L 480.68922 -147.300606 
L 480.716219 -144.970036 
L 480.743826 -142.639466 
L 480.741049 -140.308897 
L 480.705097 -137.978327 
L 480.660489 -135.647757 
L 480.633063 -133.317187 
L 480.634523 -130.986618 
L 480.664525 -128.656048 
L 480.710808 -126.325478 
L 480.749224 -123.994908 
L 480.761873 -121.664339 
L 480.758224 -119.333769 
L 480.762783 -117.003199 
L 480.782261 -114.67263 
L 480.802024 -112.34206 
L 480.809759 -110.01149 
L 480.801837 -107.68092 
L 480.774711 -105.350351 
L 480.733126 -103.019781 
L 480.699921 -100.689211 
L 480.698267 -98.358642 
L 480.724358 -96.028072 
L 480.746751 -93.697502 
L 480.736935 -91.366932 
L 480.697321 -89.036363 
L 480.654546 -86.705793 
L 480.632772 -84.375223 
L 480.641402 -82.044654 
L 480.676963 -79.714084 
L 480.721512 -77.383514 
L 480.745834 -75.052944 
L 480.731357 -72.722375 
L 480.688679 -70.391805 
z
" style="stroke: #666666"/>
    </defs>
    <g clip-path="url(#p04b0306dcb)">
     <use xlink:href="#m6dbead61d2" x="0" y="360" style="fill: #8caec8; stroke: #666666"/>
    </g>
   </g>
   <g id="PolyCollection_5">
    <defs>
     <path id="mbcb30cc28f" d="M 592.324446 -132.462396 
L 592.075554 -132.462396 
L 592.001541 -134.196431 
L 591.919087 -135.930466 
L 591.845103 -137.664501 
L 591.799575 -139.398536 
L 591.797407 -141.13257 
L 591.838404 -142.866605 
L 591.903038 -144.60064 
L 591.960787 -146.334675 
L 591.986922 -148.06871 
L 591.974513 -149.802745 
L 591.93351 -151.53678 
L 591.881912 -153.270815 
L 591.839019 -155.00485 
L 591.822717 -156.738885 
L 591.845096 -158.47292 
L 591.90521 -160.206955 
L 591.986693 -161.940989 
L 592.065539 -163.675024 
L 592.121649 -165.409059 
L 592.143417 -167.143094 
L 592.12354 -168.877129 
L 592.054581 -170.611164 
L 591.933188 -172.345199 
L 591.77183 -174.079234 
L 591.605725 -175.813269 
L 591.482481 -177.547304 
L 591.437066 -179.281339 
L 591.471396 -181.015373 
L 591.556459 -182.749408 
L 591.654857 -184.483443 
L 591.74392 -186.217478 
L 591.821783 -187.951513 
L 591.896136 -189.685548 
L 591.969281 -191.419583 
L 592.032274 -193.153618 
L 592.070216 -194.887653 
L 592.072223 -196.621688 
L 592.039014 -198.355723 
L 591.98455 -200.089758 
L 591.930553 -201.823792 
L 591.894727 -203.557827 
L 591.877505 -205.291862 
L 591.855914 -207.025897 
L 591.791223 -208.759932 
L 591.647438 -210.493967 
L 591.40698 -212.228002 
L 591.069643 -213.962037 
L 590.635026 -215.696072 
L 590.084365 -217.430107 
L 589.381417 -219.164142 
L 588.504757 -220.898177 
L 587.50473 -222.632211 
L 586.538532 -224.366246 
L 585.81133 -226.100281 
L 585.412991 -227.834316 
L 585.16501 -229.568351 
L 584.624151 -231.302386 
L 583.26346 -233.036421 
L 580.722332 -234.770456 
L 577.013834 -236.504491 
L 572.604759 -238.238526 
L 568.269076 -239.972561 
L 564.711296 -241.706596 
L 562.204967 -243.44063 
L 560.55938 -245.174665 
L 559.409267 -246.9087 
L 558.50532 -248.642735 
L 557.78824 -250.37677 
L 557.332176 -252.110805 
L 557.297446 -253.84484 
L 557.879682 -255.578875 
L 559.20632 -257.31291 
L 561.236342 -259.046945 
L 563.748769 -260.78098 
L 566.414273 -262.515015 
L 568.881577 -264.249049 
L 570.846742 -265.983084 
L 572.122288 -267.717119 
L 572.698474 -269.451154 
L 572.733845 -271.185189 
L 572.44434 -272.919224 
L 571.981375 -274.653259 
L 571.428085 -276.387294 
L 570.905019 -278.121329 
L 570.635584 -279.855364 
L 570.874437 -281.589399 
L 571.768979 -283.323433 
L 573.288332 -285.057468 
L 575.26809 -286.791503 
L 577.508759 -288.525538 
L 579.83953 -290.259573 
L 582.119754 -291.993608 
L 584.223543 -293.727643 
L 586.056683 -295.461678 
L 587.590678 -297.195713 
L 588.859211 -298.929748 
L 589.907651 -300.663783 
L 590.749754 -302.397818 
L 591.374982 -304.131852 
L 593.025018 -304.131852 
L 593.025018 -304.131852 
L 593.650246 -302.397818 
L 594.492349 -300.663783 
L 595.540789 -298.929748 
L 596.809322 -297.195713 
L 598.343317 -295.461678 
L 600.176457 -293.727643 
L 602.280246 -291.993608 
L 604.56047 -290.259573 
L 606.891241 -288.525538 
L 609.13191 -286.791503 
L 611.111668 -285.057468 
L 612.631021 -283.323433 
L 613.525563 -281.589399 
L 613.764416 -279.855364 
L 613.494981 -278.121329 
L 612.971915 -276.387294 
L 612.418625 -274.653259 
L 611.95566 -272.919224 
L 611.666155 -271.185189 
L 611.701526 -269.451154 
L 612.277712 -267.717119 
L 613.553258 -265.983084 
L 615.518423 -264.249049 
L 617.985727 -262.515015 
L 620.651231 -260.78098 
L 623.163658 -259.046945 
L 625.19368 -257.31291 
L 626.520318 -255.578875 
L 627.102554 -253.84484 
L 627.067824 -252.110805 
L 626.61176 -250.37677 
L 625.89468 -248.642735 
L 624.990733 -246.9087 
L 623.84062 -245.174665 
L 622.195033 -243.44063 
L 619.688704 -241.706596 
L 616.130924 -239.972561 
L 611.795241 -238.238526 
L 607.386166 -236.504491 
L 603.677668 -234.770456 
L 601.13654 -233.036421 
L 599.775849 -231.302386 
L 599.23499 -229.568351 
L 598.987009 -227.834316 
L 598.58867 -226.100281 
L 597.861468 -224.366246 
L 596.89527 -222.632211 
L 595.895243 -220.898177 
L 595.018583 -219.164142 
L 594.315635 -217.430107 
L 593.764974 -215.696072 
L 593.330357 -213.962037 
L 592.99302 -212.228002 
L 592.752562 -210.493967 
L 592.608777 -208.759932 
L 592.544086 -207.025897 
L 592.522495 -205.291862 
L 592.505273 -203.557827 
L 592.469447 -201.823792 
L 592.41545 -200.089758 
L 592.360986 -198.355723 
L 592.327777 -196.621688 
L 592.329784 -194.887653 
L 592.367726 -193.153618 
L 592.430719 -191.419583 
L 592.503864 -189.685548 
L 592.578217 -187.951513 
L 592.65608 -186.217478 
L 592.745143 -184.483443 
L 592.843541 -182.749408 
L 592.928604 -181.015373 
L 592.962934 -179.281339 
L 592.917519 -177.547304 
L 592.794275 -175.813269 
L 592.62817 -174.079234 
L 592.466812 -172.345199 
L 592.345419 -170.611164 
L 592.27646 -168.877129 
L 592.256583 -167.143094 
L 592.278351 -165.409059 
L 592.334461 -163.675024 
L 592.413307 -161.940989 
L 592.49479 -160.206955 
L 592.554904 -158.47292 
L 592.577283 -156.738885 
L 592.560981 -155.00485 
L 592.518088 -153.270815 
L 592.46649 -151.53678 
L 592.425487 -149.802745 
L 592.413078 -148.06871 
L 592.439213 -146.334675 
L 592.496962 -144.60064 
L 592.561596 -142.866605 
L 592.602593 -141.13257 
L 592.600425 -139.398536 
L 592.554897 -137.664501 
L 592.480913 -135.930466 
L 592.398459 -134.196431 
L 592.324446 -132.462396 
z
" style="stroke: #666666"/>
    </defs>
    <g clip-path="url(#p04b0306dcb)">
     <use xlink:href="#mbcb30cc28f" x="0" y="360" style="fill: #b2b2ce; stroke: #666666"/>
    </g>
   </g>
   <g id="matplotlib.axis_1">
    <g id="xtick_1">
     <g id="line2d_1">
      <defs>
       <path id="m2573e12c85" d="M 0 0 
L 0 3.5 
" style="stroke: #000000; stroke-width: 0.8"/>
      </defs>
      <g>
       <use xlink:href="#m2573e12c85" x="145.8" y="320.4" style="stroke: #000000; stroke-width: 0.8"/>
      </g>
     </g>
     <g id="text_1">
      <!-- Test -->
      <g transform="translate(124.140313 344.116562) scale(0.22 -0.22)">
       <defs>
        <path id="DejaVuSans-54" d="M -19 4666 
L 3928 4666 
L 3928 4134 
L 2272 4134 
L 2272 0 
L 1638 0 
L 1638 4134 
L -19 4134 
L -19 4666 
z
" transform="scale(0.015625)"/>
        <path id="DejaVuSans-65" d="M 3597 1894 
L 3597 1613 
L 953 1613 
Q 991 1019 1311 708 
Q 1631 397 2203 397 
Q 2534 397 2845 478 
Q 3156 559 3463 722 
L 3463 178 
Q 3153 47 2828 -22 
Q 2503 -91 2169 -91 
Q 1331 -91 842 396 
Q 353 884 353 1716 
Q 353 2575 817 3079 
Q 1281 3584 2069 3584 
Q 2775 3584 3186 3129 
Q 3597 2675 3597 1894 
z
M 3022 2063 
Q 3016 2534 2758 2815 
Q 2500 3097 2075 3097 
Q 1594 3097 1305 2825 
Q 1016 2553 972 2059 
L 3022 2063 
z
" transform="scale(0.015625)"/>
        <path id="DejaVuSans-73" d="M 2834 3397 
L 2834 2853 
Q 2591 2978 2328 3040 
Q 2066 3103 1784 3103 
Q 1356 3103 1142 2972 
Q 928 2841 928 2578 
Q 928 2378 1081 2264 
Q 1234 2150 1697 2047 
L 1894 2003 
Q 2506 1872 2764 1633 
Q 3022 1394 3022 966 
Q 3022 478 2636 193 
Q 2250 -91 1575 -91 
Q 1294 -91 989 -36 
Q 684 19 347 128 
L 347 722 
Q 666 556 975 473 
Q 1284 391 1588 391 
Q 1994 391 2212 530 
Q 2431 669 2431 922 
Q 2431 1156 2273 1281 
Q 2116 1406 1581 1522 
L 1381 1569 
Q 847 1681 609 1914 
Q 372 2147 372 2553 
Q 372 3047 722 3315 
Q 1072 3584 1716 3584 
Q 2034 3584 2315 3537 
Q 2597 3491 2834 3397 
z
" transform="scale(0.015625)"/>
        <path id="DejaVuSans-74" d="M 1172 4494 
L 1172 3500 
L 2356 3500 
L 2356 3053 
L 1172 3053 
L 1172 1153 
Q 1172 725 1289 603 
Q 1406 481 1766 481 
L 2356 481 
L 2356 0 
L 1766 0 
Q 1100 0 847 248 
Q 594 497 594 1153 
L 594 3053 
L 172 3053 
L 172 3500 
L 594 3500 
L 594 4494 
L 1172 4494 
z
" transform="scale(0.015625)"/>
       </defs>
       <use xlink:href="#DejaVuSans-54"/>
       <use xlink:href="#DejaVuSans-65" x="44.083984"/>
       <use xlink:href="#DejaVuSans-73" x="105.607422"/>
       <use xlink:href="#DejaVuSans-74" x="157.707031"/>
      </g>
     </g>
    </g>
    <g id="xtick_2">
     <g id="line2d_2">
      <g>
       <use xlink:href="#m2573e12c85" x="257.4" y="320.4" style="stroke: #000000; stroke-width: 0.8"/>
      </g>
     </g>
     <g id="text_2">
      <!-- Random -->
      <g transform="translate(211.863438 344.116562) scale(0.22 -0.22)">
       <defs>
        <path id="DejaVuSans-52" d="M 2841 2188 
Q 3044 2119 3236 1894 
Q 3428 1669 3622 1275 
L 4263 0 
L 3584 0 
L 2988 1197 
Q 2756 1666 2539 1819 
Q 2322 1972 1947 1972 
L 1259 1972 
L 1259 0 
L 628 0 
L 628 4666 
L 2053 4666 
Q 2853 4666 3247 4331 
Q 3641 3997 3641 3322 
Q 3641 2881 3436 2590 
Q 3231 2300 2841 2188 
z
M 1259 4147 
L 1259 2491 
L 2053 2491 
Q 2509 2491 2742 2702 
Q 2975 2913 2975 3322 
Q 2975 3731 2742 3939 
Q 2509 4147 2053 4147 
L 1259 4147 
z
" transform="scale(0.015625)"/>
        <path id="DejaVuSans-61" d="M 2194 1759 
Q 1497 1759 1228 1600 
Q 959 1441 959 1056 
Q 959 750 1161 570 
Q 1363 391 1709 391 
Q 2188 391 2477 730 
Q 2766 1069 2766 1631 
L 2766 1759 
L 2194 1759 
z
M 3341 1997 
L 3341 0 
L 2766 0 
L 2766 531 
Q 2569 213 2275 61 
Q 1981 -91 1556 -91 
Q 1019 -91 701 211 
Q 384 513 384 1019 
Q 384 1609 779 1909 
Q 1175 2209 1959 2209 
L 2766 2209 
L 2766 2266 
Q 2766 2663 2505 2880 
Q 2244 3097 1772 3097 
Q 1472 3097 1187 3025 
Q 903 2953 641 2809 
L 641 3341 
Q 956 3463 1253 3523 
Q 1550 3584 1831 3584 
Q 2591 3584 2966 3190 
Q 3341 2797 3341 1997 
z
" transform="scale(0.015625)"/>
        <path id="DejaVuSans-6e" d="M 3513 2113 
L 3513 0 
L 2938 0 
L 2938 2094 
Q 2938 2591 2744 2837 
Q 2550 3084 2163 3084 
Q 1697 3084 1428 2787 
Q 1159 2491 1159 1978 
L 1159 0 
L 581 0 
L 581 3500 
L 1159 3500 
L 1159 2956 
Q 1366 3272 1645 3428 
Q 1925 3584 2291 3584 
Q 2894 3584 3203 3211 
Q 3513 2838 3513 2113 
z
" transform="scale(0.015625)"/>
        <path id="DejaVuSans-64" d="M 2906 2969 
L 2906 4863 
L 3481 4863 
L 3481 0 
L 2906 0 
L 2906 525 
Q 2725 213 2448 61 
Q 2172 -91 1784 -91 
Q 1150 -91 751 415 
Q 353 922 353 1747 
Q 353 2572 751 3078 
Q 1150 3584 1784 3584 
Q 2172 3584 2448 3432 
Q 2725 3281 2906 2969 
z
M 947 1747 
Q 947 1113 1208 752 
Q 1469 391 1925 391 
Q 2381 391 2643 752 
Q 2906 1113 2906 1747 
Q 2906 2381 2643 2742 
Q 2381 3103 1925 3103 
Q 1469 3103 1208 2742 
Q 947 2381 947 1747 
z
" transform="scale(0.015625)"/>
        <path id="DejaVuSans-6f" d="M 1959 3097 
Q 1497 3097 1228 2736 
Q 959 2375 959 1747 
Q 959 1119 1226 758 
Q 1494 397 1959 397 
Q 2419 397 2687 759 
Q 2956 1122 2956 1747 
Q 2956 2369 2687 2733 
Q 2419 3097 1959 3097 
z
M 1959 3584 
Q 2709 3584 3137 3096 
Q 3566 2609 3566 1747 
Q 3566 888 3137 398 
Q 2709 -91 1959 -91 
Q 1206 -91 779 398 
Q 353 888 353 1747 
Q 353 2609 779 3096 
Q 1206 3584 1959 3584 
z
" transform="scale(0.015625)"/>
        <path id="DejaVuSans-6d" d="M 3328 2828 
Q 3544 3216 3844 3400 
Q 4144 3584 4550 3584 
Q 5097 3584 5394 3201 
Q 5691 2819 5691 2113 
L 5691 0 
L 5113 0 
L 5113 2094 
Q 5113 2597 4934 2840 
Q 4756 3084 4391 3084 
Q 3944 3084 3684 2787 
Q 3425 2491 3425 1978 
L 3425 0 
L 2847 0 
L 2847 2094 
Q 2847 2600 2669 2842 
Q 2491 3084 2119 3084 
Q 1678 3084 1418 2786 
Q 1159 2488 1159 1978 
L 1159 0 
L 581 0 
L 581 3500 
L 1159 3500 
L 1159 2956 
Q 1356 3278 1631 3431 
Q 1906 3584 2284 3584 
Q 2666 3584 2933 3390 
Q 3200 3197 3328 2828 
z
" transform="scale(0.015625)"/>
       </defs>
       <use xlink:href="#DejaVuSans-52"/>
       <use xlink:href="#DejaVuSans-61" x="67.232422"/>
       <use xlink:href="#DejaVuSans-6e" x="128.511719"/>
       <use xlink:href="#DejaVuSans-64" x="191.890625"/>
       <use xlink:href="#DejaVuSans-6f" x="255.367188"/>
       <use xlink:href="#DejaVuSans-6d" x="316.548828"/>
      </g>
     </g>
    </g>
    <g id="xtick_3">
     <g id="line2d_3">
      <g>
       <use xlink:href="#m2573e12c85" x="369" y="320.4" style="stroke: #000000; stroke-width: 0.8"/>
      </g>
     </g>
     <g id="text_3">
      <!-- Pretrain -->
      <g transform="translate(325.914375 344.116562) scale(0.22 -0.22)">
       <defs>
        <path id="DejaVuSans-50" d="M 1259 4147 
L 1259 2394 
L 2053 2394 
Q 2494 2394 2734 2622 
Q 2975 2850 2975 3272 
Q 2975 3691 2734 3919 
Q 2494 4147 2053 4147 
L 1259 4147 
z
M 628 4666 
L 2053 4666 
Q 2838 4666 3239 4311 
Q 3641 3956 3641 3272 
Q 3641 2581 3239 2228 
Q 2838 1875 2053 1875 
L 1259 1875 
L 1259 0 
L 628 0 
L 628 4666 
z
" transform="scale(0.015625)"/>
        <path id="DejaVuSans-72" d="M 2631 2963 
Q 2534 3019 2420 3045 
Q 2306 3072 2169 3072 
Q 1681 3072 1420 2755 
Q 1159 2438 1159 1844 
L 1159 0 
L 581 0 
L 581 3500 
L 1159 3500 
L 1159 2956 
Q 1341 3275 1631 3429 
Q 1922 3584 2338 3584 
Q 2397 3584 2469 3576 
Q 2541 3569 2628 3553 
L 2631 2963 
z
" transform="scale(0.015625)"/>
        <path id="DejaVuSans-69" d="M 603 3500 
L 1178 3500 
L 1178 0 
L 603 0 
L 603 3500 
z
M 603 4863 
L 1178 4863 
L 1178 4134 
L 603 4134 
L 603 4863 
z
" transform="scale(0.015625)"/>
       </defs>
       <use xlink:href="#DejaVuSans-50"/>
       <use xlink:href="#DejaVuSans-72" x="58.552734"/>
       <use xlink:href="#DejaVuSans-65" x="97.416016"/>
       <use xlink:href="#DejaVuSans-74" x="158.939453"/>
       <use xlink:href="#DejaVuSans-72" x="198.148438"/>
       <use xlink:href="#DejaVuSans-61" x="239.261719"/>
       <use xlink:href="#DejaVuSans-69" x="300.541016"/>
       <use xlink:href="#DejaVuSans-6e" x="328.324219"/>
      </g>
     </g>
    </g>
    <g id="xtick_4">
     <g id="line2d_4">
      <g>
       <use xlink:href="#m2573e12c85" x="480.6" y="320.4" style="stroke: #000000; stroke-width: 0.8"/>
      </g>
     </g>
     <g id="text_4">
      <!-- Finetune -->
      <g transform="translate(433.251875 344.116562) scale(0.22 -0.22)">
       <defs>
        <path id="DejaVuSans-46" d="M 628 4666 
L 3309 4666 
L 3309 4134 
L 1259 4134 
L 1259 2759 
L 3109 2759 
L 3109 2228 
L 1259 2228 
L 1259 0 
L 628 0 
L 628 4666 
z
" transform="scale(0.015625)"/>
        <path id="DejaVuSans-75" d="M 544 1381 
L 544 3500 
L 1119 3500 
L 1119 1403 
Q 1119 906 1312 657 
Q 1506 409 1894 409 
Q 2359 409 2629 706 
Q 2900 1003 2900 1516 
L 2900 3500 
L 3475 3500 
L 3475 0 
L 2900 0 
L 2900 538 
Q 2691 219 2414 64 
Q 2138 -91 1772 -91 
Q 1169 -91 856 284 
Q 544 659 544 1381 
z
M 1991 3584 
L 1991 3584 
z
" transform="scale(0.015625)"/>
       </defs>
       <use xlink:href="#DejaVuSans-46"/>
       <use xlink:href="#DejaVuSans-69" x="50.269531"/>
       <use xlink:href="#DejaVuSans-6e" x="78.052734"/>
       <use xlink:href="#DejaVuSans-65" x="141.431641"/>
       <use xlink:href="#DejaVuSans-74" x="202.955078"/>
       <use xlink:href="#DejaVuSans-75" x="242.164062"/>
       <use xlink:href="#DejaVuSans-6e" x="305.542969"/>
       <use xlink:href="#DejaVuSans-65" x="368.921875"/>
      </g>
     </g>
    </g>
    <g id="xtick_5">
     <g id="line2d_5">
      <g>
       <use xlink:href="#m2573e12c85" x="592.2" y="320.4" style="stroke: #000000; stroke-width: 0.8"/>
      </g>
     </g>
     <g id="text_5">
      <!-- Prefix -->
      <g transform="translate(561.277969 344.116562) scale(0.22 -0.22)">
       <defs>
        <path id="DejaVuSans-66" d="M 2375 4863 
L 2375 4384 
L 1825 4384 
Q 1516 4384 1395 4259 
Q 1275 4134 1275 3809 
L 1275 3500 
L 2222 3500 
L 2222 3053 
L 1275 3053 
L 1275 0 
L 697 0 
L 697 3053 
L 147 3053 
L 147 3500 
L 697 3500 
L 697 3744 
Q 697 4328 969 4595 
Q 1241 4863 1831 4863 
L 2375 4863 
z
" transform="scale(0.015625)"/>
        <path id="DejaVuSans-78" d="M 3513 3500 
L 2247 1797 
L 3578 0 
L 2900 0 
L 1881 1375 
L 863 0 
L 184 0 
L 1544 1831 
L 300 3500 
L 978 3500 
L 1906 2253 
L 2834 3500 
L 3513 3500 
z
" transform="scale(0.015625)"/>
       </defs>
       <use xlink:href="#DejaVuSans-50"/>
       <use xlink:href="#DejaVuSans-72" x="58.552734"/>
       <use xlink:href="#DejaVuSans-65" x="97.416016"/>
       <use xlink:href="#DejaVuSans-66" x="158.939453"/>
       <use xlink:href="#DejaVuSans-69" x="194.144531"/>
       <use xlink:href="#DejaVuSans-78" x="221.927734"/>
      </g>
     </g>
    </g>
   </g>
   <g id="matplotlib.axis_2">
    <g id="ytick_1">
     <g id="line2d_6">
      <defs>
       <path id="m534bdc338d" d="M 0 0 
L -3.5 0 
" style="stroke: #000000; stroke-width: 0.8"/>
      </defs>
      <g>
       <use xlink:href="#m534bdc338d" x="90" y="303.177853" style="stroke: #000000; stroke-width: 0.8"/>
      </g>
     </g>
     <g id="text_6">
      <!-- 2 -->
      <g transform="translate(68.36625 311.916056) scale(0.23 -0.23)">
       <defs>
        <path id="DejaVuSans-32" d="M 1228 531 
L 3431 531 
L 3431 0 
L 469 0 
L 469 531 
Q 828 903 1448 1529 
Q 2069 2156 2228 2338 
Q 2531 2678 2651 2914 
Q 2772 3150 2772 3378 
Q 2772 3750 2511 3984 
Q 2250 4219 1831 4219 
Q 1534 4219 1204 4116 
Q 875 4013 500 3803 
L 500 4441 
Q 881 4594 1212 4672 
Q 1544 4750 1819 4750 
Q 2544 4750 2975 4387 
Q 3406 4025 3406 3419 
Q 3406 3131 3298 2873 
Q 3191 2616 2906 2266 
Q 2828 2175 2409 1742 
Q 1991 1309 1228 531 
z
" transform="scale(0.015625)"/>
       </defs>
       <use xlink:href="#DejaVuSans-32"/>
      </g>
     </g>
    </g>
    <g id="ytick_2">
     <g id="line2d_7">
      <g>
       <use xlink:href="#m534bdc338d" x="90" y="260.825795" style="stroke: #000000; stroke-width: 0.8"/>
      </g>
     </g>
     <g id="text_7">
      <!-- 4 -->
      <g transform="translate(68.36625 269.563998) scale(0.23 -0.23)">
       <defs>
        <path id="DejaVuSans-34" d="M 2419 4116 
L 825 1625 
L 2419 1625 
L 2419 4116 
z
M 2253 4666 
L 3047 4666 
L 3047 1625 
L 3713 1625 
L 3713 1100 
L 3047 1100 
L 3047 0 
L 2419 0 
L 2419 1100 
L 313 1100 
L 313 1709 
L 2253 4666 
z
" transform="scale(0.015625)"/>
       </defs>
       <use xlink:href="#DejaVuSans-34"/>
      </g>
     </g>
    </g>
    <g id="ytick_3">
     <g id="line2d_8">
      <g>
       <use xlink:href="#m534bdc338d" x="90" y="218.473736" style="stroke: #000000; stroke-width: 0.8"/>
      </g>
     </g>
     <g id="text_8">
      <!-- 6 -->
      <g transform="translate(68.36625 227.21194) scale(0.23 -0.23)">
       <defs>
        <path id="DejaVuSans-36" d="M 2113 2584 
Q 1688 2584 1439 2293 
Q 1191 2003 1191 1497 
Q 1191 994 1439 701 
Q 1688 409 2113 409 
Q 2538 409 2786 701 
Q 3034 994 3034 1497 
Q 3034 2003 2786 2293 
Q 2538 2584 2113 2584 
z
M 3366 4563 
L 3366 3988 
Q 3128 4100 2886 4159 
Q 2644 4219 2406 4219 
Q 1781 4219 1451 3797 
Q 1122 3375 1075 2522 
Q 1259 2794 1537 2939 
Q 1816 3084 2150 3084 
Q 2853 3084 3261 2657 
Q 3669 2231 3669 1497 
Q 3669 778 3244 343 
Q 2819 -91 2113 -91 
Q 1303 -91 875 529 
Q 447 1150 447 2328 
Q 447 3434 972 4092 
Q 1497 4750 2381 4750 
Q 2619 4750 2861 4703 
Q 3103 4656 3366 4563 
z
" transform="scale(0.015625)"/>
       </defs>
       <use xlink:href="#DejaVuSans-36"/>
      </g>
     </g>
    </g>
    <g id="ytick_4">
     <g id="line2d_9">
      <g>
       <use xlink:href="#m534bdc338d" x="90" y="176.121678" style="stroke: #000000; stroke-width: 0.8"/>
      </g>
     </g>
     <g id="text_9">
      <!-- 8 -->
      <g transform="translate(68.36625 184.859881) scale(0.23 -0.23)">
       <defs>
        <path id="DejaVuSans-38" d="M 2034 2216 
Q 1584 2216 1326 1975 
Q 1069 1734 1069 1313 
Q 1069 891 1326 650 
Q 1584 409 2034 409 
Q 2484 409 2743 651 
Q 3003 894 3003 1313 
Q 3003 1734 2745 1975 
Q 2488 2216 2034 2216 
z
M 1403 2484 
Q 997 2584 770 2862 
Q 544 3141 544 3541 
Q 544 4100 942 4425 
Q 1341 4750 2034 4750 
Q 2731 4750 3128 4425 
Q 3525 4100 3525 3541 
Q 3525 3141 3298 2862 
Q 3072 2584 2669 2484 
Q 3125 2378 3379 2068 
Q 3634 1759 3634 1313 
Q 3634 634 3220 271 
Q 2806 -91 2034 -91 
Q 1263 -91 848 271 
Q 434 634 434 1313 
Q 434 1759 690 2068 
Q 947 2378 1403 2484 
z
M 1172 3481 
Q 1172 3119 1398 2916 
Q 1625 2713 2034 2713 
Q 2441 2713 2670 2916 
Q 2900 3119 2900 3481 
Q 2900 3844 2670 4047 
Q 2441 4250 2034 4250 
Q 1625 4250 1398 4047 
Q 1172 3844 1172 3481 
z
" transform="scale(0.015625)"/>
       </defs>
       <use xlink:href="#DejaVuSans-38"/>
      </g>
     </g>
    </g>
    <g id="ytick_5">
     <g id="line2d_10">
      <g>
       <use xlink:href="#m534bdc338d" x="90" y="133.76962" style="stroke: #000000; stroke-width: 0.8"/>
      </g>
     </g>
     <g id="text_10">
      <!-- 10 -->
      <g transform="translate(53.7325 142.507823) scale(0.23 -0.23)">
       <defs>
        <path id="DejaVuSans-31" d="M 794 531 
L 1825 531 
L 1825 4091 
L 703 3866 
L 703 4441 
L 1819 4666 
L 2450 4666 
L 2450 531 
L 3481 531 
L 3481 0 
L 794 0 
L 794 531 
z
" transform="scale(0.015625)"/>
        <path id="DejaVuSans-30" d="M 2034 4250 
Q 1547 4250 1301 3770 
Q 1056 3291 1056 2328 
Q 1056 1369 1301 889 
Q 1547 409 2034 409 
Q 2525 409 2770 889 
Q 3016 1369 3016 2328 
Q 3016 3291 2770 3770 
Q 2525 4250 2034 4250 
z
M 2034 4750 
Q 2819 4750 3233 4129 
Q 3647 3509 3647 2328 
Q 3647 1150 3233 529 
Q 2819 -91 2034 -91 
Q 1250 -91 836 529 
Q 422 1150 422 2328 
Q 422 3509 836 4129 
Q 1250 4750 2034 4750 
z
" transform="scale(0.015625)"/>
       </defs>
       <use xlink:href="#DejaVuSans-31"/>
       <use xlink:href="#DejaVuSans-30" x="63.623047"/>
      </g>
     </g>
    </g>
    <g id="ytick_6">
     <g id="line2d_11">
      <g>
       <use xlink:href="#m534bdc338d" x="90" y="91.417561" style="stroke: #000000; stroke-width: 0.8"/>
      </g>
     </g>
     <g id="text_11">
      <!-- 12 -->
      <g transform="translate(53.7325 100.155765) scale(0.23 -0.23)">
       <use xlink:href="#DejaVuSans-31"/>
       <use xlink:href="#DejaVuSans-32" x="63.623047"/>
      </g>
     </g>
    </g>
    <g id="ytick_7">
     <g id="line2d_12">
      <g>
       <use xlink:href="#m534bdc338d" x="90" y="49.065503" style="stroke: #000000; stroke-width: 0.8"/>
      </g>
     </g>
     <g id="text_12">
      <!-- 14 -->
      <g transform="translate(53.7325 57.803706) scale(0.23 -0.23)">
       <use xlink:href="#DejaVuSans-31"/>
       <use xlink:href="#DejaVuSans-34" x="63.623047"/>
      </g>
     </g>
    </g>
   </g>
   <g id="line2d_13">
    <path d="M 145.8 161.190923 
L 145.8 62.217802 
" clip-path="url(#p04b0306dcb)" style="fill: none; stroke: #666666; stroke-linecap: square"/>
   </g>
   <g id="line2d_14">
    <path d="M 145.8 118.053036 
L 145.8 88.108807 
" clip-path="url(#p04b0306dcb)" style="fill: none; stroke: #666666; stroke-width: 3; stroke-linecap: square"/>
   </g>
   <g id="line2d_15">
    <path d="M 257.4 140.263051 
L 257.4 66.984477 
" clip-path="url(#p04b0306dcb)" style="fill: none; stroke: #666666; stroke-linecap: square"/>
   </g>
   <g id="line2d_16">
    <path d="M 257.4 108.323229 
L 257.4 86.955913 
" clip-path="url(#p04b0306dcb)" style="fill: none; stroke: #666666; stroke-width: 3; stroke-linecap: square"/>
   </g>
   <g id="line2d_17">
    <path d="M 369 295.526358 
L 369 70.169153 
" clip-path="url(#p04b0306dcb)" style="fill: none; stroke: #666666; stroke-linecap: square"/>
   </g>
   <g id="line2d_18">
    <path d="M 369 246.008778 
L 369 127.772502 
" clip-path="url(#p04b0306dcb)" style="fill: none; stroke: #666666; stroke-width: 3; stroke-linecap: square"/>
   </g>
   <g id="line2d_19">
    <path d="M 480.6 143.158211 
L 480.6 63.220769 
" clip-path="url(#p04b0306dcb)" style="fill: none; stroke: #666666; stroke-linecap: square"/>
   </g>
   <g id="line2d_20">
    <path d="M 480.6 111.027102 
L 480.6 85.239496 
" clip-path="url(#p04b0306dcb)" style="fill: none; stroke: #666666; stroke-width: 3; stroke-linecap: square"/>
   </g>
   <g id="line2d_21">
    <path d="M 592.2 145.851744 
L 592.2 60.067112 
" clip-path="url(#p04b0306dcb)" style="fill: none; stroke: #666666; stroke-linecap: square"/>
   </g>
   <g id="line2d_22">
    <path d="M 592.2 113.493158 
L 592.2 86.743946 
" clip-path="url(#p04b0306dcb)" style="fill: none; stroke: #666666; stroke-width: 3; stroke-linecap: square"/>
   </g>
   <g id="patch_3">
    <path d="M 90 320.4 
L 90 43.2 
" style="fill: none; stroke: #000000; stroke-width: 0.8; stroke-linejoin: miter; stroke-linecap: square"/>
   </g>
   <g id="patch_4">
    <path d="M 648 320.4 
L 648 43.2 
" style="fill: none; stroke: #000000; stroke-width: 0.8; stroke-linejoin: miter; stroke-linecap: square"/>
   </g>
   <g id="patch_5">
    <path d="M 90 320.4 
L 648 320.4 
" style="fill: none; stroke: #000000; stroke-width: 0.8; stroke-linejoin: miter; stroke-linecap: square"/>
   </g>
   <g id="patch_6">
    <path d="M 90 43.2 
L 648 43.2 
" style="fill: none; stroke: #000000; stroke-width: 0.8; stroke-linejoin: miter; stroke-linecap: square"/>
   </g>
   <g id="PathCollection_1">
    <defs>
     <path id="mcb25fb9c71" d="M 0 1 
C 0.265203 1 0.51958 0.894634 0.707107 0.707107 
C 0.894634 0.51958 1 0.265203 1 0 
C 1 -0.265203 0.894634 -0.51958 0.707107 -0.707107 
C 0.51958 -0.894634 0.265203 -1 0 -1 
C -0.265203 -1 -0.51958 -0.894634 -0.707107 -0.707107 
C -0.894634 -0.51958 -1 -0.265203 -1 0 
C -1 0.265203 -0.894634 0.51958 -0.707107 0.707107 
C -0.51958 0.894634 -0.265203 1 0 1 
z
" style="stroke: #666666"/>
    </defs>
    <g clip-path="url(#p04b0306dcb)">
     <use xlink:href="#mcb25fb9c71" x="145.8" y="104.673259" style="fill: #ffffff; stroke: #666666"/>
    </g>
   </g>
   <g id="PathCollection_2">
    <g clip-path="url(#p04b0306dcb)">
     <use xlink:href="#mcb25fb9c71" x="257.4" y="95.426841" style="fill: #ffffff; stroke: #666666"/>
    </g>
   </g>
   <g id="PathCollection_3">
    <g clip-path="url(#p04b0306dcb)">
     <use xlink:href="#mcb25fb9c71" x="369" y="174.281183" style="fill: #ffffff; stroke: #666666"/>
    </g>
   </g>
   <g id="PathCollection_4">
    <g clip-path="url(#p04b0306dcb)">
     <use xlink:href="#mcb25fb9c71" x="480.6" y="100.392558" style="fill: #ffffff; stroke: #666666"/>
    </g>
   </g>
   <g id="PathCollection_5">
    <g clip-path="url(#p04b0306dcb)">
     <use xlink:href="#mcb25fb9c71" x="592.2" y="103.008542" style="fill: #ffffff; stroke: #666666"/>
    </g>
   </g>
   <g id="text_13">
    <!-- Isoelectric point -->
    <g transform="translate(261.2025 37.2) scale(0.27 -0.27)">
     <defs>
      <path id="DejaVuSans-49" d="M 628 4666 
L 1259 4666 
L 1259 0 
L 628 0 
L 628 4666 
z
" transform="scale(0.015625)"/>
      <path id="DejaVuSans-6c" d="M 603 4863 
L 1178 4863 
L 1178 0 
L 603 0 
L 603 4863 
z
" transform="scale(0.015625)"/>
      <path id="DejaVuSans-63" d="M 3122 3366 
L 3122 2828 
Q 2878 2963 2633 3030 
Q 2388 3097 2138 3097 
Q 1578 3097 1268 2742 
Q 959 2388 959 1747 
Q 959 1106 1268 751 
Q 1578 397 2138 397 
Q 2388 397 2633 464 
Q 2878 531 3122 666 
L 3122 134 
Q 2881 22 2623 -34 
Q 2366 -91 2075 -91 
Q 1284 -91 818 406 
Q 353 903 353 1747 
Q 353 2603 823 3093 
Q 1294 3584 2113 3584 
Q 2378 3584 2631 3529 
Q 2884 3475 3122 3366 
z
" transform="scale(0.015625)"/>
      <path id="DejaVuSans-20" transform="scale(0.015625)"/>
      <path id="DejaVuSans-70" d="M 1159 525 
L 1159 -1331 
L 581 -1331 
L 581 3500 
L 1159 3500 
L 1159 2969 
Q 1341 3281 1617 3432 
Q 1894 3584 2278 3584 
Q 2916 3584 3314 3078 
Q 3713 2572 3713 1747 
Q 3713 922 3314 415 
Q 2916 -91 2278 -91 
Q 1894 -91 1617 61 
Q 1341 213 1159 525 
z
M 3116 1747 
Q 3116 2381 2855 2742 
Q 2594 3103 2138 3103 
Q 1681 3103 1420 2742 
Q 1159 2381 1159 1747 
Q 1159 1113 1420 752 
Q 1681 391 2138 391 
Q 2594 391 2855 752 
Q 3116 1113 3116 1747 
z
" transform="scale(0.015625)"/>
     </defs>
     <use xlink:href="#DejaVuSans-49"/>
     <use xlink:href="#DejaVuSans-73" x="29.492188"/>
     <use xlink:href="#DejaVuSans-6f" x="81.591797"/>
     <use xlink:href="#DejaVuSans-65" x="142.773438"/>
     <use xlink:href="#DejaVuSans-6c" x="204.296875"/>
     <use xlink:href="#DejaVuSans-65" x="232.080078"/>
     <use xlink:href="#DejaVuSans-63" x="293.603516"/>
     <use xlink:href="#DejaVuSans-74" x="348.583984"/>
     <use xlink:href="#DejaVuSans-72" x="387.792969"/>
     <use xlink:href="#DejaVuSans-69" x="428.90625"/>
     <use xlink:href="#DejaVuSans-63" x="456.689453"/>
     <use xlink:href="#DejaVuSans-20" x="511.669922"/>
     <use xlink:href="#DejaVuSans-70" x="543.457031"/>
     <use xlink:href="#DejaVuSans-6f" x="606.933594"/>
     <use xlink:href="#DejaVuSans-69" x="668.115234"/>
     <use xlink:href="#DejaVuSans-6e" x="695.898438"/>
     <use xlink:href="#DejaVuSans-74" x="759.277344"/>
    </g>
   </g>
  </g>
 </g>
 <defs>
  <clipPath id="p04b0306dcb">
   <rect x="90" y="43.2" width="558" height="277.2"/>
  </clipPath>
 </defs>
</svg>
